<?xml version="1.0" encoding="UTF-8"?>
<svg id="Capa_2" data-name="Capa 2" xmlns="http://www.w3.org/2000/svg" viewBox="0 0 109.23 72.59">
  <defs>
    <style>
      .cls-1 {
        fill: #fff;
      }

      .cls-2 {
        fill: #0d6efd;
      }

      .cls-3 {
        fill: none;
        stroke: #0d6efd;
        stroke-miterlimit: 10;
        stroke-width: 18px;
      }
    </style>
  </defs>
  <g id="Capa_1-2" data-name="Capa 1">
    <polyline class="cls-3" points="8.36 12.36 55.86 59.86 102.86 12.86"/>
    <g>
      <polygon class="cls-1" points="2.12 12.73 12.73 2.12 53.86 43.26 94.5 2.62 105.11 13.23 53.86 64.47 2.12 12.73"/>
      <path class="cls-2" d="M12.73,4.24l39.01,39.02,2.12,2.12,2.12-2.12L94.5,4.74l8.49,8.49-49.12,49.12L4.24,12.73,12.73,4.24M12.73,0L0,12.73l53.86,53.86L107.23,13.23,94.5.5l-40.64,40.64L12.73,0h0Z"/>
    </g>
    <polygon class="cls-2" points="107.23 13.23 109.22 19.23 103.27 16.09 107.23 13.23"/>
    <polygon class="cls-2" points="2.09 18.76 0 12.73 2.25 13.05 7.16 18.02 2.09 18.76"/>
  </g>
</svg>