<?xml version="1.0" encoding="UTF-8"?>
<svg id="Capa_2" data-name="Capa 2" xmlns="http://www.w3.org/2000/svg" viewBox="0 0 484.56 386.59">
  <defs>
    <style>
      .cls-1 {
        fill: #66564f;
      }

      .cls-2 {
        fill: #65544c;
      }

      .cls-3 {
        fill: #625048;
      }

      .cls-4 {
        fill: #62514a;
      }

      .cls-5 {
        fill: #fff;
      }

      .cls-6 {
        fill: #0d6efd;
      }

      .cls-7 {
        fill: #070606;
      }

      .cls-8 {
        fill: #66544c;
      }

      .cls-9 {
        fill: #65544d;
      }

      .cls-10 {
        fill: #685750;
      }

      .cls-11 {
        fill: #63534c;
      }

      .cls-12 {
        fill: #63514a;
      }

      .cls-13 {
        fill: #64524b;
      }

      .cls-14 {
        fill: #06060a;
      }
    </style>
  </defs>
  <g id="Capa_2-2" data-name="Capa 2">
    <g>
      <path class="cls-14" d="M.09,186.38c.13-1.54.9-5.51,1.81-6.7,2.44-3.19,5.3,1.46,6.31,3.5,5.01,10.13,5.17,20.9,16.53,26.64,4.81,2.43,9.52,1.13,11.85-3.85.86-1.85.03-5.99-.05-8.19-.46-12.83-.67-26.09,1.28-38.79,5.54-35.98,16.9-61.23,41.05-88.22,19.44-21.72,40.93-35.26,66.79-48.33C172.56,8.85,205.63,1.4,235.72.49c32.91-1,66.5-1.77,97.19,11.72,7.81,3.43,15.7,7.01,23.43,10.63,14.18,6.64,26.5,16.03,38.4,26.12,31.47,26.68,53.29,73.24,58.61,113.84,1.32,10.09,1.7,19.82,1.94,29.96.35,14.46,1.2,29.99-1.26,44.29-.36,2.12-.94,4.15-1.61,6.19h3.48c.24,0,2.66-1.02,3.07-1.25,7.92-4.31,11.49-22.99,13.05-31.32.59-3.17.37-7.18,3.07-9.4,3.86-3.18,9.42-.16,9.47,4.67.04,4.18-2.07,12.94-2.95,17.43-2.5,12.77-5.27,25.78-12.82,36.59-5.86,8.39-14.81,14.4-24.78,16.77-4.55,12.32-8.47,24.92-14.81,36.46-11.12,20.23-23.53,38.09-44.17,49.37-15.65,8.56-33.16,17.6-50.81,20.67-25.24,4.39-45.92,4.68-71.08-.24-3.45-.67-9.67-2.64-12.91-2.32-2.8-2.29-4.43-4.23-4.33-8.05.16-5.88,1.82-14.3,3.54-19.96.2-.66.7-2.54,1.26-2.81,27.35-3.98,56.31-9.3,78.88-26.17,6.73-5.03,12.45-11.03,17.68-17.57,7.06,2.85,14.3,6.26,22.15,5.72.24,6.18.44,12.62,8.06,13.16,8.56.61,10.73-8.61,11.12-15.32,14.24-4.21,26.24-17.45,28.78-32.14-15.87-1.61-30.46-10.62-41.98-21.22-9.05-8.34-11.99-14.58-18.36-24.57-8.09-12.67-20.79-17.77-30.31-29.41-14.26-17.43-12.47-29.83-18.83-49.52-4.44-13.74-17.69-14.81-29.86-17.75v18.83c0,1.19-1.13,4.78-1.51,6.17-3.37,12.53-8.82,22.7-19.67,30.22-16.76,11.61-44.32,13.46-56.83-5.16-1.56-2.31-4.93-8.14.11-8.28,7.76,3.73,16.08,7.15,24.24,2.3,20.44-12.14.44-39.8-10.62-51.41-1.77-1.86-1.8-1.44-3.82.03-10.21,7.39-18.96,18.49-29.06,26.1-10.6,7.99-24.13,12.14-34.04,21.36-22.04,20.52-9.55,59.12-41.26,72.91-7.24,3.15-12.82,2.14-20.19,3.32-7.96,1.27-15.7,5.36-23.93,4.01-2.73,23.84,14.32,49.67,39.09,52.05.13,5.26.14,13.97,6.47,15.71,9.62,2.66,12.68-8.8,12.72-15.95l16.14-4.52c5.89,5.45,10.73,11.98,16.72,17.35,17.1,15.35,41.7,22.51,63.79,26.99-.4,3.28-.64,6.62-1.26,9.87-.77,4.04-1.75,8.9-2.73,12.86-.88,3.55-2.58,6.48-3.68,9.88-2.38-.36-4.85-1.5-7.08-1.68-7.14-.57-14.07,1.2-21.1,1.92-8.47.86-16.94.9-25.42.72-10.17-1.33-20.52.04-30.63-1.75-7.41-1.32-14.87-4.57-21.55-7.95-8.07-4.1-13.73-8.29-20.38-14.39-10.97-10.06-18.9-26.78-24.98-40.26-9.48-21.02-17.41-43.11-19.18-66.32C18.16,240.49,1.57,220.83.32,197.8l-.22-.38c.22-3.58-.29-7.5,0-11.03ZM370.58,68.44c-2.81.38-13.44,6.75-16.65,8.53-6.35,3.52-12.57,7.27-18.86,10.88-3.08,1.77-10.45,5.04-12.35,7.56-4.5,5.96.35,13.87,7.73,13,2.58-.3,7.44-3.38,9.9-4.73,10.65-5.83,21.95-12.06,32.38-18.23,2.15-1.27,4.57-2.46,5.88-4.67,3.54-5.99-1.09-13.28-8.02-12.34ZM392.65,97.22c-2.89.26-4.52,1.95-6.83,3.25-11.56,6.51-23.73,13.33-34.83,20.57-2.76,1.8-5.67,3.4-6.62,6.81-1.87,6.73,4.71,12.37,11.08,9.64,9.06-5.25,17.87-10.95,26.87-16.31,4.34-2.58,15.76-7.82,17.97-11.77,3.2-5.71-1.09-12.79-7.64-12.2Z"/>
      <path class="cls-5" d="M100.58,307.51c-24.77-2.38-41.82-28.21-39.09-52.05,8.23,1.36,15.97-2.74,23.93-4.01,7.36-1.17,12.95-.16,20.19-3.32,31.7-13.79,19.22-52.39,41.26-72.91,9.91-9.23,23.44-13.37,34.04-21.36,10.1-7.61,18.85-18.71,29.06-26.1,2.02-1.46,2.05-1.89,3.82-.03,11.06,11.61,31.06,39.27,10.62,51.41-8.16,4.85-16.48,1.43-24.24-2.3-5.04.14-1.66,5.97-.11,8.28,12.51,18.61,40.07,16.77,56.83,5.16,10.85-7.52,16.3-17.69,19.67-30.22.37-1.39,1.51-4.98,1.51-6.17v-18.83c12.17,2.94,25.42,4.01,29.86,17.75,6.36,19.69,4.57,32.09,18.83,49.52,9.53,11.64,22.23,16.74,30.31,29.41,6.38,9.99,9.31,16.23,18.36,24.57,11.51,10.6,26.11,19.61,41.98,21.22-2.54,14.69-14.54,27.93-28.78,32.14.35-5.96-.39-15.54-4.22-20.37-3.03-3.82-7.1-4-10.3-.26-4.66,5.45-4.93,15.94-4.67,22.79-7.85.54-15.09-2.87-22.15-5.72-5.23,6.54-10.95,12.54-17.68,17.57-22.57,16.86-51.53,22.18-78.88,26.17-.56.27-1.06,2.15-1.26,2.81-1.72,5.66-3.39,14.09-3.54,19.96-.1,3.82,1.53,5.76,4.33,8.05-5.99.58-11.86.36-17.86.23-4.19-.09-7.93-.75-12-.95-3.83-.18-7.78.33-11.63-.24,1.1-3.4,2.79-6.33,3.68-9.88.98-3.96,1.96-8.82,2.73-12.86.62-3.25.86-6.59,1.26-9.87-22.09-4.48-46.69-11.64-63.79-26.99-5.98-5.37-10.82-11.9-16.72-17.35l-16.14,4.52s-.24-.28-.25-.58c-.08-6.62-1-22.34-10.44-21.97-9.22.36-8.66,16.42-8.5,22.8ZM159.34,233.39c-.49.04-1.75.09-2.16,0-.27-.06-.83-.67-1.58-.7-1.74-.07-4.46,1.53-4.18,3.58-.27.29-.7,1-.96,1.2-1.67,1.3-1.65.74-2.88,2.88-.39.68-.75.95-.96,1.92-1.59-.22-1.64,1.23-2.16,2.16-.4.72-.85,1.41-1.2,2.16-1.36-.1-2.43,1.29-3.08,2.32-1.71,2.74-2.28,6.47-3.86,9.33l.02,1.02c.31.49,3.15.02,3.7-.19,1.52-.58.76-1.86,1.54-2.9,1.27-1.69,4.94-4.21,6.72-5.76,1.06-.93,2.44-1.63,2.88-3.12.8-.28,1.46-.72,2.16-.96,1.46-.5,3.25-.34,4.08-1.92.65.09,2.21.08,2.88,0s1.93-.41,1.92-1.2c.78.18,2.34.12,3.12,0,1.67-.26,1.27-.66,1.92-.96,1.05-.48,3.98-.47,5.28-.96.31,1.44,2.7.93,3.84.96,1.04.03,2.08,0,3.12,0,1.28.01,2.56-.03,3.84,0,.8.02,1.6-.04,2.4,0l18.12,8.86c3.7.91.23-6.04-.72-6.72-.49-.35-1.04-.22-1.58-.22-.09-.15-2.36-2.23-2.64-2.4-1.08-2.56-2.79-4.64-5.52-5.52-.24-.08-.74.08-.96,0,.08-1.18-.53-2.08-1.45-2.74-8.21-5.9-17.84-6.51-27.27-3.56-1.84.58-5.03.95-4.37,3.42ZM353.37,261.93c-2.16-6.11-4.23-12.76-7.82-18.21-2.99-4.55-6.1-6.9-11.05-9.1-17.62-7.84-33.33-2.13-45.17,12.08-.44.53-4.39,4.99-2.72,5.4,6.06.17,11.05-4.15,16.5-6.01,9.23-3.15,26.97-1.85,35.45,3.17,4.26,2.52,7.41,8.38,11.56,11.46.91.67,2.07,1.69,3.23,1.2ZM246.24,255.62c.91.91,2.04,1.34,3,2.64,1.54,2.11,2.52,5.75,1.89,8.29s-4.01,4.91-1.62,7.51c3.16,3.45,6.55-2.86,7.33-5.4,1.67-5.49-1.24-15.57-6.92-17.79-3.64-1.42-5.99,2.46-3.68,4.76ZM159.54,258.89c-13.53,1.08-22.35,13.75-16.71,26.64,4.2,9.59,14.9,19.67,26.12,17.55,14.5-2.75,22.02-14.29,15.62-28.35-4.57-10.04-13.63-16.75-25.03-15.84ZM323.57,262c-8.54,1.15-16.44,19.22-16.23,26.88.25,9.4,15.35,19.23,24.03,16.18,8.52-3,17.36-19.42,17.21-28.12-.11-6.48-8.39-15.79-15.21-14.98-.99.12-1.86.62-2.89.7-2.38.18-4.43-1-6.9-.67Z"/>
      <path class="cls-6" d="M370.58,68.44c6.93-.94,11.56,6.35,8.02,12.34-1.31,2.21-3.73,3.4-5.88,4.67-10.42,6.17-21.73,12.4-32.38,18.23-2.46,1.35-7.32,4.43-9.9,4.73-7.38.86-12.23-7.05-7.73-13,1.9-2.52,9.27-5.79,12.35-7.56,6.3-3.61,12.52-7.35,18.86-10.88,3.21-1.78,13.84-8.15,16.65-8.53Z"/>
      <path class="cls-6" d="M392.65,97.22c6.55-.6,10.83,6.49,7.64,12.2-2.21,3.95-13.63,9.19-17.97,11.77-9,5.35-17.8,11.06-26.87,16.31-6.37,2.73-12.95-2.91-11.08-9.64.95-3.41,3.86-5.01,6.62-6.81,11.1-7.25,23.27-14.06,34.83-20.57,2.31-1.3,3.94-2.98,6.83-3.25Z"/>
      <path class="cls-5" d="M159.54,258.89c11.4-.91,20.46,5.8,25.03,15.84,6.4,14.06-1.12,25.61-15.62,28.35-11.22,2.12-21.92-7.96-26.12-17.55-5.65-12.89,3.18-25.55,16.71-26.64Z"/>
      <path class="cls-5" d="M323.57,262c2.48-.33,4.52.85,6.9.67,1.04-.08,1.91-.59,2.89-.7,6.83-.81,15.1,8.5,15.21,14.98.15,8.7-8.69,25.12-17.21,28.12-8.69,3.05-23.78-6.78-24.03-16.18-.2-7.66,7.69-25.73,16.23-26.88Z"/>
      <path class="cls-7" d="M242.24,264.62c-2.31-2.29.04-6.18,3.68-4.76,5.67,2.22,8.59,12.3,6.92,17.79-.78,2.55-4.16,8.85-7.33,5.4-2.39-2.6,1.01-5.01,1.62-7.51s-.35-6.18-1.89-8.29c-.95-1.3-2.08-1.73-3-2.64Z"/>
      <path class="cls-12" d="M143.28,246.58c-.76,1.65-3.42,7.6-3.58,9.01-.02.19-.03.39-.02.58h1.92c-.78,1.04-.02,2.32-1.54,2.9-.55.21-3.39.68-3.7.19l-.02-1.02c1.59-2.86,2.15-6.6,3.86-9.33.64-1.03,1.72-2.42,3.08-2.32Z"/>
      <path class="cls-13" d="M198.92,241.79c-2.23-1.35-5.77-1.92-5.52-5.52,2.72.88,4.44,2.96,5.52,5.52Z"/>
      <path class="cls-8" d="M157.19,233.39l-5.76,2.88c-.28-2.05,2.43-3.65,4.18-3.58.74.03,1.31.64,1.58.7Z"/>
      <path class="cls-11" d="M157.43,244.43c-.82,1.58-2.62,1.42-4.08,1.92-.15-1.41.08-2.68,1.78-2.62.74.03,1.74.62,2.3.7Z"/>
      <path class="cls-3" d="M172.54,241.31c1.2-.45,1.96-1.78,3.84-1.2v2.16c-1.14-.03-3.53.48-3.84-.96Z"/>
      <path class="cls-9" d="M150.47,237.47c.17,1.81-1.07,3.05-2.88,2.88,1.23-2.13,1.21-1.58,2.88-2.88Z"/>
      <path class="cls-1" d="M151.19,247.3c-.44,1.49-1.82,2.19-2.88,3.12-.11-1.19.38-2.42,1.54-2.9.5-.2,1.04-.12,1.33-.22Z"/>
      <path class="cls-4" d="M183.33,242.27c-1.28-.03-2.56.01-3.84,0,.31-1.68,3.53-1.68,3.84,0Z"/>
      <path class="cls-2" d="M146.63,242.27c-.35,1.57.53,2.4-2.16,2.16.52-.93.57-2.38,2.16-2.16Z"/>
      <path class="cls-11" d="M162.22,243.23c.01.79-1.28,1.12-1.92,1.2v-2.16c.25-.28,1.72.91,1.92.96Z"/>
      <path class="cls-10" d="M167.26,242.27c-.65.3-.25.69-1.92.96v-1.92s1.92.96,1.92.96Z"/>
      <path class="cls-5" d="M123.98,249.48c-1.76,3.14-3.42,6.46-3.76,10.04s.92,7.53,3.94,9.48c2.95,1.91,6.9,1.53,10.09.07s5.84-3.86,8.61-6.02c1.31-1.02,2.67-1.99,4.09-2.85,13.34-7.98,30.24-4.34,45.45-1.13,4.11.87,8.35,1.68,12.47.92,8.89-1.65,15.29-11.59,13.1-20.36-2.28-9.14-11.49-14.49-19.86-18.81-11.71-6.05-29.23-4.2-41.99-.77-14.37,3.86-25.2,16.99-32.16,29.43Z"/>
      <path class="cls-5" d="M313.66,220.53c11.36.8,23.86,2.12,31.64,10.43,2.74,2.92,4.66,6.51,6.4,10.11,3.14,6.48,5.85,13.17,8.08,20.02,1.12,3.45,1.36,8.46-2.12,9.44-1.99.56-4.01-.73-5.56-2.09-3.72-3.25-6.7-7.3-10.62-10.31-6.95-5.34-16.33-6.86-24.97-5.39s-16.6,5.69-23.68,10.86c-2.11,1.54-4.21,3.19-6.69,4s-5.5.57-7.31-1.3c-.91-.94-1.43-2.19-1.82-3.44-3.1-9.74.59-21.26,8.77-27.38,9.99-7.48,15.97-11.21,27.87-14.94Z"/>
      <path class="cls-14" d="M369.44,311.78c7.53,1.3,15.44.38,22.47-2.61.73-.31,1.5-.65,2.28-.54.97.14,1.7.92,2.3,1.69,3.06,3.97,4.75,8.99,4.69,14.01-.02,1.61-.23,3.29-1.13,4.63-.88,1.31-2.3,2.14-3.68,2.91-9.7,5.4-19.86,9.99-30.32,13.7-1.87.66-3.8,1.31-5.79,1.32-4.89.02-8.89-3.67-12.35-7.13-1.93-1.94-3.92-3.95-4.89-6.51s-.64-5.82,1.52-7.51c4.01-3.15,8.78-4.88,13.08-7.62,2.89-1.85,6.18-3.59,9.58-3.11.13-.53,2.1-2.7,2.23-3.23Z"/>
      <path class="cls-14" d="M99.47,308.12c6.94.91,14.04.49,20.82-1.22,1.4-.35,2.82-.76,4.25-.61,1.11.12,2.16.57,3.13,1.11,3.03,1.68,5.54,4.26,7.14,7.33,1.04,1.99,1.64,4.54.37,6.39-.51.74-1.27,1.27-2.02,1.79-6.15,4.25-12.3,8.5-18.44,12.75-2.45,1.7-4.95,3.42-7.78,4.36-4.74,1.58-10.08.79-14.5-1.53s-7.97-6.08-10.65-10.3c-1.62-2.55-2.97-5.4-3.05-8.42s1.4-6.23,4.14-7.49c2.05-.94,4.41-.69,6.65-.42"/>
    </g>
  </g>
</svg>