<?xml version="1.0" encoding="UTF-8"?>
<svg id="Capa_2" data-name="Capa 2" xmlns="http://www.w3.org/2000/svg" viewBox="0 0 376.91 403.6">
  <defs>
    <style>
      .cls-1 {
        fill: #fff;
      }

      .cls-2 {
        fill: #ec651d;
      }

      .cls-3 {
        fill: #e99104;
      }

      .cls-4 {
        fill: #f59f16;
      }

      .cls-5 {
        fill: #97d2d9;
      }

      .cls-6 {
        fill: #35658a;
      }
    </style>
  </defs>
  <g id="Capa_2-2" data-name="Capa 2">
    <rect class="cls-4" x="187.21" y="317.58" width="5.79" height="5.79"/>
    <g>
      <path class="cls-6" d="M142.16,317.26v18.17c0,6.16-4.68,10.91-10.83,10.91-2.77,0-4.87-.92-6.59-2.28v13.92h-5.85v-40.71l23.28-.02h-.01ZM136.32,323.1h-11.59v12.76c0,2.96,2.71,4.89,5.67,4.89s5.92-1.94,5.92-4.89v-12.76Z"/>
      <path class="cls-6" d="M147.93,346.36v-41.49h5.85v41.49h-5.85Z"/>
      <path class="cls-6" d="M176.99,317.28h5.85v29.08h-5.85v-3.08c-4.13,2.96-9.46,3.08-14.51,3.08h-2.9v-29.08h5.85v23.59c8.56.06,11.55-3.88,11.55-9v-14.6h0Z"/>
      <g>
        <path class="cls-3" d="M193,346.67v-29.08h5.79v29.08h-5.79ZM200.22,308.87c0,2.39-1.94,4.33-4.33,4.33s-4.33-1.94-4.33-4.33,1.94-4.33,4.33-4.33,4.33,1.94,4.33,4.33Z"/>
        <path class="cls-3" d="M193,346.67v-29.08h5.79v29.08h-5.79ZM200.22,308.87c0,2.39-1.94,4.33-4.33,4.33s-4.33-1.94-4.33-4.33,1.94-4.33,4.33-4.33,4.33,1.94,4.33,4.33Z"/>
        <path class="cls-3" d="M193,346.67v-29.08h5.79v29.08h-5.79ZM200.22,308.87c0,2.39-1.94,4.33-4.33,4.33s-4.33-1.94-4.33-4.33,1.94-4.33,4.33-4.33,4.33,1.94,4.33,4.33Z"/>
        <path class="cls-4" d="M193,346.67v-29.08h5.79v29.08h-5.79ZM200.22,308.87c0,2.39-1.94,4.33-4.33,4.33s-4.33-1.94-4.33-4.33,1.94-4.33,4.33-4.33,4.33,1.94,4.33,4.33Z"/>
      </g>
      <path class="cls-6" d="M227.89,317.59v29.09h-5.85v-23.27c-8.56-.06-11.57,3.87-11.57,8.98v14.29h-5.85v-29.09h5.82v3.4c4.13-2.96,8.85-3.4,13.9-3.4h3.57-.02Z"/>
      <path class="cls-6" d="M242.37,317.59h8.76l-.04,5.82h-8.68v23.26h-5.82v-23.21h-5.82v-5.86h5.82v-.86c0-6.84,3.67-10.65,9.96-10.65,3.82,0,7.02,1.78,9.37,5.73l-5.36,2.71c-.86-2.03-2.4-3.02-4.01-3.02-2.65,0-4.18,1.43-4.18,4.69v1.4h0Z"/>
      <path class="cls-6" d="M281.66,332.09c0,7.98-6.55,14.48-14.54,14.48s-14.54-6.49-14.54-14.48,6.56-14.48,14.54-14.48,14.54,6.43,14.54,14.48ZM276,332.09c0-4.94-3.99-8.88-8.88-8.88s-8.88,3.93-8.88,8.88,3.99,8.88,8.88,8.88,8.88-3.99,8.88-8.88Z"/>
      <path class="cls-6" d="M291.84,321.3c2.89-2.9,7.26-3.71,11.63-3.71v5.82c-7.84,0-11.59,2.87-11.59,8.72v14.55h-5.85v-29.09h5.82v3.71h-.01Z"/>
      <path class="cls-6" d="M370.38,328.62v18.05h-20.38v-8.01c0-6.1,4.62-9.92,10.1-9.92,1.85,0,2.89.43,4.43,1.42v-2.53c0-2.9-1.28-4.8-4.3-4.8-1.97,0-4.13.68-5.6,3.94l-5.61-2.47c2.34-5.18,7.39-7.02,11.21-7.02,6.29,0,10.15,3.51,10.15,11.34ZM355.86,340.85h8.68v-1.7c0-3.76-2.06-5.05-4.34-5.05-2.91,0-4.34,2.22-4.34,5.05v1.7Z"/>
      <g>
        <path class="cls-6" d="M69.77,323.47l-4.11,4.11c.68,1.26,1.07,2.7,1.07,4.25,0,4.91-4.07,8.92-8.92,8.92s-8.92-4.01-8.92-8.92,4.01-8.92,8.92-8.92c1.31,0,2.56.28,3.68.79l4.15-4.15c-2.27-1.44-4.96-2.27-7.83-2.27-8.02,0-14.6,6.52-14.6,14.54s6.59,14.54,14.6,14.54,14.6-6.52,14.6-14.54c0-3.12-.98-5.99-2.65-8.35h.01Z"/>
        <path class="cls-6" d="M65.67,327.58l4.11-4.11c-1.1-1.56-2.51-2.89-4.12-3.92l-4.15,4.15c1.77.8,3.24,2.17,4.17,3.88h0Z"/>
      </g>
      <path class="cls-6" d="M274.97,327.88l4.11-4.11c-1.1-1.56-2.51-2.89-4.12-3.92l-4.15,4.15c1.77.8,3.24,2.17,4.17,3.88h-.01Z"/>
      <path class="cls-6" d="M83.91,346.38h-5.71v-29.1h2.83c6.37,0,10.29,1.08,14.56,6.68,4.33-5.59,8.24-6.68,14.61-6.68h2.83v29.1h-5.71v-23.32c-5.35-.06-8.84,3.97-8.84,8.96v14.36h-5.71v-14.36c0-4.99-3.49-9.02-8.84-8.96v23.32h-.02Z"/>
      <path class="cls-6" d="M313.6,346.68h-5.71v-29.1h2.83c6.37,0,10.29,1.08,14.56,6.68,4.33-5.59,8.24-6.68,14.61-6.68h2.83v29.1h-5.71v-23.32c-5.35-.06-8.84,3.97-8.84,8.96v14.36h-5.71v-14.36c0-4.99-3.49-9.02-8.84-8.96v23.32h-.02Z"/>
      <path class="cls-6" d="M32.62,339.96c-1.13.51-2.39.8-3.71.8-4.94,0-8.98-3.97-8.99-8.98,0-5,4.05-8.98,8.99-8.98,1.32,0,2.58.29,3.71.8,1.79.81,3.27,2.19,4.2,3.91l4.14-4.14c-1.11-1.57-2.53-2.92-4.16-3.95-2.29-1.45-5-2.29-7.9-2.29-8.01,0-14.61,6.46-14.72,14.45h0v.4h0c.12,7.99,6.71,14.45,14.72,14.45,2.9,0,5.61-.84,7.9-2.29,1.63-1.03,3.05-2.38,4.16-3.95l-4.14-4.14c-.93,1.72-2.41,3.1-4.2,3.91h0Z"/>
    </g>
    <g>
      <g>
        <path class="cls-6" d="M165.7,203.97c3.3,1.36,6.63,2.46,9.81,3.29-4.91-1.44-8.37-2.73-9.81-3.29Z"/>
        <g>
          <path class="cls-1" d="M324.42,270.96c-.36,0-7.09-.02-9.88-.02l-94.76.02v-54.05c10.2-.64,19.55-2.8,27.86-6.44,12.87-5.63,22.23-19.79,22.62-20.39l.08-.13c.44-.73,4.34-7.24,5.66-11.18,3.04-9.11,2.32-17.89-2.02-24.73-2.23-3.51-6.14-6.42-8.88-7.67-4.6-2.27-9.91-3.32-16.7-3.32-4.98,0-10.49.55-16.32,1.14-3.79.38-7.96.8-12.4,1.11l.09-3.56s.08-2.95.08-6.07l-.09-44.03c0-3.87.02-13.57.02-13.57h15.46l41.78.06,37.62-.06h15.46v13.58l-.03,41.63,3.87.4c22.73,2.38,38.6,17.35,38.6,36.4s-16.84,36.94-38.33,39.93l-3.72.52-.04,46.84v13.59l-6.05-.02.02.02Z"/>
          <path class="cls-4" d="M318.97,82.4h6.83v9.26l-.03,37.74v7.78l7.74.81c20.45,2.14,34.73,15.34,34.73,32.11s-15.2,32.96-34.61,35.65l-7.44,1.03v7.51l-.04,43.09v9.27h-1.73c-.34,0-7.09-.02-9.88-.02l-78.25.02h-12.2v-45.76c9.15-.95,17.62-3.11,25.27-6.45,13.8-6.03,23.45-20.37,24.5-21.98l.08-.13.08-.13c.76-1.26,4.63-7.75,6.06-12.05,3.46-10.36,2.58-20.45-2.47-28.41-2.88-4.55-7.51-7.8-10.69-9.26-5.2-2.55-11.09-3.73-18.54-3.73-5.2,0-10.81.57-16.75,1.16-2.46.25-4.95.5-7.53.72.02-1.19.05-3.05.05-4.97l-.09-44v-9.26h11.14l40.91.07h.9l37.61-.06h4.31M318.97,73.76h-4.33l-37.61.06h-.88l-40.9-.07h-19.77l-.02,10.33v7.56l.09,44.02c0,3.04-.08,5.93-.08,5.96l-.22,8.26c13.35-.62,24.14-2.52,33.16-2.52,5.56,0,10.44.72,14.85,2.91,2.28,1.01,5.42,3.46,7.09,6.08,3.63,5.72,4.19,13.2,1.57,21.05-1.2,3.6-5.26,10.32-5.26,10.32,0,0-8.9,13.62-20.73,18.79-9.88,4.32-20.4,6.03-30.44,6.25v5.63h0v56.87h20.83l78.25-.02c2.86,0,9.86.02,9.87.02l10.38.03v-17.92l.04-43.09c23.43-3.25,42.05-22.17,42.05-44.2s-17.84-38.12-42.47-40.7l.03-37.74v-17.9h-15.46l-.04.02ZM263.16,150.25l1.45.77c-.45-.26-.91-.51-1.37-.74-.03,0-.06-.02-.08-.04h0Z"/>
        </g>
        <path class="cls-4" d="M189.09,149.09c4.69,1.01,8.9,1.14,12.89,1.1l.04-8.44v-57.88l-.07-10.03-10.03-.25c-.72-.02-1.61-.03-2.7-.03-41.08,0-70.12,4.79-91.39,15.08-18.08,8.74-31.11,21.27-42.91,41.43-3.53-.32-7.79-.66-10.44-.66-24.52,0-44.48,18.77-44.48,41.84s19.95,41.84,44.48,41.84c2.34,0,4.48-.07,7.35-.38l.99-.1c14.63,23.64,36.05,40.84,63.78,51.16,20.83,7.75,44.46,11.52,72.26,11.52h2.85l10.18-.11.05-10.19v-45.2l.04-7.44c-10.49-.94-19.81-3.13-26.49-5.08-3.18-.83-6.51-1.93-9.81-3.29-.48-.19-.77-.31-.77-.31h0c-13.86-5.9-27.07-16.61-27.07-33.29,0-2.17.28-4.12.84-5.92h0c.28-1.14,5.82-24.95,50.38-15.35l.03-.02Z"/>
        <path class="cls-6" d="M165.7,203.97c-.25-.1-.51-.21-.76-.32h0s.28.12.77.31h-.01Z"/>
      </g>
      <circle class="cls-1" cx="174.71" cy="116.94" r="10.43"/>
      <circle class="cls-4" cx="244.7" cy="116.94" r="10.43"/>
      <g>
        <path class="cls-1" d="M273.03,53.97c-13.69,0-24.83-11.14-24.83-24.83s11.14-24.83,24.83-24.83,24.83,11.14,24.83,24.83-11.14,24.83-24.83,24.83Z"/>
        <path class="cls-4" d="M273.03,8.63c11.33,0,20.51,9.18,20.51,20.51s-9.18,20.51-20.51,20.51-20.51-9.18-20.51-20.51,9.18-20.51,20.51-20.51M273.03,0c-16.07,0-29.15,13.07-29.15,29.15s13.07,29.15,29.15,29.15,29.15-13.07,29.15-29.15S289.1,0,273.03,0h0Z"/>
      </g>
    </g>
    <g>
      <circle class="cls-4" cx="125.38" cy="394.75" r="8.85"/>
      <circle class="cls-6" cx="173.61" cy="394.75" r="8.85"/>
      <circle class="cls-5" cx="221.84" cy="394.75" r="8.85"/>
      <circle class="cls-2" cx="270.06" cy="394.75" r="8.85"/>
    </g>
  </g>
</svg>