<?xml version="1.0" encoding="UTF-8"?>
<svg id="Capa_2" data-name="Capa 2" xmlns="http://www.w3.org/2000/svg" viewBox="0 0 146 47">
  <defs>
    <style>
      .cls-1 {
        fill: #3b3c60;
      }

      .cls-2 {
        fill: #ffda00;
      }
    </style>
  </defs>
  <g id="Capa_2-2" data-name="Capa 2">
    <g>
      <path class="cls-2" d="M0,22.53V6.53h20v2h2v12h-2v2H0ZM16,10.53H6v8h10v-8Z"/>
      <path class="cls-2" d="M24,22.53v-4h2v-4h2v-4h2v-4h10v4h2v4h2v4h2v4h-6v-2h-10v2h-6ZM34,10.53v4h-2v2h6v-2h-2v-4h-2Z"/>
      <path class="cls-2" d="M48,6.53h10v4h2v4h2v-4h2v-4h10v16h-6v-8h-2v4h-2v4h-6v-4h-2v-4h-2v8h-6V6.53Z"/>
      <path class="cls-2" d="M76,22.53V6.53h8v2h2v2h2v2h2v2h2V6.53h6v16h-8v-2h-2v-2h-2v-2h-2v-2h-2v8h-6Z"/>
      <path class="cls-2" d="M100,22.53V6.53h22v4h-16v2h14v4h-14v2h16v4h-22Z"/>
      <path class="cls-2" d="M124,22.53V6.53h20v2h2v12h-2v2h-20ZM140,10.53h-10v8h10v-8Z"/>
      <path class="cls-2" d="M52,40.03v-16h20v2h2v4h-2v2h2v6h-2v2h-20ZM58,28.03v2h10v-2h-10ZM58,34.03v2h10v-2h-10Z"/>
      <path class="cls-2" d="M76,40.03v-4h2v-4h2v-4h2v-4h10v4h2v4h2v4h2v4h-6v-2h-10v2h-6ZM86,28.03v4h-2v2h6v-2h-2v-4h-2Z"/>
      <path class="cls-2" d="M100,40.03v-16h20v2h2v4h-2v2h2v6h-2v2h-20ZM106,28.03v2h10v-2h-10ZM106,34.03v2h10v-2h-10Z"/>
      <path class="cls-2" d="M124,28.03v-4h6v2h2v2h2v2h2v-2h2v-2h2v-2h6v4h-2v2h-2v2h-2v2h-2v6h-6v-6h-2v-2h-2v-2h-2v-2h-2Z"/>
    </g>
    <g>
      <path class="cls-1" d="M.5,3.41V.06h.77v3.35H.5Z"/>
      <path class="cls-1" d="M2.67,3.41V.71h-1V.06h2.76v.65h-1v2.7h-.77Z"/>
      <path class="cls-1" d="M4.78,1.44v-.27c.09-.03.16-.07.22-.14.06-.07.09-.16.09-.28v-.02h-.3V.06h.66v.6c0,.18-.03.32-.1.43-.06.11-.15.19-.25.25-.1.06-.21.09-.33.1Z"/>
      <path class="cls-1" d="M7.18,3.47c-.3,0-.56-.04-.78-.13-.22-.09-.39-.22-.51-.38-.12-.17-.19-.37-.19-.61h.77c.01.12.05.21.11.29.06.08.14.13.24.17.1.04.22.05.37.05.1,0,.19-.01.28-.04.09-.03.16-.07.21-.12.05-.05.08-.13.08-.21,0-.1-.03-.17-.09-.23-.06-.05-.15-.1-.26-.13s-.25-.07-.42-.11c-.16-.04-.32-.08-.46-.12-.14-.05-.27-.1-.38-.17s-.19-.16-.25-.28-.09-.26-.09-.43c0-.23.06-.42.17-.57.12-.15.27-.26.47-.33.2-.07.42-.11.66-.11.18,0,.35.02.51.06.15.04.29.11.41.19.12.08.21.19.28.31.07.12.11.27.12.43h-.75c-.02-.13-.08-.23-.18-.3-.1-.07-.23-.11-.4-.11-.16,0-.28.03-.38.09-.1.06-.15.15-.15.25,0,.09.03.15.09.2.06.05.15.09.28.12.12.03.27.07.45.11.15.03.3.07.43.12.14.05.26.11.37.18s.19.17.26.29.09.27.09.44c0,.23-.06.42-.18.58s-.28.28-.48.36c-.2.08-.43.12-.69.12Z"/>
      <path class="cls-1" d="M10.06,3.41V.06h.78l.88,1.45c.05.08.1.18.16.28.05.1.1.2.15.29.05.09.1.2.15.32h0c0-.13-.02-.25-.02-.35,0-.1,0-.21-.01-.32,0-.11,0-.22,0-.31V.06h.73v3.35h-.79l-.87-1.43c-.05-.08-.1-.18-.16-.28s-.1-.2-.15-.29c-.05-.09-.1-.2-.16-.32h-.01c0,.13.02.25.02.35,0,.1,0,.21.01.32,0,.11,0,.22,0,.31v1.34h-.73Z"/>
      <path class="cls-1" d="M14.96,3.47c-.25,0-.48-.04-.69-.13-.2-.09-.38-.21-.52-.36-.14-.16-.25-.34-.33-.55s-.11-.44-.11-.69.04-.48.11-.69c.08-.21.19-.4.33-.55.14-.16.32-.28.52-.36.2-.09.43-.13.69-.13s.48.04.68.13c.2.09.38.21.52.36.14.16.25.34.33.55.08.21.12.44.12.69s-.04.48-.12.69c-.08.21-.19.39-.33.55-.14.16-.32.28-.52.36-.2.09-.43.13-.68.13ZM14.97,2.84c.15,0,.27-.03.38-.08.11-.05.2-.13.27-.23s.13-.22.16-.35c.04-.13.05-.28.05-.44s-.02-.3-.05-.44c-.04-.14-.09-.25-.16-.36-.07-.1-.16-.18-.27-.24-.11-.06-.23-.08-.38-.08s-.27.03-.38.08c-.11.06-.2.14-.27.24-.07.1-.13.22-.17.36-.04.14-.06.28-.06.44s.02.3.06.44c.04.13.09.25.17.35.07.1.17.18.27.23.11.06.24.08.38.08Z"/>
      <path class="cls-1" d="M17.74,3.41V.71h-1V.06h2.76v.65h-1v2.7h-.77Z"/>
      <path class="cls-1" d="M20.76,3.41L21.97.06h.8l1.21,3.35h-.81l-.21-.64h-1.22l-.21.64h-.77ZM21.92,2.22h.86l-.2-.62c-.05-.15-.09-.3-.12-.43-.03-.13-.06-.29-.09-.46h-.01c-.03.12-.05.23-.07.32-.02.09-.05.19-.07.29-.03.1-.05.19-.08.28l-.21.62Z"/>
      <path class="cls-1" d="M25.4,3.41V.06h1.4c.24,0,.45.04.64.12.19.08.35.19.49.34.14.15.24.33.31.54s.11.44.11.7-.03.47-.1.68c-.07.2-.17.38-.31.52-.13.15-.3.26-.5.34-.2.08-.42.12-.68.12h-1.35ZM26.17,2.76h.52c.19,0,.35-.04.48-.12.13-.08.22-.19.29-.34.06-.15.09-.33.09-.54s-.03-.39-.1-.55c-.06-.16-.16-.28-.28-.37-.13-.09-.28-.13-.47-.13h-.54v2.05Z"/>
      <path class="cls-1" d="M30.28,3.47c-.25,0-.48-.04-.69-.13-.2-.09-.38-.21-.52-.36-.14-.16-.25-.34-.33-.55s-.11-.44-.11-.69.04-.48.11-.69c.08-.21.19-.4.33-.55.14-.16.32-.28.52-.36.2-.09.43-.13.69-.13s.48.04.68.13c.2.09.38.21.52.36.14.16.25.34.33.55.08.21.12.44.12.69s-.04.48-.12.69c-.08.21-.19.39-.33.55-.14.16-.32.28-.52.36-.2.09-.43.13-.68.13ZM30.28,2.84c.15,0,.27-.03.38-.08.11-.05.2-.13.27-.23s.13-.22.16-.35c.04-.13.05-.28.05-.44s-.02-.3-.05-.44c-.04-.14-.09-.25-.16-.36-.07-.1-.16-.18-.27-.24-.11-.06-.23-.08-.38-.08s-.27.03-.38.08c-.11.06-.2.14-.27.24-.07.1-.13.22-.17.36-.04.14-.06.28-.06.44s.02.3.06.44c.04.13.09.25.17.35.07.1.17.18.27.23.11.06.24.08.38.08Z"/>
      <path class="cls-1" d="M32.36,3.41V.06h.76v2.69h1.54v.66h-2.31Z"/>
      <path class="cls-1" d="M35.08,3.41V.06h.76v2.69h1.54v.66h-2.31Z"/>
      <path class="cls-1" d="M37.84,3.41v-.74h.75v.74h-.75Z"/>
      <path class="cls-1" d="M40.15,3.41V.06h.77v3.35h-.77Z"/>
      <path class="cls-1" d="M42.33,3.41V.71h-1V.06h2.76v.65h-1v2.7h-.77Z"/>
      <path class="cls-1" d="M44.43,1.44v-.27c.09-.03.16-.07.22-.14.06-.07.09-.16.09-.28v-.02h-.3V.06h.66v.6c0,.18-.03.32-.1.43-.06.11-.15.19-.25.25-.1.06-.21.09-.33.1Z"/>
      <path class="cls-1" d="M46.84,3.47c-.3,0-.56-.04-.78-.13-.22-.09-.39-.22-.51-.38-.12-.17-.19-.37-.19-.61h.77c.01.12.05.21.11.29.06.08.14.13.24.17.1.04.22.05.37.05.1,0,.19-.01.28-.04.09-.03.16-.07.21-.12.05-.05.08-.13.08-.21,0-.1-.03-.17-.09-.23-.06-.05-.15-.1-.26-.13s-.25-.07-.42-.11c-.16-.04-.32-.08-.46-.12-.14-.05-.27-.1-.38-.17s-.19-.16-.25-.28-.09-.26-.09-.43c0-.23.06-.42.17-.57.12-.15.27-.26.47-.33.2-.07.42-.11.66-.11.18,0,.35.02.51.06.15.04.29.11.41.19.12.08.21.19.28.31.07.12.11.27.12.43h-.75c-.02-.13-.08-.23-.18-.3-.1-.07-.23-.11-.4-.11-.16,0-.28.03-.38.09-.1.06-.15.15-.15.25,0,.09.03.15.09.2.06.05.15.09.28.12.12.03.27.07.45.11.15.03.3.07.43.12.14.05.26.11.37.18s.19.17.26.29.09.27.09.44c0,.23-.06.42-.18.58s-.28.28-.48.36c-.2.08-.43.12-.69.12Z"/>
      <path class="cls-1" d="M49.72,3.41V.06h.78l.88,1.45c.05.08.1.18.16.28.05.1.1.2.15.29.05.09.1.2.15.32h0c0-.13-.02-.25-.02-.35,0-.1,0-.21-.01-.32,0-.11,0-.22,0-.31V.06h.73v3.35h-.79l-.87-1.43c-.05-.08-.1-.18-.16-.28s-.1-.2-.15-.29c-.05-.09-.1-.2-.16-.32h-.01c0,.13.02.25.02.35,0,.1,0,.21.01.32,0,.11,0,.22,0,.31v1.34h-.73Z"/>
      <path class="cls-1" d="M54.62,3.47c-.25,0-.48-.04-.69-.13-.2-.09-.38-.21-.52-.36-.14-.16-.25-.34-.33-.55s-.11-.44-.11-.69.04-.48.11-.69c.08-.21.19-.4.33-.55.14-.16.32-.28.52-.36.2-.09.43-.13.69-.13s.48.04.68.13c.2.09.38.21.52.36.14.16.25.34.33.55.08.21.12.44.12.69s-.04.48-.12.69c-.08.21-.19.39-.33.55-.14.16-.32.28-.52.36-.2.09-.43.13-.68.13ZM54.62,2.84c.15,0,.27-.03.38-.08.11-.05.2-.13.27-.23s.13-.22.16-.35c.04-.13.05-.28.05-.44s-.02-.3-.05-.44c-.04-.14-.09-.25-.16-.36-.07-.1-.16-.18-.27-.24-.11-.06-.23-.08-.38-.08s-.27.03-.38.08c-.11.06-.2.14-.27.24-.07.1-.13.22-.17.36-.04.14-.06.28-.06.44s.02.3.06.44c.04.13.09.25.17.35.07.1.17.18.27.23.11.06.24.08.38.08Z"/>
      <path class="cls-1" d="M57.4,3.41V.71h-1V.06h2.76v.65h-1v2.7h-.77Z"/>
      <path class="cls-1" d="M60.42,3.41L61.62.06h.8l1.21,3.35h-.81l-.21-.64h-1.22l-.21.64h-.77ZM61.58,2.22h.86l-.2-.62c-.05-.15-.09-.3-.12-.43-.03-.13-.06-.29-.09-.46h-.01c-.03.12-.05.23-.07.32-.02.09-.05.19-.07.29-.03.1-.05.19-.08.28l-.21.62Z"/>
      <path class="cls-1" d="M65.89,3.41V.71h-1V.06h2.76v.65h-1v2.7h-.77Z"/>
      <path class="cls-1" d="M67.42,3.41l1.21-3.35h.8l1.21,3.35h-.81l-.21-.64h-1.22l-.21.64h-.77ZM68.57,2.22h.86l-.2-.62c-.05-.15-.09-.3-.12-.43-.03-.13-.06-.29-.09-.46h-.01c-.03.12-.05.23-.07.32-.02.09-.05.19-.07.29-.03.1-.05.19-.08.28l-.21.62Z"/>
      <path class="cls-1" d="M70.97,3.41V.06h1.03l.42,1.4c.03.11.06.23.09.36.03.14.06.27.08.39.02.13.05.27.08.44h.01c.03-.17.06-.31.08-.44.02-.13.05-.26.08-.39s.06-.26.09-.36l.41-1.4h1.04v3.35h-.71v-1.5c0-.11,0-.23,0-.36,0-.14.01-.27.02-.4s.02-.28.03-.45h0c-.03.15-.06.29-.09.41-.03.12-.05.24-.08.37-.03.13-.06.24-.09.34l-.48,1.59h-.63l-.48-1.59c-.03-.1-.06-.21-.09-.34-.03-.13-.06-.25-.08-.37-.03-.12-.05-.25-.08-.41h0c.01.17.02.32.03.45s.01.26.02.4c0,.14,0,.26,0,.36v1.5h-.69Z"/>
      <path class="cls-1" d="M74.7,3.41l1.21-3.35h.8l1.21,3.35h-.81l-.21-.64h-1.22l-.21.64h-.77ZM75.86,2.22h.86l-.2-.62c-.05-.15-.09-.3-.12-.43-.03-.13-.06-.29-.09-.46h-.01c-.03.12-.05.23-.07.32-.02.09-.05.19-.07.29-.03.1-.05.19-.08.28l-.21.62Z"/>
      <path class="cls-1" d="M79.51,3.47c-.33,0-.61-.08-.84-.22s-.42-.35-.55-.61c-.13-.26-.19-.56-.19-.89,0-.25.04-.49.11-.7.08-.21.18-.4.33-.55.14-.16.31-.28.52-.36.2-.09.43-.13.68-.13.28,0,.53.05.73.14.2.09.37.22.49.38s.21.35.25.57h-.76c-.03-.08-.07-.16-.13-.23-.06-.07-.13-.12-.22-.17-.09-.04-.2-.06-.33-.06-.15,0-.28.03-.39.08-.11.06-.2.14-.28.24-.07.1-.13.22-.16.35-.04.13-.05.28-.05.44,0,.21.04.4.11.57.07.17.18.3.31.39.13.1.29.14.47.14.16,0,.29-.03.41-.09.11-.06.2-.14.26-.24s.09-.2.09-.31h0s-.68-.01-.68-.01v-.57h1.4v1.79h-.53l-.06-.46h-.01c-.07.12-.15.22-.25.3-.1.08-.21.13-.33.17-.12.04-.25.06-.39.06Z"/>
      <path class="cls-1" d="M83.1,3.47c-.25,0-.48-.04-.69-.13-.2-.09-.38-.21-.52-.36-.14-.16-.25-.34-.33-.55s-.11-.44-.11-.69.04-.48.11-.69c.08-.21.19-.4.33-.55.14-.16.32-.28.52-.36.2-.09.43-.13.69-.13s.48.04.68.13c.2.09.38.21.52.36.14.16.25.34.33.55.08.21.12.44.12.69s-.04.48-.12.69c-.08.21-.19.39-.33.55-.14.16-.32.28-.52.36-.2.09-.43.13-.68.13ZM83.1,2.84c.15,0,.27-.03.38-.08.11-.05.2-.13.27-.23s.13-.22.16-.35c.04-.13.05-.28.05-.44s-.02-.3-.05-.44c-.04-.14-.09-.25-.16-.36-.07-.1-.16-.18-.27-.24-.11-.06-.23-.08-.38-.08s-.27.03-.38.08c-.11.06-.2.14-.27.24-.07.1-.13.22-.17.36-.04.14-.06.28-.06.44s.02.3.06.44c.04.13.09.25.17.35.07.1.17.18.27.23.11.06.24.08.38.08Z"/>
      <path class="cls-1" d="M85.88,3.41V.71h-1V.06h2.76v.65h-1v2.7h-.77Z"/>
      <path class="cls-1" d="M89.42,3.47c-.24,0-.47-.04-.67-.13-.2-.09-.37-.21-.52-.36-.14-.16-.26-.34-.34-.55s-.12-.44-.12-.69.04-.48.12-.69c.08-.21.19-.4.33-.55s.32-.28.52-.37c.2-.09.43-.13.68-.13.18,0,.35.02.51.07.16.04.29.11.41.19.15.11.27.25.36.41.09.16.14.33.16.52h-.76c-.01-.11-.05-.2-.11-.28-.06-.08-.14-.15-.23-.2-.1-.05-.21-.07-.33-.07-.19,0-.35.05-.48.15-.13.1-.22.23-.28.39-.06.17-.09.35-.09.56s.03.4.1.56c.07.16.17.29.3.39.13.1.28.14.46.14.14,0,.25-.03.35-.08.1-.05.18-.13.24-.22s.09-.2.11-.31h.77c-.01.17-.05.32-.12.47-.07.15-.17.28-.28.39-.12.12-.27.22-.45.28-.17.06-.38.1-.61.1Z"/>
      <path class="cls-1" d="M91.28,3.41V.06h.76v1.29h1.27V.06h.76v3.35h-.76v-1.42h-1.27v1.42h-.76Z"/>
      <path class="cls-1" d="M94.65,3.41V.06h.77v3.35h-.77Z"/>
      <path class="cls-1" d="M95.9,3.41v-.74h.75v.74h-.75Z"/>
      <path class="cls-1" d="M98.21,3.41V.06h.77v3.35h-.77Z"/>
      <path class="cls-1" d="M100.39,3.41V.71h-1V.06h2.76v.65h-1v2.7h-.77Z"/>
      <path class="cls-1" d="M102.49,1.44v-.27c.09-.03.16-.07.22-.14.06-.07.09-.16.09-.28v-.02h-.3V.06h.66v.6c0,.18-.03.32-.1.43-.06.11-.15.19-.25.25-.1.06-.21.09-.33.1Z"/>
      <path class="cls-1" d="M104.9,3.47c-.3,0-.56-.04-.78-.13-.22-.09-.39-.22-.51-.38-.12-.17-.19-.37-.19-.61h.77c.01.12.05.21.11.29.06.08.14.13.24.17.1.04.22.05.37.05.1,0,.19-.01.28-.04.09-.03.16-.07.21-.12.05-.05.08-.13.08-.21,0-.1-.03-.17-.09-.23-.06-.05-.15-.1-.26-.13s-.25-.07-.42-.11c-.16-.04-.32-.08-.46-.12-.14-.05-.27-.1-.38-.17s-.19-.16-.25-.28-.09-.26-.09-.43c0-.23.06-.42.17-.57.12-.15.27-.26.47-.33.2-.07.42-.11.66-.11.18,0,.35.02.51.06.15.04.29.11.41.19.12.08.21.19.28.31.07.12.11.27.12.43h-.75c-.02-.13-.08-.23-.18-.3-.1-.07-.23-.11-.4-.11-.16,0-.28.03-.38.09-.1.06-.15.15-.15.25,0,.09.03.15.09.2.06.05.15.09.28.12.12.03.27.07.45.11.15.03.3.07.43.12.14.05.26.11.37.18s.19.17.26.29.09.27.09.44c0,.23-.06.42-.18.58s-.28.28-.48.36c-.2.08-.43.12-.69.12Z"/>
      <path class="cls-1" d="M108.61,3.41V.71h-1V.06h2.76v.65h-1v2.7h-.77Z"/>
      <path class="cls-1" d="M110.78,3.41V.06h.76v1.29h1.27V.06h.76v3.35h-.76v-1.42h-1.27v1.42h-.76Z"/>
      <path class="cls-1" d="M114.14,3.41V.06h2.51v.64h-1.75v.67h1.51v.61h-1.51v.78h1.78v.66h-2.54Z"/>
    </g>
    <g>
      <path class="cls-1" d="M106.88,47c-.33,0-.62-.05-.86-.15s-.43-.24-.57-.43c-.14-.19-.21-.41-.22-.67h.86c.02.13.06.24.12.32s.15.15.26.19.25.06.41.06c.11,0,.21-.02.31-.04.1-.03.18-.07.24-.13.06-.06.09-.14.09-.24,0-.11-.03-.19-.1-.25-.07-.06-.17-.11-.29-.15s-.28-.08-.46-.12c-.18-.04-.35-.09-.51-.14-.16-.05-.3-.12-.42-.19s-.21-.18-.28-.31-.1-.29-.1-.48c0-.26.06-.47.19-.63.13-.16.3-.29.52-.37.22-.08.46-.12.74-.12.21,0,.39.02.57.07.17.05.32.12.45.21.13.09.23.21.31.35.08.14.12.3.13.48h-.83c-.02-.14-.09-.26-.2-.34-.11-.08-.26-.12-.45-.12-.17,0-.32.03-.42.1-.11.07-.16.16-.16.28,0,.1.04.17.1.23s.17.1.31.14c.13.04.3.08.49.12.17.04.33.08.48.14.15.05.29.12.41.21s.22.19.29.32.1.29.1.49c0,.25-.07.47-.2.64s-.31.31-.54.4-.48.14-.76.14Z"/>
      <path class="cls-1" d="M110.37,46.99c-.34,0-.62-.05-.85-.16s-.4-.26-.52-.46-.18-.45-.18-.74v-2.43h.85v2.45c0,.13.02.25.07.35s.12.17.23.23.23.08.39.08c.15,0,.27-.03.37-.08.1-.06.18-.13.23-.23.05-.1.08-.22.08-.35v-2.43h.85v2.43c0,.29-.06.53-.17.74-.12.2-.29.36-.52.47s-.51.16-.84.16Z"/>
      <path class="cls-1" d="M112.49,46.92v-3.72h1.77c.24,0,.46.04.65.12.19.08.34.2.45.36.11.16.17.35.17.58s-.06.4-.17.56c-.11.16-.28.27-.52.35h0c.12.05.23.1.3.16.08.06.14.14.19.23.04.09.08.2.09.34.02.12.03.23.04.35s.02.21.02.3.02.17.03.22.04.09.07.11v.04h-.84s-.06-.07-.07-.16c-.01-.08-.02-.19-.03-.31,0-.12-.02-.25-.04-.39-.02-.19-.08-.33-.18-.42-.1-.09-.25-.14-.46-.14h-.63v1.42h-.85ZM113.34,44.87h.75c.19,0,.34-.04.44-.13.1-.09.15-.21.15-.35s-.05-.28-.14-.37-.23-.14-.42-.14h-.78v.99Z"/>
      <path class="cls-1" d="M116.06,46.92v-3.72h1.66c.22,0,.41.03.58.09.17.06.3.14.42.26.11.11.2.24.26.39.06.15.09.31.09.5,0,.23-.05.44-.15.62-.1.18-.25.32-.43.42-.19.1-.41.15-.67.15h-.89v1.29h-.86ZM116.93,44.96h.73c.18,0,.32-.05.41-.14.09-.09.14-.22.14-.38s-.05-.29-.14-.38-.23-.13-.41-.13h-.73v1.03Z"/>
      <path class="cls-1" d="M119.5,46.92v-3.72h1.77c.24,0,.46.04.65.12.19.08.34.2.45.36.11.16.17.35.17.58s-.06.4-.17.56c-.11.16-.28.27-.52.35h0c.12.05.23.1.3.16.08.06.14.14.19.23.04.09.08.2.09.34.02.12.03.23.04.35s.02.21.02.3.02.17.03.22.04.09.07.11v.04h-.84s-.06-.07-.07-.16c-.01-.08-.02-.19-.03-.31,0-.12-.02-.25-.04-.39-.02-.19-.08-.33-.18-.42-.1-.09-.25-.14-.46-.14h-.63v1.42h-.85ZM120.34,44.87h.75c.19,0,.34-.04.44-.13.1-.09.15-.21.15-.35s-.05-.28-.14-.37-.23-.14-.42-.14h-.78v.99Z"/>
      <path class="cls-1" d="M123.07,46.92v-3.72h.85v3.72h-.85Z"/>
      <path class="cls-1" d="M126.02,47c-.33,0-.62-.05-.86-.15s-.43-.24-.57-.43c-.14-.19-.21-.41-.22-.67h.86c.02.13.06.24.12.32s.15.15.26.19.25.06.41.06c.11,0,.21-.02.31-.04.1-.03.18-.07.24-.13.06-.06.09-.14.09-.24,0-.11-.03-.19-.1-.25-.07-.06-.17-.11-.29-.15s-.28-.08-.46-.12c-.18-.04-.35-.09-.51-.14-.16-.05-.3-.12-.42-.19s-.21-.18-.28-.31-.1-.29-.1-.48c0-.26.06-.47.19-.63.13-.16.3-.29.52-.37.22-.08.46-.12.74-.12.21,0,.39.02.57.07.17.05.32.12.45.21.13.09.23.21.31.35.08.14.12.3.13.48h-.83c-.02-.14-.09-.26-.2-.34-.11-.08-.26-.12-.45-.12-.17,0-.32.03-.42.1-.11.07-.16.16-.16.28,0,.1.04.17.1.23s.17.1.31.14c.13.04.3.08.49.12.17.04.33.08.48.14.15.05.29.12.41.21s.22.19.29.32.1.29.1.49c0,.25-.07.47-.2.64s-.31.31-.54.4-.48.14-.76.14Z"/>
      <path class="cls-1" d="M128.01,46.92v-3.72h2.79v.71h-1.94v.74h1.68v.68h-1.68v.86h1.98v.73h-2.82Z"/>
      <path class="cls-1" d="M132.56,46.92v-3.72h1.76c.19,0,.36.02.51.07.15.04.27.11.36.19.1.09.18.19.23.31s.08.25.08.4c0,.18-.05.34-.15.46-.1.12-.25.22-.45.28v.02c.24.06.42.17.55.33s.19.35.19.58c0,.18-.03.33-.1.47s-.15.25-.27.34c-.11.09-.24.16-.39.2s-.33.07-.53.07h-1.8ZM133.41,44.7h.8c.15,0,.26-.03.35-.1.09-.07.13-.17.13-.31,0-.09-.02-.17-.06-.23-.04-.06-.09-.11-.16-.14-.07-.03-.15-.05-.25-.05h-.81v.83ZM133.41,46.25h.87c.09,0,.16-.01.23-.04.07-.03.12-.06.17-.1.04-.04.08-.09.1-.15s.04-.12.04-.19c0-.11-.02-.2-.07-.27-.05-.07-.11-.12-.2-.16-.08-.04-.18-.05-.28-.05h-.85v.96Z"/>
      <path class="cls-1" d="M137.8,46.99c-.28,0-.54-.05-.76-.14s-.42-.23-.58-.4c-.16-.17-.28-.38-.37-.61s-.13-.49-.13-.77.04-.53.13-.77.21-.44.37-.61c.16-.17.35-.31.58-.4.23-.1.48-.14.76-.14s.54.05.76.14c.23.1.42.23.58.4.16.17.28.38.37.61.09.24.13.49.13.77s-.04.53-.13.77c-.08.23-.21.44-.37.61-.16.17-.35.31-.58.4-.23.1-.48.14-.76.14ZM137.8,46.3c.16,0,.3-.03.42-.09s.22-.15.3-.26.14-.24.18-.39c.04-.15.06-.31.06-.49s-.02-.34-.06-.49c-.04-.15-.1-.28-.18-.4s-.18-.2-.3-.26c-.12-.06-.26-.09-.42-.09s-.3.03-.42.09c-.12.06-.22.15-.31.26-.08.11-.14.25-.18.4s-.06.31-.06.49.02.34.06.49c.04.15.1.28.18.39.08.11.18.2.31.26.12.06.26.09.42.09Z"/>
      <path class="cls-1" d="M139.57,46.92l1.25-1.95-1.15-1.78h.97l.3.51c.04.07.09.15.13.24.04.08.08.17.12.25s.08.17.12.27h0c.05-.1.09-.19.13-.27.04-.08.08-.16.12-.25.04-.09.09-.16.13-.24l.31-.51h.93l-1.13,1.77,1.24,1.95h-1.01l-.38-.65c-.04-.07-.08-.15-.13-.24-.04-.09-.08-.17-.12-.25-.04-.08-.08-.17-.12-.27h0c-.05.1-.09.19-.12.27s-.08.16-.12.25-.09.17-.13.24l-.39.65h-.97Z"/>
      <path class="cls-1" d="M143.45,46.92v-.82h.83v.82h-.83ZM143.66,45.63l-.21-1.5v-.93h.82v.93l-.21,1.5h-.41Z"/>
    </g>
  </g>
  <g id="Capa_9" data-name="Capa 9">
    <path class="cls-2" d="M43.51,26.33l.68,3.06c.28,1.25,1.21,2.26,2.44,2.64l1.7.53-1.7.53c-1.23.38-2.16,1.38-2.44,2.64l-.68,3.06-.68-3.06c-.28-1.25-1.21-2.26-2.44-2.64l-1.7-.53,1.7-.53c1.23-.38,2.16-1.38,2.44-2.64l.68-3.06Z"/>
    <path class="cls-2" d="M36.25,32.8H.5c-.14,0-.25-.11-.25-.25s.11-.25.25-.25h35.75c.14,0,.25.11.25.25s-.11.25-.25.25Z"/>
  </g>
</svg>