<?xml version="1.0" encoding="UTF-8"?>
<svg id="Capa_2" data-name="Capa 2" xmlns="http://www.w3.org/2000/svg" xmlns:xlink="http://www.w3.org/1999/xlink" viewBox="0 0 390.88 199.34">
  <defs>
    <style>
      .cls-1, .cls-2 {
        fill: none;
      }

      .cls-3 {
        clip-path: url(#clippath-1);
      }

      .cls-4 {
        fill: #96d2d9;
      }

      .cls-5 {
        fill: #ec641d;
      }

      .cls-6 {
        fill: #f69f14;
      }

      .cls-2 {
        stroke: #fff;
        stroke-miterlimit: 10;
        stroke-width: .71px;
      }

      .cls-7 {
        clip-path: url(#clippath);
      }
    </style>
    <clipPath id="clippath">
      <rect class="cls-1" x="198.25" width="192.63" height="128.85"/>
    </clipPath>
    <clipPath id="clippath-1">
      <rect class="cls-1" y="94.92" width="156.11" height="104.42"/>
    </clipPath>
  </defs>
  <g id="Capa_1-2" data-name="Capa 1">
    <g class="cls-7">
      <path class="cls-6" d="M367.14.79h-147.49c-11.36,0-20.6,9.11-20.6,20.32v51.05c0,11.2,9.24,20.32,20.6,20.32h125.38l24.41,24.07,9.8,9.67c1.2,1.19,2.8,1.84,4.48,1.84,1.8,0,3.53-.76,4.73-2.08,1.2-1.31,1.78-3.09,1.59-4.86-1.06-9.82-1.84-34.88-2.31-54.19V21.11c0-11.2-9.24-20.32-20.6-20.32M367.14,5.69c8.64,0,15.64,6.9,15.64,15.42v45.93c.46,19.19,1.25,44.57,2.33,54.59.1.9-.62,1.53-1.38,1.53-.34,0-.68-.12-.97-.41-7.63-7.52-26.66-26.28-35.67-35.17h-127.44c-8.64,0-15.64-6.9-15.64-15.42V21.11c0-8.52,7-15.42,15.64-15.42h147.49Z"/>
      <path class="cls-2" d="M367.14.79h-147.49c-11.36,0-20.6,9.11-20.6,20.32v51.05c0,11.2,9.24,20.32,20.6,20.32h125.38l24.41,24.07,9.8,9.67c1.2,1.19,2.8,1.84,4.48,1.84,1.8,0,3.53-.76,4.73-2.08,1.2-1.31,1.78-3.09,1.59-4.86-1.06-9.82-1.84-34.88-2.31-54.19V21.11c0-11.2-9.24-20.32-20.6-20.32ZM367.14,5.69c8.64,0,15.64,6.9,15.64,15.42v45.93c.46,19.19,1.25,44.57,2.33,54.59.1.9-.62,1.53-1.38,1.53-.34,0-.68-.12-.97-.41-7.63-7.52-26.66-26.28-35.67-35.17h-127.44c-8.64,0-15.64-6.9-15.64-15.42V21.11c0-8.52,7-15.42,15.64-15.42h147.49Z"/>
      <path class="cls-6" d="M321.62,54.3c-2.68,0-4.86-2.18-4.86-4.86s2.18-4.86,4.86-4.86,4.86,2.18,4.86,4.86-2.18,4.86-4.86,4.86"/>
      <path class="cls-6" d="M294.56,54.3c-2.68,0-4.86-2.18-4.86-4.86s2.18-4.86,4.86-4.86,4.86,2.18,4.86,4.86-2.18,4.86-4.86,4.86"/>
      <path class="cls-6" d="M267.5,54.3c-2.68,0-4.86-2.18-4.86-4.86s2.18-4.86,4.86-4.86,4.86,2.18,4.86,4.86-2.18,4.86-4.86,4.86"/>
    </g>
    <g class="cls-3">
      <path class="cls-4" d="M19.24,95.56h119.53c9.21,0,16.7,7.39,16.7,16.46v41.37c0,9.08-7.49,16.46-16.7,16.46H37.16l-19.79,19.51-7.95,7.83c-.98.96-2.27,1.49-3.63,1.49-1.46,0-2.86-.61-3.84-1.69-.97-1.07-1.44-2.5-1.28-3.94.86-7.96,1.49-28.27,1.87-43.91v-37.13c0-9.08,7.49-16.46,16.7-16.46M19.24,99.53c-7,0-12.67,5.59-12.67,12.5v37.22c-.37,15.55-1.01,36.12-1.89,44.24-.08.73.5,1.24,1.12,1.24.27,0,.55-.1.79-.33,6.18-6.09,21.6-21.3,28.91-28.51h103.28c7,0,12.67-5.59,12.67-12.5v-41.37c0-6.9-5.67-12.5-12.67-12.5H19.24Z"/>
      <path class="cls-1" d="M19.24,95.56h119.53c9.21,0,16.7,7.39,16.7,16.46v41.37c0,9.08-7.49,16.46-16.7,16.46H37.16l-19.79,19.51-7.95,7.83c-.98.96-2.27,1.49-3.63,1.49-1.46,0-2.86-.61-3.84-1.69-.97-1.07-1.44-2.5-1.28-3.94.86-7.96,1.49-28.27,1.87-43.91v-37.13c0-9.08,7.49-16.46,16.7-16.46ZM19.24,99.53c-7,0-12.67,5.59-12.67,12.5v37.22c-.37,15.55-1.01,36.12-1.89,44.24-.08.73.5,1.24,1.12,1.24.27,0,.55-.1.79-.33,6.18-6.09,21.6-21.3,28.91-28.51h103.28c7,0,12.67-5.59,12.67-12.5v-41.37c0-6.9-5.67-12.5-12.67-12.5H19.24Z"/>
      <path class="cls-4" d="M56.12,138.93c2.17,0,3.94-1.76,3.94-3.94s-1.76-3.94-3.94-3.94-3.94,1.76-3.94,3.94,1.76,3.94,3.94,3.94"/>
      <path class="cls-4" d="M78.05,138.93c2.17,0,3.94-1.76,3.94-3.94s-1.76-3.94-3.94-3.94-3.94,1.76-3.94,3.94,1.76,3.94,3.94,3.94"/>
      <path class="cls-4" d="M99.98,138.93c2.17,0,3.94-1.76,3.94-3.94s-1.76-3.94-3.94-3.94-3.94,1.76-3.94,3.94,1.76,3.94,3.94,3.94"/>
    </g>
    <g>
      <path class="cls-4" d="M286.76,160.39c-1.35,0-2.61.73-3.29,1.9-.68,1.17-.68,2.62,0,3.8.68,1.17,1.94,1.9,3.29,1.9s2.61-.73,3.29-1.9c.68-1.17.68-2.62,0-3.8-.67-1.17-1.93-1.9-3.29-1.9Z"/>
      <path class="cls-4" d="M271.81,160.39c-1.35,0-2.61.73-3.29,1.9-.68,1.17-.68,2.62,0,3.8.67,1.17,1.93,1.9,3.29,1.9s2.61-.73,3.29-1.9c.68-1.17.68-2.62,0-3.8-.68-1.17-1.94-1.9-3.29-1.9Z"/>
      <path class="cls-4" d="M286.76,146.18c-1.35,0-2.61.73-3.29,1.9-.68,1.17-.68,2.63,0,3.8.68,1.17,1.94,1.9,3.29,1.9s2.61-.73,3.29-1.9c.68-1.17.68-2.62,0-3.8-.67-1.17-1.93-1.9-3.29-1.9Z"/>
      <path class="cls-4" d="M286.76,190.27c-1.35,0-2.61.73-3.29,1.9-.68,1.17-.68,2.63,0,3.8.68,1.17,1.94,1.9,3.29,1.9s2.61-.73,3.29-1.9c.68-1.17.68-2.63,0-3.8-.67-1.17-1.93-1.9-3.29-1.9Z"/>
      <path class="cls-4" d="M271.81,190.27c-1.35,0-2.61.73-3.29,1.9-.68,1.17-.67,2.62,0,3.8.67,1.17,1.93,1.9,3.29,1.9s2.61-.73,3.29-1.9c.68-1.17.68-2.62,0-3.8-.68-1.17-1.94-1.9-3.29-1.9Z"/>
      <path class="cls-4" d="M286.76,176.23c-1.35,0-2.61.73-3.29,1.9-.68,1.17-.68,2.63,0,3.8.68,1.17,1.94,1.9,3.29,1.9s2.61-.73,3.29-1.9c.68-1.17.68-2.62,0-3.8-.67-1.17-1.93-1.9-3.29-1.9Z"/>
      <path class="cls-4" d="M271.81,176.23c-1.35,0-2.61.73-3.29,1.9-.68,1.17-.68,2.62,0,3.8.67,1.17,1.93,1.9,3.29,1.9s2.61-.73,3.29-1.9c.68-1.17.68-2.62,0-3.8-.68-1.17-1.94-1.9-3.29-1.9Z"/>
      <path class="cls-4" d="M271.81,146.18c-1.35,0-2.61.73-3.29,1.9-.68,1.17-.68,2.62,0,3.8.67,1.17,1.93,1.9,3.29,1.9s2.61-.73,3.29-1.9c.68-1.17.68-2.62,0-3.8-.68-1.17-1.94-1.9-3.29-1.9Z"/>
      <path class="cls-4" d="M302.18,176.29c-1.17-.68-2.62-.67-3.8,0-1.17.68-1.9,1.94-1.9,3.29s.73,2.61,1.9,3.29c.59.34,1.24.51,1.9.51s1.31-.17,1.9-.51c1.17-.68,1.9-1.94,1.9-3.29s-.73-2.61-1.9-3.29Z"/>
      <path class="cls-4" d="M298.38,167.92c.59.34,1.24.51,1.9.51s1.31-.17,1.9-.51c1.17-.68,1.9-1.94,1.9-3.29s-.73-2.61-1.9-3.29c-1.17-.68-2.62-.67-3.8,0-1.17.68-1.9,1.94-1.9,3.29s.73,2.61,1.9,3.29Z"/>
      <path class="cls-4" d="M259.45,176.29c-1.17-.68-2.63-.67-3.8,0-1.17.68-1.9,1.94-1.9,3.29s.73,2.61,1.9,3.29c.58.34,1.24.51,1.9.51s1.31-.17,1.9-.51c1.17-.68,1.9-1.94,1.9-3.29s-.73-2.61-1.9-3.29Z"/>
      <path class="cls-4" d="M259.45,161.35c-1.17-.68-2.63-.67-3.8,0-1.17.68-1.9,1.94-1.9,3.29s.73,2.61,1.9,3.29c.58.34,1.24.51,1.9.51s1.31-.17,1.9-.51c1.17-.68,1.9-1.94,1.9-3.29s-.73-2.61-1.9-3.29Z"/>
    </g>
    <path class="cls-5" d="M134.33,11.72l-45.81,4.29,2.15,26.15,23.34,11.38,20.32-41.82ZM129.21,16.76l-16.31,33.56-18.73-9.13,35.03-24.43ZM127.91,14.74l-35.08,24.46-1.73-21.02,36.8-3.45Z"/>
  </g>
</svg>