<?xml version="1.0" encoding="UTF-8"?>
<svg id="Capa_2" data-name="Capa 2" xmlns="http://www.w3.org/2000/svg" viewBox="0 0 481.41 520.73">
  <defs>
    <style>
      .cls-1 {
        fill: #4a00ff;
      }
    </style>
  </defs>
  <g id="_Ñëîé_1" data-name="Ñëîé 1">
    <path class="cls-1" d="M240.71,520.73c-25.39,0-49.56-8.07-66.32-22.13-15.21-12.76-24.1-30.06-25.72-50.04-.9-11.13.4-23,3.89-35.52-9.1,9.28-18.72,16.34-28.81,21.13-18.11,8.58-37.54,9.53-56.2,2.74-20.56-7.48-39.63-24.38-52.32-46.37-12.69-21.98-17.79-46.95-13.99-68.5,3.45-19.55,13.98-35.91,30.47-47.3,9.19-6.35,20.12-11.15,32.7-14.39-12.58-3.24-23.51-8.04-32.7-14.39-16.49-11.39-27.02-27.74-30.47-47.3-3.8-21.55,1.3-46.51,13.99-68.5,12.69-21.98,31.76-38.88,52.32-46.37,18.65-6.79,38.09-5.84,56.2,2.74,10.09,4.78,19.72,11.85,28.81,21.13-3.49-12.52-4.79-24.39-3.89-35.52,1.62-19.97,10.51-37.28,25.72-50.04C191.15,8.07,215.32,0,240.71,0s49.56,8.07,66.32,22.13c15.21,12.76,24.1,30.06,25.72,50.04.9,11.13-.4,23-3.89,35.52,9.1-9.28,18.72-16.34,28.81-21.13,18.11-8.58,37.54-9.53,56.2-2.74,20.56,7.48,39.63,24.38,52.32,46.37,12.69,21.98,17.79,46.95,13.99,68.5-3.45,19.55-13.98,35.91-30.47,47.3-9.19,6.35-20.12,11.15-32.7,14.39,12.58,3.24,23.52,8.04,32.7,14.39,16.49,11.39,27.02,27.74,30.47,47.3,3.8,21.55-1.3,46.51-13.99,68.5-12.69,21.98-31.76,38.88-52.32,46.37-18.65,6.79-38.09,5.84-56.2-2.74-10.09-4.78-19.72-11.85-28.81-21.13,3.49,12.52,4.79,24.39,3.89,35.52-1.62,19.97-10.51,37.28-25.72,50.04-16.76,14.06-40.93,22.13-66.32,22.13ZM178.84,377.52c-28.03,48.55-27.33,88.83,1.98,113.42,31.34,26.3,88.43,26.3,119.78,0,29.31-24.59,30.01-64.87,1.98-113.42l8.66-5c28.03,48.55,63.27,68.08,99.21,55,38.45-13.99,66.99-63.44,59.89-103.73-6.64-37.67-41.18-58.42-97.24-58.42v-10c56.06,0,90.59-20.75,97.24-58.42,7.1-40.29-21.44-89.74-59.89-103.73-35.95-13.08-71.18,6.45-99.21,55l-8.66-5c28.03-48.55,27.33-88.83-1.98-113.42-31.34-26.3-88.43-26.3-119.78,0-29.31,24.59-30.01,64.87-1.98,113.42l-8.66,5c-28.03-48.55-63.27-68.08-99.21-55C32.52,107.21,3.97,156.65,11.08,196.94c6.64,37.67,41.18,58.42,97.24,58.42v10c-56.06,0-90.59,20.75-97.24,58.42-7.1,40.29,21.44,89.74,59.89,103.73,35.95,13.09,71.18-6.45,99.21-55l8.66,5Z"/>
  </g>
</svg>