<?xml version="1.0" encoding="UTF-8"?>
<svg id="Capa_2" data-name="Capa 2" xmlns="http://www.w3.org/2000/svg" xmlns:xlink="http://www.w3.org/1999/xlink" viewBox="0 0 444.23 196.72">
  <defs>
    <style>
      .cls-1 {
        clip-path: url(#clippath-6);
      }

      .cls-2 {
        clip-path: url(#clippath-7);
      }

      .cls-3 {
        clip-path: url(#clippath-4);
      }

      .cls-4 {
        clip-path: url(#clippath-9);
      }

      .cls-5 {
        clip-path: url(#clippath-10);
      }

      .cls-6 {
        fill: #fff;
      }

      .cls-7 {
        stroke-dasharray: 6.96 6.96;
      }

      .cls-7, .cls-8, .cls-9, .cls-10, .cls-11, .cls-12, .cls-13, .cls-14, .cls-15 {
        fill: none;
      }

      .cls-7, .cls-9, .cls-10, .cls-11, .cls-12, .cls-13, .cls-14, .cls-15 {
        stroke: #f69f14;
      }

      .cls-7, .cls-9, .cls-10, .cls-11, .cls-12, .cls-13, .cls-15 {
        stroke-miterlimit: 10;
      }

      .cls-7, .cls-10, .cls-11, .cls-12, .cls-14, .cls-15 {
        stroke-width: 2px;
      }

      .cls-16 {
        clip-path: url(#clippath-11);
      }

      .cls-9 {
        stroke-width: .51px;
      }

      .cls-17 {
        clip-path: url(#clippath-1);
      }

      .cls-18 {
        clip-path: url(#clippath-5);
      }

      .cls-19 {
        clip-path: url(#clippath-8);
      }

      .cls-20 {
        fill: #f69f14;
      }

      .cls-21 {
        clip-path: url(#clippath-3);
      }

      .cls-22 {
        clip-path: url(#clippath-12);
      }

      .cls-11 {
        stroke-dasharray: 3.94 3.94;
      }

      .cls-23 {
        fill: #f69f19;
      }

      .cls-12 {
        stroke-dasharray: 7.6 7.6;
      }

      .cls-13 {
        stroke-width: 3px;
      }

      .cls-24 {
        fill: #e99202;
      }

      .cls-14 {
        stroke-linecap: round;
        stroke-linejoin: round;
      }

      .cls-25 {
        clip-path: url(#clippath-2);
      }

      .cls-26 {
        clip-path: url(#clippath);
      }

      .cls-15 {
        stroke-dasharray: 3.97 3.97;
      }
    </style>
    <clipPath id="clippath">
      <polygon class="cls-8" points="5.9 0 444.23 1.91 444.23 196.72 5.9 194.81 5.9 0"/>
    </clipPath>
    <clipPath id="clippath-1">
      <polygon class="cls-8" points="5.9 0 444.23 1.91 444.23 196.72 5.9 194.81 5.9 0"/>
    </clipPath>
    <clipPath id="clippath-2">
      <polygon class="cls-8" points="5.9 0 444.23 1.91 444.23 196.72 5.9 194.81 5.9 0"/>
    </clipPath>
    <clipPath id="clippath-3">
      <polygon class="cls-8" points="5.9 0 444.23 1.91 444.23 196.72 5.9 194.81 5.9 0"/>
    </clipPath>
    <clipPath id="clippath-4">
      <polygon class="cls-8" points="5.9 0 444.23 1.91 444.23 196.72 5.9 194.81 5.9 0"/>
    </clipPath>
    <clipPath id="clippath-5">
      <polygon class="cls-8" points="5.9 0 444.23 1.91 444.23 196.72 5.9 194.81 5.9 0"/>
    </clipPath>
    <clipPath id="clippath-6">
      <polygon class="cls-8" points="5.9 0 444.23 1.91 444.23 196.72 5.9 194.81 5.9 0"/>
    </clipPath>
    <clipPath id="clippath-7">
      <polygon class="cls-8" points="5.9 0 444.23 1.91 444.23 196.72 5.9 194.81 5.9 0"/>
    </clipPath>
    <clipPath id="clippath-8">
      <polygon class="cls-8" points="5.9 0 444.23 1.91 444.23 196.72 5.9 194.81 5.9 0"/>
    </clipPath>
    <clipPath id="clippath-9">
      <polygon class="cls-8" points="5.9 0 444.23 1.91 444.23 196.72 5.9 194.81 5.9 0"/>
    </clipPath>
    <clipPath id="clippath-10">
      <polyline class="cls-8" points="5.9 0 444.23 1.91 444.23 196.72 5.9 194.81"/>
    </clipPath>
    <clipPath id="clippath-11">
      <rect class="cls-8" y="131.88" width="121" height="64.78"/>
    </clipPath>
    <clipPath id="clippath-12">
      <polyline class="cls-8" points="9.9 0 444.23 1.91 444.23 196.72 9.9 194.81"/>
    </clipPath>
  </defs>
  <g id="Capa_2-2" data-name="Capa 2">
    <g id="Capa_1-2" data-name="Capa 1-2">
      <g>
        <g class="cls-26">
          <g>
            <path class="cls-6" d="M224.18,146.31c0,1.31-1.14,2.37-2.54,2.37s-2.54-1.06-2.54-2.37,1.14-2.37,2.54-2.37,2.54,1.06,2.54,2.37"/>
            <path class="cls-24" d="M249.46,150.43c0,1.43-1.16,2.6-2.6,2.6s-2.59-1.16-2.59-2.6,1.16-2.6,2.59-2.6,2.6,1.16,2.6,2.6"/>
            <path class="cls-9" d="M249.46,150.43c0,1.43-1.16,2.6-2.6,2.6s-2.59-1.16-2.59-2.6,1.16-2.6,2.59-2.6,2.6,1.16,2.6,2.6Z"/>
            <path class="cls-6" d="M225.88,150.43c0,1.6-1.29,2.89-2.89,2.89s-2.89-1.29-2.89-2.89,1.29-2.89,2.89-2.89,2.89,1.29,2.89,2.89"/>
            <path class="cls-20" d="M267.03,195.12h-30.8v-15.46c2.96-.22,5.67-.86,8.09-1.92,3.91-1.71,6.74-5.99,6.86-6.17l.03-.05c.13-.22,1.31-2.18,1.71-3.38.93-2.8.71-5.5-.63-7.61-.7-1.1-1.88-1.99-2.76-2.39-1.41-.7-3.03-1.02-5.1-1.02-1.5,0-3.14.17-4.88.34-1.07.11-2.17.22-3.34.31l.02-.72c0-.17.02-.97.02-1.81l-.03-13.09v-3.72h4.29l12.42.02,12.47-.02h3v16.38l1.42.15c6.59.69,11.2,5.01,11.2,10.51s-4.89,10.7-11.13,11.56l-1.37.19v17.92h-1.5v-.02Z"/>
            <path class="cls-20" d="M248.82,159.55l.43.23c-.13-.08-.27-.15-.4-.22,0,0-.02,0-.03,0M265.41,136.82h-1.29l-11.18.02h-.26l-12.15-.02h-5.88v5.32l.03,13.08c0,.9-.02,1.76-.02,1.77l-.07,2.45c3.97-.18,7.17-.75,9.85-.75,1.65,0,3.1.21,4.41.86.68.3,1.61,1.03,2.11,1.81,1.08,1.7,1.24,3.92.47,6.26-.36,1.07-1.56,3.07-1.56,3.07,0,0-2.64,4.05-6.16,5.58-2.94,1.28-6.06,1.79-9.05,1.86v1.67h0v16.9h35.47v-18.13c6.97-.97,12.51-6.59,12.51-13.14s-5.3-11.33-12.62-12.09v-16.54h-4.59l-.02.02ZM265.41,140h1.41v16.23s2.84.3,2.84.3c5.75.6,9.77,4.27,9.77,8.93s-4.28,9.23-9.75,9.99l-2.74.38v15.58c-.01.47-.01,1.76-.01,2.14h-29.1v-12.43c2.57-.31,4.96-.95,7.14-1.9,4.26-1.86,7.23-6.26,7.55-6.76l.03-.05.03-.05c.33-.54,1.42-2.4,1.86-3.7,1.09-3.26.8-6.44-.8-8.97-.93-1.46-2.41-2.51-3.43-2.98-1.63-.8-3.47-1.17-5.78-1.17-1.58,0-3.26.17-5.04.35-.51.05-1.02.1-1.55.15v-.8l-.03-13.08v-2.14h2.69l12.16.02h.27l11.18-.02h1.28l.02-.02Z"/>
            <path class="cls-20" d="M226.81,159.21c1.4.3,2.64.34,3.83.33v-2.86s0-16.43,0-16.43v-.42l-.02-2.98-2.98-.07h-.8c-12.21,0-20.84,1.42-27.16,4.48-5.37,2.6-9.24,6.32-12.75,12.31-1.05-.1-2.31-.2-3.1-.2-7.29,0-13.22,5.58-13.22,12.43s5.93,12.43,13.22,12.43c.69,0,1.33-.02,2.18-.11l.29-.03c4.35,7.03,10.72,12.14,18.96,15.2,6.19,2.3,13.21,3.42,21.47,3.42h.84l3.03-.03.02-3.03v-15.64c-3.1-.28-5.87-.93-7.86-1.51-.95-.25-1.93-.57-2.92-.98-.14-.06-.23-.09-.23-.09h0c-4.12-1.75-8.04-4.94-8.04-9.9,0-.65.08-1.23.25-1.76h0c.08-.34,1.73-7.42,14.97-4.56"/>
            <path class="cls-6" d="M219.86,175.52c-.08-.03-.15-.06-.23-.09h0s.08.03.23.09"/>
            <path class="cls-6" d="M225.63,149.65c0,1.71-1.39,3.1-3.1,3.1s-3.1-1.39-3.1-3.1,1.39-3.1,3.1-3.1,3.1,1.39,3.1,3.1"/>
            <path class="cls-6" d="M246.43,149.65c0,1.71-1.39,3.1-3.1,3.1s-3.1-1.39-3.1-3.1,1.39-3.1,3.1-3.1,3.1,1.39,3.1,3.1"/>
            <path class="cls-20" d="M251.75,131.25c-4.24,0-7.69-3.45-7.69-7.69s3.45-7.69,7.69-7.69,7.69,3.45,7.69,7.69-3.45,7.69-7.69,7.69"/>
            <path class="cls-20" d="M251.75,114.29c-5.11,0-9.28,4.16-9.28,9.28s4.16,9.28,9.28,9.28,9.28-4.16,9.28-9.28-4.16-9.28-9.28-9.28M251.75,117.47c3.37,0,6.1,2.73,6.1,6.1s-2.73,6.1-6.1,6.1-6.1-2.73-6.1-6.1,2.73-6.1,6.1-6.1"/>
            <path class="cls-6" d="M223.98,172.45c0,1.31-1.14,2.37-2.54,2.37s-2.54-1.06-2.54-2.37,1.14-2.37,2.54-2.37,2.54,1.06,2.54,2.37"/>
            <path class="cls-6" d="M387.87,146.31c0,1.31-1.14,2.37-2.54,2.37s-2.54-1.06-2.54-2.37,1.14-2.37,2.54-2.37,2.54,1.06,2.54,2.37"/>
            <path class="cls-24" d="M413.16,150.43c0,1.43-1.16,2.6-2.6,2.6s-2.59-1.16-2.59-2.6,1.16-2.6,2.59-2.6,2.6,1.16,2.6,2.6"/>
            <path class="cls-9" d="M413.16,150.43c0,1.43-1.16,2.6-2.6,2.6s-2.59-1.16-2.59-2.6,1.16-2.6,2.59-2.6,2.6,1.16,2.6,2.6Z"/>
            <path class="cls-6" d="M389.58,150.43c0,1.6-1.29,2.89-2.89,2.89s-2.89-1.29-2.89-2.89,1.29-2.89,2.89-2.89,2.89,1.29,2.89,2.89"/>
            <path class="cls-6" d="M428.65,195.12h-30.8v-15.46c2.95-.22,5.67-.86,8.09-1.92,3.91-1.71,6.74-5.99,6.86-6.17l.03-.05c.13-.22,1.31-2.18,1.71-3.38.93-2.8.71-5.5-.63-7.61-.7-1.1-1.88-1.99-2.76-2.39-1.41-.7-3.03-1.02-5.1-1.02-1.5,0-3.14.17-4.88.34-1.07.11-2.17.22-3.34.31l.02-.72s.02-.92.02-1.81l-.03-13.09v-3.72h4.29l12.42.02,12.47-.02h3v16.38l1.42.15c6.59.69,11.2,5.01,11.2,10.51s-4.89,10.7-11.13,11.56l-1.37.19v17.92h-1.5v-.02Z"/>
            <path class="cls-20" d="M410.44,159.55l.43.23c-.13-.08-.27-.15-.41-.22,0,0-.02,0-.03,0M427.03,136.82h-1.29l-11.18.02h-.26l-12.15-.02h-5.88v5.32l.03,13.08c0,.9-.02,1.76-.02,1.77l-.07,2.45c3.97-.18,7.17-.75,9.85-.75,1.65,0,3.1.21,4.41.86.68.3,1.61,1.03,2.11,1.81,1.08,1.7,1.24,3.92.47,6.26-.36,1.07-1.56,3.07-1.56,3.07,0,0-2.64,4.05-6.16,5.58-2.94,1.28-6.06,1.79-9.05,1.86v1.67h0v16.9h35.47v-18.13c6.97-.97,12.51-6.59,12.51-13.14s-5.3-11.33-12.62-12.09v-16.54h-4.59l-.02.02ZM427.03,140h1.41v16.23s2.84.3,2.84.3c5.75.6,9.77,4.27,9.77,8.93s-4.28,9.23-9.75,9.99l-2.74.38v15.58c-.01.47-.01,1.76-.01,2.14h-29.1v-12.43c2.57-.31,4.96-.95,7.14-1.9,4.26-1.86,7.23-6.26,7.55-6.76l.03-.05.03-.05c.33-.54,1.42-2.4,1.86-3.7,1.09-3.26.8-6.44-.8-8.97-.93-1.46-2.41-2.51-3.43-2.98-1.63-.8-3.47-1.17-5.78-1.17-1.58,0-3.26.17-5.04.35-.51.05-1.02.1-1.55.15v-.8l-.03-13.08v-2.14h2.69l12.16.02h.27l11.18-.02h1.28l.02-.02Z"/>
            <path class="cls-20" d="M388.42,159.21c1.4.3,2.64.34,3.83.33v-2.86s.01-16.43.01-16.43v-.42l-.02-2.98-2.98-.07h-.8c-12.21,0-20.84,1.42-27.16,4.48-5.37,2.6-9.24,6.32-12.75,12.31-1.05-.1-2.31-.2-3.1-.2-7.29,0-13.22,5.58-13.22,12.43s5.93,12.43,13.22,12.43c.69,0,1.33-.02,2.18-.11l.3-.03c4.35,7.03,10.71,12.14,18.96,15.2,6.19,2.3,13.21,3.42,21.47,3.42h.84l3.03-.03.02-3.03v-15.64c-3.1-.28-5.87-.93-7.86-1.51-.95-.25-1.93-.57-2.92-.98-.14-.06-.23-.09-.23-.09h0c-4.12-1.75-8.04-4.94-8.04-9.9,0-.65.08-1.23.25-1.76h0c.08-.34,1.73-7.42,14.97-4.56"/>
            <path class="cls-6" d="M381.47,175.52c-.08-.03-.15-.06-.23-.09h0s.08.03.23.09"/>
            <path class="cls-6" d="M387.25,149.65c0,1.71-1.39,3.1-3.1,3.1s-3.1-1.39-3.1-3.1,1.39-3.1,3.1-3.1,3.1,1.39,3.1,3.1"/>
            <path class="cls-20" d="M408.05,149.65c0,1.71-1.39,3.1-3.1,3.1s-3.1-1.39-3.1-3.1,1.39-3.1,3.1-3.1,3.1,1.39,3.1,3.1"/>
            <path class="cls-6" d="M413.37,131.25c-4.24,0-7.69-3.45-7.69-7.69s3.45-7.69,7.69-7.69,7.69,3.45,7.69,7.69-3.45,7.69-7.69,7.69"/>
            <path class="cls-20" d="M413.37,114.29c-5.11,0-9.28,4.16-9.28,9.28s4.16,9.28,9.28,9.28,9.28-4.16,9.28-9.28-4.16-9.28-9.28-9.28M413.37,117.47c3.37,0,6.1,2.73,6.1,6.1s-2.73,6.1-6.1,6.1-6.1-2.73-6.1-6.1,2.73-6.1,6.1-6.1"/>
            <path class="cls-6" d="M387.67,172.45c0,1.31-1.14,2.37-2.54,2.37s-2.54-1.06-2.54-2.37,1.14-2.37,2.54-2.37,2.54,1.06,2.54,2.37"/>
            <path class="cls-20" d="M48.55,45.53c1.35.28,2.56.32,3.7.31v-2.7s.01-15.53.01-15.53v-.4l-.02-2.82-2.88-.07h-.78c-11.8,0-20.15,1.35-26.26,4.24-5.19,2.46-8.94,5.98-12.33,11.64-1.01-.09-2.24-.18-3-.18-7.05,0-12.78,5.27-12.78,11.75S-.06,63.52,6.99,63.52c.67,0,1.29-.02,2.11-.11l.29-.03c4.2,6.64,10.36,11.47,18.33,14.37,5.98,2.18,12.77,3.24,20.76,3.24h.81l2.93-.03.02-2.86v-14.79c-3-.26-5.68-.88-7.6-1.43-.91-.23-1.87-.54-2.82-.92-.14-.05-.22-.09-.22-.09h0c-3.98-1.66-7.78-4.67-7.78-9.35,0-.61.08-1.16.24-1.66h0c.08-.32,1.67-7.01,14.47-4.31"/>
            <path class="cls-6" d="M41.83,60.95c-.07-.03-.15-.06-.22-.09h0s.08.04.22.09"/>
            <path class="cls-6" d="M47.42,36.5c0,1.62-1.34,2.93-3,2.93s-3-1.31-3-2.93,1.34-2.93,3-2.93,3,1.31,3,2.93"/>
            <path class="cls-20" d="M70.6,18.91c-4.26,0-7.72-3.4-7.72-7.59s3.46-7.59,7.72-7.59,7.72,3.4,7.72,7.59-3.46,7.59-7.72,7.59"/>
            <path class="cls-20" d="M70.6,1.91c-5.26,0-9.55,4.22-9.55,9.42s4.28,9.42,9.55,9.42,9.55-4.22,9.55-9.42-4.29-9.42-9.55-9.42M70.6,5.56c3.25,0,5.89,2.58,5.89,5.76s-2.64,5.76-5.89,5.76-5.89-2.58-5.89-5.76,2.64-5.76,5.89-5.76"/>
          </g>
        </g>
        <rect class="cls-20" x="23.25" y="29.47" width="29.02" height="44.28"/>
        <g class="cls-17">
          <g>
            <path class="cls-6" d="M52.61,40.77c-11.4,0-20.65,0-20.65,11.88s9.24,11.88,20.65,11.88"/>
            <path class="cls-6" d="M10.01,40.19s-5.83,9.83-.6,23.18c5.47,14-3.51,3.88-3.51,3.88l-1.15-22.47.75-11.2s4.51,6.61,4.51,6.61Z"/>
          </g>
        </g>
        <rect class="cls-20" x="60.5" y="24.32" width="21" height="56.66"/>
        <g class="cls-25">
          <g>
            <path class="cls-20" d="M180.29,45.53c1.35.28,2.56.32,3.7.31v-2.7s0-15.53,0-15.53v-.4l-.02-2.82-2.88-.07h-.78c-11.8,0-20.15,1.35-26.26,4.24-5.19,2.46-8.94,5.98-12.33,11.64-1.01-.09-2.24-.18-3-.18-7.05,0-12.78,5.27-12.78,11.75s5.73,11.75,12.78,11.75c.67,0,1.29-.02,2.11-.11l.29-.03c4.2,6.64,10.36,11.47,18.33,14.37,5.98,2.18,12.77,3.24,20.76,3.24h.81l2.93-.03.02-2.86v-14.79c-3-.26-5.68-.88-7.6-1.43-.91-.23-1.87-.54-2.82-.92-.14-.05-.22-.09-.22-.09h0c-3.98-1.66-7.78-4.67-7.78-9.35,0-.61.08-1.16.24-1.66h0c.08-.32,1.67-7.01,14.47-4.31"/>
            <path class="cls-6" d="M173.57,60.95c-.07-.03-.15-.06-.22-.09h0s.08.04.22.09"/>
            <path class="cls-6" d="M179.16,36.5c0,1.62-1.34,2.93-3,2.93s-3-1.31-3-2.93,1.34-2.93,3-2.93,3,1.31,3,2.93"/>
            <path class="cls-20" d="M255.9,18.91c-4.26,0-7.72-3.4-7.72-7.59s3.46-7.59,7.72-7.59,7.72,3.4,7.72,7.59-3.46,7.59-7.72,7.59"/>
            <path class="cls-20" d="M255.9,1.91c-5.26,0-9.55,4.22-9.55,9.42s4.28,9.42,9.55,9.42,9.55-4.22,9.55-9.42-4.28-9.42-9.55-9.42M255.9,5.56c3.25,0,5.89,2.58,5.89,5.76s-2.64,5.76-5.89,5.76-5.89-2.58-5.89-5.76,2.64-5.76,5.89-5.76"/>
          </g>
        </g>
        <rect class="cls-20" x="154.99" y="29.47" width="29.02" height="44.28"/>
        <g class="cls-21">
          <path class="cls-6" d="M184.36,40.77c-11.4,0-20.65,0-20.65,11.88s9.24,11.88,20.65,11.88"/>
        </g>
        <rect class="cls-20" x="240.61" y="24.32" width="30.58" height="56.66"/>
        <g class="cls-3">
          <path class="cls-6" d="M241.12,80.19h-16.39c0,11.4,0,20.65-11.88,20.65s-11.88-9.24-11.88-20.65h-16.49"/>
        </g>
        <line class="cls-10" x1="241.12" y1="80.19" x2="239.05" y2="80.19"/>
        <line class="cls-11" x1="234.97" y1="80.19" x2="228.85" y2="80.19"/>
        <g class="cls-18">
          <g>
            <path class="cls-10" d="M226.81,80.19h-2.07v2.07"/>
            <path class="cls-7" d="M224.14,91.58c-.84,4.58-2.85,7.88-7.69,8.91"/>
            <path class="cls-12" d="M207.09,99.8c-4.22-1.88-5.52-6.16-5.93-11.64"/>
            <path class="cls-10" d="M201.05,86.19c-.02-.64-.04-1.3-.05-1.97M214.66,100.76c-.57.05-1.17.08-1.8.08-.7,0-1.35-.03-1.97-.09M224.66,86.2c-.02.61-.05,1.21-.1,1.8"/>
            <path class="cls-10" d="M200.98,82.26v-2.07h-2.07"/>
          </g>
        </g>
        <line class="cls-15" x1="194.79" y1="80.19" x2="188.62" y2="80.19"/>
        <line class="cls-10" x1="186.57" y1="80.19" x2="184.49" y2="80.19"/>
        <g class="cls-1">
          <path class="cls-6" d="M241.12,25.14h-16.39c0-11.4,0-20.65-11.88-20.65s-11.88,9.24-11.88,20.65h-16.49"/>
        </g>
        <line class="cls-13" x1="241.12" y1="25.14" x2="239.05" y2="25.14"/>
        <line class="cls-11" x1="233.96" y1="25.14" x2="228.85" y2="25.14"/>
        <g class="cls-2">
          <g>
            <path class="cls-10" d="M226.81,25.14h-2.07v-2.07"/>
            <path class="cls-7" d="M224.14,13.75c-.84-4.58-2.85-7.88-7.69-8.91"/>
            <path class="cls-12" d="M207.09,5.54c-4.22,1.88-5.52,6.16-5.93,11.64"/>
            <path class="cls-10" d="M202.12,19.14c-.02.64-.04,1.3-.05,1.97M215.73,4.57c-.57-.05-1.17-.08-1.8-.08-.7,0-1.35.03-1.97.09M225.73,19.13c-.02-.61-.05-1.21-.1-1.8"/>
            <path class="cls-10" d="M200.98,23.07v2.07h-2.07"/>
          </g>
        </g>
        <line class="cls-15" x1="194.79" y1="25.14" x2="188.62" y2="25.14"/>
        <line class="cls-10" x1="186.57" y1="25.14" x2="184.49" y2="25.14"/>
        <g class="cls-19">
          <g>
            <path class="cls-20" d="M283.03,51.72c0,6.54-5.3,11.84-11.84,11.84s-11.84-5.3-11.84-11.84,5.3-11.84,11.84-11.84,11.84,5.3,11.84,11.84"/>
            <path class="cls-6" d="M239.77,40.77c11.4,0,20.65,0,20.65,11.88s-9.24,11.88-20.65,11.88"/>
            <path class="cls-20" d="M381.62,45.71c1.35.28,2.56.32,3.7.31v-2.7s.01-15.53.01-15.53v-.4l-.02-2.82-2.88-.07h-.78c-11.8,0-20.15,1.35-26.26,4.24-5.19,2.46-8.94,5.98-12.33,11.64-1.01-.09-2.24-.18-3-.18-7.05,0-12.78,5.27-12.78,11.75s5.73,11.75,12.78,11.75c.67,0,1.29-.02,2.11-.11l.29-.03c4.2,6.64,10.36,11.47,18.33,14.37,5.98,2.18,12.77,3.24,20.76,3.24h.81l2.93-.03.02-2.86v-14.79c-3-.26-5.68-.88-7.6-1.43-.91-.23-1.87-.54-2.82-.92-.14-.05-.22-.09-.22-.09h0c-3.98-1.66-7.78-4.67-7.78-9.35,0-.61.08-1.16.24-1.66h0c.08-.32,1.67-7.01,14.47-4.31"/>
            <path class="cls-6" d="M374.9,61.12c-.07-.03-.15-.06-.22-.09h0s.08.04.22.09"/>
            <path class="cls-6" d="M380.49,36.68c0,1.62-1.34,2.93-3,2.93s-3-1.31-3-2.93,1.34-2.93,3-2.93,3,1.31,3,2.93"/>
            <path class="cls-20" d="M414.66,19.09c-4.26,0-7.72-3.4-7.72-7.59s3.46-7.59,7.72-7.59,7.72,3.4,7.72,7.59-3.46,7.59-7.72,7.59"/>
            <path class="cls-20" d="M414.66,2.09c-5.26,0-9.55,4.22-9.55,9.42s4.28,9.42,9.55,9.42,9.55-4.22,9.55-9.42-4.28-9.42-9.55-9.42M414.66,5.74c3.25,0,5.89,2.58,5.89,5.76s-2.64,5.76-5.89,5.76-5.89-2.58-5.89-5.76,2.64-5.76,5.89-5.76"/>
          </g>
        </g>
        <rect class="cls-20" x="356.32" y="29.64" width="29.02" height="44.28"/>
        <g class="cls-4">
          <path class="cls-6" d="M385.68,40.94c-11.4,0-20.65,0-20.65,11.88s9.24,11.88,20.65,11.88"/>
        </g>
        <rect class="cls-20" x="399.37" y="24.49" width="30.58" height="56.66"/>
        <g class="cls-5">
          <g>
            <path class="cls-20" d="M441.8,51.89c0,6.54-5.3,11.84-11.84,11.84s-11.84-5.3-11.84-11.84,5.3-11.84,11.84-11.84,11.84,5.3,11.84,11.84"/>
            <path class="cls-6" d="M398.54,40.94c11.4,0,20.65,0,20.65,11.88s-9.24,11.88-20.65,11.88"/>
            <path class="cls-6" d="M380.38,32.58c0,1.62-1.32,2.94-2.94,2.94s-2.94-1.32-2.94-2.94,1.32-2.94,2.94-2.94,2.94,1.32,2.94,2.94"/>
            <path class="cls-6" d="M411.71,32.58c0,1.62-1.32,2.94-2.94,2.94s-2.94-1.32-2.94-2.94,1.32-2.94,2.94-2.94,2.94,1.32,2.94,2.94"/>
          </g>
        </g>
        <g class="cls-16">
          <path class="cls-23" d="M107.28,149.92v-17.97h-6.39l-12.15.02h-.29l-13.21-.02h-6.39l-3.71.02-3.18-.08h-.87c-13.27,0-22.65,1.55-29.51,4.87-5.84,2.82-10.05,6.87-13.86,13.38-1.14-.11-2.51-.21-3.37-.21C6.43,149.93-.02,155.99-.02,163.44s6.44,13.51,14.37,13.51c.75,0,1.45-.02,2.37-.12l.32-.03c4.72,7.64,11.64,13.19,20.6,16.52,6.73,2.5,14.36,3.72,23.34,3.72h.92l3.12-.03,3.83.03h38.54v-19.69c7.58-1.05,13.59-7.16,13.59-14.28s-5.76-12.31-13.72-13.14M87.09,165.42c-.39,1.16-.97,2.28-1.7,3.33,0,0-2.87,4.4-6.7,6.07-3.19,1.4-6.59,1.95-9.83,2.02l-3.63-.13h0c-3.39-.32-6.4-1.02-8.55-1.65-1.03-.27-2.1-.62-3.17-1.06-.16-.06-.25-.1-.25-.1h0c-4.48-1.91-8.74-5.37-8.74-10.76,0-.7.09-1.33.27-1.91h0c.09-.37,1.79-7.64,16.27-4.96,1.43.26,2.7.33,3.79.34h1.06l2.88-.08c6.96-.32,11.77-1.72,15.49.12h-.02s.06.02.09.03c0,0,.02,0,.03,0,.73.35,1.68,1.1,2.2,1.92,1.17,1.85,1.35,4.26.51,6.8"/>
        </g>
        <g class="cls-22">
          <g>
            <path class="cls-6" d="M59.04,145.89c0,1.86-1.51,3.37-3.37,3.37s-3.37-1.51-3.37-3.37,1.51-3.37,3.37-3.37,3.37,1.51,3.37,3.37"/>
            <path class="cls-6" d="M81.65,145.89c0,1.86-1.51,3.37-3.37,3.37s-3.37-1.51-3.37-3.37,1.51-3.37,3.37-3.37,3.37,1.51,3.37,3.37"/>
          </g>
        </g>
        <path class="cls-14" d="M152.48,161.29l3.15,3.15-3.18,3.18M135.98,164.62h19.07M314.1,161.88l3.15,3.15-3.18,3.18M297.6,165.2h19.07M310.72,50.19l2.62,2.62-2.65,2.65M296.99,52.96h15.87M109.39,50.19l2.62,2.62-2.65,2.65M95.66,52.96h15.87"/>
      </g>
      <rect class="cls-6" x="383.39" y="40.95" width="14.05" height="23.87"/>
    </g>
  </g>
</svg>