<?xml version="1.0" encoding="UTF-8"?>
<svg id="Capa_2" data-name="Capa 2" xmlns="http://www.w3.org/2000/svg" viewBox="0 0 342.56 201.36">
  <defs>
    <style>
      .cls-1 {
        fill: #35658a;
      }

      .cls-2 {
        fill: #97d2d9;
      }

      .cls-3 {
        fill: #f59f16;
      }
    </style>
  </defs>
  <g id="Capa_1-2" data-name="Capa 1">
    <rect class="cls-1" x="17.72" y="167.95" width="233.8" height="1"/>
    <rect class="cls-1" x="17.72" y="140.37" width="233.8" height="1"/>
    <rect class="cls-1" x="17.72" y="112.8" width="233.8" height="1"/>
    <rect class="cls-1" x="17.72" y="85.23" width="233.8" height="1"/>
    <rect class="cls-1" x="17.72" y="57.65" width="233.8" height="1"/>
    <rect class="cls-1" x="17.72" y="30.08" width="233.8" height="1"/>
    <rect class="cls-1" x="17.72" y="2.5" width="233.8" height="1"/>
    <path class="cls-1" d="M8.57,172.13c-.54,0-1-.13-1.38-.39s-.67-.63-.87-1.11c-.2-.48-.3-1.06-.3-1.74s.1-1.26.3-1.74.49-.85.87-1.11.84-.39,1.38-.39,1,.13,1.39.39c.38.26.68.63.88,1.11s.3,1.06.3,1.74-.1,1.26-.3,1.74c-.2.48-.49.85-.88,1.11-.38.26-.85.39-1.39.39ZM8.57,170.97c.4,0,.71-.18.94-.54.22-.36.33-.87.33-1.54s-.11-1.2-.33-1.57c-.22-.37-.53-.55-.94-.55s-.72.18-.94.55c-.22.37-.33.89-.33,1.57s.11,1.18.33,1.54c.22.36.53.54.94.54Z"/>
    <g>
      <path class="cls-1" d="M1.33,115.42l-.3-.74,1.86-2.06c.1-.11.21-.23.33-.38.12-.14.23-.29.34-.45.11-.15.2-.3.27-.45s.1-.28.1-.4c0-.14-.03-.26-.09-.36-.06-.1-.15-.19-.26-.25s-.25-.09-.42-.09c-.16,0-.3.04-.44.12-.14.08-.27.2-.39.36-.12.16-.22.35-.31.57l-1.01-.57c.12-.35.29-.65.51-.91.22-.26.49-.46.79-.6.31-.14.63-.22.98-.22.37,0,.7.08.99.23s.53.36.69.63.25.58.25.94c0,.13-.01.27-.04.4-.03.14-.07.28-.13.43-.06.15-.14.31-.24.47s-.22.34-.36.52c-.14.18-.3.37-.48.57l-1.43,1.56-.18-.55h3.13v1.21H1.33Z"/>
      <path class="cls-1" d="M8.57,115.51c-.54,0-1-.13-1.38-.39s-.67-.63-.87-1.11c-.2-.48-.3-1.06-.3-1.74s.1-1.26.3-1.74.49-.85.87-1.11.84-.39,1.38-.39,1,.13,1.39.39c.38.26.68.63.88,1.11s.3,1.06.3,1.74-.1,1.26-.3,1.74c-.2.48-.49.85-.88,1.11-.38.26-.85.39-1.39.39ZM8.57,114.35c.4,0,.71-.18.94-.54.22-.36.33-.87.33-1.54s-.11-1.2-.33-1.57c-.22-.37-.53-.55-.94-.55s-.72.18-.94.55c-.22.37-.33.89-.33,1.57s.11,1.18.33,1.54c.22.36.53.54.94.54Z"/>
    </g>
    <g>
      <path class="cls-1" d="M2.95,59.8v-5.09l.63.04-2.21,2.71-.15-.23h4.09v1.14H.56l-.56-1.06,3.18-3.84h1.08v6.34h-1.3Z"/>
      <path class="cls-1" d="M8.57,59.89c-.54,0-1-.13-1.38-.39s-.67-.63-.87-1.11c-.2-.48-.3-1.06-.3-1.74s.1-1.26.3-1.74.49-.85.87-1.11.84-.39,1.38-.39,1,.13,1.39.39c.38.26.68.63.88,1.11s.3,1.06.3,1.74-.1,1.26-.3,1.74c-.2.48-.49.85-.88,1.11-.38.26-.85.39-1.39.39ZM8.57,58.73c.4,0,.71-.18.94-.54.22-.36.33-.87.33-1.54s-.11-1.2-.33-1.57c-.22-.37-.53-.55-.94-.55s-.72.18-.94.55c-.22.37-.33.89-.33,1.57s.11,1.18.33,1.54c.22.36.53.54.94.54Z"/>
    </g>
    <g>
      <path class="cls-1" d="M3.1,6.4c-.32,0-.62-.06-.9-.17-.28-.11-.52-.27-.73-.48s-.37-.44-.49-.72c-.12-.28-.17-.57-.17-.89,0-.2.02-.4.07-.61.05-.21.12-.42.2-.64.09-.22.19-.45.32-.69.13-.24.27-.49.42-.75l.86-1.45h1.26l.04.09-1.14,1.85c-.16.26-.3.52-.43.76-.12.24-.23.47-.32.69-.09.22-.18.45-.26.68l-.26-.72c.08-.2.18-.39.32-.55.13-.17.28-.31.45-.42.17-.12.35-.21.53-.27.19-.06.37-.09.55-.09.35,0,.68.09.98.28s.53.44.71.75c.18.31.27.65.27,1.03,0,.45-.1.85-.29,1.2-.2.35-.46.63-.81.83-.34.2-.74.31-1.17.31ZM3.11,5.26c.2,0,.39-.05.54-.14.16-.09.28-.22.37-.39s.13-.36.13-.58c0-.19-.05-.36-.14-.53-.09-.17-.22-.3-.38-.4-.16-.1-.33-.15-.53-.15-.21,0-.4.05-.56.15-.17.1-.29.23-.39.39s-.14.34-.14.54c0,.22.05.41.14.57s.22.3.38.4.35.15.56.15Z"/>
      <path class="cls-1" d="M8.57,6.49c-.54,0-1-.13-1.38-.39s-.67-.63-.87-1.11c-.2-.48-.3-1.06-.3-1.74s.1-1.26.3-1.74.49-.85.87-1.11S8.03,0,8.57,0s1,.13,1.39.39c.38.26.68.63.88,1.11s.3,1.06.3,1.74-.1,1.26-.3,1.74c-.2.48-.49.85-.88,1.11-.38.26-.85.39-1.39.39ZM8.57,5.33c.4,0,.71-.18.94-.54.22-.36.33-.87.33-1.54s-.11-1.2-.33-1.57c-.22-.37-.53-.55-.94-.55s-.72.18-.94.55c-.22.37-.33.89-.33,1.57s.11,1.18.33,1.54c.22.36.53.54.94.54Z"/>
    </g>
    <g>
      <path class="cls-1" d="M24.39,185.19l-2.51-6.3h1.43l1.31,3.41c.07.19.13.35.18.49s.1.27.13.4.08.24.11.36c.04.12.07.24.11.38h-.26c.05-.18.1-.35.14-.51.05-.16.1-.33.16-.5.06-.17.14-.38.23-.62l1.24-3.41h1.42l-2.53,6.3h-1.18Z"/>
      <path class="cls-1" d="M28.85,185.19v-1.16h1.05v-3.98h-1.05v-1.16h3.46v1.16h-1.05v3.98h1.05v1.16h-3.46Z"/>
      <path class="cls-1" d="M33.78,185.19v-6.3h4.26v1.19h-2.94v3.92h3.01v1.19h-4.32ZM34.41,182.55v-1.15h3.19v1.15h-3.19Z"/>
      <path class="cls-1" d="M40.7,185.19l-1.92-6.3h1.39l1.03,3.52c.04.13.08.26.11.41.03.15.06.29.08.42.02.14.04.26.05.38.01.12.03.21.04.29h-.22c.05-.26.1-.47.13-.64s.07-.32.1-.46c.03-.14.07-.27.12-.41l.99-2.6h1.12l.97,2.6c.07.18.13.35.17.52s.08.32.11.48c.03.15.06.31.09.46l-.2.04c.02-.13.03-.24.04-.33,0-.09.02-.18.03-.26s.02-.16.03-.24.03-.18.05-.29c.02-.11.06-.24.11-.39l1.02-3.5h1.37l-1.93,6.3h-1l-1.56-3.73.14.02-1.45,3.71h-1.04Z"/>
      <path class="cls-1" d="M50.4,185.28c-.39,0-.75-.05-1.07-.14-.32-.1-.61-.24-.86-.42s-.47-.41-.67-.67l.85-.96c.29.41.59.69.88.83.29.15.61.22.95.22.19,0,.35-.03.5-.08.15-.05.26-.12.35-.22.08-.1.13-.21.13-.34,0-.1-.02-.18-.06-.27-.04-.08-.1-.15-.18-.22s-.17-.12-.28-.17c-.11-.05-.23-.1-.36-.13s-.28-.07-.43-.09c-.34-.08-.63-.17-.88-.28-.25-.11-.46-.25-.63-.41s-.29-.35-.37-.56-.12-.45-.12-.71.06-.52.18-.75c.12-.23.29-.43.5-.6s.46-.3.74-.39c.28-.09.57-.13.89-.13.38,0,.72.04,1.01.13s.54.21.75.37.39.36.54.59l-.86.83c-.13-.17-.26-.31-.41-.42-.15-.11-.31-.2-.48-.26-.17-.06-.35-.09-.53-.09-.2,0-.37.03-.51.08-.14.05-.26.12-.34.22-.08.1-.12.21-.12.35,0,.11.03.2.08.29s.13.16.23.22c.1.06.23.12.37.17.14.05.3.09.48.13.33.07.63.15.89.26.26.11.49.24.68.39.19.15.33.33.44.54.1.21.15.44.15.7,0,.43-.1.79-.31,1.09s-.49.53-.85.69c-.36.16-.78.24-1.26.24Z"/>
    </g>
    <g>
      <path class="cls-1" d="M81.33,185.51c-.39,0-.75-.05-1.07-.14-.32-.1-.61-.24-.86-.42s-.47-.41-.67-.67l.85-.96c.29.41.59.69.88.83.29.15.61.22.95.22.19,0,.35-.03.5-.08.15-.05.26-.12.35-.22.08-.1.13-.21.13-.34,0-.1-.02-.18-.06-.27-.04-.08-.1-.15-.18-.22s-.17-.12-.28-.17c-.11-.05-.23-.1-.36-.13s-.28-.07-.43-.09c-.34-.08-.63-.17-.88-.28-.25-.11-.46-.25-.63-.41s-.29-.35-.37-.56-.12-.45-.12-.71.06-.52.18-.75c.12-.23.29-.43.5-.6s.46-.3.74-.39c.28-.09.57-.13.89-.13.38,0,.72.04,1.01.13s.54.21.75.37.39.36.54.59l-.86.83c-.13-.17-.26-.31-.41-.42-.15-.11-.31-.2-.48-.26-.17-.06-.35-.09-.53-.09-.2,0-.37.03-.51.08-.14.05-.26.12-.34.22-.08.1-.12.21-.12.35,0,.11.03.2.08.29s.13.16.23.22c.1.06.23.12.37.17.14.05.3.09.48.13.33.07.63.15.89.26.26.11.49.24.68.39.19.15.33.33.44.54.1.21.15.44.15.7,0,.43-.1.79-.31,1.09s-.49.53-.85.69c-.36.16-.78.24-1.26.24Z"/>
      <path class="cls-1" d="M84.22,185.42l2.47-6.3h1.21l2.46,6.3h-1.39l-1.27-3.39c-.04-.1-.08-.22-.13-.37-.05-.15-.1-.31-.16-.48s-.1-.33-.15-.48c-.05-.15-.08-.28-.11-.38h.24c-.04.13-.08.27-.12.42s-.09.3-.14.45c-.05.15-.1.3-.15.45s-.11.29-.15.42l-1.27,3.37h-1.33ZM85.37,184.1l.44-1.09h2.89l.45,1.09h-3.78Z"/>
      <path class="cls-1" d="M92.35,185.42l-2.51-6.3h1.43l1.31,3.41c.07.19.13.35.18.49s.1.27.13.4.08.24.11.36c.04.12.07.24.11.38h-.26c.05-.18.1-.35.14-.51.05-.16.1-.33.16-.5.06-.17.14-.38.23-.62l1.24-3.41h1.42l-2.53,6.3h-1.18Z"/>
      <path class="cls-1" d="M96.98,185.42v-6.3h4.26v1.19h-2.94v3.92h3.01v1.19h-4.32ZM97.61,182.79v-1.15h3.19v1.15h-3.19Z"/>
      <path class="cls-1" d="M102.69,185.42v-6.3h2.58c.46,0,.88.08,1.25.23.38.15.7.37.97.65.27.28.48.61.62.99.14.38.22.81.22,1.28s-.07.89-.22,1.27c-.14.39-.35.72-.62,1-.27.28-.59.5-.97.65s-.8.23-1.26.23h-2.58ZM104.04,184.44l-.14-.23h1.33c.27,0,.51-.05.73-.14.22-.09.4-.22.55-.39.15-.16.27-.37.35-.61.08-.24.12-.51.12-.8s-.04-.56-.12-.8c-.08-.24-.19-.44-.35-.61-.15-.17-.34-.3-.55-.39-.22-.09-.46-.14-.73-.14h-1.36l.17-.22v4.32Z"/>
    </g>
    <g>
      <path class="cls-1" d="M126.6,185.28c-.46,0-.89-.08-1.27-.24-.39-.16-.72-.38-1.01-.68-.29-.29-.51-.64-.66-1.03s-.23-.84-.23-1.31.08-.89.24-1.28c.16-.39.39-.73.68-1.03s.64-.52,1.04-.68c.4-.16.83-.24,1.29-.24.3,0,.59.04.89.12s.56.2.8.36c.24.16.45.34.62.56l-.85.94c-.14-.14-.29-.27-.45-.37-.15-.1-.32-.19-.49-.24s-.35-.09-.54-.09c-.26,0-.5.05-.72.14-.23.1-.42.23-.59.4s-.3.38-.4.62c-.1.24-.15.51-.15.81s.05.57.14.81c.1.24.23.45.41.62s.38.3.62.4c.24.09.51.14.81.14.19,0,.38-.03.56-.08.18-.05.35-.13.5-.23.15-.1.29-.21.41-.33l.66,1.05c-.14.16-.34.31-.58.44s-.51.24-.81.31c-.3.07-.6.11-.91.11Z"/>
      <path class="cls-1" d="M132.83,185.28c-.46,0-.89-.08-1.28-.24-.39-.16-.73-.39-1.02-.68s-.51-.64-.67-1.04c-.16-.4-.23-.83-.23-1.3s.08-.91.23-1.3c.16-.39.38-.74.67-1.03s.63-.52,1.02-.68c.39-.16.82-.24,1.28-.24s.9.08,1.28.24.73.39,1.02.68.51.64.67,1.04.23.83.23,1.3-.08.9-.23,1.3-.38.74-.67,1.04-.63.52-1.02.68c-.39.16-.81.24-1.28.24ZM132.83,184c.26,0,.51-.05.73-.14.22-.1.42-.23.58-.41.16-.18.29-.39.38-.63.09-.24.14-.5.14-.79s-.05-.55-.14-.79c-.09-.24-.22-.45-.38-.63s-.36-.31-.58-.41c-.23-.1-.47-.15-.73-.15s-.51.05-.73.15-.42.24-.58.41-.3.39-.38.63c-.09.24-.13.5-.13.79s.04.55.13.79c.09.24.21.45.38.63.17.18.36.32.58.41.22.1.46.14.73.14Z"/>
      <path class="cls-1" d="M137.25,185.19v-6.3h1.23l2.29,3.73h-.81s2.32-3.73,2.32-3.73h1.18v6.3h-1.32v-2.16c0-.54.01-1.03.04-1.46.03-.43.07-.86.14-1.29l.16.42-1.84,2.86h-.59l-1.81-2.84.15-.44c.07.4.11.81.14,1.24s.04.93.04,1.51v2.16h-1.32Z"/>
      <path class="cls-1" d="M145.11,185.19v-6.3h1.23l2.29,3.73h-.81s2.32-3.73,2.32-3.73h1.18v6.3h-1.32v-2.16c0-.54.01-1.03.04-1.46.03-.43.07-.86.14-1.29l.16.42-1.84,2.86h-.59l-1.81-2.84.15-.44c.07.4.11.81.14,1.24s.04.93.04,1.51v2.16h-1.32Z"/>
      <path class="cls-1" d="M152.97,185.19v-6.3h4.26v1.19h-2.94v3.92h3.01v1.19h-4.32ZM153.6,182.55v-1.15h3.19v1.15h-3.19Z"/>
      <path class="cls-1" d="M158.68,185.19v-6.3h1.21l3.48,4.71h-.25c-.02-.19-.04-.37-.06-.54-.02-.18-.04-.36-.05-.54-.01-.18-.03-.37-.04-.57,0-.19-.02-.4-.02-.62,0-.22,0-.46,0-.72v-1.72h1.32v6.3h-1.22l-3.55-4.75h.34c.03.32.06.59.08.81.02.22.04.41.05.57s.02.3.03.42c0,.12.02.23.02.34s0,.22,0,.34v2.27h-1.32Z"/>
      <path class="cls-1" d="M167.21,185.19v-5.08h-1.84v-1.21h5.08v1.21h-1.89v5.08h-1.35Z"/>
      <path class="cls-1" d="M173.61,185.28c-.39,0-.75-.05-1.07-.14-.32-.1-.61-.24-.86-.42s-.47-.41-.67-.67l.85-.96c.29.41.59.69.88.83.29.15.61.22.95.22.19,0,.35-.03.5-.08.15-.05.26-.12.35-.22.08-.1.13-.21.13-.34,0-.1-.02-.18-.06-.27-.04-.08-.1-.15-.18-.22s-.17-.12-.28-.17c-.11-.05-.23-.1-.36-.13s-.28-.07-.43-.09c-.34-.08-.63-.17-.88-.28-.25-.11-.46-.25-.63-.41s-.29-.35-.37-.56-.12-.45-.12-.71.06-.52.18-.75c.12-.23.29-.43.5-.6s.46-.3.74-.39c.28-.09.57-.13.89-.13.38,0,.72.04,1.01.13s.54.21.75.37.39.36.54.59l-.86.83c-.13-.17-.26-.31-.41-.42-.15-.11-.31-.2-.48-.26-.17-.06-.35-.09-.53-.09-.2,0-.37.03-.51.08-.14.05-.26.12-.34.22-.08.1-.12.21-.12.35,0,.11.03.2.08.29s.13.16.23.22c.1.06.23.12.37.17.14.05.3.09.48.13.33.07.63.15.89.26.26.11.49.24.68.39.19.15.33.33.44.54.1.21.15.44.15.7,0,.43-.1.79-.31,1.09s-.49.53-.85.69c-.36.16-.78.24-1.26.24Z"/>
    </g>
    <g>
      <path class="cls-1" d="M152.33,201.04v-6.3h1.35v6.3h-1.35ZM152.95,195.95v-1.21h3.64v1.21h-3.64ZM152.95,198.53v-1.16h3.26v1.16h-3.26Z"/>
      <path class="cls-1" d="M160.56,201.13c-.46,0-.89-.08-1.28-.24-.39-.16-.73-.39-1.02-.68s-.51-.64-.67-1.04c-.16-.4-.23-.83-.23-1.3s.08-.91.23-1.3c.16-.39.38-.74.67-1.03s.63-.52,1.02-.68c.39-.16.82-.24,1.28-.24s.9.08,1.28.24.73.39,1.02.68.51.64.67,1.04.23.83.23,1.3-.08.9-.23,1.3-.38.74-.67,1.04-.63.52-1.02.68c-.39.16-.81.24-1.28.24ZM160.56,199.85c.26,0,.51-.05.73-.14.22-.1.42-.23.58-.41.16-.18.29-.39.38-.63.09-.24.14-.5.14-.79s-.05-.55-.14-.79c-.09-.24-.22-.45-.38-.63s-.36-.31-.58-.41c-.23-.1-.47-.15-.73-.15s-.51.05-.73.15-.42.24-.58.41-.3.39-.38.63c-.09.24-.13.5-.13.79s.04.55.13.79c.09.24.21.45.38.63.17.18.36.32.58.41.22.1.46.14.73.14Z"/>
      <path class="cls-1" d="M164.98,201.04v-6.3h1.35v5.08h2.85v1.21h-4.2Z"/>
      <path class="cls-1" d="M170.44,201.04v-6.3h1.35v5.08h2.85v1.21h-4.2Z"/>
      <path class="cls-1" d="M178.5,201.13c-.46,0-.89-.08-1.28-.24-.39-.16-.73-.39-1.02-.68s-.51-.64-.67-1.04c-.16-.4-.23-.83-.23-1.3s.08-.91.23-1.3c.16-.39.38-.74.67-1.03s.63-.52,1.02-.68c.39-.16.82-.24,1.28-.24s.9.08,1.28.24.73.39,1.02.68.51.64.67,1.04.23.83.23,1.3-.08.9-.23,1.3-.38.74-.67,1.04-.63.52-1.02.68c-.39.16-.81.24-1.28.24ZM178.5,199.85c.26,0,.51-.05.73-.14.22-.1.42-.23.58-.41.16-.18.29-.39.38-.63.09-.24.14-.5.14-.79s-.05-.55-.14-.79c-.09-.24-.22-.45-.38-.63s-.36-.31-.58-.41c-.23-.1-.47-.15-.73-.15s-.51.05-.73.15-.42.24-.58.41-.3.39-.38.63c-.09.24-.13.5-.13.79s.04.55.13.79c.09.24.21.45.38.63.17.18.36.32.58.41.22.1.46.14.73.14Z"/>
      <path class="cls-1" d="M184.08,201.04l-1.92-6.3h1.39l1.03,3.52c.04.13.08.26.11.41.03.15.06.29.08.42.02.14.04.26.05.38.01.12.03.21.04.29h-.22c.05-.26.1-.47.13-.64s.07-.32.1-.46c.03-.14.07-.27.12-.41l.99-2.6h1.12l.97,2.6c.07.18.13.35.17.52s.08.32.11.48c.03.15.06.31.09.46l-.2.04c.02-.13.03-.24.04-.33,0-.09.02-.18.03-.26s.02-.16.03-.24.03-.18.05-.29c.02-.11.06-.24.11-.39l1.02-3.5h1.37l-1.93,6.3h-1l-1.56-3.73.14.02-1.45,3.71h-1.04Z"/>
      <path class="cls-1" d="M191.83,201.04v-6.3h4.26v1.19h-2.94v3.92h3.01v1.19h-4.32ZM192.46,198.4v-1.15h3.19v1.15h-3.19Z"/>
      <path class="cls-1" d="M197.55,201.04v-6.3h2.79c.39,0,.74.09,1.06.27.32.18.57.42.75.72.18.3.27.64.27,1.03s-.09.72-.27,1.03c-.18.31-.43.55-.75.73-.32.18-.67.27-1.06.27h-1.49v2.26h-1.3ZM198.85,197.68h1.42c.16,0,.3-.04.43-.11.12-.07.22-.18.28-.31.07-.13.1-.29.1-.45,0-.18-.04-.34-.12-.47s-.19-.24-.34-.31c-.15-.07-.32-.11-.52-.11h-1.25v1.77ZM201.12,201.04l-1.6-2.84,1.39-.22,1.78,3.08h-1.57Z"/>
      <path class="cls-1" d="M205.89,201.13c-.39,0-.75-.05-1.07-.14-.32-.1-.61-.24-.86-.42s-.47-.41-.67-.67l.85-.96c.29.41.59.69.88.83.29.15.61.22.95.22.19,0,.35-.03.5-.08.15-.05.26-.12.35-.22.08-.1.13-.21.13-.34,0-.1-.02-.18-.06-.27-.04-.08-.1-.15-.18-.22s-.17-.12-.28-.17c-.11-.05-.23-.1-.36-.13s-.28-.07-.43-.09c-.34-.08-.63-.17-.88-.28-.25-.11-.46-.25-.63-.41s-.29-.35-.37-.56-.12-.45-.12-.71.06-.52.18-.75c.12-.23.29-.43.5-.6s.46-.3.74-.39c.28-.09.57-.13.89-.13.38,0,.72.04,1.01.13s.54.21.75.37.39.36.54.59l-.86.83c-.13-.17-.26-.31-.41-.42-.15-.11-.31-.2-.48-.26-.17-.06-.35-.09-.53-.09-.2,0-.37.03-.51.08-.14.05-.26.12-.34.22-.08.1-.12.21-.12.35,0,.11.03.2.08.29s.13.16.23.22c.1.06.23.12.37.17.14.05.3.09.48.13.33.07.63.15.89.26.26.11.49.24.68.39.19.15.33.33.44.54.1.21.15.44.15.7,0,.43-.1.79-.31,1.09s-.49.53-.85.69c-.36.16-.78.24-1.26.24Z"/>
    </g>
    <g>
      <path class="cls-1" d="M103.1,201.13c-.39,0-.75-.05-1.07-.14-.32-.1-.61-.24-.86-.42s-.47-.41-.67-.67l.85-.96c.29.41.59.69.88.83.29.15.61.22.95.22.19,0,.35-.03.5-.08.15-.05.26-.12.35-.22.08-.1.13-.21.13-.34,0-.1-.02-.18-.06-.27-.04-.08-.1-.15-.18-.22s-.17-.12-.28-.17c-.11-.05-.23-.1-.36-.13s-.28-.07-.43-.09c-.34-.08-.63-.17-.88-.28-.25-.11-.46-.25-.63-.41s-.29-.35-.37-.56-.12-.45-.12-.71.06-.52.18-.75c.12-.23.29-.43.5-.6s.46-.3.74-.39c.28-.09.57-.13.89-.13.38,0,.72.04,1.01.13s.54.21.75.37.39.36.54.59l-.86.83c-.13-.17-.26-.31-.41-.42-.15-.11-.31-.2-.48-.26-.17-.06-.35-.09-.53-.09-.2,0-.37.03-.51.08-.14.05-.26.12-.34.22-.08.1-.12.21-.12.35,0,.11.03.2.08.29s.13.16.23.22c.1.06.23.12.37.17.14.05.3.09.48.13.33.07.63.15.89.26.26.11.49.24.68.39.19.15.33.33.44.54.1.21.15.44.15.7,0,.43-.1.79-.31,1.09s-.49.53-.85.69c-.36.16-.78.24-1.26.24Z"/>
      <path class="cls-1" d="M106.74,201.04v-6.3h1.35v6.3h-1.35ZM107.28,198.51v-1.22h4.12v1.22h-4.12ZM110.71,201.04v-6.3h1.35v6.3h-1.35Z"/>
      <path class="cls-1" d="M112.95,201.04l2.47-6.3h1.21l2.46,6.3h-1.39l-1.27-3.39c-.04-.1-.08-.22-.13-.37-.05-.15-.1-.31-.16-.48s-.1-.33-.15-.48c-.05-.15-.08-.28-.11-.38h.24c-.04.13-.08.27-.12.42s-.09.3-.14.45c-.05.15-.1.3-.15.45s-.11.29-.15.42l-1.27,3.37h-1.33ZM114.09,199.71l.44-1.09h2.89l.45,1.09h-3.78Z"/>
      <path class="cls-1" d="M119.96,201.04v-6.3h2.79c.39,0,.74.09,1.06.27.32.18.57.42.75.72.18.3.27.64.27,1.03s-.09.72-.27,1.03c-.18.31-.43.55-.75.73-.32.18-.67.27-1.06.27h-1.49v2.26h-1.3ZM121.26,197.68h1.42c.16,0,.3-.04.43-.11.12-.07.22-.18.28-.31.07-.13.1-.29.1-.45,0-.18-.04-.34-.12-.47s-.19-.24-.34-.31c-.15-.07-.32-.11-.52-.11h-1.25v1.77ZM123.53,201.04l-1.6-2.84,1.39-.22,1.78,3.08h-1.57Z"/>
      <path class="cls-1" d="M126.26,201.04v-6.3h4.26v1.19h-2.94v3.92h3.01v1.19h-4.32ZM126.89,198.4v-1.15h3.19v1.15h-3.19Z"/>
      <path class="cls-1" d="M134.01,201.13c-.39,0-.75-.05-1.07-.14-.32-.1-.61-.24-.86-.42s-.47-.41-.67-.67l.85-.96c.29.41.59.69.88.83.29.15.61.22.95.22.19,0,.35-.03.5-.08.15-.05.26-.12.35-.22.08-.1.13-.21.13-.34,0-.1-.02-.18-.06-.27-.04-.08-.1-.15-.18-.22s-.17-.12-.28-.17c-.11-.05-.23-.1-.36-.13s-.28-.07-.43-.09c-.34-.08-.63-.17-.88-.28-.25-.11-.46-.25-.63-.41s-.29-.35-.37-.56-.12-.45-.12-.71.06-.52.18-.75c.12-.23.29-.43.5-.6s.46-.3.74-.39c.28-.09.57-.13.89-.13.38,0,.72.04,1.01.13s.54.21.75.37.39.36.54.59l-.86.83c-.13-.17-.26-.31-.41-.42-.15-.11-.31-.2-.48-.26-.17-.06-.35-.09-.53-.09-.2,0-.37.03-.51.08-.14.05-.26.12-.34.22-.08.1-.12.21-.12.35,0,.11.03.2.08.29s.13.16.23.22c.1.06.23.12.37.17.14.05.3.09.48.13.33.07.63.15.89.26.26.11.49.24.68.39.19.15.33.33.44.54.1.21.15.44.15.7,0,.43-.1.79-.31,1.09s-.49.53-.85.69c-.36.16-.78.24-1.26.24Z"/>
    </g>
    <g>
      <path class="cls-1" d="M54.15,201.27v-6.3h1.35v5.08h2.85v1.21h-4.2Z"/>
      <path class="cls-1" d="M59.44,201.27v-1.16h1.05v-3.98h-1.05v-1.16h3.46v1.16h-1.05v3.98h1.05v1.16h-3.46Z"/>
      <path class="cls-1" d="M64.37,201.27v-6.3h1.35v6.3h-1.35ZM65.39,199.41l-.29-1.22,3.19-3.21h1.64l-4.54,4.44ZM68.46,201.27l-2.36-3.13.93-.8,3.03,3.93h-1.6Z"/>
      <path class="cls-1" d="M71.01,201.27v-6.3h4.26v1.19h-2.94v3.92h3.01v1.19h-4.32ZM71.64,198.63v-1.15h3.19v1.15h-3.19Z"/>
      <path class="cls-1" d="M78.76,201.36c-.39,0-.75-.05-1.07-.14-.32-.1-.61-.24-.86-.42s-.47-.41-.67-.67l.85-.96c.29.41.59.69.88.83.29.15.61.22.95.22.19,0,.35-.03.5-.08.15-.05.26-.12.35-.22.08-.1.13-.21.13-.34,0-.1-.02-.18-.06-.27-.04-.08-.1-.15-.18-.22s-.17-.12-.28-.17c-.11-.05-.23-.1-.36-.13s-.28-.07-.43-.09c-.34-.08-.63-.17-.88-.28-.25-.11-.46-.25-.63-.41s-.29-.35-.37-.56-.12-.45-.12-.71.06-.52.18-.75c.12-.23.29-.43.5-.6s.46-.3.74-.39c.28-.09.57-.13.89-.13.38,0,.72.04,1.01.13s.54.21.75.37.39.36.54.59l-.86.83c-.13-.17-.26-.31-.41-.42-.15-.11-.31-.2-.48-.26-.17-.06-.35-.09-.53-.09-.2,0-.37.03-.51.08-.14.05-.26.12-.34.22-.08.1-.12.21-.12.35,0,.11.03.2.08.29s.13.16.23.22c.1.06.23.12.37.17.14.05.3.09.48.13.33.07.63.15.89.26.26.11.49.24.68.39.19.15.33.33.44.54.1.21.15.44.15.7,0,.43-.1.79-.31,1.09s-.49.53-.85.69c-.36.16-.78.24-1.26.24Z"/>
    </g>
    <g>
      <path class="cls-1" d="M196.98,185.19v-6.3h2.67c.37,0,.71.09,1.01.27.3.18.54.42.72.72s.27.65.27,1.04-.09.74-.27,1.05c-.18.31-.42.56-.72.74-.3.18-.64.27-1.01.27h-1.32v2.21h-1.35ZM198.31,181.77h1.19c.14,0,.27-.04.39-.11.11-.07.21-.18.28-.3.07-.13.1-.27.1-.43s-.03-.3-.1-.43c-.07-.12-.16-.22-.28-.29-.11-.07-.24-.1-.39-.1h-1.19v1.67Z"/>
      <path class="cls-1" d="M202.86,185.19v-6.3h2.79c.39,0,.74.09,1.06.27.32.18.57.42.75.72.18.3.27.64.27,1.03s-.09.72-.27,1.03c-.18.31-.43.55-.75.73-.32.18-.67.27-1.06.27h-1.49v2.26h-1.3ZM204.16,181.83h1.42c.16,0,.3-.04.43-.11.12-.07.22-.18.28-.31.07-.13.1-.29.1-.45,0-.18-.04-.34-.12-.47s-.19-.24-.34-.31c-.15-.07-.32-.11-.52-.11h-1.25v1.77ZM206.43,185.19l-1.6-2.84,1.39-.22,1.78,3.08h-1.57Z"/>
      <path class="cls-1" d="M211.86,185.28c-.46,0-.89-.08-1.28-.24-.39-.16-.73-.39-1.02-.68s-.51-.64-.67-1.04c-.16-.4-.23-.83-.23-1.3s.08-.91.23-1.3c.16-.39.38-.74.67-1.03s.63-.52,1.02-.68c.39-.16.82-.24,1.28-.24s.9.08,1.28.24.73.39,1.02.68.51.64.67,1.04.23.83.23,1.3-.08.9-.23,1.3-.38.74-.67,1.04-.63.52-1.02.68c-.39.16-.81.24-1.28.24ZM211.86,184c.26,0,.51-.05.73-.14.22-.1.42-.23.58-.41.16-.18.29-.39.38-.63.09-.24.14-.5.14-.79s-.05-.55-.14-.79c-.09-.24-.22-.45-.38-.63s-.36-.31-.58-.41c-.23-.1-.47-.15-.73-.15s-.51.05-.73.15-.42.24-.58.41-.3.39-.38.63c-.09.24-.13.5-.13.79s.04.55.13.79c.09.24.21.45.38.63.17.18.36.32.58.41.22.1.46.14.73.14Z"/>
      <path class="cls-1" d="M216.28,185.19v-6.3h1.35v6.3h-1.35ZM216.9,180.1v-1.21h3.64v1.21h-3.64ZM216.9,182.69v-1.16h3.26v1.16h-3.26Z"/>
      <path class="cls-1" d="M221.64,185.19v-1.16h1.05v-3.98h-1.05v-1.16h3.46v1.16h-1.05v3.98h1.05v1.16h-3.46Z"/>
      <path class="cls-1" d="M226.57,185.19v-6.3h1.35v5.08h2.85v1.21h-4.2Z"/>
      <path class="cls-1" d="M232.02,185.19v-6.3h4.26v1.19h-2.94v3.92h3.01v1.19h-4.32ZM232.65,182.55v-1.15h3.19v1.15h-3.19Z"/>
      <path class="cls-1" d="M242.29,185.19l-2.51-6.3h1.43l1.31,3.41c.07.19.13.35.18.49s.1.27.13.4.08.24.11.36c.04.12.07.24.11.38h-.26c.05-.18.1-.35.14-.51.05-.16.1-.33.16-.5.06-.17.14-.38.23-.62l1.24-3.41h1.42l-2.53,6.3h-1.18Z"/>
      <path class="cls-1" d="M246.76,185.19v-1.16h1.05v-3.98h-1.05v-1.16h3.46v1.16h-1.05v3.98h1.05v1.16h-3.46Z"/>
      <path class="cls-1" d="M253.73,185.28c-.39,0-.75-.05-1.07-.14-.32-.1-.61-.24-.86-.42s-.47-.41-.67-.67l.85-.96c.29.41.59.69.88.83.29.15.61.22.95.22.19,0,.35-.03.5-.08.15-.05.26-.12.35-.22.08-.1.13-.21.13-.34,0-.1-.02-.18-.06-.27-.04-.08-.1-.15-.18-.22s-.17-.12-.28-.17c-.11-.05-.23-.1-.36-.13s-.28-.07-.43-.09c-.34-.08-.63-.17-.88-.28-.25-.11-.46-.25-.63-.41s-.29-.35-.37-.56-.12-.45-.12-.71.06-.52.18-.75c.12-.23.29-.43.5-.6s.46-.3.74-.39c.28-.09.57-.13.89-.13.38,0,.72.04,1.01.13s.54.21.75.37.39.36.54.59l-.86.83c-.13-.17-.26-.31-.41-.42-.15-.11-.31-.2-.48-.26-.17-.06-.35-.09-.53-.09-.2,0-.37.03-.51.08-.14.05-.26.12-.34.22-.08.1-.12.21-.12.35,0,.11.03.2.08.29s.13.16.23.22c.1.06.23.12.37.17.14.05.3.09.48.13.33.07.63.15.89.26.26.11.49.24.68.39.19.15.33.33.44.54.1.21.15.44.15.7,0,.43-.1.79-.31,1.09s-.49.53-.85.69c-.36.16-.78.24-1.26.24Z"/>
      <path class="cls-1" d="M257.2,185.19v-1.16h1.05v-3.98h-1.05v-1.16h3.46v1.16h-1.05v3.98h1.05v1.16h-3.46Z"/>
      <path class="cls-1" d="M263.45,185.19v-5.08h-1.84v-1.21h5.08v1.21h-1.89v5.08h-1.35Z"/>
      <path class="cls-1" d="M269.85,185.28c-.39,0-.75-.05-1.07-.14-.32-.1-.61-.24-.86-.42s-.47-.41-.67-.67l.85-.96c.29.41.59.69.88.83.29.15.61.22.95.22.19,0,.35-.03.5-.08.15-.05.26-.12.35-.22.08-.1.13-.21.13-.34,0-.1-.02-.18-.06-.27-.04-.08-.1-.15-.18-.22s-.17-.12-.28-.17c-.11-.05-.23-.1-.36-.13s-.28-.07-.43-.09c-.34-.08-.63-.17-.88-.28-.25-.11-.46-.25-.63-.41s-.29-.35-.37-.56-.12-.45-.12-.71.06-.52.18-.75c.12-.23.29-.43.5-.6s.46-.3.74-.39c.28-.09.57-.13.89-.13.38,0,.72.04,1.01.13s.54.21.75.37.39.36.54.59l-.86.83c-.13-.17-.26-.31-.41-.42-.15-.11-.31-.2-.48-.26-.17-.06-.35-.09-.53-.09-.2,0-.37.03-.51.08-.14.05-.26.12-.34.22-.08.1-.12.21-.12.35,0,.11.03.2.08.29s.13.16.23.22c.1.06.23.12.37.17.14.05.3.09.48.13.33.07.63.15.89.26.26.11.49.24.68.39.19.15.33.33.44.54.1.21.15.44.15.7,0,.43-.1.79-.31,1.09s-.49.53-.85.69c-.36.16-.78.24-1.26.24Z"/>
    </g>
    <g>
      <path class="cls-1" d="M281.39,12.92v-5.6h1.07l3.1,4.18h-.22c-.02-.17-.04-.33-.06-.48-.02-.16-.03-.32-.04-.48-.01-.16-.02-.33-.03-.5s-.01-.36-.02-.55c0-.19,0-.41,0-.64v-1.53h1.18v5.6h-1.09l-3.16-4.22h.3c.03.29.05.52.07.72.02.19.03.36.04.51,0,.14.02.27.03.38,0,.11.01.21.02.3,0,.1,0,.2,0,.3v2.02h-1.18Z"/>
      <path class="cls-1" d="M287.8,12.92v-5.6h3.78v1.06h-2.62v3.49h2.67v1.06h-3.84ZM288.37,10.57v-1.02h2.84v1.02h-2.84Z"/>
      <path class="cls-1" d="M293.95,12.92l-1.7-5.6h1.23l.91,3.13c.04.11.07.23.1.36s.05.26.07.38c.02.12.03.23.05.34.01.1.03.19.04.26h-.19c.05-.23.09-.42.12-.57s.06-.29.09-.41c.03-.12.07-.24.11-.36l.88-2.31h.99l.86,2.31c.06.16.12.31.16.46.04.15.07.29.1.42.03.14.05.27.08.41l-.18.03c.02-.11.03-.21.04-.29,0-.08.02-.16.02-.23s.02-.14.03-.21c.01-.07.03-.16.05-.26.02-.1.05-.21.1-.35l.9-3.11h1.22l-1.72,5.6h-.89l-1.38-3.31.13.02-1.29,3.3h-.92Z"/>
      <path class="cls-1" d="M305.11,13c-.35,0-.66-.04-.95-.13-.29-.09-.54-.21-.76-.38-.22-.17-.42-.37-.6-.6l.75-.86c.26.36.52.61.78.74.26.13.54.2.84.2.17,0,.31-.02.44-.07.13-.04.23-.11.31-.2.07-.09.11-.19.11-.3,0-.08-.02-.16-.06-.24-.04-.07-.09-.14-.16-.19s-.15-.11-.25-.15c-.1-.05-.2-.09-.32-.12s-.25-.06-.38-.08c-.3-.07-.56-.15-.78-.25-.22-.1-.41-.22-.56-.37-.15-.15-.26-.31-.33-.5-.07-.19-.11-.4-.11-.63s.05-.46.16-.67c.11-.21.25-.38.44-.53s.41-.26.66-.34c.25-.08.51-.12.79-.12.34,0,.64.04.9.12.26.08.48.19.67.33s.35.32.48.53l-.76.74c-.11-.15-.23-.27-.36-.38-.13-.1-.27-.18-.42-.23-.15-.05-.31-.08-.47-.08-.18,0-.33.02-.46.07-.13.05-.23.11-.3.2-.07.09-.11.19-.11.31,0,.1.02.18.07.26.05.07.12.14.21.2.09.06.2.11.33.15s.27.08.42.11c.29.06.56.14.79.23.24.1.44.21.6.35s.3.3.39.48.14.39.14.62c0,.38-.09.7-.27.97-.18.27-.43.47-.75.61-.32.14-.69.21-1.12.21Z"/>
      <path class="cls-1" d="M310.82,13c-.41,0-.79-.07-1.14-.22-.35-.14-.65-.35-.91-.6-.26-.26-.46-.56-.6-.92-.14-.35-.21-.74-.21-1.16s.07-.81.21-1.16c.14-.35.34-.65.6-.92.26-.26.56-.46.91-.61s.72-.22,1.14-.22.8.07,1.14.22c.34.14.65.35.9.61.26.26.46.57.6.92.14.35.21.74.21,1.15s-.07.8-.21,1.15-.34.66-.6.92c-.26.26-.56.46-.9.61-.34.14-.72.22-1.14.22ZM310.82,11.86c.23,0,.45-.04.65-.13.2-.08.37-.21.52-.37.14-.16.26-.35.34-.56s.12-.45.12-.7-.04-.49-.12-.7-.2-.4-.34-.56c-.14-.16-.32-.28-.52-.37-.2-.09-.42-.13-.65-.13s-.45.04-.65.13c-.2.09-.37.21-.52.37-.15.16-.26.34-.34.56s-.12.45-.12.7.04.49.12.7.19.4.34.56c.15.16.32.28.52.37.2.09.41.13.65.13Z"/>
      <path class="cls-1" d="M317.21,13c-.41,0-.79-.07-1.13-.21-.34-.14-.64-.34-.9-.6-.25-.26-.45-.57-.59-.92-.14-.35-.21-.74-.21-1.16s.07-.79.22-1.14c.14-.35.35-.65.61-.91.26-.26.57-.46.92-.6.35-.14.73-.22,1.14-.22.27,0,.53.04.79.11.26.07.5.18.71.32s.4.3.56.5l-.75.83c-.13-.13-.26-.24-.4-.33-.14-.09-.28-.17-.43-.22-.15-.05-.31-.08-.48-.08-.23,0-.44.04-.64.13-.2.09-.37.2-.52.36-.15.15-.27.34-.36.55-.09.22-.13.45-.13.72s.04.51.13.72.21.4.36.55c.15.15.34.27.56.35.22.08.46.12.72.12.17,0,.34-.02.5-.07s.31-.11.44-.2c.14-.08.26-.18.36-.3l.58.94c-.13.14-.3.27-.52.39s-.46.21-.72.28-.54.1-.81.1Z"/>
      <path class="cls-1" d="M320.12,12.92v-1.03h.94v-3.54h-.94v-1.03h3.07v1.03h-.94v3.54h.94v1.03h-3.07Z"/>
      <path class="cls-1" d="M323.85,12.92l2.19-5.6h1.07l2.18,5.6h-1.23l-1.13-3.02c-.03-.08-.07-.19-.12-.33-.05-.13-.09-.27-.14-.42-.05-.15-.09-.29-.14-.43-.04-.14-.07-.25-.1-.34h.22c-.03.11-.07.24-.11.37-.04.13-.08.26-.12.4-.04.14-.09.27-.14.4s-.09.25-.14.38l-1.13,2.99h-1.18ZM324.86,11.74l.39-.97h2.57l.4.97h-3.36Z"/>
      <path class="cls-1" d="M330.08,12.92v-5.6h1.2v4.52h2.54v1.08h-3.74Z"/>
      <path class="cls-1" d="M281.39,22.52v-5.6h1.1l2.04,3.32h-.72s2.06-3.32,2.06-3.32h1.05v5.6h-1.18v-1.92c0-.48.01-.91.04-1.3.02-.38.07-.77.12-1.14l.14.38-1.64,2.54h-.53l-1.61-2.53.14-.39c.06.36.1.72.12,1.1.02.38.04.82.04,1.34v1.92h-1.18Z"/>
      <path class="cls-1" d="M288.37,22.52v-5.6h3.78v1.06h-2.62v3.49h2.67v1.06h-3.84ZM288.93,20.17v-1.02h2.84v1.02h-2.84Z"/>
      <path class="cls-1" d="M293.45,22.52v-5.6h2.3c.41,0,.78.07,1.12.2.33.14.62.33.86.58.24.25.43.54.56.88.13.34.19.72.19,1.14s-.06.79-.19,1.13c-.13.34-.31.64-.55.89-.24.25-.53.44-.86.58-.34.14-.71.2-1.12.2h-2.3ZM294.65,21.64l-.13-.21h1.18c.24,0,.46-.04.65-.12.19-.08.36-.2.49-.34.14-.15.24-.33.31-.54s.1-.45.1-.71-.04-.5-.1-.71c-.07-.21-.17-.39-.31-.54s-.3-.27-.49-.35c-.19-.08-.41-.12-.65-.12h-1.21l.15-.19v3.84Z"/>
      <path class="cls-1" d="M299.3,22.52v-1.03h.94v-3.54h-.94v-1.03h3.07v1.03h-.94v3.54h.94v1.03h-3.07Z"/>
      <path class="cls-1" d="M303.02,22.52l2.19-5.6h1.07l2.18,5.6h-1.23l-1.13-3.02c-.03-.08-.07-.19-.12-.33-.05-.13-.09-.27-.14-.42-.05-.15-.09-.29-.14-.43-.04-.14-.07-.25-.1-.34h.22c-.03.11-.07.24-.11.37-.04.13-.08.26-.12.4-.04.14-.09.27-.14.4s-.09.25-.14.38l-1.13,2.99h-1.18ZM304.04,21.34l.39-.97h2.57l.4.97h-3.36Z"/>
      <path class="cls-1" d="M313.53,22.6c-.35,0-.66-.04-.95-.13-.29-.09-.54-.21-.76-.38-.22-.17-.42-.37-.6-.6l.75-.86c.26.36.52.61.78.74.26.13.54.2.84.2.17,0,.31-.02.44-.07.13-.04.23-.11.31-.2.07-.09.11-.19.11-.3,0-.08-.02-.16-.06-.24-.04-.07-.09-.14-.16-.19s-.15-.11-.25-.15c-.1-.05-.2-.09-.32-.12s-.25-.06-.38-.08c-.3-.07-.56-.15-.78-.25-.22-.1-.41-.22-.56-.37-.15-.15-.26-.31-.33-.5-.07-.19-.11-.4-.11-.63s.05-.46.16-.67c.11-.21.25-.38.44-.53s.41-.26.66-.34c.25-.08.51-.12.79-.12.34,0,.64.04.9.12.26.08.48.19.67.33s.35.32.48.53l-.76.74c-.11-.15-.23-.27-.36-.38-.13-.1-.27-.18-.42-.23-.15-.05-.31-.08-.47-.08-.18,0-.33.02-.46.07-.13.05-.23.11-.3.2-.07.09-.11.19-.11.31,0,.1.02.18.07.26.05.07.12.14.21.2.09.06.2.11.33.15s.27.08.42.11c.29.06.56.14.79.23.24.1.44.21.6.35s.3.3.39.48.14.39.14.62c0,.38-.09.7-.27.97-.18.27-.43.47-.75.61-.32.14-.69.21-1.12.21Z"/>
      <path class="cls-1" d="M318.1,22.52v-2.79l.06.39-2.26-3.2h1.38l1.73,2.48-.54-.02,1.56-2.46h1.34l-2.17,3.29.12-.54v2.86h-1.21Z"/>
      <path class="cls-1" d="M323.68,22.6c-.35,0-.66-.04-.95-.13-.29-.09-.54-.21-.76-.38-.22-.17-.42-.37-.6-.6l.75-.86c.26.36.52.61.78.74.26.13.54.2.84.2.17,0,.31-.02.44-.07.13-.04.23-.11.31-.2.07-.09.11-.19.11-.3,0-.08-.02-.16-.06-.24-.04-.07-.09-.14-.16-.19s-.15-.11-.25-.15c-.1-.05-.2-.09-.32-.12s-.25-.06-.38-.08c-.3-.07-.56-.15-.78-.25-.22-.1-.41-.22-.56-.37-.15-.15-.26-.31-.33-.5-.07-.19-.11-.4-.11-.63s.05-.46.16-.67c.11-.21.25-.38.44-.53s.41-.26.66-.34c.25-.08.51-.12.79-.12.34,0,.64.04.9.12.26.08.48.19.67.33s.35.32.48.53l-.76.74c-.11-.15-.23-.27-.36-.38-.13-.1-.27-.18-.42-.23-.15-.05-.31-.08-.47-.08-.18,0-.33.02-.46.07-.13.05-.23.11-.3.2-.07.09-.11.19-.11.31,0,.1.02.18.07.26.05.07.12.14.21.2.09.06.2.11.33.15s.27.08.42.11c.29.06.56.14.79.23.24.1.44.21.6.35s.3.3.39.48.14.39.14.62c0,.38-.09.7-.27.97-.18.27-.43.47-.75.61-.32.14-.69.21-1.12.21Z"/>
      <path class="cls-1" d="M328.09,22.52v-4.52h-1.63v-1.08h4.51v1.08h-1.68v4.52h-1.2Z"/>
      <path class="cls-1" d="M331.96,22.52v-5.6h3.78v1.06h-2.62v3.49h2.67v1.06h-3.84ZM332.52,20.17v-1.02h2.84v1.02h-2.84Z"/>
      <path class="cls-1" d="M337.04,22.52v-5.6h1.1l2.04,3.32h-.72s2.06-3.32,2.06-3.32h1.05v5.6h-1.18v-1.92c0-.48.01-.91.04-1.3.02-.38.07-.77.12-1.14l.14.38-1.64,2.54h-.53l-1.61-2.53.14-.39c.06.36.1.72.12,1.1.02.38.04.82.04,1.34v1.92h-1.18Z"/>
    </g>
    <circle class="cls-2" cx="269.07" cy="14.6" r="5.63"/>
    <g>
      <path class="cls-1" d="M283.87,48.35c-.41,0-.79-.07-1.14-.22-.35-.14-.65-.35-.91-.6-.26-.26-.46-.56-.6-.92-.14-.35-.21-.74-.21-1.16s.07-.81.21-1.16c.14-.35.34-.65.6-.92.26-.26.56-.46.91-.61s.72-.22,1.14-.22.8.07,1.14.22c.34.14.65.35.9.61.26.26.46.57.6.92.14.35.21.74.21,1.15s-.07.8-.21,1.15-.34.66-.6.92c-.26.26-.56.46-.9.61-.34.14-.72.22-1.14.22ZM283.87,47.21c.23,0,.45-.04.65-.13.2-.08.37-.21.52-.37.14-.16.26-.35.34-.56s.12-.45.12-.7-.04-.49-.12-.7-.2-.4-.34-.56c-.14-.16-.32-.28-.52-.37-.2-.09-.42-.13-.65-.13s-.45.04-.65.13c-.2.09-.37.21-.52.37-.15.16-.26.34-.34.56s-.12.45-.12.7.04.49.12.7.19.4.34.56c.15.16.32.28.52.37.2.09.41.13.65.13Z"/>
      <path class="cls-1" d="M287.8,48.27v-5.6h1.2v4.52h2.54v1.08h-3.74Z"/>
      <path class="cls-1" d="M292.65,48.27v-5.6h2.3c.41,0,.78.07,1.12.2.33.14.62.33.86.58.24.25.43.54.56.88.13.34.19.72.19,1.14s-.06.79-.19,1.13c-.13.34-.31.64-.55.89-.24.25-.53.44-.86.58-.34.14-.71.2-1.12.2h-2.3ZM293.85,47.4l-.13-.21h1.18c.24,0,.46-.04.65-.12.19-.08.36-.2.49-.34.14-.15.24-.33.31-.54s.1-.45.1-.71-.04-.5-.1-.71c-.07-.21-.17-.39-.31-.54s-.3-.27-.49-.35c-.19-.08-.41-.12-.65-.12h-1.21l.15-.19v3.84Z"/>
      <path class="cls-1" d="M303.04,48.35c-.35,0-.66-.04-.95-.13-.29-.09-.54-.21-.76-.38-.22-.17-.42-.37-.6-.6l.75-.86c.26.36.52.61.78.74.26.13.54.2.84.2.17,0,.31-.02.44-.07.13-.04.23-.11.31-.2.07-.09.11-.19.11-.3,0-.08-.02-.16-.06-.24-.04-.07-.09-.14-.16-.19s-.15-.11-.25-.15c-.1-.05-.2-.09-.32-.12s-.25-.06-.38-.08c-.3-.07-.56-.15-.78-.25-.22-.1-.41-.22-.56-.37-.15-.15-.26-.31-.33-.5-.07-.19-.11-.4-.11-.63s.05-.46.16-.67c.11-.21.25-.38.44-.53s.41-.26.66-.34c.25-.08.51-.12.79-.12.34,0,.64.04.9.12.26.08.48.19.67.33s.35.32.48.53l-.76.74c-.11-.15-.23-.27-.36-.38-.13-.1-.27-.18-.42-.23-.15-.05-.31-.08-.47-.08-.18,0-.33.02-.46.07-.13.05-.23.11-.3.2-.07.09-.11.19-.11.31,0,.1.02.18.07.26.05.07.12.14.21.2.09.06.2.11.33.15s.27.08.42.11c.29.06.56.14.79.23.24.1.44.21.6.35s.3.3.39.48.14.39.14.62c0,.38-.09.7-.27.97-.18.27-.43.47-.75.61-.32.14-.69.21-1.12.21Z"/>
      <path class="cls-1" d="M308.75,48.35c-.41,0-.79-.07-1.14-.22-.35-.14-.65-.35-.91-.6-.26-.26-.46-.56-.6-.92-.14-.35-.21-.74-.21-1.16s.07-.81.21-1.16c.14-.35.34-.65.6-.92.26-.26.56-.46.91-.61s.72-.22,1.14-.22.8.07,1.14.22c.34.14.65.35.9.61.26.26.46.57.6.92.14.35.21.74.21,1.15s-.07.8-.21,1.15-.34.66-.6.92c-.26.26-.56.46-.9.61-.34.14-.72.22-1.14.22ZM308.75,47.21c.23,0,.45-.04.65-.13.2-.08.37-.21.52-.37.14-.16.26-.35.34-.56s.12-.45.12-.7-.04-.49-.12-.7-.2-.4-.34-.56c-.14-.16-.32-.28-.52-.37-.2-.09-.42-.13-.65-.13s-.45.04-.65.13c-.2.09-.37.21-.52.37-.15.16-.26.34-.34.56s-.12.45-.12.7.04.49.12.7.19.4.34.56c.15.16.32.28.52.37.2.09.41.13.65.13Z"/>
      <path class="cls-1" d="M315.14,48.35c-.41,0-.79-.07-1.13-.21-.34-.14-.64-.34-.9-.6-.25-.26-.45-.57-.59-.92-.14-.35-.21-.74-.21-1.16s.07-.79.22-1.14c.14-.35.35-.65.61-.91.26-.26.57-.46.92-.6.35-.14.73-.22,1.14-.22.27,0,.53.04.79.11.26.07.5.18.71.32s.4.3.56.5l-.75.83c-.13-.13-.26-.24-.4-.33-.14-.09-.28-.17-.43-.22-.15-.05-.31-.08-.48-.08-.23,0-.44.04-.64.13-.2.09-.37.2-.52.36-.15.15-.27.34-.36.55-.09.22-.13.45-.13.72s.04.51.13.72.21.4.36.55c.15.15.34.27.56.35.22.08.46.12.72.12.17,0,.34-.02.5-.07s.31-.11.44-.2c.14-.08.26-.18.36-.3l.58.94c-.13.14-.3.27-.52.39s-.46.21-.72.28-.54.1-.81.1Z"/>
      <path class="cls-1" d="M318.05,48.27v-1.03h.94v-3.54h-.94v-1.03h3.07v1.03h-.94v3.54h.94v1.03h-3.07Z"/>
      <path class="cls-1" d="M321.77,48.27l2.19-5.6h1.07l2.18,5.6h-1.23l-1.13-3.02c-.03-.08-.07-.19-.12-.33-.05-.13-.09-.27-.14-.42-.05-.15-.09-.29-.14-.43-.04-.14-.07-.25-.1-.34h.22c-.03.11-.07.24-.11.37-.04.13-.08.26-.12.4-.04.14-.09.27-.14.4s-.09.25-.14.38l-1.13,2.99h-1.18ZM322.79,47.09l.39-.97h2.57l.4.97h-3.36Z"/>
      <path class="cls-1" d="M328,48.27v-5.6h1.2v4.52h2.54v1.08h-3.74Z"/>
      <path class="cls-1" d="M281.39,57.87v-5.6h1.1l2.04,3.32h-.72s2.06-3.32,2.06-3.32h1.05v5.6h-1.18v-1.92c0-.48.01-.91.04-1.3.02-.38.07-.77.12-1.14l.14.38-1.64,2.54h-.53l-1.61-2.53.14-.39c.06.36.1.72.12,1.1.02.38.04.82.04,1.34v1.92h-1.18Z"/>
      <path class="cls-1" d="M288.37,57.87v-5.6h3.78v1.06h-2.62v3.49h2.67v1.06h-3.84ZM288.93,55.52v-1.02h2.84v1.02h-2.84Z"/>
      <path class="cls-1" d="M293.45,57.87v-5.6h2.3c.41,0,.78.07,1.12.2.33.14.62.33.86.58.24.25.43.54.56.88.13.34.19.72.19,1.14s-.06.79-.19,1.13c-.13.34-.31.64-.55.89-.24.25-.53.44-.86.58-.34.14-.71.2-1.12.2h-2.3ZM294.65,57l-.13-.21h1.18c.24,0,.46-.04.65-.12.19-.08.36-.2.49-.34.14-.15.24-.33.31-.54s.1-.45.1-.71-.04-.5-.1-.71c-.07-.21-.17-.39-.31-.54s-.3-.27-.49-.35c-.19-.08-.41-.12-.65-.12h-1.21l.15-.19v3.84Z"/>
      <path class="cls-1" d="M299.3,57.87v-1.03h.94v-3.54h-.94v-1.03h3.07v1.03h-.94v3.54h.94v1.03h-3.07Z"/>
      <path class="cls-1" d="M303.02,57.87l2.19-5.6h1.07l2.18,5.6h-1.23l-1.13-3.02c-.03-.08-.07-.19-.12-.33-.05-.13-.09-.27-.14-.42-.05-.15-.09-.29-.14-.43-.04-.14-.07-.25-.1-.34h.22c-.03.11-.07.24-.11.37-.04.13-.08.26-.12.4-.04.14-.09.27-.14.4s-.09.25-.14.38l-1.13,2.99h-1.18ZM304.04,56.69l.39-.97h2.57l.4.97h-3.36Z"/>
      <path class="cls-1" d="M313.53,57.95c-.35,0-.66-.04-.95-.13-.29-.09-.54-.21-.76-.38-.22-.17-.42-.37-.6-.6l.75-.86c.26.36.52.61.78.74.26.13.54.2.84.2.17,0,.31-.02.44-.07.13-.04.23-.11.31-.2.07-.09.11-.19.11-.3,0-.08-.02-.16-.06-.24-.04-.07-.09-.14-.16-.19s-.15-.11-.25-.15c-.1-.05-.2-.09-.32-.12s-.25-.06-.38-.08c-.3-.07-.56-.15-.78-.25-.22-.1-.41-.22-.56-.37-.15-.15-.26-.31-.33-.5-.07-.19-.11-.4-.11-.63s.05-.46.16-.67c.11-.21.25-.38.44-.53s.41-.26.66-.34c.25-.08.51-.12.79-.12.34,0,.64.04.9.12.26.08.48.19.67.33s.35.32.48.53l-.76.74c-.11-.15-.23-.27-.36-.38-.13-.1-.27-.18-.42-.23-.15-.05-.31-.08-.47-.08-.18,0-.33.02-.46.07-.13.05-.23.11-.3.2-.07.09-.11.19-.11.31,0,.1.02.18.07.26.05.07.12.14.21.2.09.06.2.11.33.15s.27.08.42.11c.29.06.56.14.79.23.24.1.44.21.6.35s.3.3.39.48.14.39.14.62c0,.38-.09.7-.27.97-.18.27-.43.47-.75.61-.32.14-.69.21-1.12.21Z"/>
      <path class="cls-1" d="M318.1,57.87v-2.79l.06.39-2.26-3.2h1.38l1.73,2.48-.54-.02,1.56-2.46h1.34l-2.17,3.29.12-.54v2.86h-1.21Z"/>
      <path class="cls-1" d="M323.68,57.95c-.35,0-.66-.04-.95-.13-.29-.09-.54-.21-.76-.38-.22-.17-.42-.37-.6-.6l.75-.86c.26.36.52.61.78.74.26.13.54.2.84.2.17,0,.31-.02.44-.07.13-.04.23-.11.31-.2.07-.09.11-.19.11-.3,0-.08-.02-.16-.06-.24-.04-.07-.09-.14-.16-.19s-.15-.11-.25-.15c-.1-.05-.2-.09-.32-.12s-.25-.06-.38-.08c-.3-.07-.56-.15-.78-.25-.22-.1-.41-.22-.56-.37-.15-.15-.26-.31-.33-.5-.07-.19-.11-.4-.11-.63s.05-.46.16-.67c.11-.21.25-.38.44-.53s.41-.26.66-.34c.25-.08.51-.12.79-.12.34,0,.64.04.9.12.26.08.48.19.67.33s.35.32.48.53l-.76.74c-.11-.15-.23-.27-.36-.38-.13-.1-.27-.18-.42-.23-.15-.05-.31-.08-.47-.08-.18,0-.33.02-.46.07-.13.05-.23.11-.3.2-.07.09-.11.19-.11.31,0,.1.02.18.07.26.05.07.12.14.21.2.09.06.2.11.33.15s.27.08.42.11c.29.06.56.14.79.23.24.1.44.21.6.35s.3.3.39.48.14.39.14.62c0,.38-.09.7-.27.97-.18.27-.43.47-.75.61-.32.14-.69.21-1.12.21Z"/>
      <path class="cls-1" d="M328.09,57.87v-4.52h-1.63v-1.08h4.51v1.08h-1.68v4.52h-1.2Z"/>
      <path class="cls-1" d="M331.96,57.87v-5.6h3.78v1.06h-2.62v3.49h2.67v1.06h-3.84ZM332.52,55.52v-1.02h2.84v1.02h-2.84Z"/>
      <path class="cls-1" d="M337.04,57.87v-5.6h1.1l2.04,3.32h-.72s2.06-3.32,2.06-3.32h1.05v5.6h-1.18v-1.92c0-.48.01-.91.04-1.3.02-.38.07-.77.12-1.14l.14.38-1.64,2.54h-.53l-1.61-2.53.14-.39c.06.36.1.72.12,1.1.02.38.04.82.04,1.34v1.92h-1.18Z"/>
    </g>
    <circle class="cls-3" cx="269.07" cy="49.95" r="5.63"/>
  </g>
  <g id="Capa_3" data-name="Capa 3">
    <polygon class="cls-3" points="180.12 169.49 149.68 161.18 119.77 166.4 88.13 161.07 66.76 133.95 17.14 98.8 18.3 97.16 68.15 132.48 68.24 132.6 89.22 159.23 119.76 164.37 149.77 159.13 180.1 167.41 235.78 150.77 236.35 152.68 180.12 169.49"/>
    <circle class="cls-3" cx="236.06" cy="151.73" r="5.63"/>
    <circle class="cls-3" cx="182.85" cy="167.63" r="5.63"/>
    <circle class="cls-3" cx="149.72" cy="160.15" r="5.63"/>
    <circle class="cls-3" cx="118.54" cy="165.65" r="5.63"/>
    <circle class="cls-3" cx="86.93" cy="160.15" r="5.63"/>
    <circle class="cls-3" cx="67.46" cy="133.21" r="5.63"/>
    <circle class="cls-2" cx="65.65" cy="58.8" r="5.63"/>
    <circle class="cls-2" cx="81.3" cy="103.61" r="5.63"/>
    <circle class="cls-2" cx="110.29" cy="65.91" r="5.63"/>
    <circle class="cls-2" cx="150.14" cy="85.73" r="5.63"/>
    <circle class="cls-2" cx="182.85" cy="65.91" r="5.63"/>
    <circle class="cls-2" cx="234.41" cy="78.07" r="5.63"/>
    <circle class="cls-3" cx="17.72" cy="97.98" r="5.63"/>
    <circle class="cls-2" cx="17.72" cy="21.45" r="5.63"/>
  </g>
  <g id="Capa_4" data-name="Capa 4">
    <polygon class="cls-2" points="80.92 105.74 66.59 60.48 17.1 21.01 18.34 19.45 68.32 59.3 81.67 101.48 110 64.64 149.68 84.58 182.7 64.83 233.87 78.5 233.35 80.44 183 66.98 149.77 86.87 110.58 67.17 80.92 105.74"/>
  </g>
</svg>