<?xml version="1.0" encoding="UTF-8"?>
<svg id="Capa_2" data-name="Capa 2" xmlns="http://www.w3.org/2000/svg" viewBox="0 0 355.01 201.36">
  <defs>
    <style>
      .cls-1 {
        fill: #ec651d;
      }

      .cls-2 {
        fill: #35658a;
      }
    </style>
  </defs>
  <g id="Capa_1-2" data-name="Capa 1">
    <rect class="cls-2" x="37.57" y="167.95" width="233.8" height="1"/>
    <rect class="cls-2" x="37.57" y="140.37" width="233.8" height="1"/>
    <rect class="cls-2" x="37.57" y="112.8" width="233.8" height="1"/>
    <rect class="cls-2" x="37.57" y="85.23" width="233.8" height="1"/>
    <rect class="cls-2" x="37.57" y="57.65" width="233.8" height="1"/>
    <rect class="cls-2" x="37.57" y="30.08" width="233.8" height="1"/>
    <rect class="cls-2" x="37.57" y="2.5" width="233.8" height="1"/>
    <path class="cls-2" d="M28.42,172.13c-.54,0-1-.13-1.38-.39s-.67-.63-.87-1.11c-.2-.48-.3-1.06-.3-1.74s.1-1.26.3-1.74.49-.85.87-1.11.84-.39,1.38-.39,1,.13,1.39.39c.38.26.68.63.88,1.11s.3,1.06.3,1.74-.1,1.26-.3,1.74c-.2.48-.49.85-.88,1.11-.38.26-.85.39-1.39.39ZM28.42,170.97c.4,0,.71-.18.94-.54.22-.36.33-.87.33-1.54s-.11-1.2-.33-1.57c-.22-.37-.53-.55-.94-.55s-.72.18-.94.55c-.22.37-.33.89-.33,1.57s.11,1.18.33,1.54c.22.36.53.54.94.54Z"/>
    <g>
      <path class="cls-2" d="M1.33,115.42l-.3-.74,1.86-2.06c.1-.11.21-.23.33-.38.12-.14.23-.29.34-.45.11-.15.2-.3.27-.45s.1-.28.1-.4c0-.14-.03-.26-.09-.36-.06-.1-.15-.19-.26-.25s-.25-.09-.42-.09c-.16,0-.3.04-.44.12-.14.08-.27.2-.39.36-.12.16-.22.35-.31.57l-1.01-.57c.12-.35.29-.65.51-.91.22-.26.49-.46.79-.6.31-.14.63-.22.98-.22.37,0,.7.08.99.23s.53.36.69.63.25.58.25.94c0,.13-.01.27-.04.4-.03.14-.07.28-.13.43-.06.15-.14.31-.24.47s-.22.34-.36.52c-.14.18-.3.37-.48.57l-1.43,1.56-.18-.55h3.13v1.21H1.33Z"/>
      <path class="cls-2" d="M8.57,115.51c-.54,0-1-.13-1.38-.39s-.67-.63-.87-1.11c-.2-.48-.3-1.06-.3-1.74s.1-1.26.3-1.74.49-.85.87-1.11.84-.39,1.38-.39,1,.13,1.39.39c.38.26.68.63.88,1.11s.3,1.06.3,1.74-.1,1.26-.3,1.74c-.2.48-.49.85-.88,1.11-.38.26-.85.39-1.39.39ZM8.57,114.35c.4,0,.71-.18.94-.54.22-.36.33-.87.33-1.54s-.11-1.2-.33-1.57c-.22-.37-.53-.55-.94-.55s-.72.18-.94.55c-.22.37-.33.89-.33,1.57s.11,1.18.33,1.54c.22.36.53.54.94.54Z"/>
      <path class="cls-2" d="M12.63,115.52c-.23,0-.41-.07-.54-.2s-.19-.32-.19-.57c0-.22.07-.4.2-.54.13-.14.31-.21.53-.21.23,0,.41.07.53.2.13.13.19.32.19.56s-.07.41-.2.55c-.13.14-.31.21-.52.21Z"/>
      <path class="cls-2" d="M16.67,115.51c-.54,0-1-.13-1.38-.39s-.67-.63-.87-1.11c-.2-.48-.3-1.06-.3-1.74s.1-1.26.3-1.74.49-.85.87-1.11.84-.39,1.38-.39,1,.13,1.39.39c.38.26.68.63.88,1.11s.3,1.06.3,1.74-.1,1.26-.3,1.74c-.2.48-.49.85-.88,1.11-.38.26-.85.39-1.39.39ZM16.67,114.35c.4,0,.71-.18.94-.54.22-.36.33-.87.33-1.54s-.11-1.2-.33-1.57c-.22-.37-.53-.55-.94-.55s-.72.18-.94.55c-.22.37-.33.89-.33,1.57s.11,1.18.33,1.54c.22.36.53.54.94.54Z"/>
      <path class="cls-2" d="M22.54,115.51c-.54,0-1-.13-1.38-.39s-.67-.63-.87-1.11c-.2-.48-.3-1.06-.3-1.74s.1-1.26.3-1.74.49-.85.87-1.11.84-.39,1.38-.39,1,.13,1.39.39c.38.26.68.63.88,1.11s.3,1.06.3,1.74-.1,1.26-.3,1.74c-.2.48-.49.85-.88,1.11-.38.26-.85.39-1.39.39ZM22.54,114.35c.4,0,.71-.18.94-.54.22-.36.33-.87.33-1.54s-.11-1.2-.33-1.57c-.22-.37-.53-.55-.94-.55s-.72.18-.94.55c-.22.37-.33.89-.33,1.57s.11,1.18.33,1.54c.22.36.53.54.94.54Z"/>
      <path class="cls-2" d="M28.42,115.51c-.54,0-1-.13-1.38-.39s-.67-.63-.87-1.11c-.2-.48-.3-1.06-.3-1.74s.1-1.26.3-1.74.49-.85.87-1.11.84-.39,1.38-.39,1,.13,1.39.39c.38.26.68.63.88,1.11s.3,1.06.3,1.74-.1,1.26-.3,1.74c-.2.48-.49.85-.88,1.11-.38.26-.85.39-1.39.39ZM28.42,114.35c.4,0,.71-.18.94-.54.22-.36.33-.87.33-1.54s-.11-1.2-.33-1.57c-.22-.37-.53-.55-.94-.55s-.72.18-.94.55c-.22.37-.33.89-.33,1.57s.11,1.18.33,1.54c.22.36.53.54.94.54Z"/>
    </g>
    <g>
      <path class="cls-2" d="M2.95,59.8v-5.09l.63.04-2.21,2.71-.15-.23h4.09v1.14H.56l-.56-1.06,3.18-3.84h1.08v6.34h-1.3Z"/>
      <path class="cls-2" d="M8.57,59.89c-.54,0-1-.13-1.38-.39s-.67-.63-.87-1.11c-.2-.48-.3-1.06-.3-1.74s.1-1.26.3-1.74.49-.85.87-1.11.84-.39,1.38-.39,1,.13,1.39.39c.38.26.68.63.88,1.11s.3,1.06.3,1.74-.1,1.26-.3,1.74c-.2.48-.49.85-.88,1.11-.38.26-.85.39-1.39.39ZM8.57,58.73c.4,0,.71-.18.94-.54.22-.36.33-.87.33-1.54s-.11-1.2-.33-1.57c-.22-.37-.53-.55-.94-.55s-.72.18-.94.55c-.22.37-.33.89-.33,1.57s.11,1.18.33,1.54c.22.36.53.54.94.54Z"/>
      <path class="cls-2" d="M12.63,59.9c-.23,0-.41-.07-.54-.2s-.19-.32-.19-.57c0-.22.07-.4.2-.54.13-.14.31-.21.53-.21.23,0,.41.07.53.2.13.13.19.32.19.56s-.07.41-.2.55c-.13.14-.31.21-.52.21Z"/>
      <path class="cls-2" d="M16.67,59.89c-.54,0-1-.13-1.38-.39s-.67-.63-.87-1.11c-.2-.48-.3-1.06-.3-1.74s.1-1.26.3-1.74.49-.85.87-1.11.84-.39,1.38-.39,1,.13,1.39.39c.38.26.68.63.88,1.11s.3,1.06.3,1.74-.1,1.26-.3,1.74c-.2.48-.49.85-.88,1.11-.38.26-.85.39-1.39.39ZM16.67,58.73c.4,0,.71-.18.94-.54.22-.36.33-.87.33-1.54s-.11-1.2-.33-1.57c-.22-.37-.53-.55-.94-.55s-.72.18-.94.55c-.22.37-.33.89-.33,1.57s.11,1.18.33,1.54c.22.36.53.54.94.54Z"/>
      <path class="cls-2" d="M22.54,59.89c-.54,0-1-.13-1.38-.39s-.67-.63-.87-1.11c-.2-.48-.3-1.06-.3-1.74s.1-1.26.3-1.74.49-.85.87-1.11.84-.39,1.38-.39,1,.13,1.39.39c.38.26.68.63.88,1.11s.3,1.06.3,1.74-.1,1.26-.3,1.74c-.2.48-.49.85-.88,1.11-.38.26-.85.39-1.39.39ZM22.54,58.73c.4,0,.71-.18.94-.54.22-.36.33-.87.33-1.54s-.11-1.2-.33-1.57c-.22-.37-.53-.55-.94-.55s-.72.18-.94.55c-.22.37-.33.89-.33,1.57s.11,1.18.33,1.54c.22.36.53.54.94.54Z"/>
      <path class="cls-2" d="M28.42,59.89c-.54,0-1-.13-1.38-.39s-.67-.63-.87-1.11c-.2-.48-.3-1.06-.3-1.74s.1-1.26.3-1.74.49-.85.87-1.11.84-.39,1.38-.39,1,.13,1.39.39c.38.26.68.63.88,1.11s.3,1.06.3,1.74-.1,1.26-.3,1.74c-.2.48-.49.85-.88,1.11-.38.26-.85.39-1.39.39ZM28.42,58.73c.4,0,.71-.18.94-.54.22-.36.33-.87.33-1.54s-.11-1.2-.33-1.57c-.22-.37-.53-.55-.94-.55s-.72.18-.94.55c-.22.37-.33.89-.33,1.57s.11,1.18.33,1.54c.22.36.53.54.94.54Z"/>
    </g>
    <g>
      <path class="cls-2" d="M3.1,6.4c-.32,0-.62-.06-.9-.17-.28-.11-.52-.27-.73-.48s-.37-.44-.49-.72c-.12-.28-.17-.57-.17-.89,0-.2.02-.4.07-.61.05-.21.12-.42.2-.64.09-.22.19-.45.32-.69.13-.24.27-.49.42-.75l.86-1.45h1.26l.04.09-1.14,1.85c-.16.26-.3.52-.43.76-.12.24-.23.47-.32.69-.09.22-.18.45-.26.68l-.26-.72c.08-.2.18-.39.32-.55.13-.17.28-.31.45-.42.17-.12.35-.21.53-.27.19-.06.37-.09.55-.09.35,0,.68.09.98.28s.53.44.71.75c.18.31.27.65.27,1.03,0,.45-.1.85-.29,1.2-.2.35-.46.63-.81.83-.34.2-.74.31-1.17.31ZM3.11,5.26c.2,0,.39-.05.54-.14.16-.09.28-.22.37-.39s.13-.36.13-.58c0-.19-.05-.36-.14-.53-.09-.17-.22-.3-.38-.4-.16-.1-.33-.15-.53-.15-.21,0-.4.05-.56.15-.17.1-.29.23-.39.39s-.14.34-.14.54c0,.22.05.41.14.57s.22.3.38.4.35.15.56.15Z"/>
      <path class="cls-2" d="M8.57,6.49c-.54,0-1-.13-1.38-.39s-.67-.63-.87-1.11c-.2-.48-.3-1.06-.3-1.74s.1-1.26.3-1.74.49-.85.87-1.11S8.03,0,8.57,0s1,.13,1.39.39c.38.26.68.63.88,1.11s.3,1.06.3,1.74-.1,1.26-.3,1.74c-.2.48-.49.85-.88,1.11-.38.26-.85.39-1.39.39ZM8.57,5.33c.4,0,.71-.18.94-.54.22-.36.33-.87.33-1.54s-.11-1.2-.33-1.57c-.22-.37-.53-.55-.94-.55s-.72.18-.94.55c-.22.37-.33.89-.33,1.57s.11,1.18.33,1.54c.22.36.53.54.94.54Z"/>
      <path class="cls-2" d="M12.63,6.5c-.23,0-.41-.07-.54-.2s-.19-.32-.19-.57c0-.22.07-.4.2-.54.13-.14.31-.21.53-.21.23,0,.41.07.53.2.13.13.19.32.19.56s-.07.41-.2.55c-.13.14-.31.21-.52.21Z"/>
      <path class="cls-2" d="M16.67,6.49c-.54,0-1-.13-1.38-.39s-.67-.63-.87-1.11c-.2-.48-.3-1.06-.3-1.74s.1-1.26.3-1.74.49-.85.87-1.11S16.13,0,16.67,0s1,.13,1.39.39c.38.26.68.63.88,1.11s.3,1.06.3,1.74-.1,1.26-.3,1.74c-.2.48-.49.85-.88,1.11-.38.26-.85.39-1.39.39ZM16.67,5.33c.4,0,.71-.18.94-.54.22-.36.33-.87.33-1.54s-.11-1.2-.33-1.57c-.22-.37-.53-.55-.94-.55s-.72.18-.94.55c-.22.37-.33.89-.33,1.57s.11,1.18.33,1.54c.22.36.53.54.94.54Z"/>
      <path class="cls-2" d="M22.54,6.49c-.54,0-1-.13-1.38-.39s-.67-.63-.87-1.11c-.2-.48-.3-1.06-.3-1.74s.1-1.26.3-1.74.49-.85.87-1.11S22,0,22.54,0s1,.13,1.39.39c.38.26.68.63.88,1.11s.3,1.06.3,1.74-.1,1.26-.3,1.74c-.2.48-.49.85-.88,1.11-.38.26-.85.39-1.39.39ZM22.54,5.33c.4,0,.71-.18.94-.54.22-.36.33-.87.33-1.54s-.11-1.2-.33-1.57c-.22-.37-.53-.55-.94-.55s-.72.18-.94.55c-.22.37-.33.89-.33,1.57s.11,1.18.33,1.54c.22.36.53.54.94.54Z"/>
      <path class="cls-2" d="M28.42,6.49c-.54,0-1-.13-1.38-.39s-.67-.63-.87-1.11c-.2-.48-.3-1.06-.3-1.74s.1-1.26.3-1.74.49-.85.87-1.11S27.88,0,28.42,0s1,.13,1.39.39c.38.26.68.63.88,1.11s.3,1.06.3,1.74-.1,1.26-.3,1.74c-.2.48-.49.85-.88,1.11-.38.26-.85.39-1.39.39ZM28.42,5.33c.4,0,.71-.18.94-.54.22-.36.33-.87.33-1.54s-.11-1.2-.33-1.57c-.22-.37-.53-.55-.94-.55s-.72.18-.94.55c-.22.37-.33.89-.33,1.57s.11,1.18.33,1.54c.22.36.53.54.94.54Z"/>
    </g>
    <g>
      <path class="cls-2" d="M31.87,185.19l2.47-6.3h1.21l2.46,6.3h-1.39l-1.27-3.39c-.04-.1-.08-.22-.13-.37-.05-.15-.1-.31-.16-.48s-.1-.33-.15-.48c-.05-.15-.08-.28-.11-.38h.24c-.04.13-.08.27-.12.42s-.09.3-.14.45c-.05.15-.1.3-.15.45s-.11.29-.15.42l-1.27,3.37h-1.33ZM33.02,183.87l.44-1.09h2.89l.45,1.09h-3.78Z"/>
      <path class="cls-2" d="M41.47,185.28c-.46,0-.89-.08-1.27-.24-.39-.16-.72-.38-1.01-.68-.29-.29-.51-.64-.66-1.03s-.23-.84-.23-1.31.08-.89.24-1.28c.16-.39.39-.73.68-1.03s.64-.52,1.04-.68c.4-.16.83-.24,1.29-.24.3,0,.59.04.89.12s.56.2.8.36c.24.16.45.34.62.56l-.85.94c-.14-.14-.29-.27-.45-.37-.15-.1-.32-.19-.49-.24s-.35-.09-.54-.09c-.26,0-.5.05-.72.14-.23.1-.42.23-.59.4s-.3.38-.4.62c-.1.24-.15.51-.15.81s.05.57.14.81c.1.24.23.45.41.62s.38.3.62.4c.24.09.51.14.81.14.19,0,.38-.03.56-.08.18-.05.35-.13.5-.23.15-.1.29-.21.41-.33l.66,1.05c-.14.16-.34.31-.58.44s-.51.24-.81.31c-.3.07-.6.11-.91.11Z"/>
      <path class="cls-2" d="M46.22,185.19v-5.08h-1.84v-1.21h5.08v1.21h-1.89v5.08h-1.35Z"/>
      <path class="cls-2" d="M50.41,185.19v-1.16h1.05v-3.98h-1.05v-1.16h3.46v1.16h-1.05v3.98h1.05v1.16h-3.46Z"/>
      <path class="cls-2" d="M57.14,185.19l-2.51-6.3h1.43l1.31,3.41c.07.19.13.35.18.49s.1.27.13.4.08.24.11.36c.04.12.07.24.11.38h-.26c.05-.18.1-.35.14-.51.05-.16.1-.33.16-.5.06-.17.14-.38.23-.62l1.24-3.41h1.42l-2.53,6.3h-1.18Z"/>
      <path class="cls-2" d="M61.76,185.19v-6.3h4.26v1.19h-2.94v3.92h3.01v1.19h-4.32ZM62.39,182.55v-1.15h3.19v1.15h-3.19Z"/>
      <path class="cls-2" d="M72.83,185.24c-.51,0-.96-.11-1.36-.32-.4-.21-.71-.51-.94-.88-.23-.38-.34-.8-.34-1.27v-3.89h1.36v3.81c0,.25.06.48.17.68.11.2.27.36.46.48.19.12.41.18.65.18s.47-.06.67-.18c.2-.12.36-.28.48-.48.12-.2.18-.43.18-.68v-3.81h1.31v3.89c0,.47-.11.9-.34,1.27-.23.38-.54.67-.94.88-.4.21-.85.32-1.35.32Z"/>
      <path class="cls-2" d="M79.01,185.28c-.39,0-.75-.05-1.07-.14-.32-.1-.61-.24-.86-.42s-.47-.41-.67-.67l.85-.96c.29.41.59.69.88.83.29.15.61.22.95.22.19,0,.35-.03.5-.08.15-.05.26-.12.35-.22.08-.1.13-.21.13-.34,0-.1-.02-.18-.06-.27-.04-.08-.1-.15-.18-.22s-.17-.12-.28-.17c-.11-.05-.23-.1-.36-.13s-.28-.07-.43-.09c-.34-.08-.63-.17-.88-.28-.25-.11-.46-.25-.63-.41s-.29-.35-.37-.56-.12-.45-.12-.71.06-.52.18-.75c.12-.23.29-.43.5-.6s.46-.3.74-.39c.28-.09.57-.13.89-.13.38,0,.72.04,1.01.13s.54.21.75.37.39.36.54.59l-.86.83c-.13-.17-.26-.31-.41-.42-.15-.11-.31-.2-.48-.26-.17-.06-.35-.09-.53-.09-.2,0-.37.03-.51.08-.14.05-.26.12-.34.22-.08.1-.12.21-.12.35,0,.11.03.2.08.29s.13.16.23.22c.1.06.23.12.37.17.14.05.3.09.48.13.33.07.63.15.89.26.26.11.49.24.68.39.19.15.33.33.44.54.1.21.15.44.15.7,0,.43-.1.79-.31,1.09s-.49.53-.85.69c-.36.16-.78.24-1.26.24Z"/>
      <path class="cls-2" d="M82.64,185.19v-6.3h4.26v1.19h-2.94v3.92h3.01v1.19h-4.32ZM83.27,182.55v-1.15h3.19v1.15h-3.19Z"/>
      <path class="cls-2" d="M88.36,185.19v-6.3h2.79c.39,0,.74.09,1.06.27.32.18.57.42.75.72.18.3.27.64.27,1.03s-.09.72-.27,1.03c-.18.31-.43.55-.75.73-.32.18-.67.27-1.06.27h-1.49v2.26h-1.3ZM89.66,181.83h1.42c.16,0,.3-.04.43-.11.12-.07.22-.18.28-.31.07-.13.1-.29.1-.45,0-.18-.04-.34-.12-.47s-.19-.24-.34-.31c-.15-.07-.32-.11-.52-.11h-1.25v1.77ZM91.93,185.19l-1.6-2.84,1.39-.22,1.78,3.08h-1.57Z"/>
      <path class="cls-2" d="M96.7,185.28c-.39,0-.75-.05-1.07-.14-.32-.1-.61-.24-.86-.42s-.47-.41-.67-.67l.85-.96c.29.41.59.69.88.83.29.15.61.22.95.22.19,0,.35-.03.5-.08.15-.05.26-.12.35-.22.08-.1.13-.21.13-.34,0-.1-.02-.18-.06-.27-.04-.08-.1-.15-.18-.22s-.17-.12-.28-.17c-.11-.05-.23-.1-.36-.13s-.28-.07-.43-.09c-.34-.08-.63-.17-.88-.28-.25-.11-.46-.25-.63-.41s-.29-.35-.37-.56-.12-.45-.12-.71.06-.52.18-.75c.12-.23.29-.43.5-.6s.46-.3.74-.39c.28-.09.57-.13.89-.13.38,0,.72.04,1.01.13s.54.21.75.37.39.36.54.59l-.86.83c-.13-.17-.26-.31-.41-.42-.15-.11-.31-.2-.48-.26-.17-.06-.35-.09-.53-.09-.2,0-.37.03-.51.08-.14.05-.26.12-.34.22-.08.1-.12.21-.12.35,0,.11.03.2.08.29s.13.16.23.22c.1.06.23.12.37.17.14.05.3.09.48.13.33.07.63.15.89.26.26.11.49.24.68.39.19.15.33.33.44.54.1.21.15.44.15.7,0,.43-.1.79-.31,1.09s-.49.53-.85.69c-.36.16-.78.24-1.26.24Z"/>
    </g>
    <g>
      <path class="cls-2" d="M129.23,184.81l2.47-6.3h1.21l2.46,6.3h-1.39l-1.27-3.39c-.04-.1-.08-.22-.13-.37-.05-.15-.1-.31-.16-.48s-.1-.33-.15-.48c-.05-.15-.08-.28-.11-.38h.24c-.04.13-.08.27-.12.42s-.09.3-.14.45c-.05.15-.1.3-.15.45s-.11.29-.15.42l-1.27,3.37h-1.33ZM130.37,183.49l.44-1.09h2.89l.45,1.09h-3.78Z"/>
      <path class="cls-2" d="M138.83,184.9c-.46,0-.89-.08-1.27-.24-.39-.16-.72-.38-1.01-.68-.29-.29-.51-.64-.66-1.03s-.23-.84-.23-1.31.08-.89.24-1.28c.16-.39.39-.73.68-1.03s.64-.52,1.04-.68c.4-.16.83-.24,1.29-.24.3,0,.59.04.89.12s.56.2.8.36c.24.16.45.34.62.56l-.85.94c-.14-.14-.29-.27-.45-.37-.15-.1-.32-.19-.49-.24s-.35-.09-.54-.09c-.26,0-.5.05-.72.14-.23.1-.42.23-.59.4s-.3.38-.4.62c-.1.24-.15.51-.15.81s.05.57.14.81c.1.24.23.45.41.62s.38.3.62.4c.24.09.51.14.81.14.19,0,.38-.03.56-.08.18-.05.35-.13.5-.23.15-.1.29-.21.41-.33l.66,1.05c-.14.16-.34.31-.58.44s-.51.24-.81.31c-.3.07-.6.11-.91.11Z"/>
      <path class="cls-2" d="M143.58,184.81v-5.08h-1.84v-1.21h5.08v1.21h-1.89v5.08h-1.35Z"/>
      <path class="cls-2" d="M147.77,184.81v-1.16h1.05v-3.98h-1.05v-1.16h3.46v1.16h-1.05v3.98h1.05v1.16h-3.46Z"/>
      <path class="cls-2" d="M154.49,184.81l-2.51-6.3h1.43l1.31,3.41c.07.19.13.35.18.49s.1.27.13.4.08.24.11.36c.04.12.07.24.11.38h-.26c.05-.18.1-.35.14-.51.05-.16.1-.33.16-.5.06-.17.14-.38.23-.62l1.24-3.41h1.42l-2.53,6.3h-1.18Z"/>
      <path class="cls-2" d="M158.96,184.81v-1.16h1.05v-3.98h-1.05v-1.16h3.46v1.16h-1.05v3.98h1.05v1.16h-3.46Z"/>
      <path class="cls-2" d="M165.2,184.81v-5.08h-1.84v-1.21h5.08v1.21h-1.89v5.08h-1.35Z"/>
      <path class="cls-2" d="M171.3,184.81v-3.14l.06.44-2.55-3.6h1.56l1.94,2.79-.61-.03,1.75-2.76h1.5l-2.44,3.7.13-.61v3.21h-1.36Z"/>
      <path class="cls-2" d="M178.36,184.81v-1.16h1.05v-3.98h-1.05v-1.16h3.46v1.16h-1.05v3.98h1.05v1.16h-3.46Z"/>
      <path class="cls-2" d="M183.29,184.81v-6.3h1.21l3.48,4.71h-.25c-.02-.19-.04-.37-.06-.54-.02-.18-.04-.36-.05-.54-.01-.18-.03-.37-.04-.57,0-.19-.02-.4-.02-.62,0-.22,0-.46,0-.72v-1.72h1.32v6.3h-1.22l-3.55-4.75h.34c.03.32.06.59.08.81.02.22.04.41.05.57s.02.3.03.42c0,.12.02.23.02.34s0,.22,0,.34v2.27h-1.32Z"/>
      <path class="cls-2" d="M193.08,184.81l-.3-.74,1.86-2.06c.1-.11.21-.23.33-.38.12-.14.23-.29.34-.45.11-.15.2-.3.27-.45s.1-.28.1-.4c0-.14-.03-.26-.09-.36-.06-.1-.15-.19-.26-.25s-.25-.09-.42-.09c-.16,0-.3.04-.44.12-.14.08-.27.2-.39.36-.12.16-.22.35-.31.57l-1.01-.57c.12-.35.29-.65.51-.91.22-.26.49-.46.79-.6.31-.14.63-.22.98-.22.37,0,.7.08.99.23s.53.36.69.63.25.58.25.94c0,.13-.01.27-.04.4-.03.14-.07.28-.13.43-.06.15-.14.31-.24.47s-.22.34-.36.52c-.14.18-.3.37-.48.57l-1.43,1.56-.18-.55h3.13v1.21h-4.16Z"/>
      <path class="cls-2" d="M200.36,184.81v-5.09l.63.04-2.21,2.71-.15-.23h4.09v1.14h-4.74l-.56-1.06,3.18-3.84h1.08v6.34h-1.3Z"/>
      <path class="cls-2" d="M203.86,184.81v-6.3h1.35v6.3h-1.35ZM204.4,182.28v-1.22h4.12v1.22h-4.12ZM207.83,184.81v-6.3h1.35v6.3h-1.35Z"/>
    </g>
    <g>
      <path class="cls-2" d="M194.57,201.13c-.46,0-.89-.08-1.27-.24-.39-.16-.72-.38-1.01-.68-.29-.29-.51-.64-.66-1.03s-.23-.84-.23-1.31.08-.89.24-1.28c.16-.39.39-.73.68-1.03s.64-.52,1.04-.68c.4-.16.83-.24,1.29-.24.3,0,.59.04.89.12s.56.2.8.36c.24.16.45.34.62.56l-.85.94c-.14-.14-.29-.27-.45-.37-.15-.1-.32-.19-.49-.24s-.35-.09-.54-.09c-.26,0-.5.05-.72.14-.23.1-.42.23-.59.4s-.3.38-.4.62c-.1.24-.15.51-.15.81s.05.57.14.81c.1.24.23.45.41.62s.38.3.62.4c.24.09.51.14.81.14.19,0,.38-.03.56-.08.18-.05.35-.13.5-.23.15-.1.29-.21.41-.33l.66,1.05c-.14.16-.34.31-.58.44s-.51.24-.81.31c-.3.07-.6.11-.91.11Z"/>
      <path class="cls-2" d="M198.01,201.04v-6.3h1.35v5.08h2.85v1.21h-4.2Z"/>
      <path class="cls-2" d="M203.3,201.04v-1.16h1.05v-3.98h-1.05v-1.16h3.46v1.16h-1.05v3.98h1.05v1.16h-3.46Z"/>
      <path class="cls-2" d="M210.86,201.13c-.46,0-.89-.08-1.27-.24-.39-.16-.72-.38-1.01-.68-.29-.29-.51-.64-.66-1.03s-.23-.84-.23-1.31.08-.89.24-1.28c.16-.39.39-.73.68-1.03s.64-.52,1.04-.68c.4-.16.83-.24,1.29-.24.3,0,.59.04.89.12s.56.2.8.36c.24.16.45.34.62.56l-.85.94c-.14-.14-.29-.27-.45-.37-.15-.1-.32-.19-.49-.24s-.35-.09-.54-.09c-.26,0-.5.05-.72.14-.23.1-.42.23-.59.4s-.3.38-.4.62c-.1.24-.15.51-.15.81s.05.57.14.81c.1.24.23.45.41.62s.38.3.62.4c.24.09.51.14.81.14.19,0,.38-.03.56-.08.18-.05.35-.13.5-.23.15-.1.29-.21.41-.33l.66,1.05c-.14.16-.34.31-.58.44s-.51.24-.81.31c-.3.07-.6.11-.91.11Z"/>
      <path class="cls-2" d="M214.3,201.04v-6.3h1.35v6.3h-1.35ZM215.32,199.17l-.29-1.22,3.19-3.21h1.64l-4.54,4.44ZM218.38,201.04l-2.36-3.13.93-.8,3.03,3.93h-1.6Z"/>
      <path class="cls-2" d="M222.88,201.13c-.39,0-.75-.05-1.07-.14-.32-.1-.61-.24-.86-.42s-.47-.41-.67-.67l.85-.96c.29.41.59.69.88.83.29.15.61.22.95.22.19,0,.35-.03.5-.08.15-.05.26-.12.35-.22.08-.1.13-.21.13-.34,0-.1-.02-.18-.06-.27-.04-.08-.1-.15-.18-.22s-.17-.12-.28-.17c-.11-.05-.23-.1-.36-.13s-.28-.07-.43-.09c-.34-.08-.63-.17-.88-.28-.25-.11-.46-.25-.63-.41s-.29-.35-.37-.56-.12-.45-.12-.71.06-.52.18-.75c.12-.23.29-.43.5-.6s.46-.3.74-.39c.28-.09.57-.13.89-.13.38,0,.72.04,1.01.13s.54.21.75.37.39.36.54.59l-.86.83c-.13-.17-.26-.31-.41-.42-.15-.11-.31-.2-.48-.26-.17-.06-.35-.09-.53-.09-.2,0-.37.03-.51.08-.14.05-.26.12-.34.22-.08.1-.12.21-.12.35,0,.11.03.2.08.29s.13.16.23.22c.1.06.23.12.37.17.14.05.3.09.48.13.33.07.63.15.89.26.26.11.49.24.68.39.19.15.33.33.44.54.1.21.15.44.15.7,0,.43-.1.79-.31,1.09s-.49.53-.85.69c-.36.16-.78.24-1.26.24Z"/>
    </g>
    <g>
      <path class="cls-2" d="M87.86,201.27v-6.3h1.21l3.48,4.71h-.25c-.02-.19-.04-.37-.06-.54-.02-.18-.04-.36-.05-.54-.01-.18-.03-.37-.04-.57,0-.19-.02-.4-.02-.62,0-.22,0-.46,0-.72v-1.72h1.32v6.3h-1.22l-3.55-4.75h.34c.03.32.06.59.08.81.02.22.04.41.05.57s.02.3.03.42c0,.12.02.23.02.34s0,.22,0,.34v2.27h-1.32Z"/>
      <path class="cls-2" d="M95.08,201.27v-6.3h4.26v1.19h-2.94v3.92h3.01v1.19h-4.32ZM95.71,198.63v-1.15h3.19v1.15h-3.19Z"/>
      <path class="cls-2" d="M101.99,201.27l-1.92-6.3h1.39l1.03,3.52c.04.13.08.26.11.41.03.15.06.29.08.42.02.14.04.26.05.38.01.12.03.21.04.29h-.22c.05-.26.1-.47.13-.64s.07-.32.1-.46c.03-.14.07-.27.12-.41l.99-2.6h1.12l.97,2.6c.07.18.13.35.17.52s.08.32.11.48c.03.15.06.31.09.46l-.2.04c.02-.13.03-.24.04-.33,0-.09.02-.18.03-.26s.02-.16.03-.24.03-.18.05-.29c.02-.11.06-.24.11-.39l1.02-3.5h1.37l-1.93,6.3h-1l-1.56-3.73.14.02-1.45,3.71h-1.04Z"/>
      <path class="cls-2" d="M115.09,201.32c-.51,0-.96-.11-1.36-.32-.4-.21-.71-.51-.94-.88-.23-.38-.34-.8-.34-1.27v-3.89h1.36v3.81c0,.25.06.48.17.68.11.2.27.36.46.48.19.12.41.18.65.18s.47-.06.67-.18c.2-.12.36-.28.48-.48.12-.2.18-.43.18-.68v-3.81h1.31v3.89c0,.47-.11.9-.34,1.27-.23.38-.54.67-.94.88-.4.21-.85.32-1.35.32Z"/>
      <path class="cls-2" d="M121.26,201.36c-.39,0-.75-.05-1.07-.14-.32-.1-.61-.24-.86-.42s-.47-.41-.67-.67l.85-.96c.29.41.59.69.88.83.29.15.61.22.95.22.19,0,.35-.03.5-.08.15-.05.26-.12.35-.22.08-.1.13-.21.13-.34,0-.1-.02-.18-.06-.27-.04-.08-.1-.15-.18-.22s-.17-.12-.28-.17c-.11-.05-.23-.1-.36-.13s-.28-.07-.43-.09c-.34-.08-.63-.17-.88-.28-.25-.11-.46-.25-.63-.41s-.29-.35-.37-.56-.12-.45-.12-.71.06-.52.18-.75c.12-.23.29-.43.5-.6s.46-.3.74-.39c.28-.09.57-.13.89-.13.38,0,.72.04,1.01.13s.54.21.75.37.39.36.54.59l-.86.83c-.13-.17-.26-.31-.41-.42-.15-.11-.31-.2-.48-.26-.17-.06-.35-.09-.53-.09-.2,0-.37.03-.51.08-.14.05-.26.12-.34.22-.08.1-.12.21-.12.35,0,.11.03.2.08.29s.13.16.23.22c.1.06.23.12.37.17.14.05.3.09.48.13.33.07.63.15.89.26.26.11.49.24.68.39.19.15.33.33.44.54.1.21.15.44.15.7,0,.43-.1.79-.31,1.09s-.49.53-.85.69c-.36.16-.78.24-1.26.24Z"/>
      <path class="cls-2" d="M124.9,201.27v-6.3h4.26v1.19h-2.94v3.92h3.01v1.19h-4.32ZM125.53,198.63v-1.15h3.19v1.15h-3.19Z"/>
      <path class="cls-2" d="M130.62,201.27v-6.3h2.79c.39,0,.74.09,1.06.27.32.18.57.42.75.72.18.3.27.64.27,1.03s-.09.72-.27,1.03c-.18.31-.43.55-.75.73-.32.18-.67.27-1.06.27h-1.49v2.26h-1.3ZM131.92,197.91h1.42c.16,0,.3-.04.43-.11.12-.07.22-.18.28-.31.07-.13.1-.29.1-.45,0-.18-.04-.34-.12-.47s-.19-.24-.34-.31c-.15-.07-.32-.11-.52-.11h-1.25v1.77ZM134.19,201.27l-1.6-2.84,1.39-.22,1.78,3.08h-1.57Z"/>
      <path class="cls-2" d="M138.96,201.36c-.39,0-.75-.05-1.07-.14-.32-.1-.61-.24-.86-.42s-.47-.41-.67-.67l.85-.96c.29.41.59.69.88.83.29.15.61.22.95.22.19,0,.35-.03.5-.08.15-.05.26-.12.35-.22.08-.1.13-.21.13-.34,0-.1-.02-.18-.06-.27-.04-.08-.1-.15-.18-.22s-.17-.12-.28-.17c-.11-.05-.23-.1-.36-.13s-.28-.07-.43-.09c-.34-.08-.63-.17-.88-.28-.25-.11-.46-.25-.63-.41s-.29-.35-.37-.56-.12-.45-.12-.71.06-.52.18-.75c.12-.23.29-.43.5-.6s.46-.3.74-.39c.28-.09.57-.13.89-.13.38,0,.72.04,1.01.13s.54.21.75.37.39.36.54.59l-.86.83c-.13-.17-.26-.31-.41-.42-.15-.11-.31-.2-.48-.26-.17-.06-.35-.09-.53-.09-.2,0-.37.03-.51.08-.14.05-.26.12-.34.22-.08.1-.12.21-.12.35,0,.11.03.2.08.29s.13.16.23.22c.1.06.23.12.37.17.14.05.3.09.48.13.33.07.63.15.89.26.26.11.49.24.68.39.19.15.33.33.44.54.1.21.15.44.15.7,0,.43-.1.79-.31,1.09s-.49.53-.85.69c-.36.16-.78.24-1.26.24Z"/>
    </g>
    <g>
      <path class="cls-2" d="M225.95,185.19v-6.3h2.67c.37,0,.71.09,1.01.27.3.18.54.42.72.72s.27.65.27,1.04-.09.74-.27,1.05c-.18.31-.42.56-.72.74-.3.18-.64.27-1.01.27h-1.32v2.21h-1.35ZM227.28,181.77h1.19c.14,0,.27-.04.39-.11.11-.07.21-.18.28-.3.07-.13.1-.27.1-.43s-.03-.3-.1-.43c-.07-.12-.16-.22-.28-.29-.11-.07-.24-.1-.39-.1h-1.19v1.67Z"/>
      <path class="cls-2" d="M230.49,185.19l2.47-6.3h1.21l2.46,6.3h-1.39l-1.27-3.39c-.04-.1-.08-.22-.13-.37-.05-.15-.1-.31-.16-.48s-.1-.33-.15-.48c-.05-.15-.08-.28-.11-.38h.24c-.04.13-.08.27-.12.42s-.09.3-.14.45c-.05.15-.1.3-.15.45s-.11.29-.15.42l-1.27,3.37h-1.33ZM231.64,183.87l.44-1.09h2.89l.45,1.09h-3.78Z"/>
      <path class="cls-2" d="M240.21,185.28c-.49,0-.93-.08-1.34-.25-.4-.16-.75-.39-1.05-.69-.29-.29-.52-.64-.68-1.03s-.24-.83-.24-1.29.08-.89.25-1.28c.17-.39.4-.73.7-1.03s.66-.52,1.07-.68c.41-.16.86-.24,1.34-.24.34,0,.66.04.96.13.31.09.58.21.84.37.25.16.46.34.63.54l-.84.88c-.16-.15-.32-.28-.49-.38s-.35-.19-.54-.24c-.19-.06-.38-.09-.58-.09-.28,0-.54.05-.78.15s-.45.24-.63.42c-.18.18-.32.39-.42.64-.1.25-.15.51-.15.8s.05.55.16.8c.1.25.25.47.43.65.18.18.4.33.64.43s.51.16.79.16c.2,0,.39-.03.57-.09.18-.06.34-.15.47-.26s.24-.24.31-.39.11-.31.11-.48v-.22l.18.25h-1.8v-1.12h2.92c0,.07.01.15.02.24,0,.1.01.19.02.28,0,.09,0,.17,0,.22,0,.41-.07.78-.22,1.12-.15.34-.35.64-.61.88-.26.25-.57.44-.92.57-.35.13-.74.2-1.15.2Z"/>
      <path class="cls-2" d="M244.31,185.19v-6.3h4.26v1.19h-2.94v3.92h3.01v1.19h-4.32ZM244.94,182.55v-1.15h3.19v1.15h-3.19Z"/>
      <path class="cls-2" d="M254.58,185.19l-2.51-6.3h1.43l1.31,3.41c.07.19.13.35.18.49s.1.27.13.4.08.24.11.36c.04.12.07.24.11.38h-.26c.05-.18.1-.35.14-.51.05-.16.1-.33.16-.5.06-.17.14-.38.23-.62l1.24-3.41h1.42l-2.53,6.3h-1.18Z"/>
      <path class="cls-2" d="M259.04,185.19v-1.16h1.05v-3.98h-1.05v-1.16h3.46v1.16h-1.05v3.98h1.05v1.16h-3.46Z"/>
      <path class="cls-2" d="M263.97,185.19v-6.3h4.26v1.19h-2.94v3.92h3.01v1.19h-4.32ZM264.6,182.55v-1.15h3.19v1.15h-3.19Z"/>
      <path class="cls-2" d="M270.88,185.19l-1.92-6.3h1.39l1.03,3.52c.04.13.08.26.11.41.03.15.06.29.08.42.02.14.04.26.05.38.01.12.03.21.04.29h-.22c.05-.26.1-.47.13-.64s.07-.32.1-.46c.03-.14.07-.27.12-.41l.99-2.6h1.12l.97,2.6c.07.18.13.35.17.52s.08.32.11.48c.03.15.06.31.09.46l-.2.04c.02-.13.03-.24.04-.33,0-.09.02-.18.03-.26s.02-.16.03-.24.03-.18.05-.29c.02-.11.06-.24.11-.39l1.02-3.5h1.37l-1.93,6.3h-1l-1.56-3.73.14.02-1.45,3.71h-1.04Z"/>
      <path class="cls-2" d="M280.59,185.28c-.39,0-.75-.05-1.07-.14-.32-.1-.61-.24-.86-.42s-.47-.41-.67-.67l.85-.96c.29.41.59.69.88.83.29.15.61.22.95.22.19,0,.35-.03.5-.08.15-.05.26-.12.35-.22.08-.1.13-.21.13-.34,0-.1-.02-.18-.06-.27-.04-.08-.1-.15-.18-.22s-.17-.12-.28-.17c-.11-.05-.23-.1-.36-.13s-.28-.07-.43-.09c-.34-.08-.63-.17-.88-.28-.25-.11-.46-.25-.63-.41s-.29-.35-.37-.56-.12-.45-.12-.71.06-.52.18-.75c.12-.23.29-.43.5-.6s.46-.3.74-.39c.28-.09.57-.13.89-.13.38,0,.72.04,1.01.13s.54.21.75.37.39.36.54.59l-.86.83c-.13-.17-.26-.31-.41-.42-.15-.11-.31-.2-.48-.26-.17-.06-.35-.09-.53-.09-.2,0-.37.03-.51.08-.14.05-.26.12-.34.22-.08.1-.12.21-.12.35,0,.11.03.2.08.29s.13.16.23.22c.1.06.23.12.37.17.14.05.3.09.48.13.33.07.63.15.89.26.26.11.49.24.68.39.19.15.33.33.44.54.1.21.15.44.15.7,0,.43-.1.79-.31,1.09s-.49.53-.85.69c-.36.16-.78.24-1.26.24Z"/>
    </g>
    <g>
      <path class="cls-2" d="M301.24,12.92v-5.6h2.48c.35,0,.66.08.94.24.28.16.5.37.67.64.16.27.24.57.24.91s-.08.64-.24.92c-.16.27-.39.49-.67.65-.28.16-.6.24-.94.24h-1.32v2.01h-1.16ZM302.4,9.93h1.26c.14,0,.27-.03.38-.1.11-.07.19-.16.25-.28.06-.12.09-.25.09-.4,0-.16-.04-.3-.1-.42-.07-.12-.17-.21-.3-.28-.13-.07-.29-.1-.46-.1h-1.11v1.58ZM304.42,12.92l-1.42-2.53,1.23-.2,1.58,2.74h-1.39Z"/>
      <path class="cls-2" d="M306.84,12.92v-5.6h3.78v1.06h-2.62v3.49h2.67v1.06h-3.84ZM307.4,10.57v-1.02h2.84v1.02h-2.84Z"/>
      <path class="cls-2" d="M311.92,12.92v-5.6h2.3c.41,0,.78.07,1.12.2.33.14.62.33.86.58.24.25.43.54.56.88.13.34.19.72.19,1.14s-.06.79-.19,1.13c-.13.34-.31.64-.55.89-.24.25-.53.44-.86.58-.34.14-.71.2-1.12.2h-2.3ZM313.12,12.04l-.13-.21h1.18c.24,0,.46-.04.65-.12.19-.08.36-.2.49-.34.14-.15.24-.33.31-.54s.1-.45.1-.71-.04-.5-.1-.71c-.07-.21-.17-.39-.31-.54s-.3-.27-.49-.35c-.19-.08-.41-.12-.65-.12h-1.21l.15-.19v3.84Z"/>
      <path class="cls-2" d="M318.03,12.92v-5.6h3.78v1.06h-2.62v3.49h2.67v1.06h-3.84ZM318.59,10.57v-1.02h2.84v1.02h-2.84Z"/>
      <path class="cls-2" d="M324.93,13c-.35,0-.66-.04-.95-.13-.29-.09-.54-.21-.76-.38-.22-.17-.42-.37-.6-.6l.75-.86c.26.36.52.61.78.74.26.13.54.2.84.2.17,0,.31-.02.44-.07.13-.04.23-.11.31-.2.07-.09.11-.19.11-.3,0-.08-.02-.16-.06-.24-.04-.07-.09-.14-.16-.19s-.15-.11-.25-.15c-.1-.05-.2-.09-.32-.12s-.25-.06-.38-.08c-.3-.07-.56-.15-.78-.25-.22-.1-.41-.22-.56-.37-.15-.15-.26-.31-.33-.5-.07-.19-.11-.4-.11-.63s.05-.46.16-.67c.11-.21.25-.38.44-.53s.41-.26.66-.34c.25-.08.51-.12.79-.12.34,0,.64.04.9.12.26.08.48.19.67.33s.35.32.48.53l-.76.74c-.11-.15-.23-.27-.36-.38-.13-.1-.27-.18-.42-.23-.15-.05-.31-.08-.47-.08-.18,0-.33.02-.46.07-.13.05-.23.11-.3.2-.07.09-.11.19-.11.31,0,.1.02.18.07.26.05.07.12.14.21.2.09.06.2.11.33.15s.27.08.42.11c.29.06.56.14.79.23.24.1.44.21.6.35s.3.3.39.48.14.39.14.62c0,.38-.09.7-.27.97-.18.27-.43.47-.75.61-.32.14-.69.21-1.12.21Z"/>
      <path class="cls-2" d="M328.02,12.92v-1.03h.94v-3.54h-.94v-1.03h3.07v1.03h-.94v3.54h.94v1.03h-3.07Z"/>
      <path class="cls-2" d="M334.85,13c-.43,0-.83-.07-1.19-.22-.36-.15-.67-.35-.93-.61-.26-.26-.46-.57-.6-.92-.14-.35-.21-.73-.21-1.14s.07-.79.22-1.14c.15-.35.35-.65.62-.91.27-.26.58-.46.95-.6.36-.14.76-.22,1.19-.22.3,0,.58.04.86.12.27.08.52.19.74.33.22.14.41.3.56.48l-.74.78c-.14-.13-.28-.25-.44-.34-.15-.09-.31-.17-.48-.22-.17-.05-.34-.08-.51-.08-.25,0-.48.05-.69.14-.21.09-.4.22-.56.38-.16.16-.28.35-.37.57s-.13.46-.13.71.05.49.14.71c.09.22.22.41.38.58.16.16.35.29.57.38s.45.14.7.14c.18,0,.34-.03.5-.08s.3-.13.42-.23c.12-.1.21-.21.28-.35s.1-.27.1-.42v-.19l.16.22h-1.6v-1h2.59c0,.06.01.13.02.22,0,.09.01.17.02.25s0,.15,0,.2c0,.36-.07.7-.2,1-.13.3-.31.57-.54.78-.23.22-.5.39-.82.51-.32.12-.66.18-1.02.18Z"/>
      <path class="cls-2" d="M338.49,12.92v-5.6h1.07l3.1,4.18h-.22c-.02-.17-.04-.33-.06-.48-.02-.16-.03-.32-.04-.48-.01-.16-.02-.33-.03-.5s-.01-.36-.02-.55c0-.19,0-.41,0-.64v-1.53h1.18v5.6h-1.09l-3.16-4.22h.3c.03.29.05.52.07.72.02.19.03.36.04.51,0,.14.02.27.03.38,0,.11.01.21.02.3,0,.1,0,.2,0,.3v2.02h-1.18Z"/>
      <path class="cls-2" d="M344.91,12.92v-5.6h3.78v1.06h-2.62v3.49h2.67v1.06h-3.84ZM345.47,10.57v-1.02h2.84v1.02h-2.84Z"/>
      <path class="cls-2" d="M349.99,12.92v-5.6h2.3c.41,0,.78.07,1.12.2.33.14.62.33.86.58.24.25.43.54.56.88.13.34.19.72.19,1.14s-.06.79-.19,1.13c-.13.34-.31.64-.55.89-.24.25-.53.44-.86.58-.34.14-.71.2-1.12.2h-2.3ZM351.19,12.04l-.13-.21h1.18c.24,0,.46-.04.65-.12.19-.08.36-.2.49-.34.14-.15.24-.33.31-.54s.1-.45.1-.71-.04-.5-.1-.71c-.07-.21-.17-.39-.31-.54s-.3-.27-.49-.35c-.19-.08-.41-.12-.65-.12h-1.21l.15-.19v3.84Z"/>
      <path class="cls-2" d="M302.31,22.52l-1.7-5.6h1.23l.91,3.13c.04.11.07.23.1.36s.05.26.07.38c.02.12.03.23.05.34.01.1.03.19.04.26h-.19c.05-.23.09-.42.12-.57s.06-.29.09-.41c.03-.12.07-.24.11-.36l.88-2.31h.99l.86,2.31c.06.16.12.31.16.46.04.15.07.29.1.42.03.14.05.27.08.41l-.18.03c.02-.11.03-.21.04-.29,0-.08.02-.16.02-.23s.02-.14.03-.21c.01-.07.03-.16.05-.26.02-.1.05-.21.1-.35l.9-3.11h1.22l-1.72,5.6h-.89l-1.38-3.31.13.02-1.29,3.3h-.92Z"/>
      <path class="cls-2" d="M309.19,22.52v-5.6h3.78v1.06h-2.62v3.49h2.67v1.06h-3.84ZM309.75,20.17v-1.02h2.84v1.02h-2.84Z"/>
      <path class="cls-2" d="M314.27,22.52v-5.6h2.43c.37,0,.69.05.95.16.26.11.45.27.59.48.13.21.2.46.2.74,0,.32-.08.59-.24.8s-.39.36-.69.44v-.16c.24.06.45.15.64.29.19.13.33.3.43.5s.15.42.15.67c0,.28-.05.52-.14.73-.09.21-.22.39-.4.52s-.38.24-.62.32c-.24.07-.5.11-.8.11h-2.51ZM315.43,19.19h1.14c.14,0,.27-.03.38-.08.11-.05.19-.12.24-.22.06-.09.08-.2.08-.32,0-.2-.06-.35-.19-.46-.13-.11-.32-.16-.58-.16h-1.07v1.23ZM315.43,21.48h1.31c.17,0,.32-.03.44-.08.12-.05.21-.13.28-.24.06-.11.1-.23.1-.38s-.04-.26-.1-.35c-.07-.1-.17-.17-.29-.22-.12-.05-.28-.08-.45-.08h-1.27v1.34Z"/>
      <path class="cls-2" d="M322.28,22.52v-5.6h2.38c.33,0,.63.08.9.24.27.16.48.37.64.64s.24.58.24.92-.08.66-.24.94-.37.5-.64.66c-.27.16-.57.24-.9.24h-1.18v1.96h-1.2ZM323.47,19.48h1.06c.13,0,.24-.03.34-.1.1-.07.18-.16.24-.27.06-.11.09-.24.09-.38s-.03-.27-.09-.38-.14-.19-.24-.26c-.1-.06-.22-.09-.34-.09h-1.06v1.48Z"/>
      <path class="cls-2" d="M326.32,22.52l2.19-5.6h1.07l2.18,5.6h-1.23l-1.13-3.02c-.03-.08-.07-.19-.12-.33-.05-.13-.09-.27-.14-.42-.05-.15-.09-.29-.14-.43-.04-.14-.07-.25-.1-.34h.22c-.03.11-.07.24-.11.37-.04.13-.08.26-.12.4-.04.14-.09.27-.14.4s-.09.25-.14.38l-1.13,2.99h-1.18ZM327.34,21.34l.39-.97h2.57l.4.97h-3.36Z"/>
      <path class="cls-2" d="M334.96,22.6c-.43,0-.83-.07-1.19-.22-.36-.15-.67-.35-.93-.61-.26-.26-.46-.57-.6-.92-.14-.35-.21-.73-.21-1.14s.07-.79.22-1.14c.15-.35.35-.65.62-.91.27-.26.58-.46.95-.6.36-.14.76-.22,1.19-.22.3,0,.58.04.86.12.27.08.52.19.74.33.22.14.41.3.56.48l-.74.78c-.14-.13-.28-.25-.44-.34-.15-.09-.31-.17-.48-.22-.17-.05-.34-.08-.51-.08-.25,0-.48.05-.69.14-.21.09-.4.22-.56.38-.16.16-.28.35-.37.57s-.13.46-.13.71.05.49.14.71c.09.22.22.41.38.58.16.16.35.29.57.38s.45.14.7.14c.18,0,.34-.03.5-.08s.3-.13.42-.23c.12-.1.21-.21.28-.35s.1-.27.1-.42v-.19l.16.22h-1.6v-1h2.59c0,.06.01.13.02.22,0,.09.01.17.02.25s0,.15,0,.2c0,.36-.07.7-.2,1-.13.3-.31.57-.54.78-.23.22-.5.39-.82.51-.32.12-.66.18-1.02.18Z"/>
      <path class="cls-2" d="M338.6,22.52v-5.6h3.78v1.06h-2.62v3.49h2.67v1.06h-3.84ZM339.16,20.17v-1.02h2.84v1.02h-2.84Z"/>
    </g>
    <circle class="cls-1" cx="288.92" cy="14.6" r="5.63"/>
    <g>
      <path class="cls-2" d="M303.72,48.35c-.41,0-.79-.07-1.14-.22-.35-.14-.65-.35-.91-.6-.26-.26-.46-.56-.6-.92-.14-.35-.21-.74-.21-1.16s.07-.81.21-1.16c.14-.35.34-.65.6-.92.26-.26.56-.46.91-.61s.72-.22,1.14-.22.8.07,1.14.22c.34.14.65.35.9.61.26.26.46.57.6.92.14.35.21.74.21,1.15s-.07.8-.21,1.15-.34.66-.6.92c-.26.26-.56.46-.9.61-.34.14-.72.22-1.14.22ZM303.72,47.21c.23,0,.45-.04.65-.13.2-.08.37-.21.52-.37.14-.16.26-.35.34-.56s.12-.45.12-.7-.04-.49-.12-.7-.2-.4-.34-.56c-.14-.16-.32-.28-.52-.37-.2-.09-.42-.13-.65-.13s-.45.04-.65.13c-.2.09-.37.21-.52.37-.15.16-.26.34-.34.56s-.12.45-.12.7.04.49.12.7.19.4.34.56c.15.16.32.28.52.37.2.09.41.13.65.13Z"/>
      <path class="cls-2" d="M307.66,48.27v-5.6h2.48c.35,0,.66.08.94.24.28.16.5.37.67.64.16.27.24.57.24.91s-.08.64-.24.92c-.16.27-.39.49-.67.65-.28.16-.6.24-.94.24h-1.32v2.01h-1.16ZM308.82,45.28h1.26c.14,0,.27-.03.38-.1.11-.07.19-.16.25-.28.06-.12.09-.25.09-.4,0-.16-.04-.3-.1-.42-.07-.12-.17-.21-.3-.28-.13-.07-.29-.1-.46-.1h-1.11v1.58ZM310.83,48.27l-1.42-2.53,1.23-.2,1.58,2.74h-1.39Z"/>
      <path class="cls-2" d="M313.11,48.27v-1.03h.94v-3.54h-.94v-1.03h3.07v1.03h-.94v3.54h.94v1.03h-3.07Z"/>
      <path class="cls-2" d="M319.95,48.35c-.43,0-.83-.07-1.19-.22-.36-.15-.67-.35-.93-.61-.26-.26-.46-.57-.6-.92-.14-.35-.21-.73-.21-1.14s.07-.79.22-1.14c.15-.35.35-.65.62-.91.27-.26.58-.46.95-.6.36-.14.76-.22,1.19-.22.3,0,.58.04.86.12.27.08.52.19.74.33.22.14.41.3.56.48l-.74.78c-.14-.13-.28-.25-.44-.34-.15-.09-.31-.17-.48-.22-.17-.05-.34-.08-.51-.08-.25,0-.48.05-.69.14-.21.09-.4.22-.56.38-.16.16-.28.35-.37.57s-.13.46-.13.71.05.49.14.71c.09.22.22.41.38.58.16.16.35.29.57.38s.45.14.7.14c.18,0,.34-.03.5-.08s.3-.13.42-.23c.12-.1.21-.21.28-.35s.1-.27.1-.42v-.19l.16.22h-1.6v-1h2.59c0,.06.01.13.02.22,0,.09.01.17.02.25s0,.15,0,.2c0,.36-.07.7-.2,1-.13.3-.31.57-.54.78-.23.22-.5.39-.82.51-.32.12-.66.18-1.02.18Z"/>
      <path class="cls-2" d="M323.36,48.27v-1.03h.94v-3.54h-.94v-1.03h3.07v1.03h-.94v3.54h.94v1.03h-3.07Z"/>
      <path class="cls-2" d="M327.75,48.27v-5.6h1.07l3.1,4.18h-.22c-.02-.17-.04-.33-.06-.48-.02-.16-.03-.32-.04-.48-.01-.16-.02-.33-.03-.5s-.01-.36-.02-.55c0-.19,0-.41,0-.64v-1.53h1.18v5.6h-1.09l-3.16-4.22h.3c.03.29.05.52.07.72.02.19.03.36.04.51,0,.14.02.27.03.38,0,.11.01.21.02.3,0,.1,0,.2,0,.3v2.02h-1.18Z"/>
      <path class="cls-2" d="M333.5,48.27l2.19-5.6h1.07l2.18,5.6h-1.23l-1.13-3.02c-.03-.08-.07-.19-.12-.33-.05-.13-.09-.27-.14-.42-.05-.15-.09-.29-.14-.43-.04-.14-.07-.25-.1-.34h.22c-.03.11-.07.24-.11.37-.04.13-.08.26-.12.4-.04.14-.09.27-.14.4s-.09.25-.14.38l-1.13,2.99h-1.18ZM334.51,47.09l.39-.97h2.57l.4.97h-3.36Z"/>
      <path class="cls-2" d="M339.73,48.27v-5.6h1.2v4.52h2.54v1.08h-3.74Z"/>
      <path class="cls-2" d="M302.31,57.87l-1.7-5.6h1.23l.91,3.13c.04.11.07.23.1.36s.05.26.07.38c.02.12.03.23.05.34.01.1.03.19.04.26h-.19c.05-.23.09-.42.12-.57s.06-.29.09-.41c.03-.12.07-.24.11-.36l.88-2.31h.99l.86,2.31c.06.16.12.31.16.46.04.15.07.29.1.42.03.14.05.27.08.41l-.18.03c.02-.11.03-.21.04-.29,0-.08.02-.16.02-.23s.02-.14.03-.21c.01-.07.03-.16.05-.26.02-.1.05-.21.1-.35l.9-3.11h1.22l-1.72,5.6h-.89l-1.38-3.31.13.02-1.29,3.3h-.92Z"/>
      <path class="cls-2" d="M309.19,57.87v-5.6h3.78v1.06h-2.62v3.49h2.67v1.06h-3.84ZM309.75,55.52v-1.02h2.84v1.02h-2.84Z"/>
      <path class="cls-2" d="M314.27,57.87v-5.6h2.43c.37,0,.69.05.95.16.26.11.45.27.59.48.13.21.2.46.2.74,0,.32-.08.59-.24.8s-.39.36-.69.44v-.16c.24.06.45.15.64.29.19.13.33.3.43.5s.15.42.15.67c0,.28-.05.52-.14.73-.09.21-.22.39-.4.52s-.38.24-.62.32c-.24.07-.5.11-.8.11h-2.51ZM315.43,54.54h1.14c.14,0,.27-.03.38-.08.11-.05.19-.12.24-.22.06-.09.08-.2.08-.32,0-.2-.06-.35-.19-.46-.13-.11-.32-.16-.58-.16h-1.07v1.23ZM315.43,56.83h1.31c.17,0,.32-.03.44-.08.12-.05.21-.13.28-.24.06-.11.1-.23.1-.38s-.04-.26-.1-.35c-.07-.1-.17-.17-.29-.22-.12-.05-.28-.08-.45-.08h-1.27v1.34Z"/>
      <path class="cls-2" d="M322.28,57.87v-5.6h2.38c.33,0,.63.08.9.24.27.16.48.37.64.64s.24.58.24.92-.08.66-.24.94-.37.5-.64.66c-.27.16-.57.24-.9.24h-1.18v1.96h-1.2ZM323.47,54.83h1.06c.13,0,.24-.03.34-.1.1-.07.18-.16.24-.27.06-.11.09-.24.09-.38s-.03-.27-.09-.38-.14-.19-.24-.26c-.1-.06-.22-.09-.34-.09h-1.06v1.48Z"/>
      <path class="cls-2" d="M326.32,57.87l2.19-5.6h1.07l2.18,5.6h-1.23l-1.13-3.02c-.03-.08-.07-.19-.12-.33-.05-.13-.09-.27-.14-.42-.05-.15-.09-.29-.14-.43-.04-.14-.07-.25-.1-.34h.22c-.03.11-.07.24-.11.37-.04.13-.08.26-.12.4-.04.14-.09.27-.14.4s-.09.25-.14.38l-1.13,2.99h-1.18ZM327.34,56.69l.39-.97h2.57l.4.97h-3.36Z"/>
      <path class="cls-2" d="M334.96,57.95c-.43,0-.83-.07-1.19-.22-.36-.15-.67-.35-.93-.61-.26-.26-.46-.57-.6-.92-.14-.35-.21-.73-.21-1.14s.07-.79.22-1.14c.15-.35.35-.65.62-.91.27-.26.58-.46.95-.6.36-.14.76-.22,1.19-.22.3,0,.58.04.86.12.27.08.52.19.74.33.22.14.41.3.56.48l-.74.78c-.14-.13-.28-.25-.44-.34-.15-.09-.31-.17-.48-.22-.17-.05-.34-.08-.51-.08-.25,0-.48.05-.69.14-.21.09-.4.22-.56.38-.16.16-.28.35-.37.57s-.13.46-.13.71.05.49.14.71c.09.22.22.41.38.58.16.16.35.29.57.38s.45.14.7.14c.18,0,.34-.03.5-.08s.3-.13.42-.23c.12-.1.21-.21.28-.35s.1-.27.1-.42v-.19l.16.22h-1.6v-1h2.59c0,.06.01.13.02.22,0,.09.01.17.02.25s0,.15,0,.2c0,.36-.07.7-.2,1-.13.3-.31.57-.54.78-.23.22-.5.39-.82.51-.32.12-.66.18-1.02.18Z"/>
      <path class="cls-2" d="M338.6,57.87v-5.6h3.78v1.06h-2.62v3.49h2.67v1.06h-3.84ZM339.16,55.52v-1.02h2.84v1.02h-2.84Z"/>
    </g>
    <circle class="cls-2" cx="288.92" cy="49.95" r="5.63"/>
    <circle class="cls-1" cx="57.06" cy="89.17" r="5.63"/>
    <circle class="cls-2" cx="57.06" cy="133.05" r="5.63"/>
    <circle class="cls-1" cx="108.18" cy="97.98" r="5.63"/>
    <circle class="cls-2" cx="108.18" cy="133.6" r="5.63"/>
    <circle class="cls-1" cx="150.82" cy="133.05" r="5.63"/>
    <circle class="cls-2" cx="150.82" cy="157.34" r="5.63"/>
    <circle class="cls-1" cx="196.8" cy="140.87" r="5.63"/>
    <circle class="cls-1" cx="252.78" cy="31.09" r="5.63"/>
    <circle class="cls-2" cx="252.78" cy="108.76" r="5.63"/>
    <circle class="cls-2" cx="196.8" cy="151.85" r="5.63"/>
  </g>
  <g id="Capa_3" data-name="Capa 3">
    <polygon class="cls-2" points="153.86 158.37 153.58 158.23 107.93 134.6 57.06 134.6 57.06 132.6 108.42 132.6 108.64 132.71 154.23 156.31 196.4 151.28 252.17 107.97 253.39 109.55 197.19 153.2 153.86 158.37"/>
    <polygon class="cls-1" points="197.35 141.98 149.61 133.99 109 99.57 56.88 90.15 57.24 88.18 109.88 97.69 150.48 132.11 196.24 139.77 251.89 30.63 253.67 31.54 197.35 141.98"/>
  </g>
</svg>