<?xml version="1.0" encoding="UTF-8"?>
<svg id="Capa_2" data-name="Capa 2" xmlns="http://www.w3.org/2000/svg" viewBox="0 0 212.28 102.47">
  <defs>
    <style>
      .cls-1 {
        fill: #ff8232;
      }
    </style>
  </defs>
  <g id="Capa_1-2" data-name="Capa 1">
    <g>
      <path class="cls-1" d="M73.38,7.92c-2.46,0-1.8-3-5.34-3-1.68,0-3.54.78-4.74,1.98-6.54,6.3-13.8,26.82-16.86,35.82l-1.8,5.52c-.3,1.02-.6,2.28-1.02,3.24-.48,1.02-1.02,1.68-2.22,1.68-1.32,0-2.58-.96-2.64-2.34,0-1.2,4.14-12.9,4.74-14.7-6.12-1.08-12.24-2.34-18.48-2.46-1.8,4.56-7.44,17.16-12,19.32-1.8.84-3.78,1.5-5.82,1.5C2.64,54.48.06,51,0,46.62c-.06-2.28.66-4.62,1.68-6.66,3.78-7.38,11.88-10.62,19.86-11.04l.06-.18c2.04-6.12,4.62-11.94,7.2-17.88l1.8-4.14c.3-.66.6-1.44.96-2.1.48-.9,1.02-1.44,2.16-1.44,1.26,0,2.58,1.02,2.58,2.4,0,.36-.06.72-.24,1.08-.96,2.4-2.1,4.8-3.12,7.14-2.16,5.04-4.32,10.08-6.18,15.18,6.18.48,12.3,1.5,18.42,2.52,2.88-7.74,8.82-22.56,14.7-28.2,2.1-2.04,5.04-3.3,8.04-3.3,3.24,0,5.94,1.44,7.62,4.26.24.36.36.84.36,1.26.06,1.38-1.2,2.4-2.52,2.4ZM6.78,40.8c-1.02,1.44-1.86,4.38-1.86,6.12.06,1.56.66,2.64,2.28,2.64,1.26,0,2.58-.54,3.66-1.02,2.7-1.32,7.38-11.7,8.64-14.58-5.04.66-9.72,2.64-12.72,6.84Z"/>
      <path class="cls-1" d="M56.22,50.34l.12-.54,5.46-25.14c.3-1.2,1.26-1.98,2.46-1.98,1.32,0,2.46.96,2.4,2.34l-.06.48-5.52,25.14c-.24,1.2-1.2,2.04-2.4,2.04-1.32,0-2.46-1.02-2.46-2.34Z"/>
      <path class="cls-1" d="M88.98,49.8c.18-4.2,1.14-8.82,1.62-13.08l-7.26,13.2c-.54.9-1.38,1.62-2.4,1.62-1.38,0-2.1-1.2-2.16-2.4l-1.14-12.84-4.8,14.04c-.36,1.08-1.26,1.74-2.34,1.74-1.26,0-2.46-.96-2.46-2.28.06-1.14,7.56-22.5,8.4-25.08.36-1.08,1.68-1.74,2.7-1.74,1.8,0,2.64,1.68,2.82,3.24.48,4.74.6,9.66.96,14.52l9.12-16.44c.48-.78,1.74-1.32,2.58-1.32,1.26,0,2.46,1.08,2.34,2.34v.3l-3.06,24.3c-.18,1.32-1.2,2.16-2.52,2.16s-2.4-.9-2.4-2.28Z"/>
      <path class="cls-1" d="M105.84,47.52c-.42.9-1.74,2.82-2.4,4.56-.54,1.62-1.62,2.04-2.52,2.04-1.32,0-2.52-1.08-2.46-2.34.06-1.56,13.14-24.84,14.7-27.72.48-.9,1.38-1.68,2.4-1.68,1.32,0,2.04,1.2,2.16,2.46l2.64,24.78v.42c.06,1.44-1.26,2.34-2.58,2.34-2.7,0-2.4-2.94-2.58-4.86h-9.36ZM108.48,42.72h6.24l-1.08-9.54-5.16,9.54Z"/>
      <path class="cls-1" d="M138.78,50.16l-.48-13.98-7.02,14.76c-.48.96-1.32,1.74-2.46,1.74-1.44,0-2.16-1.26-2.16-2.52l-.78-25.92v-.24c0-1.38,1.26-2.28,2.58-2.28s2.28.9,2.34,2.22l.42,15.96,6.9-14.64c.42-.96,1.38-1.8,2.46-1.8,1.38,0,2.16,1.32,2.22,2.64l.48,13.8,7.2-15.48c.42-.84,1.26-1.44,2.22-1.44,1.26,0,2.52,1.02,2.46,2.28-.06,1.38-10.44,22.86-11.7,25.62-.48.96-1.38,1.8-2.46,1.8-1.44,0-2.16-1.2-2.22-2.52Z"/>
      <path class="cls-1" d="M158.94,47.52c-.42.9-1.74,2.82-2.4,4.56-.54,1.62-1.62,2.04-2.52,2.04-1.32,0-2.52-1.08-2.46-2.34.06-1.56,13.14-24.84,14.7-27.72.48-.9,1.38-1.68,2.4-1.68,1.32,0,2.04,1.2,2.16,2.46l2.64,24.78v.42c.06,1.44-1.26,2.34-2.58,2.34-2.7,0-2.4-2.94-2.58-4.86h-9.36ZM161.58,42.72h6.24l-1.08-9.54-5.16,9.54Z"/>
      <path class="cls-1" d="M195.48,50.22c-.06,1.32-1.38,2.28-2.64,2.28-1.02,0-1.8-.6-2.16-1.5l-3.9-9.42h-2.82l-2.04,8.94c-.24,1.2-1.14,1.98-2.4,1.98s-2.46-.96-2.4-2.28l.06-.54,5.64-25.56c.3-1.44,1.32-1.14,2.52-1.14h7.56c4.2,0,6.66,3.96,6.54,7.92-.18,4.2-3.36,9-7.5,10.32.6,1.44,3.54,7.86,3.54,9ZM186.96,27.78l-1.92,9h5.16c2.16,0,4.32-4.14,4.38-5.94,0-1.08-.54-3.06-1.86-3.06h-5.76Z"/>
      <path class="cls-1" d="M201.84,50.34l.12-.54,5.46-25.14c.3-1.2,1.26-1.98,2.46-1.98,1.32,0,2.46.96,2.4,2.34l-.06.48-5.52,25.14c-.24,1.2-1.2,2.04-2.4,2.04-1.32,0-2.46-1.02-2.46-2.34Z"/>
    </g>
    <g>
      <path class="cls-1" d="M7.79,99.69c-.18.9-.9,1.53-1.8,1.53-.99,0-1.84-.72-1.84-1.75l.09-.41,3.55-16.33H2.93c-.85,0-1.53-.67-1.48-1.58,0-1.12.81-2.02,1.94-2.02h13.63c.9,0,1.31.76,1.31,1.58,0,.99-.67,2.02-1.71,2.02h-5.13l-3.69,16.96Z"/>
      <path class="cls-1" d="M28.13,99.42c.09-1.89,1.12-5.35,1.53-7.33h-6.84l-1.62,7.56c-.14.9-.9,1.53-1.8,1.53-1.26,0-1.89-.9-1.75-2.16l4-18.36c.18-.9.9-1.53,1.8-1.53.99,0,1.89.72,1.84,1.75-.09,1.89-1.21,5.62-1.67,7.65h6.84l1.71-7.87c.18-.9.9-1.53,1.8-1.53.99,0,1.85.72,1.85,1.75-.09,1.84-1.62,7.51-2.07,9.63l-1.98,9.13c-.23.9-.9,1.53-1.8,1.53-1.03,0-1.89-.67-1.84-1.75Z"/>
      <path class="cls-1" d="M43.29,88.71h6.34c1.08,0,1.85.72,1.8,1.8-.04,1.03-.85,1.8-1.93,1.8h-7.02l-1.08,5.04h7.87c1.04,0,1.75.72,1.75,1.8s-.85,1.8-1.89,1.8h-10.08c-.85,0-1.93-.36-1.89-1.31l.04-.31c.31-2.79,1.21-5.67,1.84-8.42.77-3.42,1.35-6.93,2.25-10.26.23-.77,1.08-1.53,1.89-1.53h9.94c1.04,0,1.8.76,1.75,1.8-.04,1.08-.81,1.8-1.89,1.8h-8.46l-1.26,5.98Z"/>
      <path class="cls-1" d="M83.57,82.5c-4.09,0-7.74,6.34-7.88,9.9-.09,2.38,1.4,5.26,4.05,5.26.63,0,1.26-.09,1.8-.36l1.75-8.23c.27-1.04,1.03-1.89,2.16-1.89,1.04,0,1.67.81,1.62,1.84-.09,2.25-1.31,7.2-1.75,9.63-.31,1.75-4.23,2.61-5.67,2.61-4.86,0-7.74-4.5-7.6-9,.23-5.58,5.53-13.37,11.65-13.37,1.48,0,4.95.68,4.86,2.66-.04.99-.9,1.84-1.89,1.84s-1.22-.9-3.1-.9Z"/>
      <path class="cls-1" d="M94.37,97.53c-.31.67-1.31,2.11-1.8,3.42-.41,1.21-1.21,1.53-1.89,1.53-.99,0-1.89-.81-1.84-1.75.04-1.17,9.85-18.63,11.02-20.79.36-.67,1.04-1.26,1.8-1.26.99,0,1.53.9,1.62,1.84l1.98,18.58v.31c.04,1.08-.94,1.75-1.94,1.75-2.02,0-1.8-2.21-1.94-3.64h-7.02ZM96.35,93.93h4.68l-.81-7.16-3.87,7.16Z"/>
      <path class="cls-1" d="M124.16,99.24c.13-3.15.85-6.62,1.21-9.81l-5.44,9.9c-.4.67-1.03,1.21-1.8,1.21-1.04,0-1.57-.9-1.62-1.8l-.85-9.63-3.6,10.53c-.27.81-.94,1.31-1.75,1.31-.94,0-1.85-.72-1.85-1.71.05-.86,5.67-16.88,6.3-18.81.27-.81,1.26-1.3,2.02-1.3,1.35,0,1.98,1.26,2.12,2.43.36,3.55.45,7.25.72,10.89l6.84-12.33c.36-.58,1.31-.99,1.94-.99.94,0,1.84.81,1.75,1.75v.22l-2.29,18.22c-.14.99-.9,1.62-1.89,1.62s-1.8-.67-1.8-1.71Z"/>
      <path class="cls-1" d="M138.29,88.71h6.34c1.08,0,1.85.72,1.8,1.8-.04,1.03-.85,1.8-1.93,1.8h-7.02l-1.08,5.04h7.87c1.04,0,1.75.72,1.75,1.8s-.85,1.8-1.89,1.8h-10.08c-.85,0-1.93-.36-1.89-1.31l.04-.31c.31-2.79,1.21-5.67,1.84-8.42.77-3.42,1.35-6.93,2.25-10.26.23-.77,1.08-1.53,1.89-1.53h9.94c1.04,0,1.8.76,1.75,1.8-.04,1.08-.81,1.8-1.89,1.8h-8.46l-1.26,5.98Z"/>
    </g>
    <path class="cls-1" d="M207.37,66.54H2.48c-.55,0-1-.45-1-1s.45-1,1-1h204.89c.55,0,1,.45,1,1s-.45,1-1,1Z"/>
  </g>
</svg>