<?xml version="1.0" encoding="UTF-8"?>
<svg id="Capa_2" data-name="Capa 2" xmlns="http://www.w3.org/2000/svg" viewBox="0 0 403.53 305.53">
  <defs>
    <style>
      .cls-1 {
        fill: #34648a;
      }

      .cls-2 {
        fill: #96d2d9;
      }

      .cls-3 {
        fill: #ec641d;
      }

      .cls-4 {
        fill: #f69f14;
      }
    </style>
  </defs>
  <g id="Capa_1-2" data-name="Capa 1">
    <path class="cls-4" d="M78.62,123.07c-3.61,0-6.7-1.29-9.26-3.87-2.57-2.58-3.69-5.76-3.38-9.55-3.97.04-7.29-1.11-9.93-3.48-2.64-2.36-3.9-5.66-3.77-9.9-4.33.04-7.75-1.17-10.24-3.63-2.5-2.46-3.63-5.71-3.41-9.75-3.9.04-7.17-1.03-9.79-3.22-2.63-2.19-3.94-5.23-3.94-9.13,0-1.76.35-3.51,1.05-5.28.7-1.76,1.73-3.31,3.1-4.64l35.29-34.43,18.12,17.7c.6.61,1.33,1.1,2.2,1.5.87.39,1.86.59,2.95.59,1.5,0,2.83-.51,3.98-1.53,1.15-1.02,1.73-2.36,1.73-4,0-1.07-.2-2.03-.6-2.88-.4-.85-.91-1.57-1.53-2.15l-24.13-23.57c-1.73-1.72-3.54-2.98-5.42-3.79-1.88-.8-3.93-1.21-6.16-1.21s-4.21.4-6,1.21c-1.8.8-3.58,2.07-5.34,3.79l-21.35,20.9c-1.5,1.47-2.72,3.22-3.64,5.25-.93,2.03-1.42,4.12-1.47,6.29-.05,1.55.08,3.03.41,4.46.32,1.43.84,2.77,1.54,4.03l-5.32,5.19c-1.18-1.84-2.1-3.95-2.77-6.35-.66-2.39-.97-4.84-.92-7.33.05-3.11.69-6.09,1.92-8.94,1.22-2.85,2.97-5.39,5.25-7.61L38.99,7c2.45-2.36,5.03-4.12,7.76-5.27,2.73-1.15,5.68-1.73,8.86-1.73s6.1.57,8.79,1.73c2.69,1.15,5.24,2.91,7.66,5.27l6.11,5.97,6.11-5.97c2.45-2.36,5.01-4.12,7.7-5.27,2.69-1.15,5.61-1.73,8.79-1.73s6.13.57,8.86,1.73c2.73,1.15,5.3,2.91,7.72,5.27l26.13,25.52c2.42,2.36,4.28,5.02,5.6,7.96,1.31,2.94,1.97,5.96,1.97,9.07s-.66,5.96-1.97,8.59c-1.31,2.62-3.18,5.11-5.6,7.48l-54.69,53.38c-1.46,1.42-3.04,2.46-4.76,3.11-1.71.65-3.51.97-5.4.97M78.66,116.22c.92,0,1.86-.2,2.82-.61.96-.4,1.74-.89,2.33-1.47l54.69-53.42c1.76-1.72,3.12-3.48,4.08-5.28.96-1.8,1.44-3.78,1.44-5.93s-.48-4.29-1.44-6.34c-.96-2.05-2.32-3.93-4.08-5.62l-26.3-25.69c-1.74-1.72-3.52-2.98-5.35-3.79-1.83-.8-3.86-1.21-6.09-1.21s-4.25.4-6.14,1.21c-1.89.8-3.67,2.07-5.34,3.79l-6.11,5.97,12.98,12.72c1.39,1.33,2.43,2.85,3.12,4.56.68,1.7,1.03,3.43,1.03,5.19,0,3.57-1.19,6.52-3.58,8.85-2.39,2.33-5.41,3.5-9.06,3.5-1.8,0-3.56-.27-5.27-.8-1.71-.54-3.25-1.47-4.62-2.81l-13.42-13.07-30.29,29.58c-.71.69-1.24,1.48-1.6,2.37-.36.88-.53,1.77-.53,2.67,0,1.62.53,2.95,1.59,4,1.06,1.05,2.42,1.57,4.07,1.57.92,0,1.86-.2,2.82-.61.96-.4,1.74-.89,2.33-1.47l22.23-21.72,4.96,4.85-22.19,21.72c-.71.69-1.24,1.48-1.6,2.36-.35.88-.53,1.77-.53,2.67,0,1.53.55,2.84,1.66,3.91,1.11,1.08,2.44,1.62,4,1.62.92,0,1.86-.2,2.82-.61.96-.4,1.74-.9,2.33-1.48l23.85-23.26,4.96,4.85-23.81,23.3c-.62.58-1.13,1.34-1.53,2.28-.4.94-.6,1.86-.6,2.75,0,1.53.55,2.83,1.66,3.91,1.11,1.08,2.44,1.62,4.01,1.62.92,0,1.83-.17,2.73-.52.9-.35,1.71-.87,2.42-1.56l23.85-23.26,4.96,4.85-23.85,23.3c-.71.69-1.24,1.53-1.6,2.5-.36.97-.54,1.86-.54,2.67,0,1.62.58,2.92,1.75,3.91,1.16.99,2.49,1.49,3.96,1.49"/>
    <path class="cls-3" d="M251.31,109.9c-11.79,0-21.78-4.1-29.98-12.3-8.2-8.2-12.3-18.19-12.3-29.97s4.1-21.78,12.3-29.99c8.2-8.21,18.19-12.31,29.98-12.31,4.64,0,9.1.83,13.36,2.51,4.26,1.67,8.14,4.03,11.62,7.09l17.96,15.38-6.51,5.56-17.01-14.77c-2.69-2.28-5.71-4.07-9.08-5.37-3.36-1.3-6.81-1.95-10.35-1.95-9.34,0-17.31,3.3-23.91,9.91-6.6,6.61-9.9,14.59-9.9,23.94s3.3,17.32,9.9,23.91c6.6,6.59,14.57,9.89,23.91,9.89,3.54,0,7-.65,10.35-1.95,3.36-1.3,6.39-3.09,9.08-5.37l65.54-59.19c3.37-3.17,7.21-5.56,11.51-7.17,4.3-1.62,8.79-2.42,13.47-2.42,11.79,0,21.78,4.1,29.98,12.3,8.2,8.2,12.3,18.19,12.3,29.97s-4.1,21.78-12.3,29.99c-8.2,8.21-18.2,12.31-29.98,12.31-4.67,0-9.11-.86-13.3-2.59-4.2-1.72-8.09-4.06-11.68-7.01l-17.63-15.38,6.18-5.73,17.01,14.93c2.69,2.41,5.71,4.23,9.08,5.47,3.36,1.24,6.81,1.85,10.35,1.85,9.34,0,17.31-3.3,23.91-9.91,6.6-6.61,9.9-14.59,9.9-23.94s-3.3-17.32-9.9-23.91c-6.6-6.59-14.57-9.89-23.91-9.89-3.54,0-7,.65-10.35,1.95-3.36,1.3-6.39,3.09-9.08,5.37l-65.54,59.19c-3.37,3.17-7.21,5.56-11.51,7.17-4.3,1.62-8.79,2.42-13.47,2.42"/>
    <path class="cls-1" d="M289.27,264.85h11.87v-21.59l-14.08-14.41,4.24-4.33,12.83,13.14,12.83-13.14,4.24,4.33-14.08,14.41v21.59h11.87c6.08-3,11.03-7.4,14.86-13.22,3.83-5.82,5.74-12.36,5.74-19.62,0-10.14-3.43-18.72-10.3-25.75-6.87-7.03-15.25-10.54-25.16-10.54s-18.29,3.52-25.16,10.54c-6.87,7.03-10.3,15.61-10.3,25.75,0,7.26,1.91,13.8,5.74,19.62,3.83,5.82,8.78,10.23,14.86,13.22M290.62,278.6h27.02v-6.83h-27.02v6.83ZM290.62,290.67h27.02v-6.75h-27.02v6.75ZM304.13,305.53c-2.49,0-4.64-.74-6.44-2.23-1.8-1.48-2.86-3.39-3.17-5.72h-3.9c-1.81,0-3.39-.69-4.73-2.07-1.35-1.38-2.02-2.99-2.02-4.85v-20.82c-6.99-3.96-12.4-9.36-16.22-16.21-3.82-6.84-5.73-14.05-5.73-21.63,0-12.08,4.09-22.3,12.26-30.66,8.17-8.36,18.16-12.54,29.96-12.54s21.79,4.18,29.96,12.54c8.17,8.36,12.26,18.58,12.26,30.66,0,7.63-1.91,14.85-5.73,21.67-3.82,6.82-9.23,12.21-16.22,16.17v20.82c0,1.85-.67,3.47-2.02,4.85-1.35,1.38-2.93,2.07-4.73,2.07h-3.9c-.31,2.33-1.37,4.24-3.17,5.72-1.8,1.49-3.95,2.23-6.44,2.23"/>
    <path class="cls-2" d="M75.36,247.17c-2.2,0-4.12.78-5.74,2.35-1.62,1.56-2.43,3.51-2.43,5.82s.81,4.12,2.43,5.74c1.62,1.62,3.56,2.43,5.8,2.43s4.16-.81,5.74-2.43c1.58-1.62,2.37-3.56,2.37-5.81s-.78-4.16-2.35-5.74c-1.56-1.58-3.51-2.36-5.82-2.36M75.4,270.35c-4.16,0-7.71-1.46-10.65-4.38-2.94-2.92-4.41-6.47-4.41-10.64s1.46-7.82,4.38-10.7c2.92-2.88,6.47-4.32,10.64-4.32s7.82,1.44,10.7,4.3c2.88,2.87,4.32,6.43,4.32,10.67s-1.44,7.71-4.3,10.65c-2.87,2.94-6.43,4.41-10.67,4.41M126.74,274.7c-2.63,0-4.91-.96-6.84-2.87-1.94-1.91-2.9-4.21-2.9-6.88s.97-4.92,2.9-6.8c1.94-1.88,4.23-2.82,6.87-2.82s5.02.94,6.9,2.82c1.88,1.88,2.82,4.15,2.82,6.8s-.93,4.98-2.8,6.88c-1.87,1.91-4.18,2.87-6.95,2.87M24.11,274.7c-2.68,0-4.98-.96-6.88-2.87-1.91-1.91-2.86-4.21-2.86-6.88s.95-4.92,2.86-6.8c1.91-1.88,4.2-2.82,6.88-2.82s4.94.94,6.86,2.82c1.92,1.88,2.88,4.15,2.88,6.8s-.96,4.98-2.88,6.88c-1.92,1.91-4.21,2.87-6.86,2.87M75.34,282.34c-7.73,0-14.14,1.03-19.23,3.1-5.09,2.06-7.75,4.72-7.96,7.97v1.45h54.45v-1.45c-.24-3.25-2.87-5.91-7.91-7.97-5.04-2.06-11.49-3.1-19.35-3.1M122.52,301.71v-8.2c0-2.18-.24-4.24-.72-6.18-.48-1.93-1.2-3.78-2.15-5.53,1.08-.23,2.22-.39,3.42-.49,1.2-.1,2.42-.15,3.67-.15,7.19,0,12.99,1.38,17.39,4.14,4.4,2.76,6.59,6.26,6.59,10.49v5.92h-28.19ZM41.1,301.71v-7.71c0-5.66,3.17-10.17,9.5-13.5,6.33-3.34,14.6-5.01,24.79-5.01s18.56,1.67,24.82,5.01c6.26,3.34,9.39,7.84,9.39,13.5v7.71H41.1ZM0,301.71v-5.92c0-4.24,2.23-7.73,6.71-10.49,4.47-2.76,10.27-4.14,17.41-4.14,1.3,0,2.56.05,3.75.15s2.33.27,3.41.49c-.98,1.76-1.74,3.6-2.28,5.53-.54,1.93-.8,3.99-.8,6.18v8.2H0ZM7.82,249.62c-2.58-4.29-4.53-8.65-5.85-13.1-1.32-4.44-1.98-8.83-1.98-13.17,0-10.68,3.72-19.75,11.17-27.19,7.45-7.45,16.51-11.17,27.19-11.17,6.93,0,13.58,1.8,19.96,5.4,6.38,3.6,12.05,8.78,17.03,15.55,4.98-6.77,10.66-11.96,17.04-15.55,6.38-3.6,13.03-5.4,19.96-5.4,10.68,0,19.74,3.72,27.19,11.17,7.45,7.45,11.17,16.51,11.17,27.19,0,4.16-.66,8.42-1.98,12.78-1.32,4.35-3.27,8.81-5.85,13.36-.71-.94-1.56-1.79-2.53-2.53-.97-.74-1.99-1.37-3.04-1.87,2.17-3.86,3.8-7.59,4.9-11.2,1.1-3.61,1.65-7.12,1.65-10.54,0-8.82-3.05-16.28-9.14-22.37-6.1-6.1-13.55-9.14-22.37-9.14-7.05,0-13.46,2.12-19.22,6.37-5.76,4.25-11.69,10.34-17.78,18.29-6.1-7.98-12.02-14.08-17.78-18.31-5.76-4.23-12.16-6.35-19.22-6.35-8.82,0-16.28,3.05-22.37,9.14-6.1,6.1-9.14,13.55-9.14,22.37,0,3.59.55,7.21,1.65,10.87,1.1,3.65,2.69,7.32,4.77,11-1.06.59-2.04,1.24-2.97,1.94-.92.7-1.75,1.52-2.48,2.46"/>
  </g>
</svg>