<?xml version="1.0" encoding="UTF-8"?>
<svg id="Capa_2" data-name="Capa 2" xmlns="http://www.w3.org/2000/svg" viewBox="0 0 303.18 67.83">
  <defs>
    <style>
      .cls-1 {
        fill: #023927;
        stroke: #023927;
        stroke-linecap: round;
        stroke-linejoin: round;
      }
    </style>
  </defs>
  <g id="Capa_2-2" data-name="Capa 2">
    <g>
      <path class="cls-1" d="M10.51,36.86v-.79c3.38,0,3.1-6.05,3.1-6.05v-15.05c0-3.6,2.23-5.83,4.54-6.77-2.09.58-4.68-.79-6.48-1.8C3.88,1.87,1,7.84,1,7.84l-.5-.5C1.8,3.31,5.18,2.16,5.18,2.16c4.18-1.58,8.57,1.51,8.57,1.51,5.9,3.53,8.86.65,8.86.65v.79c-.43.65-1.3,1.44-1.94,1.94-3.31,2.38-3.53,6.77-3.53,7.92v15.55c0,7.34-6.62,6.34-6.62,6.34ZM38.3,47.38c-2.16,5.04-6.41,4.75-6.41,4.75-2.59,0-6.41-1.94-6.41-1.94-9-4.32-12.24,1.58-12.24,1.58l-.43-.5c1.44-4.03,4.82-5.26,4.82-5.26,4.32-1.73,10.37,1.37,10.37,1.37,7.7,3.6,9.65-.43,9.65-.43l.65.43Z"/>
      <path class="cls-1" d="M58.46,29.16v16.78l-5.98,6.19c-9,.22-11.52-4.68-11.81-12.96v-16.78l6.12-6.26c9.07-.07,11.81,4.61,11.66,13.03ZM49.39,17.13c-.22.14-5.11,5.54-5.11,5.54v14.04c0,5.11-.29,12.02,5.62,14.47,0-.14,4.97-5.54,4.97-5.54v-14.19c0-5.18.36-11.74-5.47-14.33Z"/>
      <path class="cls-1" d="M79.12,23.9h-3.46c0-5.11-3.1-6.62-3.1-6.62l-4.82,5.4v13.97c0,3.02-.36,14.76,4.54,14.69v.72c-8.06.65-7.99-6.62-8.14-12.96v-16.2l-3.6-5.47h2.81c2.16,2.88,2.45,3.38,2.45,3.67,0,0,.07-.65,4.32-4.9,5.04-.72,8.86,2.23,9,7.7Z"/>
      <path class="cls-1" d="M99.21,33.26v12.53l-6.12,6.26c-8.93.22-11.67-4.54-11.67-12.96v-16.71l5.98-6.26c2.38,0,6.98.07,8.35,2.66-.14-.5-.14-1.15-.14-2.02-.14-5.47-.65-6.62-.65-6.62-1.73-6.19-7.56-5.83-7.56-5.83v-.72c8.93-.22,11.81,4.68,11.81,13.03v16.63ZM94.96,22.53c-1.08-3.38-3.1-4.75-5.04-5.47l-4.9,5.62v14.04c0,4.97-.43,12.02,5.69,14.33l4.9-5.4v-14.26c0-7.27-.65-8.86-.65-8.86Z"/>
      <path class="cls-1" d="M142.99,46.87l.72.43c-2.16,5.26-6.48,4.75-6.48,4.75-2.52,0-6.48-1.73-6.48-1.73-9.07-4.39-12.1,1.58-12.1,1.58l-.5-.65c1.3-3.96,4.9-5.18,4.9-5.18,4.25-1.8,10.15,1.44,10.15,1.44,7.7,3.46,9.79-.65,9.79-.65ZM177.62,51.26v.79s-8.21,1.37-8.21-7.13V11.88c0-10.58-10.51-9.15-10.51-9.36,0,0-5.47,5.4-5.76,5.54.65,1.94.65,3.17.65,14.11h6.55l-1.8,3.31h-4.75v18s-.36,7.78,4.46,7.78v.79s-8.06,1.37-8.06-7.13v-19.44h-6.48l1.73-3.31h4.75v-10.3c0-1.44-.29-2.66-.65-3.82-2.16-6.48-9.94-5.33-9.94-5.54-.14,0-5.76,5.54-5.76,5.54v22.61c0,7.2-6.7,6.19-6.7,6.19v-.58c3.24,0,2.95-6.12,2.95-6.12V8.06l6.34-6.34h5.47c5.47,0,8.42,2.02,9.86,3.89l3.96-3.89h5.54c3.89.07,7.7,1.01,10.37,4.39.65-1.44,2.95-3.1,3.1-3.24-1.08,1.3-1.66,3.17-1.66,5.47v35.14s-.22,7.78,4.54,7.78Z"/>
      <path class="cls-1" d="M197.2,29.16v16.78l-5.98,6.19c-9,.22-11.52-4.68-11.81-12.96v-16.78l6.12-6.26c9.07-.07,11.81,4.61,11.67,13.03ZM188.13,17.13c-.22.14-5.11,5.54-5.11,5.54v14.04c0,5.11-.29,12.02,5.62,14.47,0-.14,4.97-5.54,4.97-5.54v-14.19c0-5.18.36-11.74-5.47-14.33Z"/>
      <path class="cls-1" d="M223.7,51.34v.72c-7.49.86-7.99-6.77-7.99-12.96v-15.19c0-5.62-4.32-6.77-4.32-6.77l-4.9,5.62v13.97c0,3.1-.07,14.62,4.61,14.62v.72c-7.27.86-8.06-6.55-8.21-12.96v-16.2l-3.53-5.4h2.66c2.23,2.88,2.45,2.95,2.74,3.82,0,0-.07-.94,4.1-5.04,5.76-.5,10.22,1.01,10.22,7.63v12.82c0,3.1-.29,14.11,4.61,14.62Z"/>
      <path class="cls-1" d="M234.64,52.06c-8.14.43-7.99-6.62-7.99-12.96v-22.97h-2.38l-1.37-3.02h3.74v-4.03c-.22-5.98-1.15-8.57-1.15-8.57,1.66,1.51,3.02,4.9,3.02,4.9l2.59-1.73c-.86,1.37-1.01,4.54-1.01,5.4v4.03h2.66l1.58,3.02h-4.25v20.67c0,10.44,1.01,13.18,4.54,14.62v.65Z"/>
      <path class="cls-1" d="M259.41,51.55v.65s-5.33.86-7.06-3.74l-4.61,2.88s-3.46,2.09-7.56-.14c0,0-3.6-2.23-3.6-8.71,0,0,0-4.18.36-5.47l14.26-6.41v-2.38s.5-10.22-4.32-11.45c0,0-4.75.36-4.75,7.2h-3.67c0-5.54,3.67-7.92,8.78-7.92,6.55,0,7.49,5.47,7.56,11.16v11.81s0,6.7.79,9.07c0,0,1.22,3.46,3.82,3.46ZM251.2,32.18l-10.66,4.82-.14,3.89s-.58,8.93,3.74,10.66l7.56-5.04s-.72-.14-.5-14.33Z"/>
      <path class="cls-1" d="M268.05,67.32l-6.98-5.54h2.88l6.34,4.82s4.03-.14,4.03-9.94v-4.9c0-1.37.07-2.3.14-2.59-.43.86-1.37,1.8-2.52,2.95-9,.22-11.59-4.54-11.59-13.03v-16.56l5.98-6.41c9.07,0,11.59,4.61,11.59,13.1v27.43c0,7.42-1.66,10.8-9.86,10.66ZM268.84,17.13c-.07.22-5.04,5.69-5.04,5.69v13.97c0,5.26-.29,11.88,5.62,14.47,0-.22,4.9-5.69,4.9-5.69v-14.19c0-5.04.29-11.52-5.47-14.26Z"/>
      <path class="cls-1" d="M295.19,51.41v.65c-9.15.22-11.67-4.39-11.95-12.89v-6.84l-1.51.65h-2.74l4.25-2.02c0-4.18.58-6.84.58-6.84,1.66-8.21,9.5-7.99,9.5-7.99,8.71-.22,9.36,7.63,9.36,7.63l-15.84,7.13v5.83c0,5.76,0,13.68,8.35,14.69ZM286.84,29.37l12.46-5.62s-1.15-6.98-5.83-6.98c0,0-3.6.14-5.62,5.33,0,0-1.01,2.59-1.01,7.27Z"/>
    </g>
  </g>
</svg>