<?xml version="1.0" encoding="UTF-8"?>
<svg id="Capa_2" data-name="Capa 2" xmlns="http://www.w3.org/2000/svg" viewBox="0 0 426.29 330.18">
  <defs>
    <style>
      .cls-1 {
        fill: #ec651d;
      }

      .cls-2 {
        fill: #35658a;
      }

      .cls-3 {
        fill: #fff;
      }

      .cls-4 {
        fill: #97d2d9;
      }

      .cls-5 {
        fill: #f59f16;
      }
    </style>
  </defs>
  <g id="Capa_1-2" data-name="Capa 1">
    <path class="cls-4" d="M183.92,213.21h29.29v-96.2h-96.2v29.28c-.05,0-.11,0-.16,0-10.39,0-18.81,8.42-18.81,18.81s8.42,18.81,18.81,18.81c.05,0,.11,0,.16,0v29.31h29.29c0,10.39,8.42,18.81,18.81,18.81,10.39,0,18.81-8.42,18.81-18.81Z"/>
    <path class="cls-3" d="M165.11,234.02c-10.8,0-19.71-8.27-20.72-18.81h-29.38v-29.38c-10.62-.94-18.97-9.88-18.97-20.73s8.35-19.8,18.97-20.73v-29.36h100.21v100.21h-29.38c-1.01,10.54-9.92,18.81-20.72,18.81ZM119.02,211.2h29.29v2c0,9.27,7.54,16.81,16.81,16.81s16.81-7.54,16.81-16.81v-2h29.29v-92.19h-92.19v29.3l-2.22-.03c-9.21,0-16.75,7.54-16.75,16.81s7.54,16.81,16.81,16.81c0,0,.07,0,.14,0l2.02-.02v29.33Z"/>
    <path class="cls-1" d="M290.51,165.11c0-10.39,8.42-18.81,18.81-18.81v-29.29h-29.25c0-10.39-8.42-18.81-18.81-18.81-10.39,0-18.81,8.42-18.81,18.81h-29.29s0,30.22,0,30.22c-10.39,0-18.81,8.42-18.81,18.81,0,10.39,8.42,18.81,18.81,18.81v28.35h96.16s0-29.29,0-29.29c-10.39,0-18.81-8.42-18.81-18.81Z"/>
    <path class="cls-3" d="M311.33,215.21h-100.17v-28.45c-10.54-1.01-18.81-9.92-18.81-20.72s8.27-19.71,18.81-20.72v-30.32h29.38c1.01-10.54,9.92-18.81,20.72-18.81s19.71,8.27,20.72,18.81h29.34v33.3h-2c-9.27,0-16.81,7.54-16.81,16.81s7.54,16.81,16.81,16.81h2v33.3ZM215.17,211.2h92.15v-25.37c-10.54-1.01-18.81-9.92-18.81-20.72s8.27-19.71,18.81-20.72v-25.37h-29.25v-2c0-9.27-7.54-16.81-16.81-16.81s-16.81,7.54-16.81,16.81v2h-29.29v30.22h-2c-9.27,0-16.8,7.54-16.8,16.81s7.54,16.81,16.8,16.81h2v28.35Z"/>
    <path class="cls-4" d="M357.58,328.17c10.39-.03,18.79-8.47,18.76-18.86l29.29-.08-.08-30.09c10.36-.03,18.75-8.44,18.75-18.81s-8.42-18.81-18.81-18.81c-.01,0-.03,0-.04,0l-.08-28.32h-29.13c0,10.39-8.42,18.81-18.81,18.81-10.38,0-18.8-8.41-18.81-18.8l-29.45.08.27,96.2,29.29-.08c.03,10.39,8.47,18.79,18.86,18.76Z"/>
    <path class="cls-3" d="M357.53,330.18c-10.78,0-19.67-8.23-20.71-18.75l-29.38.08-.28-100.21,33.46-.09v2.01c0,9.26,7.55,16.79,16.81,16.79s16.81-7.54,16.81-16.81v-2h33.13l.08,28.41c10.56.99,18.86,9.91,18.86,20.72s-8.24,19.66-18.74,20.71l.08,30.19-29.38.08c-.44,4.8-2.52,9.27-5.97,12.73-3.92,3.94-9.14,6.12-14.7,6.14h-.06ZM340.72,307.4v2c.02,4.49,1.78,8.7,4.96,11.87,3.17,3.15,7.38,4.89,11.85,4.89h.05c4.49-.01,8.7-1.77,11.87-4.96,3.17-3.18,4.9-7.41,4.89-11.9v-2.01s29.28-.08,29.28-.08l-.08-30.09h2c9.24-.04,16.75-7.57,16.75-16.81s-7.51-16.77-16.74-16.81h-.1s-2,0-2,0l-.08-28.32h-25.22c-1.01,10.54-9.92,18.81-20.72,18.81s-19.7-8.26-20.72-18.79l-25.53.07.26,92.19,29.29-.08Z"/>
    <path class="cls-5" d="M376.23,117.01h29.29v-29.29c10.37-.02,18.77-8.43,18.77-18.81s-8.4-18.79-18.77-18.81v-29.29h-29.29c0,10.39-8.42,18.81-18.81,18.81-10.39,0-18.81-8.42-18.81-18.81h-29.29v96.2h29.29c0,10.39,8.42,18.81,18.81,18.81,10.39,0,18.81-8.42,18.81-18.81Z"/>
    <path class="cls-3" d="M357.42,137.83c-10.8,0-19.71-8.27-20.72-18.81h-29.38V18.81h33.3v2c0,9.27,7.54,16.81,16.81,16.81s16.81-7.54,16.81-16.81v-2h33.3v29.39c10.52,1.03,18.77,9.94,18.77,20.71s-8.25,19.68-18.77,20.71v29.39h-29.38c-1.01,10.54-9.92,18.81-20.72,18.81ZM311.33,115.01h29.29v2c0,9.27,7.54,16.81,16.81,16.81s16.81-7.54,16.81-16.81v-2h29.29v-29.29h2c9.25-.02,16.77-7.56,16.77-16.81s-7.52-16.78-16.77-16.8h-2v-29.29h-25.37c-1.01,10.54-9.92,18.81-20.72,18.81s-19.71-8.27-20.72-18.81h-25.37v92.19Z"/>
    <path class="cls-2" d="M261.26,98.2c10.39,0,18.81,8.42,18.81,18.81h29.29s0-29.29,0-29.29c10.37-.02,18.77-8.43,18.77-18.81s-8.4-18.79-18.77-18.81v-29.29s-29.29,0-29.29,0c0-10.39-8.42-18.81-18.81-18.81s-18.81,8.42-18.81,18.81h-29.29v30.22c-10.39,0-18.81,8.42-18.81,18.81s8.42,18.81,18.81,18.81v28.35h29.29c0-10.39,8.42-18.81,18.81-18.81Z"/>
    <path class="cls-3" d="M311.37,119.02h-33.3v-2c0-9.27-7.54-16.81-16.81-16.81s-16.81,7.54-16.81,16.81v2h-33.3v-28.45c-10.54-1.01-18.81-9.92-18.81-20.72s8.27-19.71,18.81-20.72v-30.32h29.38c1.01-10.54,9.92-18.81,20.72-18.81s19.71,8.27,20.72,18.81h29.38v29.39c10.52,1.03,18.77,9.94,18.77,20.71s-8.25,19.68-18.77,20.71v29.39ZM281.98,115.01h25.37v-29.29h2c9.25-.02,16.77-7.56,16.77-16.81s-7.52-16.78-16.77-16.8h-2v-29.29h-29.29v-2c0-9.27-7.54-16.81-16.81-16.81s-16.81,7.54-16.81,16.81v2h-29.29v30.22h-2c-9.27,0-16.8,7.54-16.8,16.81s7.54,16.81,16.8,16.81h2v28.35h25.37c1.01-10.54,9.92-18.81,20.72-18.81s19.71,8.27,20.72,18.81Z"/>
    <path class="cls-5" d="M231.78,69.15c0-9.99-7.8-18.14-17.64-18.75v-29.58h-29.29c0,10.39-8.42,18.81-18.81,18.81-10.39,0-18.81-8.42-18.81-18.81h-29.29v96.2h28.35c0,10.39,8.42,18.81,18.81,18.81,10.39,0,18.81-8.42,18.81-18.81h30.22s0-29.11,0-29.11c9.84-.61,17.64-8.76,17.64-18.75Z"/>
    <path class="cls-3" d="M165.11,137.83c-10.8,0-19.71-8.27-20.72-18.81h-28.45V18.81h33.3v2c0,9.27,7.54,16.81,16.81,16.81s16.81-7.54,16.81-16.81v-2h33.3v29.79c10.03,1.54,17.64,10.23,17.64,20.55s-7.61,19.01-17.64,20.55v29.31h-30.32c-1.01,10.54-9.92,18.81-20.72,18.81ZM119.95,115.01h28.35v2c0,9.27,7.54,16.81,16.81,16.81s16.81-7.54,16.81-16.81v-2h30.22v-28.99l1.88-.12c8.84-.55,15.76-7.9,15.76-16.75s-6.92-16.2-15.76-16.75l-1.88-.12v-29.46h-25.37c-1.01,10.54-9.92,18.81-20.72,18.81s-19.71-8.27-20.72-18.81h-25.37v92.19Z"/>
    <path class="cls-5" d="M213.17,242.45c10.39,0,18.81,8.42,18.81,18.81s-8.41,18.79-18.78,18.81l.08,29.42,29.29-.08c-.03-10.39,8.37-18.83,18.76-18.86,10.39-.03,18.83,8.37,18.86,18.76l29.29-.08-.08-30.09c10.36-.03,18.75-8.44,18.75-18.81s-8.42-18.81-18.81-18.81c-.01,0-.03,0-.04,0l-.08-28.49-29.13.08c-.05-10.35-8.45-18.72-18.81-18.72-10.39,0-18.81,8.42-18.81,18.81,0,0,0,0,0,.01l-29.45.08.08,29.16s.05,0,.08,0Z"/>
    <path class="cls-3" d="M211.28,311.51l-.09-33.44h2.01c9.25-.02,16.78-7.55,16.78-16.81s-7.51-16.77-16.75-16.81h-.14s-2,0-2,0l-.09-33.16,29.55-.08c1-10.55,9.92-18.83,20.72-18.83s19.64,8.23,20.71,18.71l29.23-.08.08,28.59c10.56.99,18.86,9.91,18.86,20.72s-8.24,19.66-18.74,20.71l.08,30.19-33.3.09v-2c-.02-4.49-1.78-8.7-4.96-11.87-3.18-3.17-7.42-4.93-11.9-4.89-9.27.03-16.78,7.59-16.76,16.85v2s-33.29.09-33.29.09ZM215.2,281.98l.07,25.51,25.37-.07c.98-10.54,9.87-18.84,20.67-18.87.02,0,.04,0,.06,0,5.54,0,10.75,2.15,14.68,6.06,3.46,3.45,5.57,7.9,6.04,12.7l25.37-.07-.08-30.09h2c9.24-.04,16.75-7.57,16.75-16.81s-7.51-16.77-16.74-16.81h-.1s-2,0-2,0l-.08-28.49-29.13.08v-2c-.05-9.22-7.59-16.72-16.81-16.72s-16.75,7.48-16.81,16.7v2.12l-29.44.08.07,25.24c10.58.97,18.89,9.9,18.89,20.73s-8.25,19.69-18.78,20.72Z"/>
    <path class="cls-2" d="M68.91,98.2c10.39,0,18.81,8.42,18.81,18.81h29.29v-29.29c10.37-.02,18.77-8.43,18.77-18.81s-8.4-18.79-18.77-18.81v-29.29h-29.29c0-10.39-8.42-18.81-18.81-18.81-10.39,0-18.81,8.42-18.81,18.81h-29.29v30.22c-10.39,0-18.81,8.42-18.81,18.81s8.42,18.81,18.81,18.81v28.35h29.29c0-10.39,8.42-18.81,18.81-18.81Z"/>
    <path class="cls-3" d="M119.02,119.02h-33.3v-2c0-9.27-7.54-16.81-16.81-16.81s-16.81,7.54-16.81,16.81v2H18.81v-28.45c-10.54-1.01-18.81-9.92-18.81-20.72s8.27-19.71,18.81-20.72v-30.32h29.38C49.21,8.27,58.11,0,68.91,0s19.71,8.27,20.72,18.81h29.38v29.39c10.52,1.03,18.77,9.94,18.77,20.71s-8.25,19.68-18.77,20.71v29.39ZM89.63,115.01h25.37v-29.29h2c9.25-.02,16.77-7.56,16.77-16.81s-7.52-16.78-16.77-16.8h-2v-29.29h-29.29v-2c0-9.27-7.54-16.81-16.81-16.81s-16.81,7.54-16.81,16.81v2h-29.29v30.22h-2c-9.27,0-16.81,7.54-16.81,16.81s7.54,16.81,16.81,16.81h2v28.35h25.37c1.01-10.54,9.92-18.81,20.72-18.81s19.71,8.27,20.72,18.81Z"/>
    <path class="cls-4" d="M20.87,242.67c10.39,0,18.81,8.42,18.81,18.81s-8.41,18.79-18.78,18.81l.08,29.42,29.29-.08c-.03-10.39,8.37-18.83,18.76-18.86,10.39-.03,18.83,8.37,18.86,18.76l29.29-.08-.08-30.09c10.36-.03,18.75-8.44,18.75-18.81s-8.42-18.81-18.81-18.81c-.01,0-.03,0-.04,0l-.08-28.49-29.13.08c-.05-10.35-8.45-18.72-18.81-18.72-10.39,0-18.81,8.42-18.81,18.81,0,0,0,0,0,.01l-29.45.08.08,29.16s.05,0,.08,0Z"/>
    <path class="cls-3" d="M18.98,311.73l-.09-33.44h2.01c9.25-.02,16.78-7.55,16.78-16.81s-7.51-16.77-16.75-16.81h-.14s-2,0-2,0l-.09-33.16,29.55-.08c1-10.55,9.91-18.83,20.72-18.83s19.64,8.23,20.71,18.71l29.23-.08.08,28.59c10.56.99,18.86,9.91,18.86,20.72s-8.24,19.66-18.74,20.71l.08,30.19-33.3.09v-2.01c-.02-4.49-1.78-8.7-4.96-11.87-3.17-3.15-7.38-4.89-11.85-4.89h-.05c-4.49.01-8.7,1.77-11.87,4.96-3.17,3.18-4.9,7.41-4.89,11.9v2.01s-33.29.09-33.29.09ZM22.91,282.2l.07,25.51,25.37-.07c.44-4.8,2.52-9.27,5.97-12.73,3.92-3.94,9.14-6.12,14.7-6.14.02,0,.04,0,.06,0,5.54,0,10.75,2.15,14.68,6.06,3.46,3.45,5.57,7.9,6.04,12.7l25.37-.07-.08-30.09h2c9.24-.04,16.75-7.57,16.75-16.81s-7.5-16.77-16.74-16.81h-.1s-2,0-2,0l-.08-28.49-29.13.08v-2c-.05-9.22-7.59-16.72-16.81-16.72s-16.75,7.48-16.8,16.7v2.12l-29.44.08.07,25.24c10.58.97,18.89,9.9,18.89,20.73s-8.26,19.69-18.78,20.72Z"/>
    <path class="cls-3" d="M275.44,153.18c-3.36-3.59-13.37-7.66-11.76-9.74,1.61-2.09,1.75-.92,2.42-1,4.13-.51,10.61,2.4,11.13-4.13.54-6.91-6.5-6.24-11.18-7.42-.24-.06-.5-.1-.75-.12-9.62-.6-15.73-5.22-20.61-13.95-16.83-30.14-43.56-46.68-77.08-52.68-21.98-3.94-43.71,1.06-65.54,2.41-7.98.49-16.29.66-24.01-1.04-12.4-2.72-19.74-11.08-21.99-24.01-2.45-14.09,3.43-25.09,11.93-35.22C69.78,4.15,71.59,2.07,73.41,0h-30.74c-3.8,6.21-6.65,12.97-8.54,20.36-7.96,31.1,8.18,59.43,38.94,68.49,13.26,3.9,26.49,2.56,39.73.55,18.52-2.81,37.14-5.33,55.65-1.25,26.57,5.86,48.04,19.22,60.31,44.66,2.89,5.99,3.4,11.96-.1,18.08-2.37,4.14-4.75,8.47-5.93,13.03-.66,2.55-1.37,7.81,1.78,8.61,3.15.81,3.79.87,6.6-3.26,1.36-2,2.91-7.19,5.56-6.13,2.64,1.06,1.79,9.21,2.75,13.23.54,2.27,1.48,6.3,4.52,6.11,3.05-.19,3.8-3.98,4.16-6.22.72-4.52-2.99-15.93.47-15.47,2.33.31,6.95,12.16,12.13,16.24,1.46,1.15,4.06,3.55,6.58,1.66,2.52-1.89,1.63-4.89.92-6.76-1.21-3.22-3.7-5.94-5.53-8.94-1.41-2.31-5.4-5.29-3.94-7.09,1.97-2.44,7.64,3.37,11.09,4.66,2.21.83,4.87,3.98,7.57,0,2.7-3.98-.41-5.74-1.94-7.38Z"/>
  </g>
</svg>