<?xml version="1.0" encoding="UTF-8"?>
<svg id="Capa_2" data-name="Capa 2" xmlns="http://www.w3.org/2000/svg" viewBox="0 0 496.33 90.87">
  <defs>
    <style>
      .cls-1 {
        fill: #fff;
      }

      .cls-2 {
        fill: #02f672;
      }

      .cls-3 {
        fill: #5ccff7;
      }

      .cls-4 {
        fill: #ef59a8;
      }

      .cls-5 {
        fill: #ffc661;
      }
    </style>
  </defs>
  <g id="Capa_2-2" data-name="Capa 2">
    <g>
      <path class="cls-4" d="M35.32,0l-3.96,45h-11.74l1.01-10.8c-2.54,2.4-5.78,3.6-9.72,3.6-3.22,0-5.89-.88-8.03-2.63C.74,33.42-.2,31.3.04,28.8L1.76,9c.24-2.5,1.57-4.62,4-6.37C8.18.88,11,0,14.22,0c3.94,0,6.96,1.2,9.07,3.6l.29-3.6h11.74ZM22.5,12.6c.1-1.01-.29-1.86-1.15-2.56-.86-.7-1.94-1.04-3.24-1.04s-2.36.35-3.35,1.04c-.98.7-1.52,1.55-1.62,2.56l-1.08,12.6c-.1,1.01.29,1.86,1.15,2.56.86.7,1.92,1.04,3.17,1.04s2.44-.35,3.42-1.04c.98-.7,1.52-1.55,1.62-2.56l1.08-12.6Z"/>
      <path class="cls-4" d="M72.76,0l-3.31,37.8h-11.74l.36-3.6c-2.54,2.4-5.78,3.6-9.72,3.6-3.22,0-5.89-.88-8.03-2.63-2.14-1.75-3.08-3.88-2.84-6.37L40,0h11.66l-2.16,25.2c-.1,1.01.29,1.86,1.15,2.56.86.7,1.92,1.04,3.17,1.04s2.44-.35,3.42-1.04c.98-.7,1.52-1.55,1.62-2.56L61.02,0h11.74Z"/>
      <path class="cls-4" d="M109.12,12.6l-1.01,10.8h-21.02l-.14,1.8c-.1,1.01.29,1.86,1.16,2.56.87.7,1.93,1.04,3.19,1.04s2.45-.35,3.44-1.04c.99-.7,1.53-1.55,1.63-2.56h11.74c-.29,3.46-2.15,6.42-5.57,8.89-3.42,2.47-7.43,3.71-12,3.71s-8.29-1.24-11.28-3.71c-2.99-2.47-4.34-5.44-4.05-8.89l1.15-12.6c.29-3.46,2.14-6.42,5.54-8.89,3.41-2.47,7.37-3.71,11.88-3.71s8.33,1.24,11.3,3.71c2.98,2.47,4.32,5.44,4.03,8.89ZM97.38,12.6c.1-1.01-.29-1.86-1.15-2.56-.86-.7-1.94-1.04-3.24-1.04s-2.36.35-3.35,1.04c-.98.7-1.52,1.55-1.62,2.56l-.14,1.8h9.36l.14-1.8Z"/>
      <path class="cls-4" d="M185.87,9l-2.52,28.8h-11.74l2.3-25.2c.05-1.01-.35-1.86-1.19-2.56-.84-.7-1.91-1.04-3.2-1.04s-2.44.35-3.42,1.04c-.98.7-1.5,1.55-1.55,2.56l-2.23,25.2h-11.74l2.23-25.2c.1-1.01-.29-1.86-1.14-2.56-.86-.7-1.93-1.04-3.22-1.04s-2.35.35-3.33,1.04c-.98.7-1.52,1.55-1.61,2.56l-2.22,25.2h-11.74l3.31-37.8h11.66l-.29,3.6c2.54-2.4,5.76-3.6,9.65-3.6,4.9,0,8.28,1.68,10.15,5.04,2.4-3.36,6.05-5.04,10.94-5.04,3.22,0,5.89.88,8.03,2.63,2.14,1.75,3.08,3.88,2.84,6.37Z"/>
      <path class="cls-4" d="M223.02,12.6l-1.01,10.8h-21.02l-.14,1.8c-.1,1.01.29,1.86,1.16,2.56.87.7,1.93,1.04,3.19,1.04s2.45-.35,3.44-1.04c.99-.7,1.53-1.55,1.63-2.56h11.74c-.29,3.46-2.15,6.42-5.57,8.89-3.42,2.47-7.43,3.71-12,3.71s-8.29-1.24-11.28-3.71c-2.99-2.47-4.34-5.44-4.05-8.89l1.15-12.6c.29-3.46,2.14-6.42,5.54-8.89,3.41-2.47,7.37-3.71,11.88-3.71s8.33,1.24,11.3,3.71c2.98,2.47,4.32,5.44,4.03,8.89ZM211.28,12.6c.1-1.01-.29-1.86-1.15-2.56-.86-.7-1.94-1.04-3.24-1.04s-2.36.35-3.35,1.04c-.98.7-1.52,1.55-1.62,2.56l-.14,1.8h9.36l.14-1.8Z"/>
      <path class="cls-4" d="M278.75,9l-.29,3.6c-.24,2.45-1.54,4.54-3.89,6.26,2.06,1.78,2.98,3.89,2.74,6.34l-.29,3.6c-.24,2.5-1.57,4.62-3.98,6.37-2.42,1.75-5.25,2.63-8.5,2.63-3.88,0-6.87-1.2-8.97-3.6l-.36,3.6h-11.74l3.31-37.8h11.66l-.29,3.6c2.54-2.4,5.76-3.6,9.65-3.6,3.26,0,5.96.88,8.1,2.63,2.14,1.75,3.08,3.88,2.84,6.37ZM265.57,26.06c.05-.72-.36-1.34-1.22-1.87-.86-.53-1.94-.79-3.24-.79h-4.68l-.22,2.66c-.1.77.3,1.42,1.19,1.94.89.53,1.96.79,3.2.79s2.42-.26,3.38-.79c.96-.53,1.49-1.18,1.58-1.94ZM266.72,11.66c.1-.72-.3-1.34-1.18-1.87-.88-.53-1.97-.79-3.25-.79s-2.34.26-3.29.79c-.95.53-1.48,1.15-1.57,1.87l-.21,2.74h4.65c1.29,0,2.41-.26,3.36-.79.95-.53,1.45-1.18,1.5-1.94Z"/>
      <path class="cls-4" d="M315.9,12.6l-1.01,10.8h-21.02l-.14,1.8c-.1,1.01.29,1.86,1.16,2.56.87.7,1.93,1.04,3.19,1.04s2.45-.35,3.44-1.04c.99-.7,1.53-1.55,1.63-2.56h11.74c-.29,3.46-2.15,6.42-5.57,8.89-3.42,2.47-7.43,3.71-12,3.71s-8.29-1.24-11.28-3.71c-2.99-2.47-4.34-5.44-4.05-8.89l1.15-12.6c.29-3.46,2.14-6.42,5.54-8.89,3.41-2.47,7.37-3.71,11.88-3.71s8.33,1.24,11.3,3.71c2.98,2.47,4.32,5.44,4.03,8.89ZM304.16,12.6c.1-1.01-.29-1.86-1.15-2.56-.86-.7-1.94-1.04-3.24-1.04s-2.36.35-3.35,1.04c-.98.7-1.52,1.55-1.62,2.56l-.14,1.8h9.36l.14-1.8Z"/>
      <path class="cls-4" d="M353.34,12.6h-11.7c.09-1.01-.29-1.86-1.15-2.56-.86-.7-1.94-1.04-3.23-1.04-3.11,0-4.71.6-4.81,1.8-.14,1.87,1.55,3.26,5.09,4.18,5.6,1.49,8.87,2.5,9.83,3.02,3.49,1.87,5.05,4.87,4.66,9-.24,2.98-2.05,5.52-5.44,7.63-3.38,2.11-7.36,3.17-11.92,3.17s-8.26-1.24-11.23-3.71c-2.98-2.47-4.32-5.44-4.03-8.89h11.7c-.1,1.01.29,1.86,1.15,2.56.86.7,1.91,1.04,3.16,1.04,3.11,0,4.74-.6,4.88-1.8.14-1.87-1.55-3.26-5.09-4.18-5.6-1.49-8.87-2.5-9.83-3.02-3.49-1.87-5.05-4.87-4.66-9,.24-2.98,2.05-5.52,5.44-7.63,3.38-2.11,7.33-3.17,11.84-3.17s8.33,1.24,11.3,3.71c2.98,2.47,4.32,5.44,4.03,8.89Z"/>
      <path class="cls-4" d="M390.78,12.6l-1.01,10.8h-21.02l-.14,1.8c-.1,1.01.29,1.86,1.16,2.56.87.7,1.93,1.04,3.19,1.04s2.45-.35,3.44-1.04c.99-.7,1.53-1.55,1.63-2.56h11.74c-.29,3.46-2.15,6.42-5.57,8.89-3.42,2.47-7.43,3.71-12,3.71s-8.29-1.24-11.28-3.71c-2.99-2.47-4.34-5.44-4.05-8.89l1.15-12.6c.29-3.46,2.14-6.42,5.54-8.89,3.41-2.47,7.37-3.71,11.88-3.71s8.33,1.24,11.3,3.71c2.98,2.47,4.32,5.44,4.03,8.89ZM379.04,12.6c.1-1.01-.29-1.86-1.15-2.56-.86-.7-1.94-1.04-3.24-1.04s-2.36.35-3.35,1.04c-.98.7-1.52,1.55-1.62,2.56l-.14,1.8h9.36l.14-1.8Z"/>
      <path class="cls-4" d="M428.22,12.6h-11.7c.09-1.01-.29-1.86-1.15-2.56-.86-.7-1.94-1.04-3.23-1.04-3.11,0-4.71.6-4.81,1.8-.14,1.87,1.55,3.26,5.09,4.18,5.6,1.49,8.87,2.5,9.83,3.02,3.49,1.87,5.05,4.87,4.66,9-.24,2.98-2.05,5.52-5.44,7.63-3.38,2.11-7.36,3.17-11.92,3.17s-8.26-1.24-11.23-3.71c-2.98-2.47-4.32-5.44-4.03-8.89h11.7c-.1,1.01.29,1.86,1.15,2.56.86.7,1.91,1.04,3.16,1.04,3.11,0,4.74-.6,4.88-1.8.14-1.87-1.55-3.26-5.09-4.18-5.6-1.49-8.87-2.5-9.83-3.02-3.49-1.87-5.05-4.87-4.66-9,.24-2.98,2.05-5.52,5.44-7.63,3.38-2.11,7.33-3.17,11.84-3.17s8.33,1.24,11.3,3.71c2.98,2.47,4.32,5.44,4.03,8.89Z"/>
      <path class="cls-4" d="M462.06,32.4c-.1,1.49-.88,2.76-2.35,3.82-1.47,1.06-3.2,1.58-5.17,1.58s-3.54-.53-4.81-1.58c-1.28-1.06-1.87-2.33-1.77-3.82.15-1.49.95-2.76,2.42-3.82,1.47-1.06,3.17-1.58,5.1-1.58s3.61.53,4.88,1.58c1.28,1.06,1.84,2.33,1.7,3.82ZM463.64,0l-2.16,25.2h-11.74l2.23-25.2h11.66Z"/>
      <path class="cls-4" d="M478.4,32.4c-.1,1.49-.88,2.76-2.35,3.82-1.47,1.06-3.2,1.58-5.17,1.58s-3.54-.53-4.81-1.58c-1.28-1.06-1.87-2.33-1.77-3.82.15-1.49.95-2.76,2.42-3.82,1.47-1.06,3.17-1.58,5.1-1.58s3.61.53,4.88,1.58c1.28,1.06,1.84,2.33,1.7,3.82ZM479.98,0l-2.16,25.2h-11.74l2.23-25.2h11.66Z"/>
      <path class="cls-4" d="M494.74,32.4c-.1,1.49-.88,2.76-2.35,3.82-1.47,1.06-3.2,1.58-5.17,1.58s-3.54-.53-4.81-1.58c-1.28-1.06-1.87-2.33-1.77-3.82.15-1.49.95-2.76,2.42-3.82,1.47-1.06,3.17-1.58,5.1-1.58s3.61.53,4.88,1.58c1.28,1.06,1.84,2.33,1.7,3.82ZM496.33,0l-2.16,25.2h-11.74l2.23-25.2h11.66Z"/>
    </g>
    <g>
      <path class="cls-5" d="M127.26,67.94l-3.23-10.18-3.3,10.59-9.83,2.77,8.32,5.08-2.82,9.68,7.56-5.02,2.1.89,6.68,4.36-2.57-9.82c2.08-1.79,4.21-3.56,6.22-5.43.16-.15,1.38-1.2,1.21-1.36l-10.33-1.56Z"/>
      <path class="cls-5" d="M127.26,67.94l10.33,1.56c.17.16-1.05,1.21-1.21,1.36-2.01,1.87-4.14,3.64-6.22,5.43l2.57,9.82-6.68-4.36-2.1-.89-7.56,5.02,2.82-9.68-8.32-5.08,9.83-2.77,3.3-10.59,3.23,10.18Z"/>
    </g>
    <g>
      <path class="cls-3" d="M72.11,68.12l-3.23-10.18-3.3,10.59-9.83,2.77,8.32,5.08-2.82,9.68,7.56-5.02,2.1.89,6.68,4.36-2.57-9.82c2.08-1.79,4.21-3.56,6.22-5.43.16-.15,1.38-1.2,1.21-1.36l-10.33-1.56Z"/>
      <path class="cls-3" d="M72.11,68.12l10.33,1.56c.17.16-1.05,1.21-1.21,1.36-2.01,1.87-4.14,3.64-6.22,5.43l2.57,9.82-6.68-4.36-2.1-.89-7.56,5.02,2.82-9.68-8.32-5.08,9.83-2.77,3.3-10.59,3.23,10.18Z"/>
    </g>
    <g>
      <path class="cls-2" d="M16.9,67.46l-3.74-10-2.76,10.75-9.68,3.26,8.57,4.66-2.32,9.81,7.29-5.4,2.14.78,6.89,4.01-3.06-9.67c1.98-1.9,4.02-3.77,5.93-5.74.15-.16,1.32-1.27,1.14-1.42l-10.4-1.04Z"/>
      <path class="cls-2" d="M16.9,67.46l10.4,1.04c.18.15-.99,1.26-1.14,1.42-1.91,1.97-3.95,3.84-5.93,5.74l3.06,9.67-6.89-4.01-2.14-.78-7.29,5.4,2.32-9.81-8.57-4.66,9.68-3.26,2.76-10.75,3.74,10Z"/>
    </g>
    <g>
      <g>
        <path class="cls-1" d="M178.18,89.28c-.96,0-1.66-.19-2.18-.59-.56-.39-.93-1.03-1.11-1.94l-.76-4.04h-8.69c-.74,0-1.39-.27-1.92-.8-.51-.51-.77-1.15-.77-1.89v-5.41c0-.72.25-1.4.7-1.91.44-.5.99-.8,1.62-.88-.35-.14-.66-.34-.92-.6-.51-.51-.77-1.14-.77-1.89v-5.41c0-.74.24-1.38.7-1.91.51-.59,1.22-.91,1.99-.91h4.06l-.16-.83c-.09-.69-.13-1.56.39-2.27.68-.96,1.91-.96,2.38-.96h6.27c1.07,0,1.81.17,2.32.54l.1.08c.51.44.84,1.12,1,2.08l.26,1.35h8.49c.82,0,1.53.31,2.05.91.45.51.7,1.11.76,1.78v.07s0,5.56,0,5.56v.07c-.07.67-.35,1.25-.84,1.74-.27.27-.58.47-.94.6.66.09,1.25.39,1.67.88.47.54.73,1.22.73,1.91v5.41c0,.49-.14,1.22-.8,1.89-.52.52-1.23.8-2.02.8h-5.12l.65,3.4c.07.37.28,1.49-.42,2.33-.46.56-1.16.84-2.08.84h-6.67Z"/>
        <path class="cls-4" d="M179.01,58.53c.73,0,1.22.1,1.45.26.23.2.4.59.5,1.19l.5,2.61h9.74c.4,0,.69.13.92.4.23.26.36.56.4.92v5.41c-.03.33-.17.59-.4.83-.23.23-.53.33-.92.36h-8.25l.53,2.77h8.35c.4,0,.73.13.96.4.23.26.36.59.36.92v5.41c0,.33-.13.59-.36.83s-.56.36-.96.36h-6.93l.99,5.18c.1.53.07.89-.1,1.09-.17.2-.46.3-.92.3h-6.67c-.63,0-1.06-.1-1.29-.3-.26-.17-.43-.53-.53-1.02l-.99-5.25h-9.93c-.36,0-.63-.13-.86-.36-.23-.23-.33-.5-.33-.83v-5.41c0-.33.1-.66.33-.92.23-.26.5-.4.86-.4h8.45l-.46-2.77h-7.36c-.33-.03-.63-.13-.86-.36-.23-.23-.33-.5-.33-.83v-5.41c0-.36.1-.66.33-.92.23-.26.53-.4.86-.4h5.88l-.5-2.61c-.07-.53-.03-.89.13-1.12s.53-.33,1.16-.33h6.27M179.01,55.53h-6.27c-1.63,0-2.84.53-3.6,1.59-.61.85-.73,1.8-.72,2.47h-2.35c-1.21,0-2.31.5-3.11,1.42-.7.8-1.07,1.8-1.07,2.9v5.41c0,.81.21,1.55.61,2.2-.06.06-.11.12-.17.18-.69.79-1.07,1.82-1.07,2.9v5.41c0,1.14.42,2.15,1.21,2.94.82.82,1.85,1.24,2.98,1.24h7.45l.53,2.8c.26,1.31.83,2.27,1.7,2.89.78.59,1.78.88,3.06.88h6.67c1.72,0,2.7-.75,3.23-1.37.77-.92,1.02-2.12.74-3.56l-.31-1.63h3.3c1.18,0,2.28-.44,3.08-1.24.81-.81,1.24-1.83,1.24-2.95v-5.41c0-1.06-.39-2.09-1.11-2.9-.06-.07-.12-.13-.18-.19.36-.57.58-1.2.65-1.88l.02-.15v-5.84c-.1-.99-.48-1.88-1.14-2.63-.81-.92-1.93-1.42-3.18-1.42h-7.25l-.03-.14c-.22-1.3-.71-2.27-1.5-2.94l-.1-.09-.11-.08c-.79-.56-1.8-.82-3.2-.82h0Z"/>
      </g>
      <g>
        <path class="cls-1" d="M197.94,89.34h-.07c-.61-.07-1.17-.31-1.65-.72-.56-.42-.89-1.13-.89-2.06v-7.56c0-.77.28-1.46.8-1.95.51-.55,1.16-.84,1.89-.84h4.36c2.87,0,4.25-.47,4.9-.87.95-.6,1.73-1.42,2.36-2.49.56-.99.88-2.24.94-3.71l-11.93.03h-.07c-.75-.08-1.34-.36-1.77-.84-.49-.51-.76-1.18-.76-1.88v-6.77c0-.48.13-1.19.77-1.85.47-.52,1.15-.81,1.92-.81h18.35c2.31,0,3.94.58,4.98,1.76.99,1.07,1.5,2.69,1.5,4.79v5.56c-.17,2.2-.59,4.13-1.27,5.77,1.23.88,2.84,1.56,4.8,2.03l.17.04.15.08c.48.24,1.15.64,1.46,1.4.39.84.15,1.7-.07,2.28l-2.48,6.33c-.35.88-.84,1.45-1.46,1.72-.32.14-.66.2-1.06.2-.22,0-.47-.02-.75-.06-3.21-.68-6.02-1.92-8.41-3.7-1.21,1.15-2.7,2.07-4.45,2.76-2.23.9-4.34,1.36-6.26,1.36h-5.98Z"/>
        <path class="cls-4" d="M217.06,58.53c1.81,0,3.1.4,3.86,1.25.76.83,1.12,2.11,1.12,3.8v5.45c-.2,2.61-.76,4.69-1.62,6.3,1.49,1.39,3.56,2.41,6.3,3.07.4.2.66.4.76.66.13.26.1.63-.1,1.16l-2.48,6.3c-.2.5-.43.79-.66.89-.13.05-.28.08-.47.08-.15,0-.33-.02-.52-.05-3.4-.73-6.34-2.15-8.78-4.26-1.19,1.45-2.84,2.61-4.85,3.4-2.05.83-3.96,1.25-5.71,1.25h-5.91c-.33-.03-.59-.17-.83-.36-.26-.2-.36-.5-.36-.92v-7.56c0-.33.1-.66.36-.89.23-.26.5-.4.83-.4h4.36c2.61,0,4.49-.36,5.68-1.09,1.15-.73,2.11-1.72,2.87-3,.73-1.29,1.12-2.87,1.16-4.75,0-.33-.13-.63-.36-.86-.23-.2-.56-.33-.92-.33h-12.08c-.33-.03-.63-.13-.83-.36-.23-.23-.36-.53-.36-.86v-6.77c0-.33.13-.59.36-.83.2-.23.5-.33.83-.33h18.35M217.06,55.53h-18.35c-1.19,0-2.26.45-3.02,1.28-.77.8-1.17,1.79-1.17,2.87v6.77c0,1.09.41,2.11,1.17,2.9.49.54,1.35,1.16,2.72,1.3l.15.02h10.3c-.13.54-.31,1.02-.54,1.44-.5.85-1.11,1.49-1.87,1.96-.29.17-1.33.63-4.08.63h-4.36c-1.12,0-2.17.45-2.95,1.28-.8.77-1.23,1.83-1.23,3.01v7.56c0,1.71.78,2.71,1.48,3.26.71.58,1.52.93,2.42,1.01h.15s.15.01.15.01h5.91c2.11,0,4.41-.5,6.83-1.47,1.49-.58,2.82-1.34,3.97-2.24,2.33,1.54,4.98,2.63,7.91,3.25l.09.02h.09c.35.07.67.09.97.09.6,0,1.15-.11,1.65-.32,1-.43,1.77-1.28,2.27-2.53l2.48-6.32c.2-.52.73-1.95.06-3.46-.57-1.34-1.77-1.94-2.17-2.14l-.31-.15-.33-.08c-1.3-.31-2.41-.72-3.33-1.21.48-1.5.79-3.18.93-5.02v-.11s0-.11,0-.11v-5.45c0-2.47-.64-4.43-1.89-5.81-1.33-1.49-3.38-2.24-6.09-2.24h0Z"/>
      </g>
      <g>
        <path class="cls-1" d="M244.64,79.47c-1.74-.08-3.21-.71-4.35-1.86-1.15-1.15-1.77-2.61-1.86-4.35v-.07s0-.07,0-.07c.09-1.74.71-3.21,1.86-4.35,1.24-1.2,2.72-1.79,4.43-1.79,1.74.04,3.24.67,4.39,1.83,1.15,1.15,1.77,2.6,1.86,4.32v.07s0,.07,0,.07c-.08,1.74-.71,3.21-1.86,4.35-1.15,1.15-2.6,1.77-4.32,1.86h-.07s-.07,0-.07,0Z"/>
        <path class="cls-4" d="M244.71,68.47c1.32.03,2.44.5,3.33,1.39s1.35,2.01,1.42,3.33c-.07,1.35-.53,2.48-1.42,3.37s-2.01,1.35-3.33,1.42c-1.35-.07-2.48-.53-3.37-1.42s-1.35-2.01-1.42-3.37c.07-1.35.53-2.48,1.42-3.37.92-.89,2.05-1.35,3.37-1.35M244.75,65.47h-.04c-2.08,0-3.96.76-5.45,2.19l-.02.02-.02.02c-1.42,1.42-2.19,3.22-2.29,5.34v.15s0,.15,0,.15c.1,2.13.88,3.92,2.29,5.34,1.42,1.42,3.22,2.19,5.34,2.29h.15s.15,0,.15,0c2.07-.1,3.91-.9,5.31-2.29s2.19-3.22,2.29-5.34v-.15s0-.15,0-.15c-.1-2.07-.9-3.91-2.29-5.31s-3.29-2.21-5.38-2.26h-.04Z"/>
      </g>
      <g>
        <path class="cls-1" d="M291.08,89.37c-.18,0-.38-.02-.6-.05l-26.24-3.2-.08-.02c-.48-.11-1.17-.32-1.68-.83l-.08-.08c-.43-.5-.66-1.11-.66-1.77v-5.48c0-.71.18-1.29.53-1.73l.05-.07.06-.06c.31-.32.88-.69,1.8-.7-.24-.13-.46-.29-.65-.48-.32-.32-.7-.9-.7-1.82v-4.62c0-.27,0-1.04.52-1.66.21-.28.55-.57,1.1-.71-.48-.13-.9-.35-1.24-.64l-.1-.09c-.48-.48-.74-1.12-.74-1.85v-4.62c0-.28,0-1.15.64-1.79.53-.53,1.14-.65,1.56-.69l.17-.02,25.62,3.02c.86.12,1.48.42,1.91.9.34.36.73.97.73,1.91v4.39c-.07,1.11-.42,1.84-1.04,2.26-.28.2-.61.34-.99.4.38.16.69.37.94.65.48.5.73,1.15.73,1.88v4.29c-.07,1.15-.45,1.89-1.15,2.29-.33.22-.83.37-1.4.37l.82.11c.87.12,1.5.42,1.96.92.5.52.77,1.18.77,1.92v5.02l-.02.13c-.15.85-.44,1.48-.88,1.92l-.09.09-.1.07c-.41.29-.9.44-1.46.44Z"/>
        <path class="cls-4" d="M264.74,57.91l25.45,3c.46.07.79.2.99.43.23.23.33.53.33.89v4.39c-.03.53-.17.89-.4,1.02-.15.13-.39.18-.67.18-.08,0-.17,0-.26-.01l-25.12-3.1c-.4-.07-.69-.23-.89-.4-.2-.2-.3-.46-.3-.79v-4.62c0-.36.07-.59.2-.73.17-.17.36-.23.66-.26M265.23,67.51l24.62,3c.43.07.76.2.96.43.23.23.33.53.33.86v4.29c-.03.53-.17.86-.4.99-.16.11-.4.17-.7.17-.06,0-.13,0-.19,0l-24.36-3c-.43-.07-.69-.2-.89-.4s-.26-.46-.26-.76v-4.62c0-.36.07-.59.2-.73.1-.17.36-.23.69-.23M264.24,76.88l26.47,3.47c.46.07.83.2,1.06.46.23.23.36.53.36.89v4.88c-.1.56-.26.92-.46,1.12-.16.11-.35.16-.59.16-.11,0-.23-.01-.37-.03l-26.21-3.2c-.43-.1-.76-.23-.96-.43-.2-.23-.3-.5-.3-.79v-5.48c0-.36.07-.63.2-.79.17-.17.43-.26.79-.26M264.75,54.89l-.34.04c-.37.04-1.49.16-2.45,1.12-.71.71-1.08,1.67-1.08,2.85v4.62c0,1.04.36,2.01,1.03,2.75-.37.61-.56,1.35-.56,2.2v4.62c0,.65.13,1.2.32,1.65-.11.09-.22.19-.33.29l-.12.12-.1.13c-.57.71-.85,1.61-.85,2.66v5.48c0,1.02.35,1.97,1.02,2.75l.07.09.08.08c.79.79,1.75,1.08,2.41,1.23l.15.04.16.02,26.17,3.2c.27.04.53.06.77.06.87,0,1.66-.24,2.33-.72l.2-.15.18-.18c.65-.66,1.09-1.57,1.29-2.72l.05-.26v-5.15c0-1.11-.42-2.15-1.18-2.94-.13-.14-.26-.26-.41-.38.3-.53.53-1.21.59-2.1v-.09s0-.09,0-.09v-4.29c0-.83-.23-1.62-.65-2.28.5-.57.93-1.43,1.01-2.71v-.09s0-.09,0-.09v-4.39c0-1.42-.6-2.37-1.13-2.93-.67-.73-1.6-1.19-2.77-1.36h-.04s-.04,0-.04,0l-25.45-3-.34-.04h0Z"/>
      </g>
      <g>
        <path class="cls-1" d="M297.37,78.78c-.74,0-1.39-.27-1.92-.8-.51-.51-.77-1.15-.77-1.89v-5.61c0-.72.25-1.39.7-1.91.52-.59,1.21-.91,1.99-.91h26.5c.83,0,1.57.32,2.08.91.47.54.74,1.22.74,1.91v5.61c0,.49-.14,1.22-.8,1.89-.52.52-1.23.8-2.02.8h-26.5Z"/>
        <path class="cls-4" d="M323.88,69.16c.4,0,.73.13.96.4.23.26.36.59.36.92v5.61c0,.33-.13.59-.36.83-.23.23-.56.36-.96.36h-26.5c-.36,0-.63-.13-.86-.36s-.33-.5-.33-.83v-5.61c0-.33.1-.66.33-.92.23-.26.5-.4.86-.4h26.5M323.88,66.16h-26.5c-1.22,0-2.3.49-3.12,1.42-.69.79-1.07,1.82-1.07,2.9v5.61c0,1.14.42,2.16,1.21,2.95s1.84,1.24,2.98,1.24h26.5c1.18,0,2.28-.44,3.08-1.24.81-.81,1.24-1.83,1.24-2.95v-5.61c0-1.05-.39-2.08-1.1-2.9-.81-.92-1.95-1.42-3.22-1.42h0Z"/>
      </g>
      <g>
        <path class="cls-1" d="M343.64,79.47c-1.74-.08-3.21-.71-4.35-1.86-1.15-1.15-1.77-2.61-1.86-4.35v-.07s0-.07,0-.07c.09-1.74.71-3.21,1.86-4.35,1.24-1.2,2.72-1.79,4.43-1.79,1.74.04,3.24.67,4.39,1.83,1.15,1.15,1.77,2.6,1.86,4.32v.07s0,.07,0,.07c-.08,1.74-.71,3.21-1.86,4.35-1.15,1.15-2.6,1.77-4.32,1.86h-.07s-.07,0-.07,0Z"/>
        <path class="cls-4" d="M343.71,68.47c1.32.03,2.44.5,3.33,1.39s1.35,2.01,1.42,3.33c-.07,1.35-.53,2.48-1.42,3.37s-2.01,1.35-3.33,1.42c-1.35-.07-2.48-.53-3.37-1.42s-1.35-2.01-1.42-3.37c.07-1.35.53-2.48,1.42-3.37.92-.89,2.05-1.35,3.37-1.35M343.75,65.47h-.04c-2.08,0-3.96.76-5.45,2.19l-.02.02-.02.02c-1.42,1.42-2.19,3.22-2.29,5.34v.15s0,.15,0,.15c.1,2.13.88,3.92,2.29,5.34s3.22,2.19,5.34,2.29h.15s.15,0,.15,0c2.07-.1,3.91-.9,5.31-2.29s2.19-3.22,2.29-5.34v-.15s0-.15,0-.15c-.1-2.07-.9-3.91-2.29-5.31s-3.29-2.21-5.38-2.26h-.04Z"/>
      </g>
      <g>
        <path class="cls-1" d="M366.54,89.34c-.74,0-1.43-.27-1.95-.77-.57-.52-.87-1.19-.87-1.96v-6.73c0-.77.32-1.48.91-1.99.53-.46,1.21-.7,1.91-.7h11.5c1.07,0,1.87-.17,2.24-.5.02-.02.47-.48.47-2.43v-4.97h-17.55c-.73-.07-1.31-.33-1.78-.8-.5-.5-.77-1.16-.77-1.92v-6.77c0-.74.26-1.38.77-1.89.51-.51,1.16-.77,1.92-.77h18.32c.63-.51,1.67-1.02,3.26-1.02h4.26c1.93,0,3.03.69,3.6,1.26.85.9,1.26,2.06,1.26,3.47v5.41c0,1.44-.44,2.61-1.3,3.47-.04.04-.08.08-.12.12v7.11c.04,4.31-.98,7.39-3.11,9.41-2.03,1.96-5.08,2.95-9.04,2.95h-13.94Z"/>
        <path class="cls-4" d="M389.18,57.64c1.16,0,2.01.3,2.54.83.53.56.82,1.35.82,2.41v5.41c0,1.06-.3,1.85-.86,2.41s-1.39.83-2.51.83h-4.26c-1.15,0-2.01-.26-2.54-.83-.53-.56-.83-1.35-.83-2.41v-5.41c0-1.06.3-1.85.89-2.41.56-.53,1.39-.83,2.48-.83h4.26M386.61,64.71h.92c.23,0,.36-.07.5-.2.1-.13.17-.3.17-.43v-.96c0-.13-.07-.3-.17-.43-.13-.17-.26-.23-.5-.23h-.92c-.23,0-.4.07-.5.23-.1.13-.17.3-.17.43v.96c0,.13.07.3.17.43.1.13.26.2.5.2M380.54,58.67v7.49c0,.59.07,1.16.23,1.65h-17.43c-.36-.03-.63-.13-.86-.36-.23-.23-.33-.53-.33-.86v-6.77c0-.33.1-.59.33-.83s.49-.33.86-.33h17.2M382.25,69.85c.69.46,1.65.69,2.81.69h6.07v6.44c.03,3.83-.83,6.6-2.64,8.32-1.75,1.68-4.42,2.54-8.01,2.54-.07,0-.14,0-.21,0h-13.73c-.36,0-.69-.13-.92-.36-.26-.23-.4-.5-.4-.86v-6.73c0-.33.13-.63.4-.86.23-.2.56-.33.92-.33h11.25c.08,0,.16,0,.25,0,1.52,0,2.56-.3,3.22-.86.66-.59.99-1.78.99-3.56v-4.42M389.18,54.64h-4.26c-1.68,0-2.9.48-3.74,1.02h-17.84c-1.46,0-2.43.66-2.98,1.21-.79.79-1.21,1.81-1.21,2.95v6.77c0,1.14.43,2.2,1.21,2.98.71.71,1.62,1.13,2.7,1.23h.14s.14.01.14.01h15.91v3.47c0,.68-.06,1.1-.11,1.32-.2.05-.54.1-1.1.1h-.19s-.03,0-.03,0h-11.28c-1.06,0-2.09.37-2.88,1.05-.94.82-1.44,1.93-1.44,3.13v6.73c0,1.19.47,2.25,1.35,3.05.79.75,1.84,1.17,2.97,1.17h13.94c4.37,0,7.76-1.14,10.09-3.38,2.4-2.26,3.6-5.81,3.56-10.5v-6.41s0-.07,0-.07c.71-.84,1.42-2.18,1.42-4.18v-5.41c0-2.25-.89-3.67-1.64-4.46l-.03-.03-.03-.03c-.78-.78-2.22-1.7-4.66-1.7h0Z"/>
      </g>
      <g>
        <path class="cls-1" d="M398.88,89.34c-.73,0-1.39-.25-1.95-.73-.6-.6-.88-1.24-.88-1.99v-6.73c0-.72.29-1.4.8-1.92l.07-.07.08-.06c.4-.3.83-.49,1.29-.58-.42-.08-.91-.28-1.38-.73-.39-.36-.84-.97-.84-1.92v-14.59c0-.97.42-1.59.8-1.95.51-.55,1.16-.84,1.89-.84h6.4c.74,0,1.41.3,1.92.87.5.52.77,1.18.77,1.92v14.59c0,.49-.14,1.22-.8,1.89-.39.39-.81.6-1.18.71h2.74c1.54,0,2.06-.36,2.19-.47.11-.1.53-.55.53-2.45v-14.32c0-.74.27-1.39.8-1.92.51-.51,1.15-.77,1.89-.77h6.37c.77,0,1.4.23,1.94.7l.07.07c.51.51.77,1.16.77,1.92v17.03c.07,4.23-.96,7.41-3.08,9.41-2.07,1.96-5.11,2.95-9.04,2.95h-12.18Z"/>
        <path class="cls-4" d="M405.19,58.73c.33,0,.59.13.83.4.23.23.36.53.36.89v14.59c0,.33-.13.59-.36.83s-.5.36-.83.36h-6.4c-.33,0-.59-.13-.83-.36-.26-.23-.36-.5-.36-.83v-14.59c0-.36.1-.66.36-.89.23-.26.5-.4.83-.4h6.4M420.4,58.76c.4,0,.69.1.96.33.23.23.33.5.33.86v17.03c.07,3.83-.79,6.6-2.61,8.32-1.78,1.68-4.45,2.54-8.01,2.54-.07,0-.14,0-.2,0h-11.98c-.4,0-.69-.13-.96-.36-.23-.23-.36-.5-.36-.86v-6.73c0-.33.13-.63.36-.86.26-.2.56-.33.96-.33h9.51c.08,0,.16,0,.24,0,1.49,0,2.56-.3,3.19-.86.69-.59,1.02-1.78,1.02-3.56v-14.32c0-.36.13-.63.36-.86.23-.23.5-.33.83-.33h6.37M405.19,55.73h-6.4c-1.13,0-2.17.45-2.96,1.28-.8.77-1.23,1.83-1.23,3.01v14.59c0,1,.32,1.89.93,2.61-.62.75-.96,1.69-.96,2.67v6.73c0,1.14.43,2.17,1.24,2.98l.07.07.07.06c.83.72,1.84,1.11,2.93,1.11h12.18c4.33,0,7.72-1.13,10.08-3.36,2.43-2.3,3.62-5.84,3.55-10.52v-17.01c0-1.46-.66-2.43-1.21-2.98l-.07-.07-.08-.07c-.81-.71-1.8-1.07-2.93-1.07h-6.37c-1.14,0-2.15.42-2.94,1.21-.81.81-1.24,1.84-1.24,2.98v14.32c0,.69-.06,1.1-.12,1.32-.11.03-.27.06-.49.08.09-.34.14-.7.14-1.07v-14.59c0-1.11-.41-2.15-1.17-2.94-.8-.87-1.86-1.35-3.02-1.35h0Z"/>
      </g>
      <g>
        <path class="cls-1" d="M429.37,78.78c-.74,0-1.39-.27-1.92-.8-.51-.51-.77-1.15-.77-1.89v-5.61c0-.72.25-1.39.7-1.91.52-.59,1.21-.91,1.99-.91h26.5c.83,0,1.57.32,2.08.91.47.54.74,1.22.74,1.91v5.61c0,.49-.14,1.22-.8,1.89-.52.52-1.23.8-2.02.8h-26.5Z"/>
        <path class="cls-4" d="M455.88,69.16c.4,0,.73.13.96.4.23.26.36.59.36.92v5.61c0,.33-.13.59-.36.83-.23.23-.56.36-.96.36h-26.5c-.36,0-.63-.13-.86-.36s-.33-.5-.33-.83v-5.61c0-.33.1-.66.33-.92.23-.26.5-.4.86-.4h26.5M455.88,66.16h-26.5c-1.22,0-2.3.49-3.12,1.42-.69.79-1.07,1.82-1.07,2.9v5.61c0,1.14.42,2.16,1.21,2.95s1.84,1.24,2.98,1.24h26.5c1.18,0,2.28-.44,3.08-1.24.81-.81,1.24-1.83,1.24-2.95v-5.61c0-1.05-.39-2.08-1.1-2.9-.81-.92-1.95-1.42-3.22-1.42h0Z"/>
      </g>
      <g>
        <path class="cls-1" d="M461.94,89.34h-.07c-.61-.07-1.17-.31-1.65-.72-.56-.42-.89-1.13-.89-2.06v-7.56c0-.77.28-1.46.8-1.95.51-.55,1.16-.84,1.89-.84h4.36c2.87,0,4.25-.47,4.9-.87.95-.6,1.73-1.42,2.36-2.49.56-.99.88-2.24.94-3.71l-11.93.03h-.07c-.75-.08-1.34-.36-1.77-.84-.49-.51-.76-1.18-.76-1.88v-6.77c0-.48.13-1.19.77-1.85.47-.52,1.15-.81,1.92-.81h17.2s.01-.01.02-.02c.37-.41,1.02-.87,2.08-.87h2.24c.69,0,1.32.23,1.81.66.52-.43,1.17-.66,1.89-.66h2.21c.83,0,1.57.32,2.09.91.48.55.73,1.2.73,1.88v4.95c0,.68-.25,1.33-.73,1.88-.51.59-1.25.91-2.09.91h-2.21c-.14,0-.28,0-.41-.03v2.5c-.17,2.2-.59,4.13-1.27,5.77,1.23.88,2.84,1.56,4.8,2.03l.17.04.15.08c.48.24,1.15.64,1.46,1.4.39.84.15,1.7-.07,2.28l-2.48,6.33c-.35.88-.84,1.45-1.46,1.72-.32.14-.66.2-1.06.2-.22,0-.47-.02-.75-.06-3.21-.68-6.02-1.92-8.41-3.7-1.21,1.15-2.7,2.07-4.45,2.76-2.23.9-4.34,1.36-6.26,1.36h-5.98Z"/>
        <path class="cls-4" d="M490.16,57.64c.4,0,.73.13.96.4s.36.56.36.89v4.95c0,.33-.13.63-.36.89-.23.26-.56.4-.96.4h-2.21c-.43,0-.76-.13-1.02-.4-.23-.26-.36-.56-.4-.89v-4.95c.03-.33.17-.63.4-.89.26-.26.59-.4,1.02-.4h2.21M484.26,57.64c.36,0,.69.13.92.4s.36.56.36.89v4.95c0,.33-.13.63-.36.89-.23.26-.56.4-.92.4h-2.24c-.43,0-.76-.13-.99-.4-.26-.26-.4-.56-.43-.89v-4.95c.03-.33.17-.63.43-.89.23-.26.56-.4.99-.4h2.24M479.57,58.53v5.21c.03.66.26,1.25.76,1.72.46.5,1.09.73,1.81.73h3.89v2.84c-.2,2.61-.76,4.69-1.62,6.3,1.49,1.39,3.56,2.41,6.3,3.07.4.2.66.4.76.66.13.26.1.63-.1,1.16l-2.48,6.3c-.2.5-.43.79-.66.89-.13.05-.28.08-.47.08-.15,0-.33-.02-.52-.05-3.4-.73-6.34-2.15-8.78-4.26-1.19,1.45-2.84,2.61-4.85,3.4-2.05.83-3.96,1.25-5.71,1.25h-5.91c-.33-.03-.59-.17-.83-.36-.26-.2-.36-.5-.36-.92v-7.56c0-.33.1-.66.36-.89.23-.26.5-.4.83-.4h4.36c2.61,0,4.49-.36,5.68-1.09,1.15-.73,2.11-1.72,2.87-3,.73-1.29,1.12-2.87,1.16-4.75,0-.33-.13-.63-.36-.86-.23-.2-.56-.33-.92-.33h-12.08c-.33-.03-.63-.13-.83-.36-.23-.23-.36-.53-.36-.86v-6.77c0-.33.13-.59.36-.83.2-.23.5-.33.83-.33h16.87M490.16,54.64h-2.21c-.68,0-1.31.13-1.89.4-.56-.26-1.17-.4-1.81-.4h-2.24c-1.02,0-1.95.31-2.69.89h-16.62c-1.2,0-2.26.45-3.02,1.28-.77.8-1.17,1.79-1.17,2.87v6.77c0,1.09.41,2.11,1.17,2.9.49.54,1.35,1.16,2.72,1.3l.15.02h10.3c-.13.54-.31,1.02-.54,1.44-.5.85-1.11,1.49-1.87,1.96-.29.17-1.33.63-4.08.63h-4.36c-1.12,0-2.17.45-2.95,1.28-.8.77-1.23,1.83-1.23,3.01v7.56c0,1.71.78,2.71,1.48,3.26.71.58,1.52.93,2.42,1.01h.15s.15.01.15.01h5.91c2.11,0,4.41-.5,6.83-1.47,1.49-.58,2.82-1.34,3.97-2.24,2.33,1.54,4.98,2.63,7.91,3.25l.09.02h.09c.35.07.67.09.97.09.6,0,1.15-.11,1.65-.32,1-.43,1.77-1.28,2.27-2.53l2.48-6.32c.2-.52.73-1.95.06-3.46-.57-1.34-1.77-1.94-2.17-2.14l-.31-.15-.33-.08c-1.3-.31-2.41-.72-3.33-1.21.48-1.5.79-3.18.93-5.02v-.11s0-.11,0-.11v-.86h1.13c1.27,0,2.41-.5,3.22-1.42.72-.82,1.1-1.82,1.1-2.87v-4.95c0-1.05-.38-2.04-1.1-2.87-.8-.92-1.94-1.42-3.22-1.42h0Z"/>
      </g>
    </g>
  </g>
</svg>