<?xml version="1.0" encoding="UTF-8"?>
<svg id="Capa_2" data-name="Capa 2" xmlns="http://www.w3.org/2000/svg" xmlns:xlink="http://www.w3.org/1999/xlink" viewBox="0 0 317.52 309.23">
  <defs>
    <style>
      .cls-1 {
        fill: #96e53d;
      }

      .cls-2 {
        fill: #f7f7fa;
      }

      .cls-3 {
        fill: #e3a127;
      }

      .cls-4 {
        fill: #7f7f7f;
      }

      .cls-5 {
        fill: #fceb0f;
      }

      .cls-6 {
        fill: #fafcff;
      }

      .cls-7 {
        fill: #1abbfd;
      }

      .cls-8 {
        fill: #ed780a;
      }

      .cls-9 {
        fill: #e39d12;
      }

      .cls-10 {
        fill: #f5f7fa;
      }

      .cls-11 {
        fill: #fff;
      }

      .cls-12 {
        fill: #386b80;
      }

      .cls-13 {
        fill: #352f27;
      }

      .cls-14 {
        fill: #fe7262;
      }

      .cls-15 {
        fill: #efbb12;
      }

      .cls-16 {
        fill: #e5007d;
      }

      .cls-17 {
        fill: none;
      }

      .cls-18 {
        fill: #009ee3;
      }

      .cls-19 {
        fill: #efbd25;
      }

      .cls-20 {
        fill: #efbd26;
      }

      .cls-21 {
        fill: #efbb13;
      }

      .cls-22 {
        clip-path: url(#clippath-1);
      }

      .cls-23 {
        fill: #4edca5;
      }

      .cls-24 {
        fill: #0ace83;
      }

      .cls-25 {
        fill: #84caeb;
      }

      .cls-26 {
        fill: #4c4c4c;
      }

      .cls-27 {
        fill: #e39c10;
      }

      .cls-28 {
        fill: #e9e9e7;
      }

      .cls-29 {
        fill: #26598a;
      }

      .cls-30 {
        clip-path: url(#clippath-3);
      }

      .cls-31 {
        fill: #f14e1e;
      }

      .cls-32 {
        fill: #ed6629;
      }

      .cls-33 {
        fill: #fa8a77;
      }

      .cls-34 {
        fill: #cfabfe;
      }

      .cls-35 {
        fill: #7dc7de;
      }

      .cls-36 {
        fill: #efb903;
      }

      .cls-37 {
        fill: #fdfdfc;
      }

      .cls-38 {
        fill: #3e3e3e;
      }

      .cls-39 {
        fill: #f29100;
      }

      .cls-40 {
        fill: #fefdfc;
      }

      .cls-41 {
        fill: #265e78;
      }

      .cls-42 {
        fill: #d17ab4;
      }

      .cls-43 {
        fill: #ebebeb;
      }

      .cls-44 {
        fill: #9999fc;
      }

      .cls-45 {
        fill: #c394fe;
      }

      .cls-46 {
        clip-path: url(#clippath-2);
      }

      .cls-47 {
        fill: #2966f0;
      }

      .cls-48 {
        fill: #e9eaea;
      }

      .cls-49 {
        fill: #3da6cf;
      }

      .cls-50 {
        fill: #fafafa;
      }

      .cls-51 {
        fill: #99e53d;
      }

      .cls-52 {
        fill: #ceacfe;
      }

      .cls-53 {
        fill: #e39e15;
      }

      .cls-54 {
        fill: #00005b;
      }

      .cls-55 {
        fill: #a68bf1;
      }

      .cls-56 {
        fill: #264de3;
      }

      .cls-57 {
        fill: #e34f26;
      }

      .cls-58 {
        fill: #a159fe;
      }

      .cls-59 {
        clip-path: url(#clippath);
      }

      .cls-60 {
        fill: #f57d5b;
      }

      .cls-61 {
        fill: #fdcfca;
      }

      .cls-62 {
        fill: #88b2fe;
      }
    </style>
    <clipPath id="clippath">
      <rect class="cls-17" y="0" width="317.52" height="309.23"/>
    </clipPath>
    <clipPath id="clippath-1">
      <rect class="cls-17" y="0" width="317.52" height="309.23"/>
    </clipPath>
    <clipPath id="clippath-2">
      <rect class="cls-17" y="0" width="317.52" height="309.23"/>
    </clipPath>
    <clipPath id="clippath-3">
      <rect class="cls-17" y="0" width="317.52" height="309.23"/>
    </clipPath>
  </defs>
  <g id="Capa_1-2" data-name="Capa 1">
    <path class="cls-18" d="M1.68,1.21h25.05v23.3H1.68V1.21ZM.37,25.66h27.61V0H.37v25.66Z"/>
    <g class="cls-59">
      <path class="cls-18" d="M9.7,13.99v4.05h-2.05V7.32c.42-.05.84-.14,1.26-.14,1.07-.01,2.15-.05,3.21.03,1.02.08,1.94.47,2.57,1.31.58.75.69,1.6.56,2.49-.21,1.53-1.22,2.39-2.71,2.79-.85.23-1.72.29-2.61.2-.07,0-.13,0-.24-.01M9.69,10.57c0,.54,0,1.08,0,1.61,0,.13,0,.26.18.25.59-.01,1.19.03,1.77-.07.78-.14,1.33-.59,1.51-1.37.28-1.2-.31-2.1-1.58-2.3-.54-.08-1.1,0-1.66-.01-.2,0-.24.1-.23.27,0,.54,0,1.07,0,1.61"/>
      <path class="cls-18" d="M15.95,16.24c.63.32,1.27.52,1.95.55.28.01.57-.02.84-.08.34-.08.59-.28.65-.64.06-.39-.08-.71-.44-.89-.44-.21-.9-.38-1.36-.57-.56-.23-1.08-.53-1.44-1.01-.75-1.02-.32-2.51.89-3.15.91-.48,1.88-.52,2.86-.33.39.07.78.21,1.19.33-.15.51-.28.96-.39,1.37-.53-.13-1.02-.27-1.52-.35-.26-.04-.54.01-.8.07-.35.08-.55.31-.58.65-.04.33.11.59.41.74.45.21.93.38,1.39.58.65.27,1.26.61,1.59,1.25.68,1.34-.01,2.8-1.57,3.26-1.29.39-2.57.28-3.82-.23-.17-.07-.23-.15-.17-.33.13-.39.23-.78.35-1.21"/>
    </g>
    <path class="cls-39" d="M1.44,36.83h25.13v23.4H1.44v-23.4ZM.17,61.3h27.61v-25.66H.17v25.66Z"/>
    <path class="cls-44" d="M165.31,36.83h25.13v23.4h-25.13v-23.4ZM164.04,61.3h27.61v-25.66h-27.61v25.66Z"/>
    <g class="cls-22">
      <path class="cls-39" d="M9.22,53.74h-2.12c1.23-3.66,2.44-7.27,3.64-10.84.09-.03.12-.04.15-.04q2.49-.15,3.25,2.13c.89,2.64,1.8,5.27,2.7,7.91.08.25.16.5.27.87-.67,0-1.27.04-1.86-.02-.19-.02-.42-.28-.5-.48-.26-.67-.48-1.35-.68-2.04-.12-.4-.3-.62-.8-.59-.8.04-1.61.04-2.41,0-.47-.02-.69.14-.81.57-.23.84-.53,1.66-.81,2.54M12.01,44.53c-.49,1.6-.95,3.09-1.42,4.6h2.89c-.49-1.54-.96-3.02-1.47-4.6"/>
    </g>
    <rect class="cls-39" x="18.02" y="45.89" width="1.97" height="7.85"/>
    <g class="cls-46">
      <path class="cls-39" d="M19.03,42.61c.69.02,1.15.46,1.12,1.1-.02.6-.56,1.06-1.22,1.01-.67-.05-1.06-.41-1.07-1.07-.01-.63.48-1.06,1.17-1.04"/>
    </g>
    <path class="cls-16" d="M1.35,71.23h25.03v22.61H1.35v-22.61ZM0,94.96h27.61v-24.91H0v24.91Z"/>
    <path class="cls-54" d="M165.1,71.23h25.03v22.61h-25.03v-22.61ZM163.75,94.96h27.61v-24.91h-27.61v24.91Z"/>
    <path class="cls-1" d="M1.35,105.8h25.03v22.61H1.35v-22.61ZM0,129.53h27.61v-24.91H0v24.91Z"/>
    <g class="cls-30">
      <path class="cls-16" d="M19.32,87.59h-1.63c-.02-.36-.04-.71-.06-1.1-.08.04-.13.05-.16.08-1.14,1.51-3.21,1.62-4.53.25-1.47-1.52-1.39-4.65.12-6.13,1.05-1.03,3.12-1.34,4.37.06v-4.26h1.89v11.1ZM17.49,83.71s-.03,0-.04,0c0-.24.01-.48,0-.72-.05-.89-.65-1.57-1.47-1.69-.8-.12-1.51.29-1.87,1.14-.39.9-.39,1.82,0,2.72.3.71.99,1.11,1.74,1.06.72-.05,1.32-.52,1.5-1.26.1-.4.11-.82.16-1.23"/>
      <path class="cls-16" d="M8.22,77.03c.6,0,1.17,0,1.74,0,.08,0,.17.01.28.02v10.51h-2.02v-10.53Z"/>
    </g>
    <path class="cls-5" d="M192.32,25.66h-28.93V.75h28.93v24.91ZM164.69,24.53h26.31V1.87h-26.31v22.66Z"/>
    <path class="cls-5" d="M177.36,12.73c1.21.42,1.63,1.26,1.79,2.26.37,2.38-1.68,3.51-3.65,3.7-1.42.13-2.86.06-4.29.08-.31,0-.3-.16-.3-.34,0-1.51,0-3.02,0-4.53v-6.35c.67,0,1.29-.02,1.92,0,1.15.04,2.31,0,3.43.18,1.52.23,2.28,1.1,2.34,2.42.02.34,0,.69-.03,1.04-.09.68-.42,1.23-1.21,1.54M172.97,17.17c.51,0,1,.02,1.49,0,.44-.03.88-.07,1.3-.17.73-.19,1.11-.69,1.13-1.39.02-.81-.29-1.35-1-1.57-.95-.3-1.94-.17-2.92-.18v3.33ZM172.97,12.12s.07.03.09.03c.7,0,1.39-.02,2.09.01.77.03,1.13-.29,1.28-.82.11-.39.12-.83.02-1.22-.07-.26-.35-.57-.63-.7-.9-.41-1.89-.24-2.85-.21v2.91Z"/>
    <path class="cls-5" d="M180.91,18.86c0-1.25,0-2.45,0-3.65-.01-1.31-.04-2.62-.08-3.94,0-.24.08-.33.34-.4,1.27-.34,2.56-.52,3.88-.6.31-.02.44.07.43.35-.02.38-.02.76,0,1.14.01.24-.08.32-.37.32-.54,0-1.09.04-1.63.07-.29.02-.41.16-.4.44.02,1.94,0,3.87,0,5.81q0,.46-.55.46c-.52,0-1.04,0-1.62,0"/>
    <path class="cls-8" d="M174.52,118.31c-.26.2-.51.39-.75.58-1.53,1.19-3.05,2.38-4.58,3.57-.43.34-.92.55-1.48.59-1.23.08-2.01-.91-1.58-2.01.17-.44.47-.79.86-1.07,1.65-1.2,3.3-2.4,4.96-3.6,1.61-1.17,3.22-2.33,4.82-3.5.04-.03.07-.06.14-.11h-.2c-1.74,0-3.48,0-5.22,0-.28,0-.56-.03-.82-.14-.64-.27-.89-.89-.56-1.48.29-.54.79-.83,1.39-.95.27-.05.56-.05.84-.05,3.46,0,6.93,0,10.39-.01h.13s.02-.02.03-.03c-.03-.02-.07-.03-.1-.05-1.13-.87-2.26-1.75-3.4-2.62-.32-.24-.53-.53-.45-.93.07-.35.31-.58.61-.75.62-.35,1.52-.31,2.11.12,2.81,2.07,5.64,4.12,8.46,6.18,1.48,1.07,2.57,2.42,3.1,4.12.84,2.69.28,5.13-1.57,7.29-1.48,1.72-3.42,2.74-5.71,3.15-2.29.41-4.5.15-6.59-.85-2.14-1.03-3.69-2.59-4.51-4.75-.26-.7-.42-1.42-.38-2.17,0-.16.03-.32.05-.52M183.55,122.82c2.22.01,3.84-.63,5-1.85,1.03-1.07,1.47-2.34,1.28-3.78-.15-1.14-.7-2.11-1.58-2.89-1.45-1.28-3.19-1.73-5.13-1.49-1.48.19-2.73.81-3.71,1.9-.92,1.02-1.34,2.21-1.2,3.55.13,1.25.74,2.29,1.72,3.12,1.16.98,2.54,1.43,3.62,1.44"/>
    <path class="cls-11" d="M183.55,122.82c-1.08-.01-2.46-.46-3.62-1.44-.98-.83-1.59-1.87-1.72-3.12-.14-1.34.28-2.53,1.2-3.55.98-1.08,2.23-1.71,3.71-1.9,1.94-.25,3.68.21,5.13,1.49.89.78,1.43,1.74,1.58,2.89.19,1.44-.26,2.71-1.28,3.78-1.16,1.21-2.77,1.86-5,1.85M183.77,120.76c1.12,0,1.9-.23,2.58-.69,1.72-1.16,1.91-3.34.41-4.73-1.45-1.34-3.93-1.35-5.4-.04-1.28,1.15-1.42,2.88-.31,4.15.77.89,1.79,1.28,2.72,1.3"/>
    <path class="cls-29" d="M183.77,120.76c-.93-.02-1.95-.41-2.72-1.3-1.11-1.28-.97-3.01.31-4.15,1.46-1.32,3.95-1.3,5.4.04,1.5,1.38,1.31,3.57-.41,4.73-.67.46-1.46.69-2.58.69"/>
    <path class="cls-49" d="M174.49,140.08h15.56c.59.47.79,1.11.74,1.9-.04.66.02,1.32.03,1.98v13.38h-16.34v-17.26ZM181.47,149.23c.4.05.82-.01,1.11.16.41.24.93.61,1.02,1.02.09.43-.17,1.28-.47,1.4-.49.2-1.42.18-1.64-.15-.7-1.06-1.54-.57-2.37-.65.13,1.64,1.18,2.6,2.89,2.76,1.84.17,3.45-.71,3.79-2.06.03-.13.03-.26.05-.39.2-1.42-.29-2.43-1.65-2.9,1.6-1.13,1.76-2.99.46-3.98-1.2-.91-3.37-.93-4.48.09-.49.45-.78,1.14-1.16,1.72.08.09.16.18.24.26.78-.1,1.66.47,2.28-.7.15-.27.93-.38,1.3-.21.27.12.53.84.45,1.2-.08.35-.56.65-.92.86-.24.14-.58.09-.9.12v1.47Z"/>
    <path class="cls-12" d="M174.48,157.34h16.34v-13.38c.41.02.82.04,1.24.06.07.08.14.16.21.24.02,5.17.04,10.34.05,15.5,0,1.58-.03,3.16-.05,4.74-.07.07-.13.13-.2.2h-18.49c-.58-.42-.76-1.01-.75-1.76.03-1.47,0-2.94,0-4.41.55-.4,1.11-.79,1.66-1.19M177.61,159.15c0,1.08-.03,2.07.02,3.05.01.2.33.38.5.57.08-.07.15-.14.23-.21v-1.55c.63.39-.07,1.99,1.33,1.65.13-.38.24-.71.43-1.28.04.61.06.95.08,1.27h.88v-3.48h-1.03c-.22.85-.43,1.67-.71,2.75-.27-1.11-.47-1.93-.68-2.76h-1.06ZM184.4,162.83l.17-.22c-.27-1-.51-2.02-.84-2.99-.08-.23-.46-.45-.72-.46-.21-.01-.57.23-.63.44-.31.99-.54,2-.81,3,.05.07.11.14.16.21.25-.17.57-.28.74-.51.39-.55.73-.53,1.16-.06.22.24.51.4.77.59M187.92,159.23l-.35-.28c-.39.34-.79.67-1.19,1.01q-.68-.85-1.42-.68c1.24,1.14.73,2.25-.07,3.3,1.11.61,1.04-.71,1.57-1.03.36.57.44,1.53,1.52,1.01-.84-1.06-1.36-2.17-.06-3.34"/>
    <path class="cls-35" d="M174.48,157.34c-.55.4-1.11.79-1.66,1.19-.56.31-1.12.61-1.73.95-.04-.21-.09-.32-.09-.44,0-5.38-.01-10.76.02-16.14,0-.31.28-.71.53-.9.9-.68,1.84-1.28,2.76-1.91h.18v17.26Z"/>
    <path class="cls-41" d="M192.27,164.5c0,.07-.01.14-.02.2h-.18c.07-.07.13-.14.2-.2"/>
    <path class="cls-6" d="M181.47,149.23v-1.47c.32-.04.66.02.9-.12.36-.21.85-.51.92-.86.08-.36-.18-1.08-.45-1.2-.37-.16-1.15-.06-1.3.22-.62,1.17-1.5.6-2.28.7-.08-.09-.16-.18-.24-.26.38-.58.67-1.28,1.16-1.72,1.11-1.02,3.28-1,4.48-.09,1.3.99,1.15,2.85-.46,3.98,1.36.48,1.85,1.49,1.65,2.9-.02.13-.02.26-.05.39-.33,1.35-1.95,2.23-3.79,2.06-1.71-.15-2.76-1.12-2.89-2.76.82.08,1.67-.41,2.37.65.22.34,1.16.35,1.64.16.3-.12.56-.97.47-1.4-.09-.41-.61-.78-1.02-1.02-.29-.17-.71-.11-1.11-.16"/>
    <path class="cls-50" d="M177.61,159.16h1.06c.21.83.41,1.65.68,2.76.28-1.08.49-1.9.71-2.75h1.03v3.48h-.88c-.02-.32-.04-.66-.08-1.27-.19.58-.3.9-.43,1.28-1.39.35-.7-1.26-1.33-1.64v1.55c-.07.07-.15.14-.23.2-.18-.19-.49-.37-.51-.57-.05-.98-.02-1.97-.02-3.05"/>
    <path class="cls-10" d="M184.4,162.83c-.26-.19-.55-.35-.77-.59-.43-.47-.76-.49-1.15.06-.17.24-.49.35-.75.51-.05-.07-.11-.14-.16-.21.26-1,.49-2.02.81-3,.07-.21.42-.46.63-.44.26.01.64.23.72.46.33.98.57,1.99.84,2.99l-.17.22Z"/>
    <path class="cls-2" d="M187.92,159.23c-1.3,1.17-.78,2.28.06,3.34-1.08.51-1.16-.44-1.52-1.01-.53.32-.46,1.64-1.57,1.03.8-1.04,1.31-2.15.07-3.3q.74-.18,1.42.68c.4-.34.79-.67,1.19-1.01l.35.28Z"/>
    <path class="cls-41" d="M192.06,144.02c.07.08.14.16.21.24-.07-.08-.14-.16-.21-.24"/>
    <path d="M184.35,187.14c-1.31-.8-2.5-1.78-3.96-2.33-.87-.32-1.71-.31-2.53.1-.48.24-.96.49-1.4.79-.69.46-1.02,1.13-.96,1.98.03.36-.18.61-.46.8-.82.52-1.71.88-2.64,1.11-.16.04-.33.08-.5.09-.31,0-.51-.26-.41-.56.02-.07.05-.15.09-.21,1.36-2.26,3.14-4.09,5.55-5.24,2.22-1.07,4.52-1.09,6.83-.32,1.04.35,2.06.78,3.09,1.19.34.14.61.09.92-.1.54-.35,1.09-.69,1.67-.96.76-.35,1.54-.32,2.28.11.76.44.94,1.22.46,1.96-.86,1.29-1.96,2.29-3.46,2.8-.81.27-1.59.21-2.36-.08-.27-.1-.54-.22-.81-.31-.06-.02-.17-.01-.22.03-1.07,1-2.02,2.11-2.95,3.25,0,0,0,.03,0,.04.43.03.86.04,1.28.09,1.61.21,3.12.74,4.58,1.42,3.51,1.64,6.06,4.25,7.71,7.74.19.4.32.83.43,1.26.11.43-.2.71-.62.59-.07-.02-.14-.04-.2-.07-1.24-.69-2.46-1.43-3.49-2.43-.16-.15-.31-.31-.44-.48-.28-.36-.36-.77-.19-1.2.29-.72,0-1.21-.44-1.59-.73-.63-1.58-.98-2.49-1.24-2.06-.57-4.16-.91-6.29-.99-.59-.02-1.17-.02-1.76-.03-.41,0-.73.14-1,.46-1.38,1.6-2.9,3.06-4.67,4.23-1.23.82-2.52,1.51-3.94,1.94-.59.18-1.2.25-1.83.23-.56-.02-.74-.23-.75-.78,0-.44.14-.83.37-1.2.76-1.26,1.74-2.34,2.91-3.23,2.54-1.96,5.3-3.5,8.42-4.38.16-.04.32-.16.42-.29,1.11-1.42,2.28-2.78,3.63-3.98.04-.03.07-.07.1-.11.02-.03.05-.07.08-.12h-.04ZM177.87,194.68c-.09.01-.12.02-.15.02-.86.25-1.73.48-2.58.76-1.19.41-2.3.98-3.32,1.72-.63.46-1.15,1.03-1.44,1.76-.07.18-.08.39-.07.59,0,.06.11.18.18.19.23.01.48.04.68-.03.52-.19,1.06-.41,1.54-.68,1.62-.92,3.03-2.12,4.33-3.45.27-.28.53-.56.84-.88h0ZM189.1,185.17c.6.24,1.48.23,2.04-.04.21-.1.39-.21.49-.43-.4-.44-2.15-.07-2.53.47"/>
    <path d="M185.36,182.31c-.51,0-1.01-.05-1.49-.27-1.02-.47-1.45-1.54-1.01-2.59.22-.54.58-.98,1.05-1.33.71-.52,1.44-.55,2.17-.06.82.56,1.36,1.34,1.66,2.29.07.22.12.45.14.68.05.48-.16.85-.63.99-.46.13-.94.18-1.41.26-.16.02-.32.02-.49.02h0Z"/>
    <path class="cls-11" d="M177.86,194.68c-.3.32-.56.6-.84.88-1.3,1.33-2.71,2.53-4.33,3.45-.49.27-1.02.49-1.54.68-.21.07-.46.05-.68.03-.07,0-.18-.12-.18-.19,0-.2,0-.41.08-.59.3-.73.81-1.3,1.44-1.76,1.02-.74,2.13-1.31,3.32-1.72.84-.29,1.72-.51,2.58-.76.03,0,.06-.01.15-.03h0Z"/>
    <path class="cls-11" d="M189.09,185.18c.38-.54,2.12-.91,2.53-.47-.09.22-.28.34-.49.43-.56.26-1.44.28-2.04.04"/>
    <path class="cls-44" d="M176.85,54.1s-.12-.09-.14-.14l-.88-2.56h-4.08l-.83,2.56s-.12.17-.14.17h-2.22s-.04-.04-.04-.06c-.03-.1.15-.58.2-.72,1.09-3.3,2.34-6.55,3.43-9.85l.1-.84h2.92l.11.05,3.99,11.11c.04.05.04.27-.03.27h-2.39ZM172.42,49.2h2.74l-1.39-4.55-1.35,4.55Z"/>
    <path class="cls-44" d="M187.03,53.71c-.04.26-.4.34-.62.4-1.24.37-3.03.41-4.23-.1-3.77-1.61-2.91-8.44,1.38-8.7,2.94-.18,4.35,1.65,4.2,4.47,0,.12-.03.46-.08.54-.03.05-.05.09-.11.09l-1,.06c-1.43-.13-2.86-.03-4.29-.06.04.32.14.64.3.91.78,1.35,3.09,1.08,4.34.63.03-.02.12.02.12.05v1.71h0ZM182.27,48.79h3.03s.14-.05.15-.09c.06-.81-.58-1.48-1.38-1.52-1.02-.06-1.67.63-1.8,1.61"/>
    <polygon class="cls-43" points="182.52 219.25 182.52 221.89 176.14 221.89 175.88 219.26 175.9 219.25 182.52 219.25"/>
    <path class="cls-56" d="M26.16,215.83l-1.93,21.6-8.61,2.42h-.11l-8.59-2.41-1.92-21.6h21.17ZM15.58,220.24h-.01s-6.62.01-6.62.01l-.02.02.25,2.63h6.39v2.71h-6.16s.01.22.02.25c.07.8.14,1.6.21,2.4h5.92s0,.01.01.01v4.22h-.01s-2.95-.78-2.95-.78c-.02-.25-.04-.49-.06-.73-.04-.44-.07-.88-.11-1.31,0-.02-.01-.07-.04-.07h-2.63l.38,4.17,5.43,1.5v2.74l7.01-1.95,1.65-18.45h-8.65v2.64h0Z"/>
    <path class="cls-47" d="M15.58,220.24v-2.64h8.65l-1.65,18.45-7,1.95v-2.74h0s5.43-1.52,5.43-1.52l1.03-11.65c.05-.58.13-1.17.17-1.76,0-.02,0-.08,0-.08h-6.53s-.06-.01-.09-.01h0Z"/>
    <path class="cls-11" d="M15.58,220.24s.06.01.09.01h6.53s0,.06,0,.08c-.03.58-.11,1.17-.17,1.76l-1.03,11.65-5.43,1.51s-.01-.02-.01-.04v-2.7h.01s2.94-.8,2.94-.8l.3-3.44h-3.09c-.05,0-.1.01-.16.01,0,0-.01-.01-.01-.01v-2.65h3.49l.25-2.7c-1.24-.01-2.49,0-3.73,0h-.01v-2.65h.01s.01,0,.01,0Z"/>
    <path class="cls-43" d="M15.58,235.25l-5.44-1.5-.38-4.17h2.63s.04.05.04.08c.04.43.07.88.11,1.31.02.25.04.49.06.73l2.96.8v2.7s.01.04.01.04h0Z"/>
    <polygon class="cls-43" points="15.56 220.25 15.56 222.89 9.18 222.89 8.93 220.26 8.94 220.25 15.56 220.25"/>
    <path class="cls-43" d="M15.56,225.6v2.65h-5.92c-.07-.8-.14-1.6-.21-2.4,0-.03-.05-.25-.02-.25h6.15Z"/>
    <path class="cls-47" d="M15.58,228.27c.06,0,.11-.01.16-.01h3.09l-.3,3.44-2.94.79v-4.22h0Z"/>
    <path class="cls-47" d="M15.58,222.89c1.24,0,2.49,0,3.73,0l-.25,2.7h-3.48v-2.71Z"/>
    <path class="cls-57" d="M25.8,180.41l-1.93,21.66-8.65,2.45h-.12l-8.6-2.45-1.94-21.66h21.24ZM15.21,184.83h-6.68l.04.75.66,7.3h5.98v4.23h-.05s-2.97-.79-2.97-.79l-.19-2.12h-2.64l.33,4.19,5.46,1.51h.05v2.73l7.02-1.93,1.65-18.55h-8.66v2.69h0Z"/>
    <path class="cls-32" d="M15.21,184.83v-2.69h8.66l-1.65,18.55-7.02,1.93v-2.73s.02-.02.03-.02c1.79-.5,3.59-.99,5.38-1.49.02-.23.05-.46.08-.7.21-2.23.34-4.46.58-6.68.03-.26.07-.53.11-.79l-.02-.02h-6.15v-2.73h6.4c.02-.19.03-.4.05-.6.04-.43.1-.87.14-1.31.02-.22.05-.49.05-.7,0-.01,0-.03,0-.03h-6.64Z"/>
    <polygon class="cls-43" points="15.16 184.83 15.16 187.47 11.45 187.47 11.68 190.2 15.16 190.2 15.16 192.88 9.23 192.88 8.57 185.58 8.53 184.83 15.16 184.83"/>
    <polygon class="cls-43" points="15.16 199.9 9.7 198.39 9.37 194.2 12.01 194.2 12.2 196.32 15.16 197.12 15.16 199.9"/>
    <polygon class="cls-32" points="15.21 192.88 18.44 192.88 18.46 192.9 18.12 196.32 15.21 197.11 15.21 192.88"/>
    <polygon class="cls-57" points="15.16 187.47 15.21 187.47 15.21 190.2 15.16 190.2 11.68 190.2 11.45 187.47 15.16 187.47"/>
    <path class="cls-51" d="M9.1,117.1c.83-.1,1.64-.13,2.39-.32.84-.22,1.16-.82,1.15-1.76-.01-.82-.4-1.42-1.21-1.6-.75-.16-1.53-.17-2.33-.24v3.93h0ZM6.56,111.21s.09-.1.14-.1c1.73.02,3.48-.09,5.18.13,1.94.25,3.15,1.73,3.22,3.52.09,2.19-.87,3.57-2.9,4.16-.49.15-1,.22-1.5.29-.52.07-1.04.1-1.64.16v3.54c-.72.05-1.38.1-2.04.12-.15,0-.31-.15-.46-.22v-11.6h0Z"/>
    <path class="cls-1" d="M17.58,116.02c-.4.04-.73.07-1.14.12v-2.2h1.11c.05-.55.16-1.07.15-1.59-.01-.6.23-.85.82-.88.53-.02,1.06-.11,1.63-.17v2.6h1.72v2.12c-.59.05-1.17.12-1.77.17,0,1.22-.02,2.5,0,3.78.02.84.29,1.06,1.15,1.06h.58c0,.54.02,1.03-.01,1.51,0,.12-.16.32-.27.33-.81.06-1.65.24-2.43.09-1.03-.21-1.51-1-1.53-2.11-.03-1.36-.01-2.72-.01-4.09v-.75h0Z"/>
    <path class="cls-5" d="M177.51,12.73c1.21.42,1.63,1.26,1.79,2.26.37,2.38-1.68,3.51-3.65,3.7-1.42.13-2.86.06-4.29.08-.31,0-.3-.16-.3-.34,0-1.51,0-3.02,0-4.53v-6.35c.67,0,1.29-.02,1.92,0,1.15.04,2.31,0,3.43.18,1.52.23,2.28,1.1,2.34,2.42.02.34,0,.69-.03,1.04-.09.68-.42,1.23-1.21,1.54M173.12,17.17c.51,0,1,.02,1.49,0,.44-.03.88-.07,1.3-.17.73-.19,1.11-.69,1.13-1.39.02-.81-.29-1.35-1-1.57-.95-.3-1.94-.17-2.92-.18v3.33ZM173.12,12.12s.07.03.09.03c.7,0,1.39-.02,2.09.01.77.03,1.13-.29,1.28-.82.11-.39.12-.83.02-1.22-.07-.26-.35-.57-.63-.7-.9-.41-1.89-.24-2.85-.21v2.91Z"/>
    <path class="cls-5" d="M181.05,18.86c0-1.25,0-2.45,0-3.65-.01-1.31-.04-2.62-.08-3.94,0-.24.08-.33.34-.4,1.27-.34,2.56-.52,3.88-.6.31-.02.44.07.43.35-.02.38-.02.76,0,1.14.01.24-.08.32-.37.32-.54,0-1.09.04-1.63.07-.29.02-.41.16-.4.44.02,1.94,0,3.87,0,5.81q0,.46-.55.46c-.52,0-1.04,0-1.62,0"/>
    <path class="cls-54" d="M172.38,84.79v3.88h-2.41l-.13-.13v-11.98c.07-.12.17-.12.29-.13,1.37-.16,4.8-.11,6.05.39,3.39,1.35,3.31,6.43-.12,7.64-.24.08-1.15.33-1.36.33h-2.32ZM172.38,82.59c1.17.21,3.51,0,3.71-1.48.12-.87-.07-1.71-.9-2.13-.11-.06-.67-.27-.75-.27h-2.07v3.88Z"/>
    <path class="cls-54" d="M185.91,79.22v2.53c-.99,0-2.23.15-2.96.89v6.03h-2.62l-.08-9.28h2.24l.34,1.18c.81-.82,1.89-1.46,3.09-1.35Z"/>
    <path class="cls-4" d="M181.58,211.7l-.06,5-4.48,2.61-.08.32,5.68,3.19,5.57-3.19-.08-.32-4.48-2.61-.06-5h.12l11.23,6.52.02,13.16c-.07.18-.12-.06-.13-.06v-13s-12.25,7.12-12.25,7.12l-12.37-7.12.12,12.87s-.1.3-.25.06l.03-13.03,11.35-6.52h.12Z"/>
    <path class="cls-26" d="M182.58,225.44v14.37h-.12l-11.25-6.5,4.29-2.6c.79.22,4.04,2.57,4.52,2.56.08,0,.21-.16.31-.21l.13.06v-6.14s-.13-.3-.13-.3l-5.58-3.23-.29.17v5.12c-1.31.91-2.72,1.69-4.12,2.44l-.12-12.87,12.37,7.12Z"/>
    <polygon class="cls-38" points="180.33 226.69 180.46 226.99 180.46 233.13 180.33 233.07 180.33 226.69"/>
    <path d="M194.83,231.32c-1.36-.85-2.85-1.58-4.25-2.37v-5.31l-.25-.13-5.4,3.06c-.07.06-.22.26-.22.32v6.25l.31.19,4.62-2.5,4.19,2.44-11.24,6.44v-14.25l12.25-7.12v13Z"/>
    <path class="cls-13" d="M42.82,15.83l1.88-6.3h1.13l1.88,6.3h-1.04l-.42-1.51h-1.98l-.42,1.51h-1.04ZM45.24,10.88l-.75,2.67h1.55l-.75-2.67h-.05Z"/>
    <path class="cls-13" d="M48.48,15.83v-6.3h1.51c1.01,0,1.77.28,2.26.84.49.56.74,1.33.74,2.31s-.25,1.75-.74,2.31c-.49.56-1.25.84-2.26.84h-1.51ZM49.43,14.95h.52c.73,0,1.26-.21,1.58-.62.32-.41.49-.96.49-1.65s-.16-1.24-.49-1.65c-.32-.41-.85-.62-1.58-.62h-.52v4.54Z"/>
    <path class="cls-13" d="M56.06,15.94c-.51,0-.95-.13-1.32-.4-.37-.26-.66-.64-.85-1.12-.2-.49-.3-1.06-.3-1.74s.1-1.25.3-1.74c.2-.49.48-.86.85-1.12.37-.26.81-.4,1.32-.4s.96.13,1.33.4c.37.26.65.64.85,1.12.2.49.3,1.07.3,1.74s-.1,1.25-.3,1.74c-.2.49-.48.86-.85,1.12-.37.26-.81.4-1.33.4ZM56.06,15.04c.45,0,.81-.2,1.09-.61.28-.41.41-.99.41-1.75s-.14-1.35-.41-1.75c-.28-.41-.64-.61-1.09-.61s-.82.2-1.09.61c-.27.4-.41.99-.41,1.75s.14,1.35.41,1.75c.27.4.64.61,1.09.61Z"/>
    <path class="cls-13" d="M59.27,15.83v-6.3h2.25c.65,0,1.15.15,1.48.45.34.3.5.69.5,1.16,0,.37-.1.66-.29.89-.19.23-.41.39-.67.49v.06c.3.11.56.28.77.53.22.24.32.56.32.96,0,.32-.08.62-.24.89-.16.27-.39.48-.7.63-.31.16-.68.23-1.12.23h-2.32ZM60.22,12.16h1.18c.37,0,.64-.07.84-.22.19-.15.29-.37.29-.67,0-.59-.38-.89-1.14-.89h-1.16v1.78ZM60.22,14.95h1.24c.39,0,.69-.08.9-.25s.31-.41.31-.74-.11-.56-.33-.73c-.22-.17-.52-.26-.9-.26h-1.22v1.98Z"/>
    <path class="cls-13" d="M64.88,15.83v-6.3h4.02v.85h-3.07v1.84h2.8v.85h-2.8v1.91h3.07v.85h-4.02Z"/>
    <path class="cls-13" d="M75.6,15.83v-6.3h2.13c.48,0,.88.08,1.19.25.31.17.54.39.69.68s.23.62.23.99-.08.7-.23.99-.38.51-.69.68-.71.25-1.19.25h-1.18v2.47h-.95ZM76.56,12.51h1.13c.41,0,.71-.1.9-.29s.28-.45.28-.77-.09-.57-.28-.77-.49-.29-.9-.29h-1.13v2.12Z"/>
    <path class="cls-13" d="M80.73,15.83v-6.3h.95v2.61h2.75v-2.61h.95v6.3h-.95v-2.82h-2.75v2.82h-.95Z"/>
    <path class="cls-13" d="M88.46,15.94c-.51,0-.95-.13-1.32-.4-.37-.26-.66-.64-.85-1.12-.2-.49-.3-1.06-.3-1.74s.1-1.25.3-1.74c.2-.49.48-.86.85-1.12.37-.26.81-.4,1.32-.4s.96.13,1.33.4c.37.26.65.64.85,1.12.2.49.3,1.07.3,1.74s-.1,1.25-.3,1.74c-.2.49-.48.86-.85,1.12-.37.26-.81.4-1.33.4ZM88.46,15.04c.45,0,.81-.2,1.09-.61.28-.41.41-.99.41-1.75s-.14-1.35-.41-1.75c-.28-.41-.64-.61-1.09-.61s-.82.2-1.09.61c-.27.4-.41.99-.41,1.75s.14,1.35.41,1.75c.27.4.64.61,1.09.61Z"/>
    <path class="cls-13" d="M93.39,15.83v-5.44h-1.69v-.85h4.34v.85h-1.69v5.44h-.95Z"/>
    <path class="cls-13" d="M99.26,15.94c-.51,0-.95-.13-1.32-.4-.37-.26-.66-.64-.85-1.12-.2-.49-.3-1.06-.3-1.74s.1-1.25.3-1.74c.2-.49.48-.86.85-1.12.37-.26.81-.4,1.32-.4s.96.13,1.33.4c.37.26.65.64.85,1.12.2.49.3,1.07.3,1.74s-.1,1.25-.3,1.74c-.2.49-.48.86-.85,1.12-.37.26-.81.4-1.33.4ZM99.26,15.04c.45,0,.81-.2,1.09-.61.28-.41.41-.99.41-1.75s-.14-1.35-.41-1.75c-.28-.41-.64-.61-1.09-.61s-.82.2-1.09.61c-.27.4-.41.99-.41,1.75s.14,1.35.41,1.75c.27.4.64.61,1.09.61Z"/>
    <path class="cls-13" d="M104.73,15.94c-.44,0-.83-.08-1.17-.24-.33-.16-.59-.39-.78-.69-.19-.3-.29-.66-.29-1.07h1.01c0,.32.12.59.33.81s.51.34.9.34c.35,0,.63-.08.83-.25.2-.17.3-.38.3-.64,0-.22-.06-.41-.18-.55-.12-.15-.3-.28-.54-.4-.25-.12-.56-.24-.95-.36-.52-.17-.91-.4-1.15-.7-.25-.3-.37-.66-.37-1.09,0-.5.18-.9.54-1.21.36-.31.85-.46,1.48-.46s1.1.16,1.48.47.56.75.58,1.31h-1.02c0-.15-.04-.3-.13-.44-.08-.14-.2-.26-.36-.35-.16-.09-.35-.14-.58-.14-.28,0-.52.06-.71.2-.19.14-.29.33-.29.57,0,.29.12.52.35.69.23.17.61.33,1.14.51.33.11.62.24.88.39.25.15.46.35.6.58.15.24.22.54.22.9,0,.34-.08.64-.25.91s-.41.49-.72.65c-.31.16-.69.24-1.14.24Z"/>
    <path class="cls-13" d="M107.73,15.83v-6.3h.95v2.61h2.75v-2.61h.95v6.3h-.95v-2.82h-2.75v2.82h-.95Z"/>
    <path class="cls-13" d="M115.46,15.94c-.51,0-.95-.13-1.32-.4-.37-.26-.66-.64-.85-1.12-.2-.49-.3-1.06-.3-1.74s.1-1.25.3-1.74c.2-.49.48-.86.85-1.12.37-.26.81-.4,1.32-.4s.96.13,1.33.4c.37.26.65.64.85,1.12.2.49.3,1.07.3,1.74s-.1,1.25-.3,1.74c-.2.49-.48.86-.85,1.12-.37.26-.81.4-1.33.4ZM115.46,15.04c.45,0,.81-.2,1.09-.61.28-.41.41-.99.41-1.75s-.14-1.35-.41-1.75c-.28-.41-.64-.61-1.09-.61s-.82.2-1.09.61c-.27.4-.41.99-.41,1.75s.14,1.35.41,1.75c.27.4.64.61,1.09.61Z"/>
    <path class="cls-13" d="M118.8,15.83v-6.3h2.13c.48,0,.88.08,1.19.25.31.17.54.39.69.68s.23.62.23.99-.08.7-.23.99-.38.51-.69.68-.71.25-1.19.25h-1.18v2.47h-.95ZM119.75,12.51h1.13c.41,0,.71-.1.9-.29s.28-.45.28-.77-.09-.57-.28-.77-.49-.29-.9-.29h-1.13v2.12Z"/>
    <path class="cls-13" d="M42.82,51.71l1.88-6.3h1.13l1.88,6.3h-1.04l-.42-1.51h-1.98l-.42,1.51h-1.04ZM45.24,46.76l-.75,2.67h1.55l-.75-2.67h-.05Z"/>
    <path class="cls-13" d="M48.48,51.71v-6.3h1.51c1.01,0,1.77.28,2.26.84.49.56.74,1.33.74,2.31s-.25,1.75-.74,2.31c-.49.56-1.25.84-2.26.84h-1.51ZM49.43,50.82h.52c.73,0,1.26-.21,1.58-.62.32-.41.49-.96.49-1.65s-.16-1.24-.49-1.65c-.32-.41-.85-.62-1.58-.62h-.52v4.54Z"/>
    <path class="cls-13" d="M56.06,51.81c-.51,0-.95-.13-1.32-.4-.37-.26-.66-.64-.85-1.12-.2-.49-.3-1.06-.3-1.74s.1-1.25.3-1.74c.2-.49.48-.86.85-1.12.37-.26.81-.4,1.32-.4s.96.13,1.33.4c.37.26.65.64.85,1.12.2.49.3,1.07.3,1.74s-.1,1.25-.3,1.74c-.2.49-.48.86-.85,1.12-.37.26-.81.4-1.33.4ZM56.06,50.91c.45,0,.81-.2,1.09-.61.28-.41.41-.99.41-1.75s-.14-1.35-.41-1.75c-.28-.41-.64-.61-1.09-.61s-.82.2-1.09.61c-.27.4-.41.99-.41,1.75s.14,1.35.41,1.75c.27.4.64.61,1.09.61Z"/>
    <path class="cls-13" d="M59.27,51.71v-6.3h2.25c.65,0,1.15.15,1.48.45.34.3.5.69.5,1.16,0,.37-.1.66-.29.89-.19.23-.41.39-.67.49v.06c.3.11.56.28.77.53.22.24.32.56.32.96,0,.32-.08.62-.24.89-.16.27-.39.48-.7.63-.31.16-.68.23-1.12.23h-2.32ZM60.22,48.03h1.18c.37,0,.64-.07.84-.22.19-.15.29-.37.29-.67,0-.59-.38-.89-1.14-.89h-1.16v1.78ZM60.22,50.82h1.24c.39,0,.69-.08.9-.25s.31-.41.31-.74-.11-.56-.33-.73c-.22-.17-.52-.26-.9-.26h-1.22v1.98Z"/>
    <path class="cls-13" d="M64.88,51.71v-6.3h4.02v.85h-3.07v1.84h2.8v.85h-2.8v1.91h3.07v.85h-4.02Z"/>
    <path class="cls-13" d="M75.82,51.71v-.85h1.37v-4.61h-1.35v-.85h3.65v.85h-1.35v4.61h1.37v.85h-3.69Z"/>
    <path class="cls-13" d="M81.09,51.71v-6.3h.95v5.44h3.1v.85h-4.06Z"/>
    <path class="cls-13" d="M86.49,51.71v-6.3h.95v5.44h3.1v.85h-4.06Z"/>
    <path class="cls-13" d="M93.84,51.81c-.43,0-.81-.09-1.14-.26-.33-.17-.6-.44-.79-.8-.19-.36-.29-.81-.29-1.35v-4h.95v4.05c0,.48.11.85.34,1.11.23.26.54.39.94.39s.71-.13.94-.39c.23-.26.34-.63.34-1.11v-4.05h.95v4c0,.55-.1,1-.3,1.35-.2.36-.47.62-.81.8-.34.17-.72.26-1.15.26Z"/>
    <path class="cls-13" d="M99.33,51.81c-.44,0-.83-.08-1.17-.24-.33-.16-.59-.39-.78-.69-.19-.3-.29-.66-.29-1.07h1.01c0,.32.12.59.33.81s.51.34.9.34c.35,0,.63-.08.83-.25.2-.17.3-.38.3-.64,0-.22-.06-.41-.18-.55-.12-.15-.3-.28-.54-.4-.25-.12-.56-.24-.95-.36-.52-.17-.91-.4-1.15-.7-.25-.3-.37-.66-.37-1.09,0-.5.18-.9.54-1.21.36-.31.85-.46,1.48-.46s1.1.16,1.48.47.56.75.58,1.31h-1.02c0-.15-.04-.3-.13-.44-.08-.14-.2-.26-.36-.35-.16-.09-.35-.14-.58-.14-.28,0-.52.06-.71.2-.19.14-.29.33-.29.57,0,.29.12.52.35.69.23.17.61.33,1.14.51.33.11.62.24.88.39.25.15.46.35.6.58.15.24.22.54.22.9,0,.34-.08.64-.25.91s-.41.49-.72.65c-.31.16-.69.24-1.14.24Z"/>
    <path class="cls-13" d="M104.19,51.71v-5.44h-1.69v-.85h4.34v.85h-1.69v5.44h-.95Z"/>
    <path class="cls-13" d="M108.04,51.71v-6.3h2.06c.49,0,.9.08,1.22.25.32.17.56.39.72.68.16.29.24.61.24.97,0,.41-.1.77-.31,1.08s-.52.54-.95.69l1.32,2.63h-1.11l-1.21-2.49h-1.04v2.49h-.95ZM108.99,48.35h1.05c.43,0,.75-.1.95-.29s.3-.44.3-.76-.1-.57-.3-.76c-.2-.19-.52-.28-.96-.28h-1.04v2.09Z"/>
    <path class="cls-13" d="M113.01,51.71l1.88-6.3h1.13l1.88,6.3h-1.04l-.42-1.51h-1.98l-.42,1.51h-1.04ZM115.44,46.76l-.75,2.67h1.55l-.75-2.67h-.05Z"/>
    <path class="cls-13" d="M120.39,51.71v-5.44h-1.69v-.85h4.34v.85h-1.69v5.44h-.95Z"/>
    <path class="cls-13" d="M126.26,51.81c-.51,0-.95-.13-1.32-.4-.37-.26-.66-.64-.85-1.12-.2-.49-.3-1.06-.3-1.74s.1-1.25.3-1.74c.2-.49.48-.86.85-1.12.37-.26.81-.4,1.32-.4s.96.13,1.33.4c.37.26.65.64.85,1.12.2.49.3,1.07.3,1.74s-.1,1.25-.3,1.74c-.2.49-.48.86-.85,1.12-.37.26-.81.4-1.33.4ZM126.26,50.91c.45,0,.81-.2,1.09-.61.28-.41.41-.99.41-1.75s-.14-1.35-.41-1.75c-.28-.41-.64-.61-1.09-.61s-.82.2-1.09.61c-.27.4-.41.99-.41,1.75s.14,1.35.41,1.75c.27.4.64.61,1.09.61Z"/>
    <path class="cls-13" d="M129.64,51.71v-6.3h2.06c.49,0,.9.08,1.22.25.32.17.56.39.72.68.16.29.24.61.24.97,0,.41-.1.77-.31,1.08s-.52.54-.95.69l1.32,2.63h-1.11l-1.21-2.49h-1.04v2.49h-.95ZM130.59,48.35h1.05c.43,0,.75-.1.95-.29s.3-.44.3-.76-.1-.57-.3-.76c-.2-.19-.52-.28-.96-.28h-1.04v2.09Z"/>
    <path class="cls-13" d="M42.82,85.28l1.88-6.3h1.13l1.88,6.3h-1.04l-.42-1.51h-1.98l-.42,1.51h-1.04ZM45.24,80.33l-.75,2.67h1.55l-.75-2.67h-.05Z"/>
    <path class="cls-13" d="M48.48,85.28v-6.3h1.51c1.01,0,1.77.28,2.26.84.49.56.74,1.33.74,2.31s-.25,1.75-.74,2.31c-.49.56-1.25.84-2.26.84h-1.51ZM49.43,84.4h.52c.73,0,1.26-.21,1.58-.62.32-.41.49-.96.49-1.65s-.16-1.24-.49-1.65c-.32-.41-.85-.62-1.58-.62h-.52v4.54Z"/>
    <path class="cls-13" d="M56.06,85.39c-.51,0-.95-.13-1.32-.4-.37-.26-.66-.64-.85-1.12-.2-.49-.3-1.06-.3-1.74s.1-1.25.3-1.74c.2-.49.48-.86.85-1.12.37-.26.81-.4,1.32-.4s.96.13,1.33.4c.37.26.65.64.85,1.12.2.49.3,1.07.3,1.74s-.1,1.25-.3,1.74c-.2.49-.48.86-.85,1.12-.37.26-.81.4-1.33.4ZM56.06,84.49c.45,0,.81-.2,1.09-.61.28-.41.41-.99.41-1.75s-.14-1.35-.41-1.75c-.28-.41-.64-.61-1.09-.61s-.82.2-1.09.61c-.27.4-.41.99-.41,1.75s.14,1.35.41,1.75c.27.4.64.61,1.09.61Z"/>
    <path class="cls-13" d="M59.27,85.28v-6.3h2.25c.65,0,1.15.15,1.48.45.34.3.5.69.5,1.16,0,.37-.1.66-.29.89-.19.23-.41.39-.67.49v.06c.3.11.56.28.77.53.22.24.32.56.32.96,0,.32-.08.62-.24.89-.16.27-.39.48-.7.63-.31.16-.68.23-1.12.23h-2.32ZM60.22,81.61h1.18c.37,0,.64-.07.84-.22.19-.15.29-.37.29-.67,0-.59-.38-.89-1.14-.89h-1.16v1.78ZM60.22,84.4h1.24c.39,0,.69-.08.9-.25s.31-.41.31-.74-.11-.56-.33-.73c-.22-.17-.52-.26-.9-.26h-1.22v1.98Z"/>
    <path class="cls-13" d="M64.88,85.28v-6.3h4.02v.85h-3.07v1.84h2.8v.85h-2.8v1.91h3.07v.85h-4.02Z"/>
    <path class="cls-13" d="M75.82,85.28v-.85h1.37v-4.61h-1.35v-.85h3.65v.85h-1.35v4.61h1.37v.85h-3.69Z"/>
    <path class="cls-13" d="M80.82,85.28v-6.3h.94l2.64,4.62v-4.62h.91v6.3h-.94l-2.64-4.62v4.62h-.91Z"/>
    <path class="cls-13" d="M86.28,85.28v-6.3h1.51c1.01,0,1.77.28,2.26.84.49.56.74,1.33.74,2.31s-.25,1.75-.74,2.31c-.49.56-1.25.84-2.26.84h-1.51ZM87.23,84.4h.52c.73,0,1.26-.21,1.58-.62.32-.41.49-.96.49-1.65s-.16-1.24-.49-1.65c-.32-.41-.85-.62-1.58-.62h-.52v4.54Z"/>
    <path class="cls-13" d="M91.88,85.28v-6.3h4.02v.85h-3.07v1.84h2.8v.85h-2.8v1.91h3.07v.85h-4.02Z"/>
    <path class="cls-13" d="M99.33,85.39c-.44,0-.83-.08-1.17-.24-.33-.16-.59-.39-.78-.69-.19-.3-.29-.66-.29-1.07h1.01c0,.32.12.59.33.81s.51.34.9.34c.35,0,.63-.08.83-.25.2-.17.3-.38.3-.64,0-.22-.06-.41-.18-.55-.12-.15-.3-.28-.54-.4-.25-.12-.56-.24-.95-.36-.52-.17-.91-.4-1.15-.7-.25-.3-.37-.66-.37-1.09,0-.5.18-.9.54-1.21.36-.31.85-.46,1.48-.46s1.1.16,1.48.47.56.75.58,1.31h-1.02c0-.15-.04-.3-.13-.44-.08-.14-.2-.26-.36-.35-.16-.09-.35-.14-.58-.14-.28,0-.52.06-.71.2-.19.14-.29.33-.29.57,0,.29.12.52.35.69.23.17.61.33,1.14.51.33.11.62.24.88.39.25.15.46.35.6.58.15.24.22.54.22.9,0,.34-.08.64-.25.91s-.41.49-.72.65c-.31.16-.69.24-1.14.24Z"/>
    <path class="cls-13" d="M102.82,85.28v-.85h1.37v-4.61h-1.35v-.85h3.65v.85h-1.35v4.61h1.37v.85h-3.69Z"/>
    <path class="cls-13" d="M109.98,85.39c-.47,0-.88-.13-1.23-.4-.35-.27-.63-.64-.83-1.13-.2-.49-.3-1.06-.3-1.73s.1-1.22.3-1.71c.2-.49.48-.87.85-1.14.37-.27.81-.41,1.33-.41.62,0,1.13.17,1.51.51.38.34.61.83.7,1.45h-1.04c-.06-.32-.19-.58-.39-.77-.2-.19-.46-.29-.78-.29-.49,0-.86.21-1.12.63-.26.42-.39,1-.39,1.73s.14,1.35.41,1.75c.27.4.63.61,1.07.61.29,0,.54-.09.73-.26.19-.17.34-.4.44-.67.1-.27.17-.56.19-.87h-1.32v-.79h2.29v3.38h-.88l-.06-.85h-.05c-.12.28-.29.5-.5.68-.22.18-.52.27-.91.27Z"/>
    <path class="cls-13" d="M113.22,85.28v-6.3h.94l2.64,4.62v-4.62h.91v6.3h-.94l-2.64-4.62v4.62h-.91Z"/>
    <path class="cls-13" d="M42.82,114.91l1.88-6.3h1.13l1.88,6.3h-1.04l-.42-1.51h-1.98l-.42,1.51h-1.04ZM45.24,109.96l-.75,2.67h1.55l-.75-2.67h-.05Z"/>
    <path class="cls-13" d="M48.48,114.91v-6.3h1.51c1.01,0,1.77.28,2.26.84.49.56.74,1.33.74,2.31s-.25,1.75-.74,2.31c-.49.56-1.25.84-2.26.84h-1.51ZM49.43,114.03h.52c.73,0,1.26-.21,1.58-.62.32-.41.49-.96.49-1.65s-.16-1.24-.49-1.65c-.32-.41-.85-.62-1.58-.62h-.52v4.54Z"/>
    <path class="cls-13" d="M56.06,115.02c-.51,0-.95-.13-1.32-.4-.37-.26-.66-.64-.85-1.12-.2-.49-.3-1.06-.3-1.74s.1-1.25.3-1.74c.2-.49.48-.86.85-1.12.37-.26.81-.4,1.32-.4s.96.13,1.33.4c.37.26.65.64.85,1.12.2.49.3,1.07.3,1.74s-.1,1.25-.3,1.74c-.2.49-.48.86-.85,1.12-.37.26-.81.4-1.33.4ZM56.06,114.12c.45,0,.81-.2,1.09-.61.28-.41.41-.99.41-1.75s-.14-1.35-.41-1.75c-.28-.41-.64-.61-1.09-.61s-.82.2-1.09.61c-.27.4-.41.99-.41,1.75s.14,1.35.41,1.75c.27.4.64.61,1.09.61Z"/>
    <path class="cls-13" d="M59.27,114.91v-6.3h2.25c.65,0,1.15.15,1.48.45.34.3.5.69.5,1.16,0,.37-.1.66-.29.89-.19.23-.41.39-.67.49v.06c.3.11.56.28.77.53.22.24.32.56.32.96,0,.32-.08.62-.24.89-.16.27-.39.48-.7.63-.31.16-.68.23-1.12.23h-2.32ZM60.22,111.24h1.18c.37,0,.64-.07.84-.22.19-.15.29-.37.29-.67,0-.59-.38-.89-1.14-.89h-1.16v1.78ZM60.22,114.03h1.24c.39,0,.69-.08.9-.25s.31-.41.31-.74-.11-.56-.33-.73c-.22-.17-.52-.26-.9-.26h-1.22v1.98Z"/>
    <path class="cls-13" d="M64.88,114.91v-6.3h4.02v.85h-3.07v1.84h2.8v.85h-2.8v1.91h3.07v.85h-4.02Z"/>
    <path class="cls-13" d="M77.73,115.02c-.44,0-.83-.08-1.17-.24-.33-.16-.59-.39-.78-.69-.19-.3-.29-.66-.29-1.07h1.01c0,.32.12.59.33.81s.51.34.9.34c.35,0,.63-.08.83-.25.2-.17.3-.38.3-.64,0-.22-.06-.41-.18-.55-.12-.15-.3-.28-.54-.4-.25-.12-.56-.24-.95-.36-.52-.17-.91-.4-1.15-.7-.25-.3-.37-.66-.37-1.09,0-.5.18-.9.54-1.21.36-.31.85-.46,1.48-.46s1.1.16,1.48.47.56.75.58,1.31h-1.02c0-.15-.04-.3-.13-.44-.08-.14-.2-.26-.36-.35-.16-.09-.35-.14-.58-.14-.28,0-.52.06-.71.2-.19.14-.29.33-.29.57,0,.29.12.52.35.69.23.17.61.33,1.14.51.33.11.62.24.88.39.25.15.46.35.6.58.15.24.22.54.22.9,0,.34-.08.64-.25.91s-.41.49-.72.65c-.31.16-.69.24-1.14.24Z"/>
    <path class="cls-13" d="M83.04,115.02c-.43,0-.81-.09-1.14-.26-.33-.17-.6-.44-.79-.8-.19-.36-.29-.81-.29-1.35v-4h.95v4.05c0,.48.11.85.34,1.11.23.26.54.39.94.39s.71-.13.94-.39c.23-.26.34-.63.34-1.11v-4.05h.95v4c0,.55-.1,1-.3,1.35-.2.36-.47.62-.81.8-.34.17-.72.26-1.15.26Z"/>
    <path class="cls-13" d="M86.27,114.91v-6.3h2.25c.65,0,1.15.15,1.48.45.34.3.5.69.5,1.16,0,.37-.1.66-.29.89-.19.23-.41.39-.67.49v.06c.3.11.56.28.77.53.22.24.32.56.32.96,0,.32-.08.62-.24.89-.16.27-.39.48-.7.63-.31.16-.68.23-1.12.23h-2.32ZM87.22,111.24h1.18c.37,0,.64-.07.84-.22.19-.15.29-.37.29-.67,0-.59-.38-.89-1.14-.89h-1.16v1.78ZM87.22,114.03h1.24c.39,0,.69-.08.9-.25s.31-.41.31-.74-.11-.56-.33-.73c-.22-.17-.52-.26-.9-.26h-1.22v1.98Z"/>
    <path class="cls-13" d="M93.93,115.02c-.44,0-.83-.08-1.17-.24-.33-.16-.59-.39-.78-.69-.19-.3-.29-.66-.29-1.07h1.01c0,.32.12.59.33.81s.51.34.9.34c.35,0,.63-.08.83-.25.2-.17.3-.38.3-.64,0-.22-.06-.41-.18-.55-.12-.15-.3-.28-.54-.4-.25-.12-.56-.24-.95-.36-.52-.17-.91-.4-1.15-.7-.25-.3-.37-.66-.37-1.09,0-.5.18-.9.54-1.21.36-.31.85-.46,1.48-.46s1.1.16,1.48.47.56.75.58,1.31h-1.02c0-.15-.04-.3-.13-.44-.08-.14-.2-.26-.36-.35-.16-.09-.35-.14-.58-.14-.28,0-.52.06-.71.2-.19.14-.29.33-.29.57,0,.29.12.52.35.69.23.17.61.33,1.14.51.33.11.62.24.88.39.25.15.46.35.6.58.15.24.22.54.22.9,0,.34-.08.64-.25.91s-.41.49-.72.65c-.31.16-.69.24-1.14.24Z"/>
    <path class="cls-13" d="M98.79,114.91v-5.44h-1.69v-.85h4.34v.85h-1.69v5.44h-.95Z"/>
    <path class="cls-13" d="M102.21,114.91l1.88-6.3h1.13l1.88,6.3h-1.04l-.42-1.51h-1.98l-.42,1.51h-1.04ZM104.64,109.96l-.75,2.67h1.55l-.75-2.67h-.05Z"/>
    <path class="cls-13" d="M107.82,114.91v-6.3h.94l2.64,4.62v-4.62h.91v6.3h-.94l-2.64-4.62v4.62h-.91Z"/>
    <path class="cls-13" d="M115.48,115.02c-.53,0-.98-.13-1.35-.4s-.65-.65-.85-1.14c-.19-.49-.29-1.06-.29-1.71s.1-1.23.29-1.71c.19-.49.48-.87.85-1.14s.82-.41,1.34-.41c.68,0,1.22.18,1.62.55s.64.87.7,1.5h-1.05c-.05-.33-.19-.6-.4-.82-.21-.22-.51-.33-.88-.33-.47,0-.84.21-1.11.63-.26.42-.4,1-.4,1.74s.13,1.31.4,1.72c.26.42.63.63,1.11.63.38,0,.68-.1.88-.3.2-.2.34-.47.4-.8h1.05c-.1.62-.34,1.11-.73,1.46-.39.36-.92.54-1.59.54Z"/>
    <path class="cls-13" d="M118.88,114.91v-6.3h4.02v.85h-3.07v1.84h2.8v.85h-2.8v1.91h3.07v.85h-4.02Z"/>
    <path class="cls-13" d="M43.2,125.71v-6.3h2.13c.48,0,.88.08,1.19.25.31.17.54.39.69.68s.23.62.23.99-.08.7-.23.99-.38.51-.69.68-.71.25-1.19.25h-1.18v2.47h-.95ZM44.16,122.39h1.13c.41,0,.71-.1.9-.29s.28-.45.28-.77-.09-.57-.28-.77-.49-.29-.9-.29h-1.13v2.12Z"/>
    <path class="cls-13" d="M48.22,125.71l1.88-6.3h1.13l1.88,6.3h-1.04l-.42-1.51h-1.98l-.42,1.51h-1.04ZM50.64,120.76l-.75,2.67h1.55l-.75-2.67h-.05Z"/>
    <path class="cls-13" d="M54.22,125.71v-.85h1.37v-4.61h-1.35v-.85h3.65v.85h-1.35v4.61h1.37v.85h-3.69Z"/>
    <path class="cls-13" d="M59.22,125.71v-6.3h.94l2.64,4.62v-4.62h.91v6.3h-.94l-2.64-4.62v4.62h-.91Z"/>
    <path class="cls-13" d="M66.39,125.71v-5.44h-1.69v-.85h4.34v.85h-1.69v5.44h-.95Z"/>
    <path class="cls-13" d="M70.28,125.71v-6.3h4.02v.85h-3.07v1.84h2.8v.85h-2.8v1.91h3.07v.85h-4.02Z"/>
    <path class="cls-13" d="M75.64,125.71v-6.3h2.06c.49,0,.9.08,1.22.25.32.17.56.39.72.68.16.29.24.61.24.97,0,.41-.1.77-.31,1.08s-.52.54-.95.69l1.32,2.63h-1.11l-1.21-2.49h-1.04v2.49h-.95ZM76.59,122.35h1.05c.43,0,.75-.1.95-.29s.3-.44.3-.76-.1-.57-.3-.76c-.2-.19-.52-.28-.96-.28h-1.04v2.09Z"/>
    <path class="cls-13" d="M43.32,156.49v-6.3h4.04v.89h-3.09v1.93h2.59v.84h-2.59v2.65h-.95Z"/>
    <path class="cls-13" d="M48.82,156.49v-.85h1.37v-4.61h-1.35v-.85h3.65v.85h-1.35v4.61h1.37v.85h-3.69Z"/>
    <path class="cls-13" d="M55.98,156.6c-.47,0-.88-.13-1.23-.4-.35-.27-.63-.64-.83-1.13-.2-.49-.3-1.06-.3-1.73s.1-1.22.3-1.71c.2-.49.48-.87.85-1.14.37-.27.81-.41,1.33-.41.62,0,1.13.17,1.51.51.38.34.61.83.7,1.45h-1.04c-.06-.32-.19-.58-.39-.77-.2-.19-.46-.29-.78-.29-.49,0-.86.21-1.12.63-.26.42-.39,1-.39,1.73s.14,1.35.41,1.75c.27.4.63.61,1.07.61.29,0,.54-.09.73-.26.19-.17.34-.4.44-.67.1-.27.17-.56.19-.87h-1.32v-.79h2.29v3.38h-.88l-.06-.85h-.05c-.12.28-.29.5-.5.68-.22.18-.52.27-.91.27Z"/>
    <path class="cls-13" d="M59.15,156.49v-6.3h1.01l1.31,2.84,1.3-2.84h1.01v6.3h-.91v-4.48l-1.03,2.25h-.76l-1.03-2.24v4.47h-.91Z"/>
    <path class="cls-13" d="M64.42,156.49l1.88-6.3h1.13l1.88,6.3h-1.04l-.42-1.51h-1.98l-.42,1.51h-1.04ZM66.84,151.54l-.75,2.67h1.55l-.75-2.67h-.05Z"/>
    <path class="cls-13" d="M42.93,195.7v-6.3h.95v2.61h2.75v-2.61h.95v6.3h-.95v-2.82h-2.75v2.82h-.95Z"/>
    <path class="cls-13" d="M50.19,195.7v-5.45h-1.69v-.85h4.34v.85h-1.69v5.45h-.95Z"/>
    <path class="cls-13" d="M53.75,195.7v-6.3h1.01l1.31,2.84,1.3-2.84h1.01v6.3h-.91v-4.48l-1.03,2.25h-.76l-1.03-2.24v4.47h-.91Z"/>
    <path class="cls-13" d="M59.49,195.7v-6.3h.95v5.44h3.1v.86h-4.06Z"/>
    <path class="cls-13" d="M45.28,230.63c-.53,0-.98-.13-1.35-.4-.37-.27-.65-.65-.85-1.14s-.29-1.06-.29-1.71.1-1.22.29-1.71.48-.87.85-1.14c.37-.27.82-.41,1.34-.41.68,0,1.22.18,1.62.55s.64.87.7,1.5h-1.05c-.05-.33-.19-.6-.4-.82s-.51-.33-.88-.33c-.47,0-.84.21-1.11.63-.26.42-.4,1-.4,1.74s.13,1.31.4,1.72c.26.42.63.63,1.11.63.38,0,.68-.1.88-.3s.34-.47.4-.8h1.05c-.1.62-.34,1.11-.73,1.46-.39.36-.92.54-1.59.54Z"/>
    <path class="cls-13" d="M50.73,230.63c-.44,0-.83-.08-1.17-.24-.33-.16-.59-.39-.78-.69s-.29-.66-.29-1.07h1.01c0,.32.12.59.33.81.21.23.51.34.9.34.35,0,.63-.08.83-.25.2-.17.3-.38.3-.64,0-.22-.06-.41-.18-.55-.12-.15-.3-.28-.54-.4-.25-.12-.56-.24-.95-.36-.52-.17-.91-.4-1.15-.7-.25-.3-.37-.66-.37-1.09,0-.5.18-.9.54-1.21.36-.31.85-.46,1.48-.46s1.1.16,1.48.47c.37.31.56.75.58,1.31h-1.02c0-.15-.04-.3-.13-.44-.08-.14-.2-.26-.36-.35-.16-.09-.35-.14-.58-.14-.28,0-.52.06-.71.2-.19.14-.29.33-.29.57,0,.29.12.52.35.69.23.17.61.33,1.14.51.33.11.62.24.88.39.25.15.46.35.6.58.15.24.22.54.22.9,0,.34-.08.64-.25.91-.17.27-.41.49-.72.65-.31.16-.69.24-1.14.24Z"/>
    <path class="cls-13" d="M56.13,230.63c-.44,0-.83-.08-1.17-.24-.33-.16-.59-.39-.78-.69s-.29-.66-.29-1.07h1.01c0,.32.12.59.33.81.21.23.51.34.9.34.35,0,.63-.08.83-.25.2-.17.3-.38.3-.64,0-.22-.06-.41-.18-.55-.12-.15-.3-.28-.54-.4-.25-.12-.56-.24-.95-.36-.52-.17-.91-.4-1.15-.7-.25-.3-.37-.66-.37-1.09,0-.5.18-.9.54-1.21.36-.31.85-.46,1.48-.46s1.1.16,1.48.47c.37.31.56.75.58,1.31h-1.02c0-.15-.04-.3-.13-.44-.08-.14-.2-.26-.36-.35-.16-.09-.35-.14-.58-.14-.28,0-.52.06-.71.2-.19.14-.29.33-.29.57,0,.29.12.52.35.69.23.17.61.33,1.14.51.33.11.62.24.88.39.25.15.46.35.6.58.15.24.22.54.22.9,0,.34-.08.64-.25.91-.17.27-.41.49-.72.65-.31.16-.69.24-1.14.24Z"/>
    <path class="cls-13" d="M45.34,265.97c-.65,0-1.15-.18-1.49-.54-.35-.36-.52-.86-.52-1.5h.96c0,.33.09.61.25.84.16.23.43.34.79.34s.61-.11.76-.33c.15-.22.23-.5.23-.83v-4.38h.95v4.38c0,.65-.17,1.15-.51,1.5-.34.35-.82.53-1.42.53Z"/>
    <path class="cls-13" d="M48.22,265.86l1.88-6.3h1.13l1.88,6.3h-1.04l-.42-1.51h-1.98l-.42,1.51h-1.04ZM50.64,260.91l-.75,2.67h1.55l-.75-2.67h-.05Z"/>
    <path class="cls-13" d="M55.5,265.86l-1.94-6.3h1.03l1.49,5.04,1.48-5.04h1.03l-1.94,6.3h-1.13Z"/>
    <path class="cls-13" d="M59.02,265.86l1.88-6.3h1.13l1.88,6.3h-1.04l-.42-1.51h-1.98l-.42,1.51h-1.04ZM61.44,260.91l-.75,2.67h1.55l-.75-2.67h-.05Z"/>
    <path class="cls-13" d="M66.93,265.97c-.44,0-.83-.08-1.17-.24-.33-.16-.59-.39-.78-.69s-.29-.66-.29-1.07h1.01c0,.32.12.59.33.81.21.23.51.34.9.34.35,0,.63-.08.83-.25.2-.17.3-.38.3-.64,0-.22-.06-.41-.18-.55-.12-.15-.3-.28-.54-.4-.25-.12-.56-.24-.95-.36-.52-.17-.91-.4-1.15-.7-.25-.3-.37-.66-.37-1.09,0-.5.18-.9.54-1.21.36-.31.85-.46,1.48-.46s1.1.16,1.48.47c.37.31.56.75.58,1.31h-1.02c0-.15-.04-.3-.13-.44-.08-.14-.2-.26-.36-.35-.16-.09-.35-.14-.58-.14-.28,0-.52.06-.71.2-.19.14-.29.33-.29.57,0,.29.12.52.35.69.23.17.61.33,1.14.51.33.11.62.24.88.39.25.15.46.35.6.58.15.24.22.54.22.9,0,.34-.08.64-.25.91-.17.27-.41.49-.72.65-.31.16-.69.24-1.14.24Z"/>
    <path class="cls-13" d="M72.28,265.97c-.53,0-.98-.13-1.35-.4-.37-.27-.65-.65-.85-1.14s-.29-1.06-.29-1.71.1-1.22.29-1.71.48-.87.85-1.14c.37-.27.82-.41,1.34-.41.68,0,1.22.18,1.62.55s.64.87.7,1.5h-1.05c-.05-.33-.19-.6-.4-.82s-.51-.33-.88-.33c-.47,0-.84.21-1.11.63-.26.42-.4,1-.4,1.74s.13,1.31.4,1.72c.26.42.63.63,1.11.63.38,0,.68-.1.88-.3s.34-.47.4-.8h1.05c-.1.62-.34,1.11-.73,1.46-.39.36-.92.54-1.59.54Z"/>
    <path class="cls-13" d="M75.64,265.86v-6.3h2.06c.49,0,.9.08,1.22.25.32.17.56.39.72.68.16.29.24.61.24.97,0,.41-.1.77-.31,1.08-.21.31-.52.54-.95.69l1.32,2.63h-1.11l-1.21-2.49h-1.04v2.49h-.95ZM76.59,262.5h1.05c.43,0,.75-.1.95-.29.2-.19.3-.44.3-.76s-.1-.57-.3-.76c-.2-.19-.52-.28-.96-.28h-1.04v2.09Z"/>
    <path class="cls-13" d="M81.22,265.86v-.85h1.37v-4.61h-1.35v-.85h3.65v.85h-1.35v4.61h1.37v.85h-3.69Z"/>
    <path class="cls-13" d="M86.4,265.86v-6.3h2.13c.48,0,.88.08,1.19.25s.54.39.69.68.23.62.23.99-.08.7-.23.99-.38.51-.69.68-.71.25-1.19.25h-1.18v2.47h-.95ZM87.36,262.54h1.13c.41,0,.71-.1.9-.29.19-.19.28-.45.28-.77s-.09-.58-.28-.77c-.19-.2-.49-.29-.9-.29h-1.13v2.12Z"/>
    <path class="cls-13" d="M93.39,265.86v-5.45h-1.69v-.85h4.34v.85h-1.69v5.45h-.95Z"/>
    <path class="cls-13" d="M206.52,15.83l1.88-6.3h1.13l1.88,6.3h-1.04l-.42-1.51h-1.98l-.42,1.51h-1.04ZM208.94,10.88l-.75,2.67h1.55l-.75-2.67h-.05Z"/>
    <path class="cls-13" d="M212.18,15.83v-6.3h1.51c1.01,0,1.77.28,2.26.84.49.56.74,1.33.74,2.31s-.25,1.75-.74,2.31c-.49.56-1.25.84-2.26.84h-1.51ZM213.13,14.95h.52c.73,0,1.26-.21,1.58-.62.32-.41.49-.96.49-1.65s-.16-1.24-.49-1.65c-.32-.41-.85-.62-1.58-.62h-.52v4.54Z"/>
    <path class="cls-13" d="M219.77,15.94c-.51,0-.95-.13-1.32-.4-.37-.26-.66-.64-.85-1.12-.2-.49-.3-1.06-.3-1.74s.1-1.25.3-1.74c.2-.49.48-.86.85-1.12.37-.26.81-.4,1.32-.4s.96.13,1.33.4c.37.26.65.64.85,1.12.2.49.3,1.07.3,1.74s-.1,1.25-.3,1.74c-.2.49-.48.86-.85,1.12-.37.26-.81.4-1.33.4ZM219.77,15.04c.45,0,.81-.2,1.09-.61.28-.41.41-.99.41-1.75s-.14-1.35-.41-1.75c-.28-.41-.64-.61-1.09-.61s-.82.2-1.09.61c-.27.4-.41.99-.41,1.75s.14,1.35.41,1.75c.27.4.64.61,1.09.61Z"/>
    <path class="cls-13" d="M222.97,15.83v-6.3h2.25c.65,0,1.15.15,1.48.45.34.3.5.69.5,1.16,0,.37-.1.66-.29.89-.19.23-.41.39-.67.49v.06c.3.11.56.28.77.53.22.24.32.56.32.96,0,.32-.08.62-.24.89-.16.27-.39.48-.7.63-.31.16-.68.23-1.12.23h-2.32ZM223.93,12.16h1.18c.37,0,.64-.07.84-.22.19-.15.29-.37.29-.67,0-.59-.38-.89-1.14-.89h-1.16v1.78ZM223.93,14.95h1.24c.39,0,.69-.08.9-.25s.31-.41.31-.74-.11-.56-.33-.73c-.22-.17-.52-.26-.9-.26h-1.22v1.98Z"/>
    <path class="cls-13" d="M228.59,15.83v-6.3h4.02v.85h-3.07v1.84h2.8v.85h-2.8v1.91h3.07v.85h-4.02Z"/>
    <path class="cls-13" d="M239.17,15.83v-6.3h2.25c.65,0,1.15.15,1.48.45.34.3.5.69.5,1.16,0,.37-.1.66-.29.89-.19.23-.41.39-.67.49v.06c.3.11.56.28.77.53.22.24.32.56.32.96,0,.32-.08.62-.24.89-.16.27-.39.48-.7.63-.31.16-.68.23-1.12.23h-2.32ZM240.13,12.16h1.18c.37,0,.64-.07.84-.22.19-.15.29-.37.29-.67,0-.59-.38-.89-1.14-.89h-1.16v1.78ZM240.13,14.95h1.24c.39,0,.69-.08.9-.25s.31-.41.31-.74-.11-.56-.33-.73c-.22-.17-.52-.26-.9-.26h-1.22v1.98Z"/>
    <path class="cls-13" d="M244.74,15.83v-6.3h2.06c.49,0,.9.08,1.22.25.32.17.56.39.72.68.16.29.24.61.24.97,0,.41-.1.77-.31,1.08s-.52.54-.95.69l1.32,2.63h-1.11l-1.21-2.49h-1.04v2.49h-.95ZM245.7,12.47h1.05c.43,0,.75-.1.95-.29s.3-.44.3-.76-.1-.57-.3-.76c-.2-.19-.52-.28-.96-.28h-1.04v2.09Z"/>
    <path class="cls-13" d="M250.32,15.83v-.85h1.37v-4.61h-1.35v-.85h3.65v.85h-1.35v4.61h1.37v.85h-3.69Z"/>
    <path class="cls-13" d="M255.38,15.83v-6.3h1.51c1.01,0,1.77.28,2.26.84.49.56.74,1.33.74,2.31s-.25,1.75-.74,2.31c-.49.56-1.25.84-2.26.84h-1.51ZM256.33,14.95h.52c.73,0,1.26-.21,1.58-.62.32-.41.49-.96.49-1.65s-.16-1.24-.49-1.65c-.32-.41-.85-.62-1.58-.62h-.52v4.54Z"/>
    <path class="cls-13" d="M262.89,15.94c-.47,0-.88-.13-1.23-.4-.35-.27-.63-.64-.83-1.13-.2-.49-.3-1.06-.3-1.73s.1-1.22.3-1.71c.2-.49.48-.87.85-1.14.37-.27.81-.41,1.33-.41.62,0,1.13.17,1.51.51.38.34.61.83.7,1.45h-1.04c-.06-.32-.19-.58-.39-.77-.2-.19-.46-.29-.78-.29-.49,0-.86.21-1.12.63-.26.42-.39,1-.39,1.73s.14,1.35.41,1.75c.27.4.63.61,1.07.61.29,0,.54-.09.73-.26.19-.17.34-.4.44-.67.1-.27.17-.56.19-.87h-1.32v-.79h2.29v3.38h-.88l-.06-.85h-.05c-.12.28-.29.5-.5.68-.22.18-.52.27-.91.27Z"/>
    <path class="cls-13" d="M266.39,15.83v-6.3h4.02v.85h-3.07v1.84h2.8v.85h-2.8v1.91h3.07v.85h-4.02Z"/>
    <path class="cls-13" d="M206.52,46.31l1.88-6.3h1.13l1.88,6.3h-1.04l-.42-1.51h-1.98l-.42,1.51h-1.04ZM208.94,41.36l-.75,2.67h1.55l-.75-2.67h-.05Z"/>
    <path class="cls-13" d="M212.18,46.31v-6.3h1.51c1.01,0,1.77.28,2.26.84.49.56.74,1.33.74,2.31s-.25,1.75-.74,2.31c-.49.56-1.25.84-2.26.84h-1.51ZM213.13,45.42h.52c.73,0,1.26-.21,1.58-.62.32-.41.49-.96.49-1.65s-.16-1.24-.49-1.65c-.32-.41-.85-.62-1.58-.62h-.52v4.54Z"/>
    <path class="cls-13" d="M219.77,46.41c-.51,0-.95-.13-1.32-.4-.37-.26-.66-.64-.85-1.12-.2-.49-.3-1.06-.3-1.74s.1-1.25.3-1.74c.2-.49.48-.86.85-1.12.37-.26.81-.4,1.32-.4s.96.13,1.33.4c.37.26.65.64.85,1.12.2.49.3,1.07.3,1.74s-.1,1.25-.3,1.74c-.2.49-.48.86-.85,1.12-.37.26-.81.4-1.33.4ZM219.77,45.51c.45,0,.81-.2,1.09-.61.28-.41.41-.99.41-1.75s-.14-1.35-.41-1.75c-.28-.41-.64-.61-1.09-.61s-.82.2-1.09.61c-.27.4-.41.99-.41,1.75s.14,1.35.41,1.75c.27.4.64.61,1.09.61Z"/>
    <path class="cls-13" d="M222.97,46.31v-6.3h2.25c.65,0,1.15.15,1.48.45.34.3.5.69.5,1.16,0,.37-.1.66-.29.89-.19.23-.41.39-.67.49v.06c.3.11.56.28.77.53.22.24.32.56.32.96,0,.32-.08.62-.24.89-.16.27-.39.48-.7.63-.31.16-.68.23-1.12.23h-2.32ZM223.93,42.63h1.18c.37,0,.64-.07.84-.22.19-.15.29-.37.29-.67,0-.59-.38-.89-1.14-.89h-1.16v1.78ZM223.93,45.42h1.24c.39,0,.69-.08.9-.25s.31-.41.31-.74-.11-.56-.33-.73c-.22-.17-.52-.26-.9-.26h-1.22v1.98Z"/>
    <path class="cls-13" d="M228.59,46.31v-6.3h4.02v.85h-3.07v1.84h2.8v.85h-2.8v1.91h3.07v.85h-4.02Z"/>
    <path class="cls-13" d="M238.92,46.31l1.88-6.3h1.13l1.88,6.3h-1.04l-.42-1.51h-1.98l-.42,1.51h-1.04ZM241.34,41.36l-.75,2.67h1.55l-.75-2.67h-.05Z"/>
    <path class="cls-13" d="M244.82,46.31v-6.3h4.04v.89h-3.09v1.93h2.59v.84h-2.59v2.65h-.95Z"/>
    <path class="cls-13" d="M251.69,46.31v-5.44h-1.69v-.85h4.34v.85h-1.69v5.44h-.95Z"/>
    <path class="cls-13" d="M255.59,46.31v-6.3h4.02v.85h-3.07v1.84h2.8v.85h-2.8v1.91h3.07v.85h-4.02Z"/>
    <path class="cls-13" d="M260.94,46.31v-6.3h2.06c.49,0,.9.08,1.22.25.32.17.56.39.72.68.16.29.24.61.24.97,0,.41-.1.77-.31,1.08s-.52.54-.95.69l1.32,2.63h-1.11l-1.21-2.49h-1.04v2.49h-.95ZM261.9,42.95h1.05c.43,0,.75-.1.95-.29s.3-.44.3-.76-.1-.57-.3-.76c-.2-.19-.52-.28-.96-.28h-1.04v2.09Z"/>
    <path class="cls-13" d="M206.99,57.11v-6.3h4.02v.85h-3.07v1.84h2.8v.85h-2.8v1.91h3.07v.85h-4.02Z"/>
    <path class="cls-13" d="M212.42,57.11v-6.3h4.04v.89h-3.09v1.93h2.59v.84h-2.59v2.65h-.95Z"/>
    <path class="cls-13" d="M217.82,57.11v-6.3h4.04v.89h-3.09v1.93h2.59v.84h-2.59v2.65h-.95Z"/>
    <path class="cls-13" d="M223.19,57.11v-6.3h4.02v.85h-3.07v1.84h2.8v.85h-2.8v1.91h3.07v.85h-4.02Z"/>
    <path class="cls-13" d="M230.59,57.21c-.53,0-.98-.13-1.35-.4s-.65-.65-.85-1.14c-.19-.49-.29-1.06-.29-1.71s.1-1.23.29-1.71c.19-.49.48-.87.85-1.14s.82-.41,1.34-.41c.68,0,1.22.18,1.62.55s.64.87.7,1.5h-1.05c-.05-.33-.19-.6-.4-.82-.21-.22-.51-.33-.88-.33-.47,0-.84.21-1.11.63-.26.42-.4,1-.4,1.74s.13,1.31.4,1.72c.26.42.63.63,1.11.63.38,0,.68-.1.88-.3.2-.2.34-.47.4-.8h1.05c-.1.62-.34,1.11-.73,1.46-.39.36-.92.54-1.59.54Z"/>
    <path class="cls-13" d="M235.49,57.11v-5.44h-1.69v-.85h4.34v.85h-1.69v5.44h-.95Z"/>
    <path class="cls-13" d="M241.43,57.21c-.44,0-.83-.08-1.17-.24-.33-.16-.59-.39-.78-.69-.19-.3-.29-.66-.29-1.07h1.01c0,.32.12.59.33.81s.51.34.9.34c.35,0,.63-.08.83-.25.2-.17.3-.38.3-.64,0-.22-.06-.41-.18-.55-.12-.15-.3-.28-.54-.4-.25-.12-.56-.24-.95-.36-.52-.17-.91-.4-1.15-.7-.25-.3-.37-.66-.37-1.09,0-.5.18-.9.54-1.21.36-.31.85-.46,1.48-.46s1.1.16,1.48.47.56.75.58,1.31h-1.02c0-.15-.04-.3-.13-.44-.08-.14-.2-.26-.36-.35-.16-.09-.35-.14-.58-.14-.28,0-.52.06-.71.2-.19.14-.29.33-.29.57,0,.29.12.52.35.69.23.17.61.33,1.14.51.33.11.62.24.88.39.25.15.46.35.6.58.15.24.22.54.22.9,0,.34-.08.64-.25.91s-.41.49-.72.65c-.31.16-.69.24-1.14.24Z"/>
    <path class="cls-13" d="M206.52,86.04l1.88-6.3h1.13l1.88,6.3h-1.04l-.42-1.51h-1.98l-.42,1.51h-1.04ZM208.94,81.09l-.75,2.67h1.55l-.75-2.67h-.05Z"/>
    <path class="cls-13" d="M212.18,86.04v-6.3h1.51c1.01,0,1.77.28,2.26.84.49.56.74,1.33.74,2.31s-.25,1.75-.74,2.31c-.49.56-1.25.84-2.26.84h-1.51ZM213.14,85.16h.52c.73,0,1.26-.21,1.58-.62.32-.41.49-.96.49-1.65s-.16-1.24-.49-1.65c-.32-.41-.85-.62-1.58-.62h-.52v4.54Z"/>
    <path class="cls-13" d="M219.77,86.15c-.51,0-.95-.13-1.32-.4-.37-.26-.66-.64-.85-1.12-.2-.49-.3-1.06-.3-1.74s.1-1.25.3-1.74c.2-.49.48-.86.85-1.12.37-.26.81-.4,1.32-.4s.96.13,1.33.4c.37.26.65.64.85,1.12.2.49.3,1.07.3,1.74s-.1,1.25-.3,1.74c-.2.49-.48.86-.85,1.12-.37.26-.81.4-1.33.4ZM219.77,85.25c.45,0,.81-.2,1.09-.61.28-.41.41-.99.41-1.75s-.14-1.35-.41-1.75c-.28-.41-.64-.61-1.09-.61s-.82.2-1.09.61c-.27.4-.41.99-.41,1.75s.14,1.35.41,1.75c.27.4.64.61,1.09.61Z"/>
    <path class="cls-13" d="M222.97,86.04v-6.3h2.25c.65,0,1.15.15,1.48.45.34.3.5.69.5,1.16,0,.37-.1.66-.29.89-.19.23-.41.39-.67.49v.06c.3.11.56.28.77.53.22.24.32.56.32.96,0,.32-.08.62-.24.89-.16.27-.39.48-.7.63-.31.16-.68.23-1.12.23h-2.32ZM223.93,82.37h1.18c.37,0,.64-.07.84-.22.19-.15.29-.37.29-.67,0-.59-.38-.89-1.14-.89h-1.16v1.78ZM223.93,85.16h1.24c.39,0,.69-.08.9-.25s.31-.41.31-.74-.11-.56-.33-.73c-.22-.17-.52-.26-.9-.26h-1.22v1.98Z"/>
    <path class="cls-13" d="M228.59,86.04v-6.3h4.02v.85h-3.07v1.84h2.8v.85h-2.8v1.91h3.07v.85h-4.02Z"/>
    <path class="cls-13" d="M239.31,86.04v-6.3h2.13c.48,0,.88.08,1.19.25.31.17.54.39.69.68s.23.62.23.99-.08.7-.23.99-.38.51-.69.68-.71.25-1.19.25h-1.18v2.47h-.95ZM240.26,82.72h1.13c.41,0,.71-.1.9-.29s.28-.45.28-.77-.09-.57-.28-.77-.49-.29-.9-.29h-1.13v2.12Z"/>
    <path class="cls-13" d="M244.74,86.04v-6.3h2.06c.49,0,.9.08,1.22.25.32.17.56.39.72.68.16.29.24.61.24.97,0,.41-.1.77-.31,1.08s-.52.54-.95.69l1.32,2.63h-1.11l-1.21-2.49h-1.04v2.49h-.95ZM245.7,82.69h1.05c.43,0,.75-.1.95-.29s.3-.44.3-.76-.1-.57-.3-.76c-.2-.19-.52-.28-.96-.28h-1.04v2.09Z"/>
    <path class="cls-13" d="M250.19,86.04v-6.3h4.02v.85h-3.07v1.84h2.8v.85h-2.8v1.91h3.07v.85h-4.02Z"/>
    <path class="cls-13" d="M255.25,86.04v-6.3h1.01l1.31,2.84,1.3-2.84h1.01v6.3h-.91v-4.48l-1.03,2.25h-.76l-1.03-2.24v4.47h-.91Z"/>
    <path class="cls-13" d="M261.12,86.04v-.85h1.37v-4.61h-1.35v-.85h3.65v.85h-1.35v4.61h1.37v.85h-3.69Z"/>
    <path class="cls-13" d="M266.39,86.04v-6.3h4.02v.85h-3.07v1.84h2.8v.85h-2.8v1.91h3.07v.85h-4.02Z"/>
    <path class="cls-13" d="M271.74,86.04v-6.3h2.06c.49,0,.9.08,1.22.25.32.17.56.39.72.68.16.29.24.61.24.97,0,.41-.1.77-.31,1.08s-.52.54-.95.69l1.32,2.63h-1.11l-1.21-2.49h-1.04v2.49h-.95ZM272.7,82.69h1.05c.43,0,.75-.1.95-.29s.3-.44.3-.76-.1-.57-.3-.76c-.2-.19-.52-.28-.96-.28h-1.04v2.09Z"/>
    <path class="cls-13" d="M277.19,86.04v-6.3h4.02v.85h-3.07v1.84h2.8v.85h-2.8v1.91h3.07v.85h-4.02Z"/>
    <path class="cls-13" d="M287.91,86.04v-6.3h2.13c.48,0,.88.08,1.19.25.31.17.54.39.69.68s.23.62.23.99-.08.7-.23.99-.38.51-.69.68-.71.25-1.19.25h-1.18v2.47h-.95ZM288.86,82.72h1.13c.41,0,.71-.1.9-.29s.28-.45.28-.77-.09-.57-.28-.77-.49-.29-.9-.29h-1.13v2.12Z"/>
    <path class="cls-13" d="M293.34,86.04v-6.3h2.06c.49,0,.9.08,1.22.25.32.17.56.39.72.68.16.29.24.61.24.97,0,.41-.1.77-.31,1.08s-.52.54-.95.69l1.32,2.63h-1.11l-1.21-2.49h-1.04v2.49h-.95ZM294.3,82.69h1.05c.43,0,.75-.1.95-.29s.3-.44.3-.76-.1-.57-.3-.76c-.2-.19-.52-.28-.96-.28h-1.04v2.09Z"/>
    <path class="cls-13" d="M300.77,86.15c-.51,0-.95-.13-1.32-.4-.37-.26-.66-.64-.85-1.12-.2-.49-.3-1.06-.3-1.74s.1-1.25.3-1.74c.2-.49.48-.86.85-1.12.37-.26.81-.4,1.32-.4s.96.13,1.33.4c.37.26.65.64.85,1.12.2.49.3,1.07.3,1.74s-.1,1.25-.3,1.74c-.2.49-.48.86-.85,1.12-.37.26-.81.4-1.33.4ZM300.77,85.25c.45,0,.81-.2,1.09-.61.28-.41.41-.99.41-1.75s-.14-1.35-.41-1.75c-.28-.41-.64-.61-1.09-.61s-.82.2-1.09.61c-.27.4-.41.99-.41,1.75s.14,1.35.41,1.75c.27.4.64.61,1.09.61Z"/>
    <path class="cls-13" d="M206.77,120.31v-6.3h2.25c.65,0,1.15.15,1.48.45.34.3.5.69.5,1.16,0,.37-.1.66-.29.89-.19.23-.41.39-.67.49v.06c.3.11.56.28.77.53.22.24.32.56.32.96,0,.32-.08.62-.24.89-.16.27-.39.48-.7.63-.31.16-.68.23-1.12.23h-2.32ZM207.73,116.64h1.18c.37,0,.64-.07.84-.22.19-.15.29-.37.29-.67,0-.59-.38-.89-1.14-.89h-1.16v1.78ZM207.73,119.43h1.24c.39,0,.69-.08.9-.25s.31-.41.31-.74-.11-.56-.33-.73c-.22-.17-.52-.26-.9-.26h-1.22v1.98Z"/>
    <path class="cls-13" d="M212.4,120.31v-6.3h.95v5.44h3.1v.85h-4.06Z"/>
    <path class="cls-13" d="M217.79,120.31v-6.3h4.02v.85h-3.07v1.84h2.8v.85h-2.8v1.91h3.07v.85h-4.02Z"/>
    <path class="cls-13" d="M222.93,120.31v-6.3h.94l2.64,4.62v-4.62h.91v6.3h-.94l-2.64-4.62v4.62h-.91Z"/>
    <path class="cls-13" d="M228.38,120.31v-6.3h1.51c1.01,0,1.77.28,2.26.84.49.56.74,1.33.74,2.31s-.25,1.75-.74,2.31c-.49.56-1.25.84-2.26.84h-1.51ZM229.33,119.43h.52c.73,0,1.26-.21,1.58-.62.32-.41.49-.96.49-1.65s-.16-1.24-.49-1.65c-.32-.41-.85-.62-1.58-.62h-.52v4.54Z"/>
    <path class="cls-13" d="M233.99,120.31v-6.3h4.02v.85h-3.07v1.84h2.8v.85h-2.8v1.91h3.07v.85h-4.02Z"/>
    <path class="cls-13" d="M239.34,120.31v-6.3h2.06c.49,0,.9.08,1.22.25.32.17.56.39.72.68.16.29.24.61.24.97,0,.41-.1.77-.31,1.08s-.52.54-.95.69l1.32,2.63h-1.11l-1.21-2.49h-1.04v2.49h-.95ZM240.3,116.95h1.05c.43,0,.75-.1.95-.29s.3-.44.3-.76-.1-.57-.3-.76c-.2-.19-.52-.28-.96-.28h-1.04v2.09Z"/>
    <path class="cls-13" d="M209.01,156.6c-.41,0-.79-.08-1.12-.23-.34-.16-.6-.39-.8-.69-.2-.3-.31-.67-.32-1.1h.95c.02.33.14.6.36.82.23.22.54.32.93.32s.7-.1.92-.29c.22-.19.33-.46.33-.79,0-.37-.14-.65-.41-.82-.27-.17-.6-.26-.99-.26h-.56v-.85h.48c.35,0,.65-.07.87-.22s.34-.37.34-.67c0-.26-.09-.47-.26-.63-.17-.15-.42-.23-.74-.23s-.58.09-.77.26c-.19.17-.3.4-.32.67h-.95c.02-.36.11-.67.29-.94s.41-.48.71-.63c.3-.15.65-.23,1.04-.23.43,0,.79.07,1.08.22s.5.34.65.59c.14.25.22.52.22.83s-.09.58-.27.81-.4.39-.66.49v.05c.35.1.63.27.86.54.23.26.34.61.34,1.05,0,.35-.09.68-.26.98-.17.3-.42.53-.75.71-.33.17-.72.26-1.19.26Z"/>
    <path class="cls-13" d="M212.18,156.49v-6.3h1.51c1.01,0,1.77.28,2.26.84.49.56.74,1.33.74,2.31s-.25,1.75-.74,2.31c-.49.56-1.25.84-2.26.84h-1.51ZM213.13,155.61h.52c.73,0,1.26-.21,1.58-.62.32-.41.49-.96.49-1.65s-.16-1.24-.49-1.65c-.32-.41-.85-.62-1.58-.62h-.52v4.54Z"/>
    <path class="cls-13" d="M219.83,156.6c-.44,0-.83-.08-1.17-.24-.33-.16-.59-.39-.78-.69-.19-.3-.29-.66-.29-1.07h1.01c0,.32.12.59.33.81s.51.34.9.34c.35,0,.63-.08.83-.25.2-.17.3-.38.3-.64,0-.22-.06-.41-.18-.55-.12-.15-.3-.28-.54-.4-.25-.12-.56-.24-.95-.36-.52-.17-.91-.4-1.15-.7-.25-.3-.37-.66-.37-1.09,0-.5.18-.9.54-1.21.36-.31.85-.46,1.48-.46s1.1.16,1.48.47.56.75.58,1.31h-1.02c0-.15-.04-.3-.13-.44-.08-.14-.2-.26-.36-.35-.16-.09-.35-.14-.58-.14-.28,0-.52.06-.71.2-.19.14-.29.33-.29.57,0,.29.12.52.35.69.23.17.61.33,1.14.51.33.11.62.24.88.39.25.15.46.35.6.58.15.24.22.54.22.9,0,.34-.08.64-.25.91s-.41.49-.72.65c-.31.16-.69.24-1.14.24Z"/>
    <path class="cls-13" d="M228.25,156.49v-6.3h1.01l1.31,2.84,1.3-2.84h1.01v6.3h-.91v-4.48l-1.03,2.25h-.76l-1.03-2.24v4.47h-.91Z"/>
    <path class="cls-13" d="M233.52,156.49l1.88-6.3h1.13l1.88,6.3h-1.04l-.42-1.51h-1.98l-.42,1.51h-1.04ZM235.94,151.54l-.75,2.67h1.55l-.75-2.67h-.05Z"/>
    <path class="cls-13" d="M238.95,156.49l1.88-3.15-1.9-3.15h1.11l1.36,2.27,1.32-2.27h1.07l-1.88,3.12,1.9,3.18h-1.09l-1.38-2.29-1.3,2.29h-1.09Z"/>
    <path class="cls-13" d="M206.83,195.7v-.78l3.15-4.66h-3.1v-.85h4.21v.78l-3.15,4.66h3.19v.86h-4.29Z"/>
    <path class="cls-13" d="M212.17,195.7v-6.3h2.25c.65,0,1.15.15,1.48.45.34.3.5.69.5,1.16,0,.37-.1.66-.29.89-.19.23-.41.39-.67.49v.06c.3.11.56.28.77.53s.32.56.32.96c0,.32-.08.62-.24.89-.16.27-.39.48-.7.63-.31.16-.68.23-1.12.23h-2.32ZM213.13,192.03h1.18c.37,0,.64-.07.84-.22.19-.15.29-.37.29-.67,0-.59-.38-.89-1.14-.89h-1.16v1.78ZM213.13,194.82h1.24c.39,0,.69-.08.9-.25s.31-.41.31-.74-.11-.56-.33-.73c-.22-.17-.52-.26-.9-.26h-1.22v1.98Z"/>
    <path class="cls-13" d="M217.74,195.7v-6.3h2.06c.49,0,.9.08,1.22.25.32.17.56.39.72.68.16.29.24.61.24.97,0,.41-.1.77-.31,1.08-.21.31-.52.54-.95.69l1.32,2.63h-1.11l-1.21-2.49h-1.04v2.49h-.95ZM218.7,192.34h1.05c.43,0,.75-.1.95-.29.2-.19.3-.44.3-.76s-.1-.57-.3-.76c-.2-.19-.52-.28-.96-.28h-1.04v2.09Z"/>
    <path class="cls-13" d="M225.15,195.81c-.43,0-.81-.09-1.14-.26s-.6-.44-.79-.8c-.19-.36-.29-.81-.29-1.35v-4h.95v4.05c0,.48.11.85.34,1.11s.54.39.94.39.71-.13.94-.39c.23-.26.34-.63.34-1.11v-4.05h.95v4c0,.55-.1,1-.3,1.35-.2.36-.47.62-.81.8-.34.17-.72.26-1.15.26Z"/>
    <path class="cls-13" d="M230.63,195.81c-.44,0-.83-.08-1.17-.24-.33-.16-.59-.39-.78-.69s-.29-.66-.29-1.07h1.01c0,.32.12.59.33.81.21.23.51.34.9.34.35,0,.63-.08.83-.25.2-.17.3-.38.3-.64,0-.22-.06-.41-.18-.55-.12-.15-.3-.28-.54-.4-.25-.12-.56-.24-.95-.36-.52-.17-.91-.4-1.15-.7-.25-.3-.37-.66-.37-1.09,0-.5.18-.9.54-1.21.36-.31.85-.46,1.48-.46s1.1.16,1.48.47c.37.31.56.75.58,1.31h-1.02c0-.15-.04-.3-.13-.44-.08-.14-.2-.26-.36-.35-.16-.09-.35-.14-.58-.14-.28,0-.52.06-.71.2-.19.14-.29.33-.29.57,0,.29.12.52.35.69.23.17.61.33,1.14.51.33.11.62.24.88.39.25.15.46.35.6.58.15.24.22.54.22.9,0,.34-.08.64-.25.91-.17.27-.41.49-.72.65-.31.16-.69.24-1.14.24Z"/>
    <path class="cls-13" d="M233.64,195.7v-6.3h.95v2.61h2.75v-2.61h.95v6.3h-.95v-2.82h-2.75v2.82h-.95Z"/>
    <path class="cls-13" d="M208.95,230.63c-.43,0-.81-.09-1.14-.26s-.6-.44-.79-.8c-.19-.36-.29-.81-.29-1.35v-4h.95v4.05c0,.48.11.85.34,1.11s.54.39.94.39.71-.13.94-.39c.23-.26.34-.63.34-1.11v-4.05h.95v4c0,.55-.1,1-.3,1.35-.2.36-.47.62-.81.8-.34.17-.72.26-1.15.26Z"/>
    <path class="cls-13" d="M212.13,230.52v-6.3h.94l2.64,4.62v-4.62h.91v6.3h-.94l-2.64-4.62v4.62h-.91Z"/>
    <path class="cls-13" d="M217.92,230.52v-.85h1.37v-4.61h-1.35v-.85h3.65v.85h-1.35v4.61h1.37v.85h-3.69Z"/>
    <path class="cls-13" d="M224.69,230.52v-5.45h-1.69v-.85h4.34v.85h-1.69v5.45h-.95Z"/>
    <path class="cls-13" d="M230.09,230.52v-2.39l-2.08-3.91h1.09l1.47,2.9,1.47-2.9h1.09l-2.08,3.91v2.39h-.95Z"/>
    <path class="cls-14" d="M19.12,139.56l.5.06c2.9.47,4.62,3.53,3.48,6.27-.66,1.58-2.25,2.73-3.98,2.79-.15,0-.3,0-.45,0-.05,0-.11,0-.16,0-1.39,0-2.78,0-4.17,0,0-3.04,0-6.08,0-9.12h4.79Z"/>
    <path class="cls-31" d="M14.33,139.56v9.12s0,0-.01,0h-4.71c-2.13-.06-3.96-1.66-4.33-3.75l-.07-.55v-.09s.01-.04.01-.06c0-.09,0-.19-.01-.27,0-.03,0-.06,0-.09.12-2.27,2.01-4.2,4.29-4.3h.03s4.81-.01,4.81-.01Z"/>
    <path class="cls-24" d="M9.61,157.82h4.72c0,1.52.05,3.07,0,4.58s-.68,2.85-1.96,3.73c-2.93,2.03-6.94.05-7.15-3.47v-.03s-.01-.08-.01-.08c.02-.01.01-.04.01-.06,0-.07,0-.15,0-.22,0-.02,0-.05-.01-.06,0-.03,0-.06,0-.09.12-2.33,2.07-4.25,4.4-4.32Z"/>
    <path class="cls-33" d="M14.34,148.68s0,0-.01,0v-9.12h.01c0,3.04,0,6.08,0,9.12Z"/>
    <path class="cls-45" d="M5.21,153.5h-.01v-.5h.01c0,.16,0,.34,0,.5Z"/>
    <path class="cls-23" d="M5.2,162.56v-.34s.01.04.01.06c0,.07,0,.15,0,.22,0,.02,0,.05-.01.06Z"/>
    <path class="cls-60" d="M5.2,144.29v-.33c.02.08.01.18.01.27,0,.02,0,.05-.01.06Z"/>
    <path class="cls-58" d="M14.34,148.68c0,1.4-.01,2.81-.01,4.21,0,.06,0,.12,0,.19,0,.12,0,.23,0,.35,0,.06,0,.12,0,.18,0,1.4,0,2.8,0,4.21h-4.72c-2.3-.04-4.32-2-4.39-4.3,0-.16,0-.34,0-.5.08-2.33,2.08-4.25,4.39-4.3,1.55-.04,3.12,0,4.67,0,.02,0,.04-.01.04-.01,0,0,0,0,.01,0s0,0,.01,0Z"/>
    <path class="cls-7" d="M18.67,148.69c.14,0,.31,0,.45,0,2.23.08,4.1,1.89,4.31,4.1.32,3.34-2.93,5.89-6.09,4.75-1.64-.59-2.9-2.19-3.01-3.94,0-.06,0-.12,0-.18,0-.12,0-.24,0-.35,0-.06,0-.12.01-.18.14-2.2,1.97-4.04,4.17-4.2.05,0,.1,0,.15-.01Z"/>
    <polygon class="cls-55" points="14.33 157.81 14.33 157.82 9.61 157.82 9.61 157.81 14.33 157.81"/>
    <path class="cls-25" d="M19.12,148.68h0c-.14,0-.31,0-.45.01h0c.15-.01.3,0,.45-.01Z"/>
    <path class="cls-34" d="M14.34,153.6h-.01c0-.06,0-.12,0-.18h.01c0,.06,0,.12,0,.18Z"/>
    <path class="cls-61" d="M18.67,148.68h0c-.05.01-.1.02-.15.02v-.02s.1,0,.15,0Z"/>
    <path class="cls-42" d="M14.31,148.68s-.02.01-.04.01c-1.55,0-3.13-.04-4.67,0h0s4.71-.01,4.71-.01Z"/>
    <path class="cls-62" d="M14.34,153.43h-.01c0-.12,0-.23,0-.35h.01c0,.12,0,.24,0,.35Z"/>
    <path class="cls-52" d="M14.35,152.9c0,.06,0,.12-.01.18h-.01c0-.06,0-.12,0-.19h.02Z"/>
    <path class="cls-3" d="M26.09,250.91v.56l-1.92,20.8c-.06.19-.25.2-.4.27-.75.36-2.17.64-3.03.89-1.81.52-3.67,1.07-5.52,1.38l-8.39-2.43-1.81-21.59,21.07.11ZM15.45,253.38c-.07.01-.1.05-.11.11-1.37,0-3.05-.13-4.37,0l-.06-.11-.06.11s-.32.14-.34.19c-.22,2.72-.59,5.45-.78,8.17-.02.31-.12,1.34,0,1.51h.11c1.83-.03,3.66,0,5.49,0,.02.04.11.09.11.11.14,1.21-.11,2.68,0,3.93-.91-.02-1.98-.62-2.91-.68l-.12-2.13h-2.8l.47,4.24,5.36,1.48c.02.9.03,1.79.11,2.69l6.89-2.02,1.63-17.45-.07-1.07h-8.28s-.26.19-.26.19l-.02.71Z"/>
    <path class="cls-20" d="M15.45,253.38l.02-.71.26-.18h8.28s.07,1.07.07,1.07l-1.63,17.45-6.89,2.02c-.09-.9-.1-1.79-.11-2.69.55-.32,1.53-.19,1.86-.56l.32.12c.47-.28,1.2-.49,1.72-.66.23-.08,1.51-.37,1.58-.47l.79-8.02c0-.1-.17-.02-.21-.05-.01,0,.01-.11,0-.11l-.06-.11-.06.11c-.14-.02-.3,0-.45,0s-.3,0-.45,0l-5.04-.11c0-1.35,0-2.7,0-4.04.04,0,.07,0,.11,0,1.01,0,2.02.14,3.03.16l.43,2.82,2.7-.06-.56-5.65c-.02-.14-.17-.05-.23-.07-.15-.06-.16-.11-.38-.12-1.53-.11-3.32.01-4.89,0-.02,0-.06-.1-.11-.11-.02,0-.09,0-.11,0Z"/>
    <path class="cls-28" d="M15.34,253.49s.07,0,.11,0c.06.95-.14,2,.11,2.92-.04,0-.07,0-.11,0-.83,0-1.64.11-2.47.11l-.34,3.7.11.34c.89,0,1.79,0,2.69,0,0,.9,0,1.8,0,2.69h3.31c.16.04-.05.11-.06.11h-3.36c-1.83,0-3.66-.03-5.49,0h-.11c-.11-.18-.02-1.2,0-1.51.19-2.72.56-5.45.78-8.17.02-.05.29-.18.34-.19.04,0,.08,0,.11,0,1.32-.13,3,0,4.37,0Z"/>
    <path class="cls-48" d="M15.45,270.33l-5.36-1.48-.47-4.24h2.8l.12,2.13c.93.06,2,.65,2.91.68.07,0,.15,0,.22,0-.22.11-.21.16-.23.38-.06.76,0,1.75,0,2.54Z"/>
    <path class="cls-19" d="M18.59,263.37l.11.11c-.16,1.07-.17,2.17-.36,3.23-.85.13-1.83.61-2.67.69-.07,0-.15,0-.22,0-.11-1.24.14-2.71,0-3.93h.11l.11-.11h2.91Z"/>
    <path class="cls-9" d="M15.56,253.38v.11s-.07,0-.11,0-.07,0-.11,0c.01-.07.05-.1.11-.11.03,0,.09,0,.11,0Z"/>
    <path class="cls-53" d="M15.56,263.37v.11h-.11s-.09-.07-.11-.11h.22Z"/>
    <path class="cls-9" d="M10.97,253.49s-.08,0-.11,0l.06-.11.06.11Z"/>
    <path class="cls-40" d="M20.49,260.56c.15,0,.3,0,.45,0,.1.18.38.11.56.11.05.03.21-.05.21.05l-.79,8.02c-.06.1-1.34.39-1.58.47-.52.17-1.25.38-1.72.66l-.32-.12c-.32.38-1.31.25-1.86.56-.01-.78-.07-1.77,0-2.54.02-.23.02-.28.23-.38.84-.08,1.82-.56,2.67-.69.19-1.07.19-2.16.36-3.23,0-.04,0-.08,0-.11,0,0,.22-.07.06-.11h-3.31c0-.9,0-1.8,0-2.69,1.68.01,3.36-.03,5.04,0Z"/>
    <path class="cls-37" d="M15.67,253.49s.08.1.27.12c1.54.18,3.42-.15,5,0,.06.02.2-.07.23.07l.56,5.65-2.7.06-.43-2.82c-1.01-.02-2.02-.15-3.03-.16-.25-.92-.05-1.96-.11-2.92.04,0,.07,0,.11,0s.07,0,.11,0Z"/>
    <path class="cls-3" d="M15.45,256.41c0,1.35,0,2.7,0,4.04,0,.04,0,.07,0,.11-.89,0-1.79,0-2.69,0l-.11-.34.34-3.7c.83,0,1.63-.11,2.47-.11Z"/>
    <path class="cls-28" d="M20.94,253.6c-1.58-.14-3.46.19-5,0-.18-.02-.24-.11-.27-.12,1.57,0,3.35-.12,4.89,0,.22.02.23.06.38.12Z"/>
    <path class="cls-36" d="M20.49,260.56c-1.68-.03-3.36.01-5.04,0,0-.04,0-.07,0-.11l5.04.11Z"/>
    <path class="cls-28" d="M21.39,260.56s.08,0,.11,0c.01,0-.01.11,0,.11-.18,0-.46.07-.56-.11.15,0,.3-.02.45,0Z"/>
    <path class="cls-21" d="M15.67,253.49s-.07,0-.11,0v-.11c.05.02.09.11.11.11Z"/>
    <path class="cls-36" d="M21.5,260.56s-.07,0-.11,0l.06-.11.06.11Z"/>
    <path class="cls-27" d="M12.76,260.56l-.11-.34.11.34Z"/>
    <polygon class="cls-15" points="15.56 263.48 15.56 263.37 15.67 263.37 15.56 263.48"/>
    <path class="cls-15" d="M18.7,263.48l-.11-.11h.11s0,.07,0,.11Z"/>
  </g>
</svg>