<?xml version="1.0" encoding="UTF-8"?>
<svg id="Capa_2" data-name="Capa 2" xmlns="http://www.w3.org/2000/svg" viewBox="0 0 198.53 92.44">
  <defs>
    <style>
      .cls-1 {
        fill: #006ca8;
      }
    </style>
  </defs>
  <g id="Capa_1-2" data-name="Capa 1">
    <g>
      <path class="cls-1" d="M9.31,9.26v-3.02c0-1.38-.67-2.06-2.02-2.06h-.72c-1.31,0-1.97.69-1.97,2.06v5.71c0,.64.13,1.07.38,1.3.26.22.67.51,1.25.86l4.37,2.35c.96.54,1.64.97,2.04,1.27.4.3.71.67.94,1.1s.34,1.26.34,2.47v7.34c0,3.87-1.86,5.81-5.57,5.81h-2.83c-3.68,0-5.52-2.11-5.52-6.34v-1.73h4.61v1.87c0,1.34.69,2.02,2.06,2.02h.82c1.22,0,1.82-.67,1.82-2.02v-5.86c0-.64-.13-1.07-.38-1.3-.26-.22-.67-.51-1.25-.86l-4.37-2.45c-.96-.51-1.66-.94-2.09-1.3-.43-.35-.74-.81-.94-1.37-.19-.56-.29-1.29-.29-2.18v-7.06C0,1.97,1.84,0,5.52,0h2.88c3.68,0,5.52,1.97,5.52,5.9v3.36h-4.61Z"/>
      <path class="cls-1" d="M23.09,34.46c-3.71,0-5.57-1.95-5.57-5.86V5.9c0-3.94,1.84-5.9,5.52-5.9h4.42c3.68,0,5.52,1.97,5.52,5.9v22.7c0,3.9-1.86,5.86-5.57,5.86h-4.32ZM24.19,30.29h2.35c1.22,0,1.82-.67,1.82-2.02V6.19c0-1.34-.69-2.02-2.06-2.02h-2.16c-1.34,0-2.02.67-2.02,2.02v22.08c0,1.34.69,2.02,2.06,2.02Z"/>
      <path class="cls-1" d="M46.42,20.26L50.69,0h5.09v34.46h-4.61l.48-22.56-3.46,16.32h-3.55l-3.46-16.32.48,22.56h-4.61V0h5.09l4.27,20.26Z"/>
      <path class="cls-1" d="M60.1,34.46V0h11.42v4.18h-6.82v10.46h6.05v4.18h-6.05v11.47h6.82v4.18h-11.42Z"/>
      <path class="cls-1" d="M98.93,0l-5.09,34.46h-4.99l-2.83-19.97-2.78,19.97h-4.99L73.15,0h4.56l3.26,25.82,3.26-25.82h3.6l3.26,25.82,3.26-25.82h4.56Z"/>
      <path class="cls-1" d="M111.84,34.46v-15.65h-5.66v15.65h-4.61V0h4.61v14.64h5.66V0h4.61v34.46h-4.61Z"/>
      <path class="cls-1" d="M120.77,34.46V0h11.42v4.18h-6.82v10.46h6.05v4.18h-6.05v11.47h6.82v4.18h-11.42Z"/>
      <path class="cls-1" d="M135.5,0h9.02c3.52,0,5.28,1.97,5.28,5.9v8.5c0,3.01-.91,4.91-2.74,5.71l3.22,14.35h-4.37l-3.02-13.92h-2.78v13.92h-4.61V0ZM140.11,16.61h3.02c1.38,0,2.06-.83,2.06-2.5v-7.44c0-1.66-.69-2.5-2.06-2.5h-3.02v12.43Z"/>
      <path class="cls-1" d="M153.65,34.46V0h11.42v4.18h-6.82v10.46h6.05v4.18h-6.05v11.47h6.82v4.18h-11.42Z"/>
      <path class="cls-1" d="M5.81,74.46c-3.71,0-5.57-1.95-5.57-5.86v-22.7c0-3.94,1.84-5.9,5.52-5.9h4.42c3.68,0,5.52,1.97,5.52,5.9v22.7c0,3.9-1.86,5.86-5.57,5.86h-4.32ZM6.91,70.29h2.35c1.22,0,1.82-.67,1.82-2.02v-22.08c0-1.34-.69-2.02-2.06-2.02h-2.16c-1.34,0-2.02.67-2.02,2.02v22.08c0,1.34.69,2.02,2.06,2.02Z"/>
      <path class="cls-1" d="M29.33,56.66v-16.66h4.61v34.46h-4.61v-6.86l-4.94-15.7v22.56h-4.61v-34.46h4.61l4.94,16.66Z"/>
      <path class="cls-1" d="M52.03,66.4v2.21c0,3.9-1.84,5.86-5.52,5.86h-2.98c-3.68,0-5.52-1.95-5.52-5.86v-22.75c0-3.9,1.84-5.86,5.52-5.86h2.98c3.68,0,5.52,1.95,5.52,5.86v3.89h-4.61v-3.55c0-1.34-.69-2.02-2.06-2.02h-.91c-1.22,0-1.82.67-1.82,2.02v22.08c0,1.34.61,2.02,1.82,2.02h1.15c1.22,0,1.82-.67,1.82-2.02v-1.87h4.61Z"/>
      <path class="cls-1" d="M55.63,74.46v-34.46h11.42v4.18h-6.82v10.46h6.05v4.18h-6.05v11.47h6.82v4.18h-11.42Z"/>
      <path class="cls-1" d="M88.7,54.64v4.18h-6.05v15.65h-4.61v-34.46h11.42v4.18h-6.82v10.46h6.05Z"/>
      <path class="cls-1" d="M96.96,74.46h-4.61v-28.56c0-3.94,1.84-5.9,5.52-5.9h3.46c3.68,0,5.52,1.97,5.52,5.9v28.56h-4.61v-12.62h-5.28v12.62ZM102.24,57.66v-11.47c0-1.34-.67-2.02-2.02-2.02h-1.25c-1.34,0-2.02.67-2.02,2.02v11.47h5.28Z"/>
      <path class="cls-1" d="M120.29,60.26l4.27-20.26h5.09v34.46h-4.61l.48-22.56-3.46,16.32h-3.55l-3.46-16.32.48,22.56h-4.61v-34.46h5.09l4.27,20.26Z"/>
      <path class="cls-1" d="M133.97,74.46v-34.46h4.61v34.46h-4.61Z"/>
      <path class="cls-1" d="M153.84,74.46h-10.94v-34.46h4.61v30.29h6.34v4.18Z"/>
      <path class="cls-1" d="M156.48,74.46v-34.46h4.61v34.46h-4.61Z"/>
      <path class="cls-1" d="M169.77,74.46h-4.61v-28.56c0-3.94,1.84-5.9,5.52-5.9h3.46c3.68,0,5.52,1.97,5.52,5.9v28.56h-4.61v-12.62h-5.28v12.62ZM175.05,57.66v-11.47c0-1.34-.67-2.02-2.02-2.02h-1.25c-1.34,0-2.02.67-2.02,2.02v11.47h5.28Z"/>
      <path class="cls-1" d="M183.74,40h9.02c3.52,0,5.28,1.97,5.28,5.9v8.5c0,3.01-.91,4.91-2.74,5.71l3.22,14.35h-4.37l-3.02-13.92h-2.78v13.92h-4.61v-34.46ZM188.35,56.61h3.02c1.38,0,2.06-.83,2.06-2.5v-7.44c0-1.66-.69-2.5-2.06-2.5h-3.02v12.43Z"/>
    </g>
    <rect class="cls-1" x=".24" y="88.44" width="198.29" height="4"/>
  </g>
</svg>