<?xml version="1.0" encoding="UTF-8"?>
<svg id="Capa_2" data-name="Capa 2" xmlns="http://www.w3.org/2000/svg" xmlns:xlink="http://www.w3.org/1999/xlink" viewBox="0 0 93.58 100.2">
  <defs>
    <style>
      .cls-1 {
        fill: url(#Degradado_sin_nombre_302);
      }

      .cls-2 {
        fill: none;
        stroke-linecap: round;
        stroke-width: .5px;
      }

      .cls-2, .cls-3 {
        stroke: #1d1d1b;
        stroke-miterlimit: 10;
      }

      .cls-4 {
        fill: #eda676;
      }

      .cls-3 {
        stroke-width: .4px;
      }

      .cls-3, .cls-5 {
        fill: #fff;
      }

      .cls-6 {
        fill: #1d1d1b;
      }

      .cls-7 {
        fill: url(#Degradado_sin_nombre_304);
      }

      .cls-8 {
        fill: #cdeafa;
      }

      .cls-9 {
        fill: #7f4c1f;
      }

      .cls-10 {
        fill: url(#Degradado_sin_nombre_290);
      }

      .cls-11 {
        fill: #599431;
      }

      .cls-12 {
        fill: url(#Degradado_sin_nombre_238);
      }

      .cls-13 {
        fill: #9dbb7c;
      }

      .cls-14 {
        fill: url(#Degradado_sin_nombre_283);
      }

      .cls-15 {
        fill: url(#Degradado_sin_nombre_313);
      }

      .cls-16 {
        fill: url(#Degradado_sin_nombre_305);
      }

      .cls-17 {
        fill: #37bee9;
      }
    </style>
    <radialGradient id="Degradado_sin_nombre_304" data-name="Degradado sin nombre 304" cx="522.5" cy="-332.37" fx="522.5" fy="-332.37" r="8.02" gradientTransform="translate(-422.21 421.86) rotate(-4.18)" gradientUnits="userSpaceOnUse">
      <stop offset="0" stop-color="#eb5b56" stop-opacity=".8"/>
      <stop offset=".34" stop-color="#eb7360" stop-opacity=".86"/>
      <stop offset=".96" stop-color="#eda676"/>
    </radialGradient>
    <radialGradient id="Degradado_sin_nombre_302" data-name="Degradado sin nombre 302" cx="469.55" cy="-332.91" fx="469.55" fy="-332.91" r="8.02" gradientTransform="translate(-422.21 421.86) rotate(-4.18)" gradientUnits="userSpaceOnUse">
      <stop offset="0" stop-color="#eb5b56" stop-opacity=".8"/>
      <stop offset=".31" stop-color="#eb7561" stop-opacity=".87"/>
      <stop offset=".77" stop-color="#ec9870" stop-opacity=".96"/>
      <stop offset="1" stop-color="#eda676"/>
    </radialGradient>
    <radialGradient id="Degradado_sin_nombre_290" data-name="Degradado sin nombre 290" cx="597.47" cy="-469.26" fx="597.47" fy="-469.26" r="8.02" gradientTransform="translate(-561.98 495.72) rotate(3.39)" gradientUnits="userSpaceOnUse">
      <stop offset="0" stop-color="#eb5b56"/>
      <stop offset=".34" stop-color="#eb7a63"/>
      <stop offset=".75" stop-color="#ec9a70"/>
      <stop offset=".97" stop-color="#eda676"/>
    </radialGradient>
    <radialGradient id="Degradado_sin_nombre_283" data-name="Degradado sin nombre 283" cx="482.46" cy="-323" fx="482.46" fy="-323" r="8.02" gradientTransform="translate(-422.21 421.86) rotate(-4.18)" gradientUnits="userSpaceOnUse">
      <stop offset="0" stop-color="#eb5b56"/>
      <stop offset=".36" stop-color="#eb7b63"/>
      <stop offset=".77" stop-color="#ec9a70"/>
      <stop offset="1" stop-color="#eda676"/>
    </radialGradient>
    <radialGradient id="Degradado_sin_nombre_238" data-name="Degradado sin nombre 238" cx="495.88" cy="-327.69" fx="495.88" fy="-327.69" r="8.02" gradientTransform="translate(-422.21 421.86) rotate(-4.18)" gradientUnits="userSpaceOnUse">
      <stop offset="0" stop-color="#eb5b56"/>
      <stop offset=".05" stop-color="#eb6158"/>
      <stop offset=".29" stop-color="#eb7f65"/>
      <stop offset=".52" stop-color="#ec946e"/>
      <stop offset=".75" stop-color="#eca174"/>
      <stop offset=".97" stop-color="#eda676"/>
    </radialGradient>
    <radialGradient id="Degradado_sin_nombre_305" data-name="Degradado sin nombre 305" cx="517.76" cy="-306.97" fx="517.76" fy="-306.97" r="10.54" gradientTransform="translate(649.18 211.93) rotate(-137.8) scale(1 .94)" gradientUnits="userSpaceOnUse">
      <stop offset="0" stop-color="#eb5b56" stop-opacity=".8"/>
      <stop offset=".99" stop-color="#eda676"/>
    </radialGradient>
    <radialGradient id="Degradado_sin_nombre_313" data-name="Degradado sin nombre 313" cx="-1617.76" cy="-306.38" fx="-1617.76" fy="-306.38" r="9.83" gradientTransform="translate(833.48 -1350.64) rotate(-50.56) scale(1 -.94)" gradientUnits="userSpaceOnUse">
      <stop offset="0" stop-color="#eb5b56" stop-opacity=".8"/>
      <stop offset="1" stop-color="#eda676"/>
    </radialGradient>
  </defs>
  <g id="Capa_5" data-name="Capa 5">
    <path class="cls-5" d="M.04,51.81c2.17-11.27,5.56-26.12,18.76-38.87C30.95,1.21,56.4-13.79,82.28,24.93c24.71,36.97,7.11,73.92-35.37,75.22C16.81,101.08-.95,88.58.04,51.81Z"/>
  </g>
  <g id="Capa_8" data-name="Capa 8">
    <rect class="cls-11" x="73.91" y="29.32" width="2.88" height="44.46" transform="translate(-3.56 5.63) rotate(-4.18)"/>
    <rect class="cls-11" x="18.91" y="33.34" width="2.88" height="44.46" transform="translate(-4 1.63) rotate(-4.18)"/>
    <path class="cls-4" d="M25.95,53.94s7.11-15.27,20.69-17.15c7.17-.99,14.53,4.03,18.76,8.42,2.95,3.06,4,5.88,4,5.88l1.38-.91,2-.21,1.94.73,2.06,1.69.92,3.35-.58,2.5-1.06,1.94-1.19,1.51-2.22,1-3.69-.6-2.14-1.23-1.74,2.38-3.1,2.93,3.98,2.2,4.98,3.71,1.75,1.97.68,1.53.11,1.99-1.04,1.47-3.17,1.12-4.15-2.03-5.45-6.09.04.54-.46-.04-19.67,1.12-1.1.47-1.68,2.65-2.55,3.61-2.77,2.23-2.64.7-1.19-.42-1.26-.62-.88-1.87.12-2.82,1.73-2.51,4.39-4.41,3.21-2.17,1.52-.11-2.53-1-3.16-2.38-.94-1.47-1,.85-1.61,1-1.68.71-2.33.02-1.39-.81-1.36-1.09-.85-1.24-.72-2.38-.59-1.67.57-1.53.97-1.68,1.66-1.4,2.75-.8,2.17,1.03"/>
    <path class="cls-7" d="M82.65,51.68c-.32-4.42-4.17-7.74-8.58-7.41-4.42.32-7.74,4.17-7.41,8.58.32,4.42,4.17,7.74,8.58,7.41.67-.05,1.28-.8,1.89-1,3.42-1.12,5.8-3.83,5.53-7.58Z"/>
    <path class="cls-1" d="M29.8,55.01c-.32-4.42-4.17-7.74-8.58-7.41-4.42.32-7.74,4.17-7.41,8.58.32,4.42,4.17,7.74,8.58,7.41.67-.05,1.28-.8,1.89-1,3.42-1.12,5.8-3.83,5.53-7.58Z"/>
    <circle class="cls-10" cx="62.17" cy="62.57" r="8.02"/>
    <circle class="cls-14" cx="35.4" cy="64.53" r="8.02"/>
    <circle class="cls-12" cx="48.44" cy="58.87" r="8.02"/>
    <path class="cls-8" d="M3.7,51.08s6.22,1.99,15.21,1.6l-1.41-19.37,57.63-4.04,1.5,18.65s11.07-1.87,10.95-3.14S73.22,2.59,43.4,4.94C13.26,7.31,3.7,51.08,3.7,51.08Z"/>
    <rect class="cls-11" x="44.7" y="10.32" width="2.88" height="44.46" transform="translate(75.24 -15.83) rotate(85.82)"/>
    <rect class="cls-11" x="47.71" y="45.55" width="3.12" height="58.02" transform="translate(120.04 19.99) rotate(85.82)"/>
    <path class="cls-17" d="M21.31,53.86s-4.74-6.16-3.11-16.38c1.63-10.22,5.26-15.53,5.26-15.53,0,0-.19,9.47,4.02,11.99,0,0,12.88-13.41,32.06-5.68.85.34,2,.75,2.83,1.27s1.54,1.11,2.28,1.69c0,0,2.78-2.1,2.91-3.26.13-1.16.51-5.81.51-5.81l-.61-3.13,1.88,2.03,1.83,3.68,1.75,2.77,1.92,5.15,1.02,3.22.88,3.78-.38,3.97-.55,2.64-.45,2.13-.59,1.57-.45.52-1.89-.46-1.46.15-1.09.88-1.37-1.45s-.95-2.22-3.38-4.68c-3.65-3.7-10.15-8.16-17.96-8.16-1.37,0-2.61.34-3.87.68-10.66,2.9-17.18,16.49-17.18,16.49l-2.55-.4-1.49.4-.76-.06Z"/>
    <path class="cls-13" d="M19.43,55.78c-.71.05-7.57,1.2-14.74-.77,0,0-3.32,28.9,20.63,37.48,21.89,7.85,53.56-.09,60.28-18.04,6.24-16.67,2.26-25.98,2.26-25.98l-10.83,3.08.78,3.96-.33,3.11.94,14.99-5.56.41-48,3.51-4.36-.09-.53-13.82-.73-1.63-.2-2.42-.17-.62.56-3.18Z"/>
    <path class="cls-11" d="M8.02,52.69l-.34,2.75s9.65,1.57,11.96.26l-.42-2.69-.3-.32-10.67-.25-.23.25Z"/>
    <polygon class="cls-11" points="84.38 46.79 84.79 49.11 77.14 51.31 76.71 48.28 84.38 46.79"/>
    <path class="cls-9" d="M30.45,46.98c.12.04,1.8-.5,1.8-.5l2.05-1.09,1.47.55s2.89-.13,2.94-.21,1.92-1.12,1.92-1.12l1.38-1.11.56-.4s.71,1.78.71,1.86,1.33,1.85,1.33,1.85l1.95,1.17,2.69.18,1.61-.68.31-.69-1.96-.65-1.22-.86-.29-1.23s.49-1.05.51-1.16.94-1.31.94-1.31l.32-1.2.17-.66,1.12,1.45,1.85,2.09,1.47.89s1.55.43,1.7.56,1.86.3,1.97.25.61-.19.61-.19l-1.3-.84-1.01-.68-.7-.85-.65-1.23-.43-.93-.37-.59,1.54.88.82.88,1.4.38,1.07.79s1.23.49,1.41.56,1.51.45,1.51.45l1.32.41.87-.06-1.93-1.77s-8.61-6.33-15.37-5.08c-1.55.29-3.16.36-4.47.83-4.42,1.58-7.12,4.11-7.12,4.11l-3.11,3.21-1.39,1.72Z"/>
    <ellipse class="cls-5" cx="60.02" cy="57.44" rx="6.51" ry="6.24" transform="translate(-4.03 4.53) rotate(-4.18)"/>
    <ellipse class="cls-5" cx="36.83" cy="59.14" rx="6.51" ry="6.24" transform="translate(-4.22 2.84) rotate(-4.18)"/>
    <circle class="cls-3" cx="33.76" cy="86.72" r="3.26"/>
    <circle class="cls-3" cx="63.11" cy="84.57" r="3.26"/>
    <circle class="cls-3" cx="10.2" cy="65.66" r="1.44"/>
    <circle class="cls-3" cx="9.5" cy="61.41" r="1.72"/>
    <circle class="cls-3" cx="13.77" cy="62.64" r="1.01"/>
    <path class="cls-8" d="M7.01,73.16c.1-.06,1.45-.11,1.45-.11l1.28.07,1.28.45,1.82.87,1.21,1.07.88,1.8.48,1.78-.12,1.35-.37,1.93-.69,1.61-.47.6-1.09-1.28-2.78-3.98s-1.36-2.63-1.44-2.68-1.2-2.7-1.2-2.7l-.24-.63"/>
    <path class="cls-5" d="M6.57,72.51l-1.47-5.71.71-.16,1.33.32,1.05.67.63,1.01s.22.96.19,1.1-.29,1.17-.37,1.3-1.29,1.16-1.29,1.16l-.78.32Z"/>
    <path class="cls-5" d="M4.67,61.2l1.41.56.64,1.36s.14,1.2.05,1.26-.75.99-.75.99l-1,.61-.35-4.77Z"/>
    <path class="cls-5" d="M4.61,60.35l.87-.25.58-.88-.06-.86s-.19-.79-.23-.9-1.06-.4-1.06-.4l-.54.16.59,3.41"/>
    <path class="cls-5" d="M88.51,54.88l-1.31.75-.43,1.44s.03,1.21.13,1.25.89.87.89.87l1.08.46-.35-4.77Z"/>
    <path class="cls-5" d="M88.45,54.03l-.9-.12-.7-.79-.06-.86s.08-.81.1-.92.99-.55.99-.55l.55.08.21,2.92"/>
    <circle class="cls-3" cx="83.69" cy="59.91" r="1.44"/>
    <circle class="cls-3" cx="83.73" cy="54.95" r="1.72"/>
    <circle class="cls-3" cx="79.72" cy="57.44" r="1.01"/>
    <path class="cls-8" d="M87.94,66.86c-.11-.05-1.45.11-1.45.11l-1.25.26-1.2.63-1.67,1.12-1.05,1.24-.61,1.91-.22,1.83.32,1.32.64,1.86.91,1.5.55.53.89-1.43,2.17-4.34s.96-2.8,1.03-2.86.79-2.84.79-2.84l.14-.66"/>
    <path class="cls-5" d="M88.28,66.16l.62-5.86-.72-.06-1.27.51-.94.81-.47,1.09s-.08.98-.03,1.11.46,1.11.56,1.23,1.44.96,1.44.96l.81.2Z"/>
    <path class="cls-5" d="M68.3,66.01l-1.54.53-.43,1.44s.03,1.21.13,1.25.89.87.89.87l1.08.46-.12-4.55Z"/>
    <path class="cls-5" d="M68.02,64.94l-.9-.12-.7-.79-.06-.86s.08-.81.1-.92.99-.55.99-.55l.55.08.24,3.3"/>
    <path class="cls-17" d="M40.8,82.84l-.15.94.21,1.39.78,1.43,1.02.95,1.18.56s1.98.82,2.09.88,2.78,1.09,2.78,1.09l.48.1,2.94-1.76,1.35-.77,1.15-.95.9-.96.89-1.12.11-1.14-.08-1.16-.56-.99-1.35-1.12-1.18.09-1.79.24-1.31.99-1.08.81-.65.35-2.51-1.36-1.7-.25h-1.38s-1.23.54-1.25.62-.88,1.14-.88,1.14Z"/>
    <path class="cls-11" d="M74.7,50.31c0,.08,1.09,1.17,1.09,1.17l1.14.86s.03-1,.04-1.1-.43-5.01-.43-5.01l-.69,1.25-.77,1.85-.38.99Z"/>
    <path class="cls-16" d="M59.26,71.28c.42.44,2.95,3.81,2.95,3.81l2.57,2.7,3.84,2.14,2.01.33,2.18-.87,1.28-2.11-.13-1.75-1.4-1.95-1.35-1.52-4.61-3.39-4.11,1.05-3.25,1.57"/>
    <path class="cls-15" d="M39.45,73.22c-.36.5-2.37,4.2-2.37,4.2l-2.15,3.05-3.49,2.68-1.88.42-2.18-.66-1.39-1.63-.23-1.66.86-2.2,1.12-1.7,2.33-2.57,4.22.44,5.17-.38"/>
    <polygon class="cls-11" points="18.86 49.57 21.32 53.9 20.77 54.64 19.59 56.17 19.31 56.19 18.88 50.38 18.86 49.57"/>
    <circle class="cls-5" cx="48.35" cy="58.88" r=".33"/>
  </g>
  <g id="Capa_7" data-name="Capa 7">
    <path class="cls-6" d="M47.97,61.89c1.03-.27,2.09.1,2.76.92.78.97-.03,2.08-1.11,2.31-.99.21-2.86.29-3.23-.93-.27-.9.77-2.08,1.59-2.3ZM48.28,62.32c-.64,0-.6.58.04.48l-.04-.48ZM48.91,62.76c.64,0,.6-.58-.04-.48l.04.48Z"/>
    <path class="cls-6" d="M47.66,60.3c-.12-.14-.12-.6.25-.49.48.14.06.84-.25.49Z"/>
    <path class="cls-6" d="M49.17,59.72c.3.26-.31.87-.45.45-.12-.35.32-.57.45-.45Z"/>
    <path class="cls-5" d="M48.28,62.32l.07.91c-.63.16-.71-.97-.07-.91Z"/>
    <path class="cls-5" d="M48.95,63.19l-.07-.91c.63-.16.71.97.07.91Z"/>
    <g>
      <path class="cls-6" d="M84.86,49.13l3.38-.84c.44,1.61.55,3.24.71,4.89,1.91,20.23-7.8,35.06-27.58,40.19-9.01,2.34-20.4,2.96-29.54,1.07-14.76-3.05-24.17-12.91-26.87-27.76-.71-3.92-.99-8.22-.47-12.15l3.21.84.16-2.79c-.77-.2-4.12-.54-4.14-1.59C7.95,30.76,20.11,7.44,42.92,4.76c15.46-1.82,27.47,9.22,35.57,21.03,3.17,4.62,6.5,10.4,8.39,15.68.27.76.91,2.49.86,3.22-.08,1.09-2.51,1.72-3.36,2.09l.48,2.35ZM76.92,47.82c2.47-.4,5.09-.81,7.47-1.58.71-.23,2.87-.89,2.86-1.74,0-.72-.76-2.63-1.04-3.4-2.11-5.64-5.76-11.83-9.28-16.7C68.54,12.85,56.82,3.05,41.56,5.47,19.88,8.89,8.34,31.46,4.29,50.93c.07.37,1.06.61,1.39.7,1.05.29,2.23.41,3.32.52,3.2.34,6.45.33,9.67.28-.17-1.29-.1-2.69-.29-3.97-.15-1.05-.56-2.09-.71-3.15-.35-2.56.05-4.68.07-7.14.01-1.53-.33-3.17-.33-4.71l.16-.19c.38-.16.92.11,1.2-.29.31-.47.8-2.47,1.07-3.18.83-2.24,1.95-5.46,3.18-7.44.23-.37.48-.89.98-.86.24.14-.12,2.79-.11,3.28.02,2.84.69,5.8,2.79,7.8.28.06,2.12-.1,2.41-.21s1.43-1.19,1.87-1.49c8.18-5.56,21.78-6.55,30.69-2.24.48.23,1.78,1.13,2.07,1.2.35.08,2.32-.05,2.55-.24.11-.09.7-1.2.8-1.41.92-2.06,1-4.28.7-6.5-.15-1.1-.6-2.15-.6-3.27,0-.11.22-.1.29-.09.4.07,1.53,1.7,1.82,2.13,1.77,2.64,3.26,5.68,4.73,8.5.29.36.85.02,1.23.12l.19.16c.23,1.53.13,3.2.36,4.71.37,2.43,1.08,4.47,1.11,7.05.01,1.07-.25,2.16-.24,3.22,0,1.17.25,2.43.27,3.61ZM67.45,33.77c-1.84-1.82-3.79-3.63-6.17-4.72-11.25-5.18-27.47-2.7-35.3,7.28-.23.29-1.2,1.92-1.4,1.89-.55-.08.31-1.21.43-1.39.67-1.03,1.54-1.93,2.4-2.81.03-.19-1.18-1.08-1.4-1.31-2.02-2.14-2.54-5.04-2.61-7.9-.01-.68.21-1.42.03-2.08-3.71,7.67-7.02,16.58-4.7,25.19.57,2.13,1.45,4.14,2.65,5.98,1.39-.82,3.2-.9,4.67-.24.86-1.34,1.5-2.82,2.32-4.18,7.67-12.87,21.53-17.25,33.91-7.49,2.98,2.35,5.2,5.42,7.45,8.44,1.43-.74,3.14-1.06,4.67-.44,1.03-1.94,1.56-4.21,1.81-6.38.79-6.97-1.84-13.28-5.19-19.18-.95-1.68-1.97-3.48-3.2-4.95.97,4.21.96,8.61-2.34,11.78-.02.21,1.58,1.65,1.81,1.99.12.18.17.31.15.53ZM17.89,33.71l.15,2.01.57-2h-.72ZM28.53,32.93l-1.3.15c.59.65.87.63,1.3-.15ZM65.65,30.21l-1.3.15.79.47.51-.62ZM74.99,29.53l-.71.11.85,1.9-.15-2.01ZM50.82,46.87c-1.33-.05-3.06-1.04-3.26-2.45-.25-1.74,2.08-3.41,1.71-5.56-.08-.46-.51-1.6-1-1.66-.43-.05-3.09.17-3.48.32-.6.23-1.55,2.51-1.71,3.17-.69,3.03,1.21,6.01,4.22,6.73,1.13.27,2.67.36,3.52-.55ZM34.63,44.84c1.96.91,4.01.51,5.82-.56.48-.29,1.84-1.31,2.02-1.8s-.17-1.88.26-2.54l1.11-2.31c-.71.32-1.84.37-2.48.79-1.57,1.02-2.83,5.16-5.04,5.95l-1.69.47ZM57.66,44.47c-1.2-.37-2.26-1.54-2.91-2.6-.74-1.2-1.12-2.93-2.25-3.81-.96-.75-2.14-.91-3.33-.82.46.66.48,1.41.89,2.11,1.3,2.18,4.61,5.01,7.22,5.23.13.01.42.1.38-.12ZM63.55,43.8c-2.95-2.79-6.63-4.89-10.54-6,.98,1.29,2.33,2.14,3.7,2.96,2.13,1.29,4.4,2.46,6.84,3.04ZM40.03,39.1c-1.8.8-3.51,1.98-5.03,3.24-1.23,1.01-2.8,2.48-3.73,3.76-.1.14-.27.21-.2.43l3.11-1.3c-1.54-1.44,0-.91.92-1.03,2.31-.3,3.82-3.32,4.93-5.1ZM60.05,44.87c-2.48.7-5.17-.03-7.12-1.66l-3.2-3.28c.01,1.81-2.56,3.51-1.26,5.24.64.85,1.78,1.11,2.78,1.27.14.02,1.37-.03.82.46-.17.15-1.3.75-1.56.85-3.31,1.3-7.33-1.11-7.92-4.57-1.68,1.89-4.29,2.96-6.83,2.59-.32-.05-.93-.34-1.15-.33-.15.01-1.77.86-2.15,1.01-.54.22-1.33.33-1.78.56-.33.17-.87,1.11-1.11,1.48-.76,1.17-2.37,3.77-2.85,4.98-.05.14-.07.29-.1.44.02.1,1,.35.47.75-2.28-1.22-4.81-1.47-6.6.72-4.61,5.63,2.73,13.53,8.09,9.09.27-.23,1.13-1.45,1.27-1.45,2.14,2.49,4.31,4.2,7.55,4.97,2.65.63,10.19,1.91,12.63,1.5,1.71-.29,4.19-1.12,5.92-1.64,3.94-1.19,7.35-2.04,9.98-5.45.26-.33,1.17-1.92,1.42-1.99.67.13,1.06.82,1.63,1.15,5.4,3.15,10.77-3.81,7.78-8.75-1.52-2.51-4.37-3.54-6.92-1.77l-.15-.02c-.49-.2-2.81-3.6-3.38-4.3s-1.17-1.37-1.78-2.05c-2.94-.7-5.5-1.93-8.08-3.47-.47-.28-1.51-1.12-1.9-1.26-.06-.02-.2,0-.17.07,1.15,2.48,2.67,4.46,5.66,4.41l.03.45ZM19.01,50.62l.37,5.03.25.1c.17-.4,1.19-1.23,1.2-1.52l-1.81-3.61ZM76.73,51.75l-.38-5.2-1.38,3.63.11.21,1.66,1.36ZM83.86,46.95l-6.78,1.34c-.26.88.26,1.78.18,2.7l7.11-1.72-.52-2.32ZM18.91,55.74l-.19-2.54s-.14-.27-.22-.29c-3.38.14-6.79,0-10.16-.32l-.27,2.87c3.57.6,7.23.63,10.84.28ZM78.63,73.61l-5.14.38c1.69,3.04.18,6.25-3.41,6.32-3.12.06-5.62-2.85-7.71-4.8l-.48-.08-24.59,1.81c-.35.09-2.02,2.49-2.46,2.97-.78.87-2.02,2.07-3.08,2.55-3.97,1.78-7.45-1.11-5.92-5.28l-5.14.38-.21-.39-1.05-14.43c-.57-1.29-.91-2.53-.87-3.96.03-.95.5-1.79.38-2.72-4.7.27-9.51.26-14.04-1.11l-.19,1.56c2.27.26,2.32,3.4.04,3.69-.11.65.37.42.83.63,2.17.93,2.04,4.09-.19,4.8l.02.46c3.46-.65,5.31,3.62,2.41,5.79-.32.24-.89.21-.74.74,6.56-.7,10.19,4.25,7.59,10.38-.14.33-.65.97-.55,1.26.19.54,3.68,3.32,4.36,3.8,11.11,7.84,28.28,7.87,41.1,4.94,8.94-2.04,17.55-6.38,22.89-14.02.06-.09.02-.15,0-.24-.1-.29-.92-1.26-1.17-1.73-2.81-5.37.54-10.43,6.42-10.53.47-.5-.33-.42-.76-.64-3.25-1.61-1.9-6.4,1.66-6.09.24-.59-.44-.42-.92-.67-2.15-1.12-1.64-4.62.88-4.8l-.03-.47c-2.65.32-3.04-3.44-.39-3.66-.12-.3-.14-1.45-.42-1.5l-10.56,2.54c-.11,1.11.61,1.95.8,2.99.25,1.37-.03,2.71-.28,4.05l1.08,14.67-.15.42ZM88.2,50.91c-1.9.18-1.76,2.77.14,2.73.25,0,.15-.01.17-.19.02-.31-.18-2.43-.31-2.54ZM4.84,59.98c1.18-.23,1.56-1.86.53-2.47-.69-.4-.65.03-.66.64s.12,1.23.13,1.83ZM88.62,55.04c-1.91.2-2.43,2.82-.78,3.79.7.41.89.42.91-.42.03-1.11-.05-2.27-.13-3.38ZM4.82,61.41l.38,3.6.1.4c1.9-.94,1.67-3.68-.47-4ZM19.96,63.63l1,13.72,5.2-.38,1.28-2-4.37.32-.7-9.64c-.9-.58-1.66-1.28-2.41-2.02ZM78.3,73.15l-1-13.72c-.52.69-.99,1.38-1.65,1.96-.15.14-.44.44-.43.47l.7,9.56-4.37.32,1.56,1.79,5.2-.38ZM88.66,60.51c-3.56-.16-4.17,4.6-.73,5.4l.73-5.4ZM6.78,71.97c3.29-.83,2.14-5.71-1.21-5.14l1.21,5.14ZM39.7,73.48l19.5-1.43c-.28-.42-.8-.98.06-.78,2.74,2.74,7.32,9.46,11.79,8.42,1.27-.3,2.35-1.33,2.6-2.63.69-3.64-5.36-7.25-8.04-8.79-1.2-.69-2.43-1.34-3.71-1.87-1.51.52-3.02,1.09-4.55,1.56-2.48.76-6.79,2.22-9.26,2.13-2.13-.08-5.02-.6-7.17-.93-1.59-.24-3.16-.58-4.73-.88-3.19,2.23-9.09,6.2-10.1,10.11-.64,2.47,1.12,4.55,3.64,4.37,4.19-.3,7.52-6.96,9.72-10,1.1-.57.18.67.24.7ZM87.61,67.24c-6.52.22-8.76,6.49-4.87,11.41.19.11.83-1.01.96-1.22,1.88-3.02,3.29-6.7,3.91-10.19ZM7.36,73.35c1.34,3.95,3.53,7.62,6.31,10.71,3.46-5.3.2-11.49-6.31-10.71ZM61.67,74.96c.03-.2-.06-.27-.15-.41-.15-.24-1.75-2-1.9-2.03l-20.19,1.45c-.51.14-1.51,2.19-1.89,2.69l24.12-1.7Z"/>
      <path class="cls-6" d="M42.82,80.86c2.09-.46,3.92.55,5.67,1.54,1.68-1.28,3.6-2.76,5.86-2.26.99.22,2.05,1.24,2.27,2.25.98,4.61-4.41,6.04-7.37,8.03l-.26.05c-3.23-1.52-8.84-2.17-8.54-6.89.08-1.21,1.2-2.45,2.38-2.71ZM42.86,81.33c-1.69.38-2.27,2.3-1.8,3.82.92,3.01,5.49,3.55,7.9,4.84,1.07-.61,2.21-1.15,3.27-1.78,2.14-1.27,5.03-3.05,3.82-6.06-1.32-3.29-5.86-.92-7.51.88-1.66-1.11-3.61-2.16-5.68-1.7Z"/>
      <path class="cls-6" d="M58.67,50.61c9.07-1.71,11.18,11.95,2.49,13.34-8.82,1.41-10.9-11.75-2.49-13.34ZM60.62,52.83c-1.33.29-1.38,2.37.06,2.56,2.07.27,1.86-2.99-.06-2.56ZM53.95,55.56c-1.19,4.75,3.03,9.06,7.82,7.69,3.94-1.12,5.6-5.56,3.72-9.13-.21-.01-.1.27-.07.41,1.45,8.67-10.37,9.75-11.36,2-.04-.27.2-.85-.1-.97Z"/>
      <path class="cls-6" d="M35.51,52.3c9.07-1.71,11.18,11.95,2.49,13.34-8.82,1.41-10.9-11.75-2.49-13.34ZM43.07,57.9c-.23.06-.18.26-.21.43-1.81,8.26-12.33,5.57-11.46-1.48.07-.57.29-1.03.43-1.57-2.86,3.82-.47,9.31,4.26,9.88,4.23.51,7.51-3.1,6.98-7.25ZM37.6,54.99c-1.33.29-1.35,2.38.06,2.56,2.07.27,1.86-2.99-.06-2.56Z"/>
      <path class="cls-6" d="M25.63,57.06c.08.12.04.3.06.45-.52-.13-.95-.5-1.52-.49-2.97.06-2.74,5.78.84,5.05.39-.08.95-.5,1.18-.53.16-.03.32.11.29.26-1.55,1.25-3.82.97-4.56-1.01s.3-4.35,2.67-4.12c.18.02.98.3,1.04.4Z"/>
      <path class="cls-6" d="M70.55,58.27c1.02.28,2.13.67,3.08-.05,1.99-1.51.59-5.65-2.13-4.5-.17.07-.81.68-.9.33s.92-.79,1.2-.85c3.74-.8,4.33,5.62.66,5.89-.29.02-2.29-.33-1.9-.82Z"/>
    </g>
    <path class="cls-2" d="M59.26,48.39c-2.58.16-4.76,1.46-6.16,3.6"/>
    <path class="cls-2" d="M36.67,50.02c2.57-.22,4.92.75,6.61,2.67"/>
  </g>
</svg>