<?xml version="1.0" encoding="UTF-8"?>
<svg id="Capa_2" data-name="Capa 2" xmlns="http://www.w3.org/2000/svg" xmlns:xlink="http://www.w3.org/1999/xlink" viewBox="0 0 93.52 100.16">
  <defs>
    <style>
      .cls-1 {
        fill: url(#Degradado_sin_nombre_96);
      }

      .cls-2 {
        fill: none;
        stroke-linecap: round;
        stroke-width: .5px;
      }

      .cls-2, .cls-3 {
        stroke: #1d1d1b;
        stroke-miterlimit: 10;
      }

      .cls-4 {
        fill: url(#Degradado_sin_nombre_90);
      }

      .cls-3 {
        stroke-width: .4px;
      }

      .cls-3, .cls-5 {
        fill: #fff;
      }

      .cls-6 {
        fill: url(#Degradado_sin_nombre_90-2);
      }

      .cls-7 {
        fill: #1d1d1b;
      }

      .cls-8 {
        fill: #f8d68d;
      }

      .cls-9 {
        fill: url(#Degradado_sin_nombre_96-2);
      }

      .cls-10 {
        fill: url(#Degradado_sin_nombre_100);
      }

      .cls-11 {
        fill: #b08cc0;
      }

      .cls-12 {
        fill: #f9cfe3;
      }

      .cls-13 {
        fill: #fbeae5;
      }

      .cls-14 {
        fill: url(#Degradado_sin_nombre_100-2);
      }

      .cls-15 {
        fill: url(#Degradado_sin_nombre_94);
      }

      .cls-16 {
        fill: #cfd9f0;
      }

      .cls-17 {
        fill: #e47eb1;
      }
    </style>
    <radialGradient id="Degradado_sin_nombre_96" data-name="Degradado sin nombre 96" cx="440.6" cy="-210.61" fx="440.6" fy="-210.61" r="8.02" gradientTransform="translate(-364.45 270.08) rotate(-.58)" gradientUnits="userSpaceOnUse">
      <stop offset="0" stop-color="#f39dab"/>
      <stop offset=".31" stop-color="#f5b1ba"/>
      <stop offset=".94" stop-color="#fae7e3"/>
      <stop offset=".97" stop-color="#fbeae5"/>
    </radialGradient>
    <radialGradient id="Degradado_sin_nombre_96-2" data-name="Degradado sin nombre 96" cx="387.65" cy="-211.15" fx="387.65" fy="-211.15" r="8.02" xlink:href="#Degradado_sin_nombre_96"/>
    <radialGradient id="Degradado_sin_nombre_90" data-name="Degradado sin nombre 90" cx="427.4" cy="-201.24" fx="427.4" fy="-201.24" r="8.02" gradientTransform="translate(-364.45 270.08) rotate(-.58)" gradientUnits="userSpaceOnUse">
      <stop offset="0" stop-color="#f39dab"/>
      <stop offset=".36" stop-color="#f6bec4"/>
      <stop offset=".75" stop-color="#f9dedc"/>
      <stop offset=".97" stop-color="#fbeae5"/>
    </radialGradient>
    <radialGradient id="Degradado_sin_nombre_90-2" data-name="Degradado sin nombre 90" cx="400.56" cy="-201.24" fx="400.56" fy="-201.24" r="8.02" xlink:href="#Degradado_sin_nombre_90"/>
    <radialGradient id="Degradado_sin_nombre_94" data-name="Degradado sin nombre 94" cx="413.94" cy="-205.06" fx="413.94" fy="-205.06" r="8.02" gradientTransform="translate(-364.45 270.08) rotate(-.58)" gradientUnits="userSpaceOnUse">
      <stop offset="0" stop-color="#f39dab"/>
      <stop offset=".13" stop-color="#f5b1ba"/>
      <stop offset=".32" stop-color="#f7cacc"/>
      <stop offset=".52" stop-color="#f9dbda"/>
      <stop offset=".73" stop-color="#fae6e2"/>
      <stop offset=".97" stop-color="#fbeae5"/>
    </radialGradient>
    <radialGradient id="Degradado_sin_nombre_100" data-name="Degradado sin nombre 100" cx="435.86" cy="-184.96" fx="435.86" fy="-184.96" r="10" gradientTransform="translate(498.03 271.9) rotate(-134.21) scale(1 .94)" gradientUnits="userSpaceOnUse">
      <stop offset="0" stop-color="#f39dab"/>
      <stop offset=".07" stop-color="#f3a6b2"/>
      <stop offset=".31" stop-color="#f7c3c8"/>
      <stop offset=".55" stop-color="#f9d9d8"/>
      <stop offset=".78" stop-color="#fae5e1"/>
      <stop offset="1" stop-color="#fbeae5"/>
    </radialGradient>
    <radialGradient id="Degradado_sin_nombre_100-2" data-name="Degradado sin nombre 100" cx="-1277.53" cy="-184.71" fx="-1277.53" fy="-184.71" r="9.89" gradientTransform="translate(770.59 -970.89) rotate(-46.96) scale(1 -.94)" xlink:href="#Degradado_sin_nombre_100"/>
  </defs>
  <g id="Capa_5" data-name="Capa 5">
    <path class="cls-5" d="M.1,51.02c2.36-11.23,6-26.02,19.42-38.55C31.87.95,57.57-13.61,82.79,25.55c24.07,37.38,5.85,74.03-36.65,74.61C16.03,100.56-1.51,87.76.1,51.02Z"/>
  </g>
  <g id="Capa_8" data-name="Capa 8">
    <rect class="cls-17" x="73.28" y="32.09" width="2.88" height="44.46" transform="translate(-.55 .77) rotate(-.58)"/>
    <rect class="cls-17" x="18.14" y="32.65" width="2.88" height="44.46" transform="translate(-.56 .2) rotate(-.58)"/>
    <path class="cls-13" d="M25.55,53.6s8.05-14.79,21.72-15.82c12.25-.92,21.82,15.7,21.82,15.7l1.43-.82,2.01-.08,1.89.85,1.95,1.81.7,3.4-.74,2.46-1.18,1.87-1.29,1.43-2.28.86-3.65-.83-2.06-1.37-1.88,2.27-3.28,2.73,3.84,2.45,4.74,4.01,1.62,2.07.59,1.57v1.99s-1.15,1.4-1.15,1.4l-3.24.92-4.02-2.29-5.06-6.42v.54s-.45-.07-.45-.07l-19.76-.39-1.07.67-1.85,2.54-2.77,3.44-2.9,2.06-2.68.53-1.16-.49-1.22-.69-.76-1.92.29-2.81,1.88-2.4,5.42-3.94,2.57-2.15,1.52-.02-2.46-1.15-3-2.57-.84-1.53-1.05.79-1.67.9-1.72.61-2.33-.13-1.34-.9-1.28-1.18-.77-1.29-.57-2.42-.48-1.71.66-1.49,1.07-1.61,1.74-1.29,2.8-.62,2.1,1.16"/>
    <path class="cls-1" d="M81.99,54.91c-.05-4.43-3.67-7.98-8.1-7.94s-7.98,3.67-7.94,8.1c.05,4.43,3.67,7.98,8.1,7.94.67,0,1.33-.72,1.95-.88,3.48-.9,6.03-3.46,5.99-7.22Z"/>
    <path class="cls-9" d="M29.04,54.91c-.05-4.43-3.67-7.98-8.1-7.94-4.43.05-7.98,3.67-7.94,8.1s3.67,7.98,8.1,7.94c.67,0,1.33-.72,1.95-.88,3.48-.9,6.03-3.46,5.99-7.22Z"/>
    <circle class="cls-4" cx="60.87" cy="64.49" r="8.02"/>
    <circle class="cls-6" cx="34.03" cy="64.77" r="8.02"/>
    <circle class="cls-15" cx="47.37" cy="60.81" r="8.02"/>
    <path class="cls-16" d="M3.23,49.36s6.08,2.37,15.08,2.55l-.19-19.42,57.77-.41.33,18.7s11.16-1.17,11.12-2.44S75.66,5.32,45.76,5.79C15.52,6.27,3.23,49.36,3.23,49.36Z"/>
    <rect class="cls-17" x="45.31" y="11.3" width="2.88" height="44.46" transform="translate(79.8 -13.56) rotate(89.42)"/>
    <rect class="cls-17" x="45.8" y="46.58" width="3.12" height="58.02" transform="translate(122.47 27.46) rotate(89.42)"/>
    <path class="cls-12" d="M20.64,53.23s-4.34-6.45-2.07-16.54c2.27-10.1,6.22-15.17,6.22-15.17,0,0-.78,9.44,3.26,12.21,0,0,13.85-12.4,32.47-3.54,1.69.8,3.3,1.63,4.8,3.16,0,0,2.9-1.92,3.11-3.07.2-1.15.88-5.76.88-5.76l-.41-3.16,1.75,2.14,1.6,3.79,1.57,2.87,1.59,5.26.82,3.27.64,3.83-.63,3.94-.72,2.6-.58,2.1-.69,1.53-.48.49-1.86-.58-1.47.4-1.15.48-1.28-1.53s-7.52-13.33-20.49-14.16c-12.97-.83-22.08,15.81-22.08,15.81l-2.63-.27-1.4.02-.76-.11Z"/>
    <path class="cls-11" d="M18.64,55.03c-.71,0-7.63.73-14.67-1.69,0,0-5.37,29.21,18.23,38.7,21.82,8.77,53.46,3.28,61.29-14.22,7.28-16.25,3.89-25.79,3.89-25.79l-11,2.4.53,4-.52,3.09v15.02s-5.58.06-5.58.06l-48.12.49-4.35-.36.34-13.82-.63-1.67-.05-2.43.63-3.77Z"/>
    <path class="cls-17" d="M7.44,51.23l-.51,2.72s9.53,2.17,11.92,1.01l-.25-2.71-.28-.34-10.63-.92-.24.24Z"/>
    <polygon class="cls-17" points="84.03 50.13 84.29 52.47 76.52 54.19 76.28 51.14 84.03 50.13"/>
    <path class="cls-8" d="M30.19,46.94c.12.05,1.82-.38,1.82-.38l2.11-.96,1.43.64s2.9.05,2.95-.03,1.98-1,1.98-1l1.45-1.02.58-.37s.59,1.82.59,1.9,1.21,1.93,1.21,1.93l1.87,1.29,2.68.35,1.65-.58.35-.67-1.91-.77-1.16-.93-.21-1.25s.55-1.01.59-1.12,1.02-1.25,1.02-1.25l.4-1.18.21-.65,1.02,1.52,1.71,2.2,1.41.98s1.52.53,1.66.67,1.84.41,1.95.38.62-.15.62-.15l-1.25-.93-.97-.74-.64-.89-.57-1.27-.37-.95-.33-.61,1.48.98.77.93,1.37.47,1.02.86s1.19.56,1.37.65,1.48.54,1.48.54l1.3.49h.87s-1.82-1.9-1.82-1.9c0,0-8.19-6.86-15.02-6.03-1.64.2-3.37.21-4.76.62-4.39,1.3-7.11,3.58-7.11,3.58l-3.3,3.01-1.49,1.63Z"/>
    <ellipse class="cls-5" cx="59.05" cy="59.24" rx="6.51" ry="6.24" transform="translate(-.6 .61) rotate(-.58)"/>
    <ellipse class="cls-5" cx="35.8" cy="59.48" rx="6.51" ry="6.24" transform="translate(-.6 .37) rotate(-.58)"/>
    <circle class="cls-3" cx="31" cy="86.81" r="3.26"/>
    <circle class="cls-3" cx="60.43" cy="86.51" r="3.26"/>
    <circle class="cls-3" cx="8.81" cy="64.31" r="1.44"/>
    <circle class="cls-3" cx="8.38" cy="60.02" r="1.72"/>
    <circle class="cls-3" cx="12.56" cy="61.52" r="1.01"/>
    <path class="cls-16" d="M5.16,71.59c.11-.06,1.46-.01,1.46-.01l1.27.15,1.25.52,1.76.98,1.14,1.15.76,1.85.37,1.8-.21,1.34-.49,1.9-.79,1.57-.51.57-1.01-1.35-2.53-4.14s-1.19-2.71-1.27-2.77-1.03-2.77-1.03-2.77l-.2-.64"/>
    <path class="cls-5" d="M4.75,70.92l-1.11-5.79.71-.12,1.31.41,1.01.73.56,1.05s.16.97.12,1.1-.37,1.15-.45,1.27-1.36,1.08-1.36,1.08l-.79.27Z"/>
    <path class="cls-5" d="M3.57,59.51l1.37.64.55,1.4s.07,1.21-.03,1.26-.81.94-.81.94l-1.03.55-.05-4.78Z"/>
    <path class="cls-5" d="M3.56,58.66l.89-.2.63-.85v-.86s-.15-.8-.18-.91-1.03-.46-1.03-.46l-.54.13.37,3.44"/>
    <circle class="cls-3" cx="82.52" cy="63.18" r="1.44"/>
    <circle class="cls-3" cx="82.87" cy="58.24" r="1.72"/>
    <circle class="cls-3" cx="78.71" cy="60.47" r="1.01"/>
    <path class="cls-16" d="M86.32,70.39c-.11-.05-1.46.01-1.46.01l-1.27.18-1.24.55-1.74,1.02-1.12,1.17-.73,1.87-.33,1.81.23,1.34.53,1.89.82,1.55.52.56.98-1.37,2.44-4.19s1.13-2.74,1.21-2.79.97-2.79.97-2.79l.18-.65"/>
    <path class="cls-5" d="M86.71,69.71l.99-5.81-.72-.1-1.3.43-.99.75-.54,1.06s-.14.97-.1,1.11.39,1.14.48,1.26,1.38,1.05,1.38,1.05l.8.25Z"/>
    <path class="cls-5" d="M87.87,58.51l-1.57.44-.52,1.41s-.04,1.21.05,1.26.83.92.83.92l1.05.52.16-4.55Z"/>
    <path class="cls-5" d="M87.62,57.58l-.89-.18-.65-.83v-.86s.12-.8.15-.91,1.02-.49,1.02-.49l.55.12.03,3.31"/>
    <path class="cls-12" d="M38.27,83.38l-.21.93.13,1.4.69,1.48.95,1.02,1.14.64s1.93.94,2.03,1.01,2.71,1.26,2.71,1.26l.47.13,3.05-1.57,1.4-.69,1.21-.88.96-.9.96-1.06.18-1.13v-1.16s-.51-1.02-.51-1.02l-1.28-1.2h-1.19s-1.81.14-1.81.14l-1.37.9-1.13.74-.67.3-2.42-1.51-1.68-.36-1.38-.09s-1.26.47-1.29.55-.95,1.08-.95,1.08Z"/>
    <path class="cls-17" d="M74.1,52.98c0,.08,1.01,1.23,1.01,1.23l1.09.93s.09-1,.11-1.09-.12-5.03-.12-5.03l-.77,1.2-.88,1.79-.44.96Z"/>
    <path class="cls-10" d="M57.42,73c.4.47,2.71,3.99,2.71,3.99l2.4,2.86,3.7,2.38,1.99.45,2.23-.73,1.41-2.03-.02-1.75-1.27-2.04-1.25-1.61-2.54-2.37-4.16.79-5.18.05"/>
    <path class="cls-14" d="M37.64,73.2c-.39.47-2.63,4.04-2.63,4.04l-2.34,2.9-3.65,2.46-1.98.49-2.25-.68-1.45-2-.02-1.75,1.23-2.06,1.22-1.63,2.14-2.11,4.52.4,5.18-.05"/>
    <polygon class="cls-17" points="18.53 48.79 20.72 53.27 20.13 53.98 18.85 55.43 18.57 55.43 18.51 49.6 18.53 48.79"/>
    <circle class="cls-5" cx="47.28" cy="59.93" r=".33"/>
  </g>
  <g id="Capa_7" data-name="Capa 7">
    <path class="cls-7" d="M46.74,62.92c1.05-.21,2.08.23,2.69,1.09.72,1.02-.16,2.07-1.25,2.23-1.01.15-2.88.11-3.17-1.13-.22-.92.9-2.03,1.73-2.19ZM47.02,63.37c-.64-.05-.63.55,0,.48v-.48ZM47.63,63.84c.64.05.63-.55,0-.48v.48Z"/>
    <path class="cls-7" d="M46.53,61.31c-.11-.15-.08-.6.28-.47.47.17,0,.84-.28.47Z"/>
    <path class="cls-7" d="M48.08,60.83c.28.28-.36.85-.48.42-.1-.36.36-.54.48-.42Z"/>
    <path class="cls-5" d="M47.02,63.37v.91c-.63.12-.64-1.01,0-.91Z"/>
    <path class="cls-5" d="M47.63,64.27v-.91c.63-.12.64,1.01,0,.91Z"/>
    <g>
      <path class="cls-7" d="M84.36,52.5l3.43-.63c.34,1.63.35,3.27.4,4.92.64,20.31-9.98,34.51-30.04,38.38-9.14,1.77-20.54,1.67-29.54-.79-14.54-3.97-23.31-14.4-25.07-29.39-.46-3.96-.48-8.27.29-12.16l3.15,1.04.34-2.78c-.76-.25-4.08-.79-4.03-1.85C8.75,29.34,22.35,6.83,45.29,5.59c15.54-.84,26.83,10.92,34.18,23.22,2.87,4.81,5.83,10.79,7.39,16.18.22.77.75,2.55.65,3.27-.15,1.08-2.61,1.56-3.48,1.87l.33,2.37ZM76.51,50.69c2.49-.24,5.13-.49,7.55-1.11.72-.18,2.92-.71,2.96-1.56.04-.72-.59-2.68-.83-3.46-1.75-5.76-5-12.17-8.22-17.24-7.63-12.05-18.72-22.57-34.11-21.12C22.03,8.27,9.1,30.06,3.84,49.24c.05.37,1.02.67,1.34.79,1.03.36,2.21.54,3.28.73,3.18.54,6.42.74,9.63.89-.09-1.3.07-2.69-.04-3.98-.09-1.06-.43-2.12-.51-3.19-.19-2.58.35-4.67.52-7.12.11-1.53-.13-3.18-.03-4.72l.18-.18c.39-.13.92.17,1.21-.22.34-.44.95-2.41,1.26-3.1.97-2.18,2.29-5.33,3.64-7.23.25-.36.53-.86,1.04-.8.23.16-.29,2.78-.32,3.26-.16,2.83.32,5.83,2.3,7.96.27.08,2.12.04,2.41-.05s1.5-1.1,1.96-1.37c8.52-5.03,22.15-5.17,30.77-.31.46.26,1.7,1.24,1.99,1.33.35.1,2.32.1,2.56-.08.12-.09.78-1.15.89-1.36,1.05-2,1.27-4.21,1.1-6.44-.08-1.11-.47-2.19-.4-3.3,0-.11.22-.09.3-.07.39.09,1.42,1.79,1.68,2.24,1.6,2.75,2.89,5.87,4.19,8.78.27.38.85.07,1.22.19l.18.18c.13,1.54-.07,3.2.07,4.72.22,2.45.8,4.53.66,7.11-.06,1.07-.38,2.14-.44,3.2-.07,1.17.1,2.44.04,3.62ZM67.95,36.07c-1.73-1.93-3.55-3.86-5.86-5.1-10.9-5.87-27.25-4.42-35.69,5.05-.25.28-1.31,1.84-1.52,1.8-.54-.11.39-1.18.52-1.36.73-.98,1.66-1.83,2.57-2.65.04-.19-1.11-1.15-1.31-1.4-1.88-2.26-2.22-5.19-2.1-8.04.03-.68.3-1.4.16-2.07-4.19,7.42-8.05,16.11-6.27,24.85.44,2.16,1.18,4.23,2.27,6.14,1.44-.73,3.25-.69,4.68.06.94-1.28,1.68-2.72,2.57-4.03,8.46-12.37,22.57-15.86,34.31-5.34,2.83,2.53,4.85,5.74,6.9,8.89,1.48-.64,3.2-.87,4.69-.14,1.15-1.87,1.83-4.1,2.21-6.26,1.23-6.91-1-13.37-3.97-19.47-.84-1.73-1.74-3.59-2.88-5.15.71,4.26.41,8.65-3.07,11.61-.03.21,1.48,1.75,1.68,2.1.11.19.15.32.12.54ZM18.49,32.9l.02,2.02.69-1.96-.71-.05ZM29.16,32.79l-1.3.07c.54.68.83.68,1.3-.07ZM66.37,32.41l-1.3.07.76.52.54-.59ZM75.73,32.32l-.71.07.73,1.95-.02-2.02ZM50.53,48.11c-1.32-.13-2.99-1.23-3.1-2.65-.14-1.75,2.29-3.27,2.06-5.44-.05-.46-.4-1.63-.9-1.72-.43-.08-3.1-.02-3.49.1-.62.19-1.71,2.41-1.9,3.06-.88,2.98.83,6.07,3.78,6.99,1.11.34,2.64.53,3.55-.33ZM34.5,45.07c1.9,1.03,3.97.76,5.85-.19.5-.26,1.92-1.19,2.13-1.67.22-.49-.05-1.89.42-2.52l1.25-2.23c-.73.27-1.86.26-2.53.63-1.63.92-3.15,4.97-5.41,5.62l-1.72.37ZM57.5,46.14c-1.17-.44-2.16-1.68-2.74-2.77-.66-1.24-.93-2.99-2.01-3.94-.92-.81-2.08-1.04-3.27-1.03.41.69.39,1.44.76,2.16,1.16,2.26,4.29,5.29,6.88,5.67.13.02.41.12.38-.09ZM63.43,45.84c-2.77-2.97-6.31-5.3-10.14-6.65.89,1.35,2.19,2.28,3.5,3.19,2.05,1.42,4.24,2.73,6.64,3.46ZM40.25,39.68c-1.85.68-3.63,1.76-5.22,2.92-1.29.94-2.95,2.29-3.96,3.52-.11.13-.29.2-.23.42l3.19-1.1c-1.44-1.53.06-.91.98-.97,2.33-.15,4.02-3.07,5.24-4.78ZM59.86,46.69c-2.52.54-5.16-.35-7-2.1l-2.99-3.47c-.1,1.81-2.77,3.34-1.59,5.15.58.89,1.71,1.22,2.69,1.44.14.03,1.37.05.79.51-.18.14-1.34.67-1.61.75-3.39,1.09-7.24-1.57-7.61-5.05-1.8,1.78-4.47,2.68-6.98,2.15-.32-.07-.91-.4-1.12-.4-.15,0-1.82.75-2.21.88-.55.18-1.35.25-1.81.45-.34.15-.94,1.05-1.2,1.41-.84,1.12-2.61,3.61-3.16,4.79-.06.13-.09.29-.13.43.01.11.97.41.42.78-2.2-1.36-4.71-1.77-6.63.3-4.96,5.33,1.88,13.67,7.5,9.58.29-.21,1.22-1.38,1.36-1.36,1.98,2.62,4.04,4.46,7.23,5.43,2.6.79,10.05,2.55,12.51,2.29,1.73-.18,4.25-.86,6.01-1.27,4.01-.94,7.47-1.58,10.3-4.81.28-.32,1.28-1.84,1.54-1.9.66.17,1.01.88,1.56,1.25,5.2,3.49,10.99-3.13,8.31-8.24-1.36-2.6-4.14-3.81-6.8-2.2l-.15-.03c-.47-.23-2.58-3.77-3.11-4.51s-1.08-1.45-1.64-2.15c-2.89-.89-5.37-2.27-7.85-3.97-.45-.31-1.44-1.21-1.82-1.38-.06-.03-.2-.02-.17.06.99,2.55,2.39,4.61,5.37,4.76v.45ZM18.54,49.86l.05,5.04.24.12c.19-.39,1.26-1.16,1.29-1.44l-1.58-3.72ZM76.08,54.61l-.05-5.22-1.6,3.54.09.22,1.57,1.46ZM83.5,50.26l-6.85.91c-.31.86.15,1.79.01,2.71l7.2-1.27-.37-2.35ZM18.12,54.96l-.03-2.55s-.12-.28-.2-.3c-3.39-.08-6.78-.42-10.12-.96l-.45,2.85c3.53.83,7.17,1.08,10.8.96ZM76.6,76.54l-5.16.05c1.5,3.14-.22,6.24-3.8,6.09-3.12-.13-5.43-3.2-7.39-5.27l-.47-.11-24.66.26c-.36.07-2.17,2.36-2.64,2.81-.84.82-2.14,1.94-3.23,2.35-4.08,1.53-7.36-1.57-5.57-5.64l-5.16.05-.19-.41-.14-14.47c-.49-1.32-.75-2.58-.62-4.01.09-.95.61-1.76.55-2.69-4.71-.02-9.51-.34-13.95-1.99l-.28,1.54c2.25.4,2.1,3.54-.19,3.69-.15.65.34.45.79.68,2.11,1.07,1.78,4.21-.49,4.78v.46c3.49-.43,5.07,3.94,2.03,5.93-.33.22-.9.16-.79.69,6.59-.28,9.9,4.88,6.93,10.84-.16.32-.71.93-.63,1.22.15.55,3.47,3.55,4.12,4.07,10.6,8.52,27.73,9.63,40.71,7.51,9.05-1.48,17.91-5.26,23.72-12.56.07-.08.03-.15,0-.24-.08-.29-.84-1.31-1.06-1.8-2.47-5.54,1.19-10.37,7.07-10.11.5-.47-.3-.44-.72-.68-3.14-1.82-1.5-6.51,2.04-5.97.27-.57-.41-.44-.88-.72-2.08-1.25-1.35-4.72,1.18-4.74v-.47c-2.67.16-2.83-3.63-.16-3.68-.11-.31-.05-1.46-.32-1.52l-10.7,1.87c-.17,1.1.49,1.99.61,3.03.16,1.38-.2,2.71-.54,4.02l.16,14.71-.18.41ZM87.58,54.49c-1.91.06-1.93,2.66-.03,2.73.25,0,.15,0,.18-.18.04-.31-.03-2.44-.15-2.55ZM3.81,58.31c1.19-.15,1.67-1.76.68-2.43-.66-.45-.65-.01-.7.6s.05,1.24.02,1.84ZM87.74,58.64c-1.92.08-2.6,2.67-1.02,3.74.67.46.86.48.94-.36.1-1.1.09-2.27.08-3.38ZM3.71,59.73l.15,3.62.07.41c1.95-.82,1.9-3.57-.22-4.03ZM18.68,62.9l.14,13.75,5.21-.05,1.4-1.91-4.39.04-.1-9.66c-.86-.63-1.57-1.38-2.27-2.17ZM76.3,76.06l-.14-13.75c-.57.65-1.08,1.31-1.77,1.85-.16.13-.46.42-.46.44l.1,9.59-4.39.04,1.44,1.88,5.21-.05ZM87.44,64.09c-3.55-.38-4.45,4.33-1.07,5.34l1.07-5.34ZM5,70.39c3.33-.62,2.5-5.56-.88-5.21l.88,5.21ZM37.75,73.97l19.56-.2c-.26-.44-.74-1.03.11-.77,2.56,2.9,6.71,9.9,11.24,9.14,1.29-.22,2.43-1.18,2.76-2.46.92-3.59-4.89-7.57-7.47-9.27-1.15-.76-2.34-1.49-3.58-2.1-1.54.43-3.08.9-4.64,1.27-2.52.6-6.91,1.79-9.38,1.54-2.12-.21-4.97-.91-7.1-1.38-1.57-.34-3.11-.78-4.67-1.18-3.32,2.02-9.46,5.62-10.71,9.46-.79,2.42.83,4.61,3.36,4.59,4.2-.03,7.94-6.48,10.33-9.37,1.14-.5.13.68.19.72ZM85.97,70.75c-6.52-.19-9.15,5.93-5.57,11.08.18.12.89-.96,1.03-1.16,2.06-2.9,3.71-6.48,4.54-9.92ZM5.49,71.81c1.09,4.02,3.04,7.82,5.62,11.09,3.79-5.08.92-11.46-5.62-11.09ZM59.59,76.83c.04-.19-.04-.27-.12-.42-.14-.25-1.62-2.11-1.77-2.15l-20.24.18c-.52.1-1.65,2.09-2.05,2.57l24.18-.19Z"/>
      <path class="cls-7" d="M40.41,81.53c2.11-.33,3.88.79,5.56,1.89,1.75-1.18,3.77-2.53,5.99-1.89.98.28,1.97,1.37,2.12,2.39.69,4.66-4.78,5.75-7.85,7.55l-.27.03c-3.13-1.72-8.69-2.72-8.09-7.42.15-1.21,1.35-2.37,2.54-2.55ZM40.42,82c-1.71.27-2.41,2.15-2.04,3.7.73,3.06,5.26,3.89,7.58,5.33,1.11-.54,2.27-1.01,3.38-1.58,2.22-1.13,5.21-2.73,4.19-5.8-1.11-3.36-5.79-1.29-7.55.4-1.59-1.21-3.46-2.38-5.56-2.05Z"/>
      <path class="cls-7" d="M58.13,52.33c9.16-1.14,10.41,12.62,1.64,13.47-8.89.85-10.15-12.41-1.64-13.47ZM59.93,54.67c-1.34.21-1.53,2.28-.1,2.56,2.05.4,2.05-2.86.1-2.56ZM53.11,56.97c-1.49,4.67,2.46,9.23,7.32,8.17,4-.87,5.94-5.2,4.29-8.88-.21-.03-.11.27-.1.4.91,8.74-10.96,9.08-11.47,1.28-.02-.28.25-.84-.04-.97Z"/>
      <path class="cls-7" d="M34.9,52.57c9.16-1.14,10.41,12.62,1.64,13.47-8.89.85-10.15-12.41-1.64-13.47ZM42.1,58.63c-.23.04-.19.25-.24.41-2.32,8.13-12.66,4.78-11.34-2.2.11-.57.36-1.01.52-1.54-3.1,3.64-1.05,9.26,3.64,10.12,4.19.77,7.69-2.63,7.42-6.8ZM36.83,55.38c-1.35.21-1.5,2.29-.1,2.56,2.05.4,2.05-2.86.1-2.56Z"/>
      <path class="cls-7" d="M24.75,56.7c.07.13.02.3.03.45-.51-.17-.91-.56-1.49-.58-2.97-.13-3.09,5.6.52,5.09.4-.06.98-.44,1.21-.46.16-.02.31.13.28.27-1.62,1.15-3.87.73-4.48-1.29-.62-2.04.57-4.33,2.92-3.94.18.03.96.36,1.01.46Z"/>
      <path class="cls-7" d="M69.51,60.72c1,.34,2.08.81,3.08.14,2.08-1.39.95-5.6-1.85-4.63-.17.06-.85.63-.92.27s.96-.73,1.25-.77c3.78-.56,3.97,5.89.29,5.92-.29,0-2.27-.48-1.85-.94Z"/>
    </g>
    <path class="cls-2" d="M58.85,50.15c-2.58,0-4.84,1.16-6.37,3.21"/>
    <path class="cls-2" d="M36.21,50.36c2.58-.06,4.86,1.06,6.43,3.08"/>
  </g>
</svg>