<?xml version="1.0" encoding="UTF-8"?>
<svg id="Capa_2" data-name="Capa 2" xmlns="http://www.w3.org/2000/svg" xmlns:xlink="http://www.w3.org/1999/xlink" viewBox="0 0 93.7 100.27">
  <defs>
    <style>
      .cls-1 {
        fill: url(#Degradado_sin_nombre_199);
      }

      .cls-2 {
        fill: none;
        stroke-linecap: round;
        stroke-width: .5px;
      }

      .cls-2, .cls-3 {
        stroke: #1d1d1b;
        stroke-miterlimit: 10;
      }

      .cls-4 {
        fill: #af633c;
      }

      .cls-3 {
        stroke-width: .4px;
      }

      .cls-3, .cls-5 {
        fill: #fff;
      }

      .cls-6 {
        fill: #1d1d1b;
      }

      .cls-7 {
        fill: url(#Degradado_sin_nombre_168);
      }

      .cls-8 {
        fill: url(#Degradado_sin_nombre_166);
      }

      .cls-9 {
        fill: url(#Degradado_sin_nombre_216);
      }

      .cls-10 {
        fill: url(#Degradado_sin_nombre_212);
      }

      .cls-11 {
        fill: #eaaf05;
      }

      .cls-12 {
        fill: #faf6cf;
      }

      .cls-13 {
        fill: url(#Degradado_sin_nombre_220);
      }

      .cls-14 {
        fill: #ec6046;
      }

      .cls-15 {
        fill: url(#Degradado_sin_nombre_171);
      }
    </style>
    <radialGradient id="Degradado_sin_nombre_199" data-name="Degradado sin nombre 199" cx="330.1" cy="-106.25" fx="330.1" fy="-106.25" r="8.02" gradientTransform="translate(-254.2 165.94) rotate(-1.08)" gradientUnits="userSpaceOnUse">
      <stop offset="0" stop-color="#6b2424"/>
      <stop offset=".46" stop-color="#893f2e"/>
      <stop offset=".96" stop-color="#af633c"/>
    </radialGradient>
    <radialGradient id="Degradado_sin_nombre_212" data-name="Degradado sin nombre 212" cx="277.14" cy="-106.79" fx="277.14" fy="-106.79" r="8.02" gradientTransform="translate(-254.2 165.94) rotate(-1.08)" gradientUnits="userSpaceOnUse">
      <stop offset="0" stop-color="#692122"/>
      <stop offset=".34" stop-color="#7d3429"/>
      <stop offset=".97" stop-color="#af633c"/>
    </radialGradient>
    <radialGradient id="Degradado_sin_nombre_168" data-name="Degradado sin nombre 168" cx="438.6" cy="-202.65" fx="438.6" fy="-202.65" r="8.02" gradientTransform="translate(-397.87 214.9) rotate(6.49)" gradientUnits="userSpaceOnUse">
      <stop offset=".01" stop-color="#692222"/>
      <stop offset=".32" stop-color="#833a2b"/>
      <stop offset=".74" stop-color="#a35737"/>
      <stop offset=".97" stop-color="#af633c"/>
    </radialGradient>
    <radialGradient id="Degradado_sin_nombre_220" data-name="Degradado sin nombre 220" cx="290.06" cy="-96.88" fx="290.06" fy="-96.88" r="8.02" gradientTransform="translate(-254.2 165.94) rotate(-1.08)" gradientUnits="userSpaceOnUse">
      <stop offset="0" stop-color="#692122"/>
      <stop offset=".32" stop-color="#843a2c"/>
      <stop offset=".73" stop-color="#a35737"/>
      <stop offset=".97" stop-color="#af633c"/>
    </radialGradient>
    <radialGradient id="Degradado_sin_nombre_216" data-name="Degradado sin nombre 216" cx="303.47" cy="-101.57" fx="303.47" fy="-101.57" r="8.02" gradientTransform="translate(-254.2 165.94) rotate(-1.08)" gradientUnits="userSpaceOnUse">
      <stop offset="0" stop-color="#692222"/>
      <stop offset=".01" stop-color="#6a2322"/>
      <stop offset=".26" stop-color="#883f2d"/>
      <stop offset=".51" stop-color="#9d5335"/>
      <stop offset=".75" stop-color="#aa5e3a"/>
      <stop offset=".97" stop-color="#af633c"/>
    </radialGradient>
    <radialGradient id="Degradado_sin_nombre_166" data-name="Degradado sin nombre 166" cx="325.36" cy="-80.85" fx="325.36" fy="-80.85" r="10.54" gradientTransform="translate(352.47 256.73) rotate(-134.7) scale(1 .94)" gradientUnits="userSpaceOnUse">
      <stop offset=".01" stop-color="#692222"/>
      <stop offset=".99" stop-color="#af633c"/>
    </radialGradient>
    <radialGradient id="Degradado_sin_nombre_171" data-name="Degradado sin nombre 171" cx="-1164.54" cy="-80.76" fx="-1164.54" fy="-80.76" r="9.83" gradientTransform="translate(757.21 -829.53) rotate(-47.46) scale(1 -.94)" gradientUnits="userSpaceOnUse">
      <stop offset=".01" stop-color="#692222"/>
      <stop offset="1" stop-color="#af633c"/>
    </radialGradient>
  </defs>
  <g id="Capa_5" data-name="Capa 5">
    <path class="cls-5" d="M0,53.02c1.88-11.32,4.87-26.26,17.73-39.35C29.57,1.62,54.62-14.04,81.51,23.99c25.67,36.3,9.05,73.71-33.38,76.12C18.06,101.83-.02,89.8,0,53.02Z"/>
  </g>
  <g id="Capa_8" data-name="Capa 8">
    <rect class="cls-11" x="73.13" y="30.56" width="2.88" height="44.46" transform="translate(-.99 1.42) rotate(-1.08)"/>
    <rect class="cls-11" x="17.99" y="31.6" width="2.88" height="44.46" transform="translate(-1.01 .38) rotate(-1.08)"/>
    <path class="cls-4" d="M25.11,52.51s7.92-14.86,21.58-16c7.21-.6,14.29,4.81,18.28,9.42,2.78,3.22,3.68,6.09,3.68,6.09l1.43-.83,2.01-.1,1.89.83,1.97,1.8.73,3.39-.72,2.46-1.16,1.88-1.27,1.44-2.27.87-3.65-.79-2.07-1.35-1.86,2.29-3.26,2.76,3.86,2.41,4.77,3.97,1.64,2.06.6,1.57v1.99s-1.12,1.41-1.12,1.41l-3.23.95-4.04-2.25-5.11-6.37v.54s-.45-.07-.45-.07l-19.71.06-1.12.41-1.82,2.55-2.74,3.47-2.88,2.08-2.68.56-1.16-.48-1.23-.68-.77-1.92.27-2.81,1.86-2.41,4.62-4.16,3.32-1.99,1.52-.03-2.47-1.13-3.03-2.54-.86-1.52-1.05.8-1.66.91-1.72.62-2.33-.11-1.34-.89-1.29-1.16-.78-1.29-.59-2.41-.5-1.7.65-1.5,1.06-1.62,1.73-1.31,2.79-.65,2.11,1.15"/>
    <path class="cls-1" d="M81.85,53.32c-.08-4.43-3.74-7.95-8.17-7.87s-7.95,3.74-7.87,8.17c.08,4.43,3.74,7.95,8.17,7.87.67-.01,1.32-.73,1.94-.9,3.47-.93,6-3.52,5.93-7.27Z"/>
    <path class="cls-10" d="M28.89,53.78c-.08-4.43-3.74-7.95-8.17-7.87-4.43.08-7.95,3.74-7.87,8.17s3.74,7.95,8.17,7.87c.67-.01,1.32-.73,1.94-.9,3.47-.93,6-3.52,5.93-7.27Z"/>
    <circle class="cls-7" cx="60.81" cy="63.09" r="8.02"/>
    <circle class="cls-13" cx="33.98" cy="63.6" r="8.02"/>
    <circle class="cls-9" cx="47.3" cy="58.65" r="8.02"/>
    <path class="cls-12" d="M3.04,48.46s6.1,2.32,15.11,2.42l-.36-19.41,57.76-.92.49,18.7s11.15-1.26,11.1-2.54c-.05-1.27-12.06-42.92-41.96-42.19C14.96,5.26,3.04,48.46,3.04,48.46Z"/>
    <rect class="cls-11" x="44.98" y="10.02" width="2.88" height="44.46" transform="translate(77.79 -14.77) rotate(88.92)"/>
    <rect class="cls-11" x="45.72" y="45.35" width="3.12" height="58.02" transform="translate(120.73 25.69) rotate(88.92)"/>
    <path class="cls-11" d="M20.48,52.18s-4.4-6.41-2.22-16.52,6.09-15.23,6.09-15.23c0,0-.7,9.45,3.37,12.19,0,0,13.59-12.7,32.32-3.94.83.39,1.96.86,2.76,1.42s1.48,1.19,2.19,1.81c0,0,2.89-1.94,3.08-3.1.19-1.15.83-5.77.83-5.77l-.44-3.16,1.77,2.13,1.63,3.77,1.6,2.86,1.64,5.25.84,3.27.67,3.82-.59,3.95-.7,2.6-.57,2.1-.68,1.53-.48.5-1.87-.56-1.47.07-1.14.82-1.29-1.52s-.83-2.27-3.12-4.86c-3.44-3.89-9.7-8.69-17.49-9.12-1.37-.08-2.62.19-3.9.47-10.8,2.32-18.05,15.54-18.05,15.54l-2.53-.54-1.5.32-.76-.1Z"/>
    <path class="cls-14" d="M18.49,54c-.71.01-7.62.79-14.68-1.57,0,0-4.88,28.68,18.57,38.54,21.44,9.02,53.49,2.81,61.17-14.76,7.13-16.31,3.66-25.82,3.66-25.82l-10.98,2.49.57,3.99-.5,3.09.13,15.02-5.58.11-48.12.91-4.35-.32.22-13.83-.64-1.66-.07-2.43-.13-.63.73-3.15Z"/>
    <path class="cls-11" d="M7.27,50.29l-.49,2.73s9.55,2.09,11.93.9l-.28-2.71-.28-.33-10.64-.82-.24.24Z"/>
    <polygon class="cls-11" points="83.84 48.53 84.12 50.87 76.37 52.65 76.1 49.61 83.84 48.53"/>
    <path class="cls-6" d="M29.98,45.8c.1.04,1.32-.27,1.7-.37.08-.02.15-.05.23-.08l1.51-.7c.31-.14.66-.16.98-.06l.57.18c.24.08.5.09.75.02.74-.19,2.32-.55,2.44-.22.03.07,1.38-.36,1.9-.52.13-.04.26-.11.37-.19l1.27-.91.58-.37s.61,1.82.61,1.89c0,.06,1.11.84,1.44,1.34.1.15.13.36.27.46l1.11.87c.18.12.5.18.71.21l1.93.61c.21.03.42,0,.62-.07l1.34-.48.35-.67-1.73-.68c-.12-.05-.24-.11-.34-.2l-.61-.48c-.26-.2-.44-.5-.49-.82l-.05-.28c-.05-.3,0-.6.13-.87.16-.3.34-.66.36-.72.03-.08.56-.73.84-1.06.11-.13.19-.28.25-.45l.31-.93.2-.65,1.22,1.33s.24.24.26.26l1.4,1.52c.08.11.27.31.39.38l.88.83c.1.07.3.18.41.22.4.14,1.19.66,1.3.77.15.14,1.84.4,1.95.36s.62-.16.62-.16l-1.26-.91-.82-.61c-.11-.08-.2-.18-.28-.28l-.45-.61c-.05-.07-.1-.15-.14-.23l-.51-1.11s-.02-.04-.03-.07l-.36-.92-.34-.61,1.32.85c.11.07.33-.15.42-.04l.52.46c.16.19.37.4.61.48l.53.51c.16.05.31.14.44.24l.69.57c.09.08.19.14.29.19.33.15,1.08.5,1.22.57.18.09,1.48.53,1.48.53l1.3.48.87-.02-1.78-1.82s-.07-.07-.11-.1c-.75-.6-8.53-6.7-15.02-5.86-1.56.2-3.18.19-4.51.58-4.2,1.25-6.94,3.41-7.29,3.69-.02.02-.04.04-.07.06l-3.2,2.97s-.06.06-.09.09l-1.44,1.6Z"/>
    <ellipse class="cls-5" cx="58.94" cy="57.85" rx="6.51" ry="6.24" transform="translate(-1.08 1.13) rotate(-1.08)"/>
    <ellipse class="cls-5" cx="35.7" cy="58.29" rx="6.51" ry="6.24" transform="translate(-1.1 .69) rotate(-1.08)"/>
    <circle class="cls-3" cx="31.13" cy="85.67" r="3.26"/>
    <circle class="cls-3" cx="60.56" cy="85.11" r="3.26"/>
    <circle class="cls-3" cx="8.74" cy="63.36" r="1.44"/>
    <circle class="cls-3" cx="8.28" cy="59.08" r="1.72"/>
    <circle class="cls-3" cx="12.47" cy="60.54" r="1.01"/>
    <path class="cls-12" d="M5.16,70.67c.11-.06,1.46-.03,1.46-.03l1.27.14,1.26.51,1.77.96,1.15,1.14.78,1.85.39,1.8-.19,1.35-.47,1.91-.77,1.57-.5.58-1.02-1.34-2.56-4.12s-1.21-2.7-1.29-2.75-1.05-2.76-1.05-2.76l-.2-.64"/>
    <path class="cls-5" d="M4.75,70.01l-1.16-5.78.71-.12,1.31.39,1.01.72.57,1.04s.17.97.13,1.1-.36,1.15-.44,1.28-1.35,1.09-1.35,1.09l-.79.28Z"/>
    <path class="cls-5" d="M3.47,58.61l1.38.63.56,1.39s.08,1.21-.02,1.26-.8.94-.8.94l-1.03.55-.09-4.78Z"/>
    <path class="cls-5" d="M3.45,57.75l.88-.2.63-.85-.02-.86s-.15-.8-.18-.91-1.04-.46-1.04-.46l-.54.13.4,3.44"/>
    <path class="cls-5" d="M87.53,56.83l-1.35.68-.51,1.41s-.03,1.21.06,1.26.84.91.84.91l1.05.51-.09-4.78Z"/>
    <path class="cls-5" d="M87.51,55.98l-.89-.17-.66-.83-.02-.86s.12-.8.15-.91,1.02-.49,1.02-.49l.55.11.06,2.92"/>
    <circle class="cls-3" cx="82.45" cy="61.59" r="1.44"/>
    <circle class="cls-3" cx="82.75" cy="56.64" r="1.72"/>
    <circle class="cls-3" cx="78.61" cy="58.91" r="1.01"/>
    <path class="cls-12" d="M86.31,68.76c-.11-.05-1.46.03-1.46.03l-1.26.19-1.24.56-1.73,1.03-1.11,1.18-.71,1.88-.32,1.81.25,1.34.54,1.89.83,1.54.52.56.97-1.38,2.41-4.22s1.11-2.75,1.19-2.8.95-2.8.95-2.8l.18-.65"/>
    <path class="cls-5" d="M86.69,68.08l.94-5.82-.72-.1-1.29.44-.98.76-.53,1.06s-.14.97-.09,1.11.4,1.13.49,1.26,1.39,1.04,1.39,1.04l.8.25Z"/>
    <path class="cls-5" d="M66.75,66.85l-1.57.45-.51,1.41s-.03,1.21.06,1.26.84.91.84.91l1.05.51.12-4.55Z"/>
    <path class="cls-5" d="M66.52,65.76l-.89-.17-.66-.83-.02-.86s.12-.8.15-.91,1.02-.49,1.02-.49l.55.11.06,3.31"/>
    <path class="cls-11" d="M38.37,82.17l-.2.93.14,1.4.7,1.47.96,1.01,1.15.63s1.93.92,2.04.99,2.72,1.24,2.72,1.24l.47.13,3.03-1.6,1.39-.7,1.2-.89.95-.91.95-1.07.17-1.14-.02-1.16-.5-1.02-1.29-1.19-1.19.02-1.81.14-1.36.92-1.12.75-.67.31-2.43-1.49-1.68-.35-1.38-.08s-1.26.48-1.28.56-.94,1.09-.94,1.09Z"/>
    <path class="cls-11" d="M73.98,51.52c0,.08,1.02,1.22,1.02,1.22l1.1.92s.08-1,.1-1.09-.16-5.03-.16-5.03l-.76,1.21-.87,1.8-.43.97Z"/>
    <path class="cls-8" d="M57.43,71.62c.4.46,2.74,3.96,2.74,3.96l2.42,2.84,3.72,2.35,1.99.44,2.22-.75,1.39-2.04-.03-1.75-1.29-2.03-1.27-1.59-4.41-3.64-4.16.83-3.33,1.39"/>
    <path class="cls-15" d="M37.49,72c-.38.48-2.59,4.06-2.59,4.06l-2.31,2.92-3.63,2.49-1.9.32-2.15-.77-1.3-1.7-.14-1.67.98-2.15,1.21-1.64,2.47-2.44,4.19.67,5.18-.1"/>
    <polygon class="cls-11" points="18.26 47.76 20.49 52.22 19.9 52.93 18.64 54.39 18.36 54.4 18.25 48.57 18.26 47.76"/>
    <circle class="cls-5" cx="47.21" cy="58.65" r=".33"/>
    <ellipse class="cls-6" cx="37.32" cy="44.16" rx=".75" ry=".61" transform="translate(-9.99 10.93) rotate(-14.71)"/>
  </g>
  <g id="Capa_7" data-name="Capa 7">
    <path class="cls-6" d="M46.67,61.64c1.05-.21,2.09.21,2.7,1.07.73,1.01-.15,2.07-1.23,2.24-1,.16-2.88.14-3.18-1.1-.22-.92.88-2.04,1.71-2.21ZM46.95,62.08c-.64-.04-.63.55,0,.48v-.48ZM47.56,62.55c.64.04.63-.55,0-.48v.48Z"/>
    <path class="cls-6" d="M46.44,60.03c-.11-.14-.09-.6.28-.47.47.17.01.84-.28.47Z"/>
    <path class="cls-6" d="M47.99,59.53c.28.28-.35.85-.47.43-.1-.36.35-.55.47-.43Z"/>
    <path class="cls-5" d="M46.95,62.09l.02.91c-.63.12-.66-1-.02-.91Z"/>
    <path class="cls-5" d="M47.57,62.99l-.02-.91c.63-.12.66,1,.02.91Z"/>
    <g>
      <path class="cls-6" d="M84.19,50.9l3.42-.66c.35,1.63.38,3.27.44,4.92.81,20.3-9.68,34.59-29.71,38.64-9.12,1.85-20.53,1.85-29.55-.53-14.57-3.85-23.44-14.2-25.33-29.17-.5-3.95-.55-8.26.19-12.16l3.16,1.01.31-2.78c-.76-.24-4.08-.76-4.04-1.81C8.39,28.4,21.79,5.77,44.72,4.32c15.53-.98,26.93,10.69,34.38,22.92,2.92,4.79,5.93,10.74,7.53,16.11.23.77.78,2.54.68,3.27-.14,1.08-2.6,1.58-3.46,1.9l.35,2.37ZM76.33,49.15c2.49-.27,5.12-.53,7.54-1.17.72-.19,2.91-.73,2.95-1.58.03-.72-.61-2.67-.86-3.45-1.8-5.74-5.11-12.12-8.37-17.17-7.74-11.99-18.92-22.41-34.29-20.82C21.48,7.2,8.74,29.11,3.64,48.33c.05.37,1.02.67,1.35.78,1.03.35,2.21.53,3.28.7,3.18.51,6.42.68,9.64.8-.1-1.3.04-2.69-.07-3.98-.09-1.06-.45-2.12-.54-3.19-.21-2.58.31-4.67.45-7.12.09-1.53-.16-3.18-.07-4.72l.17-.18c.39-.14.92.16,1.21-.23.34-.45.93-2.42,1.24-3.12.95-2.19,2.24-5.35,3.58-7.26.25-.36.52-.86,1.03-.81.23.15-.27,2.78-.29,3.27-.14,2.84.37,5.83,2.36,7.94.27.08,2.12.02,2.41-.08s1.49-1.11,1.95-1.38c8.47-5.1,22.1-5.36,30.76-.58.46.26,1.72,1.23,2,1.31.35.1,2.32.07,2.56-.11.12-.09.77-1.16.87-1.37,1.03-2.01,1.23-4.22,1.05-6.45-.09-1.1-.49-2.18-.42-3.3,0-.11.22-.09.3-.07.39.09,1.44,1.78,1.7,2.22,1.62,2.74,2.95,5.85,4.26,8.75.27.38.85.07,1.22.18l.18.17c.15,1.54-.04,3.2.11,4.72.24,2.44.84,4.52.72,7.1-.05,1.07-.36,2.14-.42,3.21-.06,1.17.12,2.44.07,3.62ZM67.64,34.61c-1.74-1.91-3.58-3.83-5.9-5.05-10.95-5.78-27.29-4.18-35.65,5.36-.24.28-1.3,1.85-1.5,1.81-.54-.11.38-1.19.51-1.37.73-.99,1.65-1.85,2.55-2.67.04-.19-1.12-1.15-1.32-1.39-1.9-2.25-2.27-5.17-2.17-8.02.02-.68.29-1.4.14-2.07-4.12,7.46-7.91,16.18-6.05,24.9.46,2.15,1.22,4.22,2.32,6.12,1.44-.74,3.25-.72,4.68.01.93-1.29,1.65-2.73,2.54-4.05,8.35-12.44,22.43-16.06,34.27-5.64,2.85,2.51,4.9,5.7,6.98,8.83,1.47-.66,3.19-.89,4.69-.18,1.13-1.88,1.79-4.12,2.15-6.27,1.17-6.92-1.12-13.36-4.14-19.44-.86-1.73-1.77-3.58-2.92-5.12.74,4.26.49,8.65-2.97,11.63-.03.21,1.49,1.74,1.7,2.08.11.19.15.32.12.54ZM18.15,31.87l.04,2.02.68-1.97-.71-.05ZM28.82,31.67l-1.3.08c.55.68.84.67,1.3-.08ZM66.03,30.96l-1.3.08.76.51.54-.59ZM75.39,30.79l-.71.07.75,1.94-.04-2.02ZM50.33,46.8c-1.32-.12-3-1.2-3.12-2.63-.16-1.75,2.26-3.29,2.01-5.46-.05-.46-.42-1.63-.91-1.71-.43-.08-3.1,0-3.49.13-.61.2-1.69,2.42-1.88,3.08-.86,2.99.88,6.07,3.85,6.95,1.12.33,2.64.51,3.54-.36ZM34.27,43.9c1.91,1.01,3.98.73,5.85-.24.5-.26,1.91-1.21,2.12-1.69s-.07-1.89.4-2.53l1.23-2.25c-.73.28-1.85.27-2.52.66-1.62.93-3.1,5-5.36,5.66l-1.72.38ZM57.28,44.77c-1.18-.43-2.17-1.66-2.76-2.75-.67-1.24-.96-2.98-2.04-3.92-.92-.8-2.09-1.02-3.28-1,.42.69.4,1.44.78,2.15,1.18,2.25,4.34,5.25,6.93,5.61.13.02.41.12.38-.09ZM63.2,44.42c-2.8-2.95-6.35-5.24-10.2-6.56.91,1.34,2.21,2.26,3.53,3.16,2.06,1.41,4.26,2.69,6.67,3.4ZM39.97,38.45c-1.84.7-3.61,1.79-5.2,2.97-1.28.95-2.93,2.32-3.93,3.55-.11.14-.28.2-.23.42l3.18-1.13c-1.46-1.52.05-.91.97-.98,2.33-.18,4-3.11,5.2-4.83ZM59.65,45.3c-2.51.57-5.16-.31-7.02-2.04l-3.02-3.45c-.09,1.81-2.74,3.37-1.54,5.17.59.88,1.72,1.2,2.71,1.42.14.03,1.37.04.8.5-.18.14-1.33.68-1.6.77-3.38,1.12-7.26-1.51-7.66-4.99-1.78,1.8-4.46,2.51-6.97,2-.32-.06-1.01-.44-1.22-.44-.15,0-1.9.7-2.29.83-.55.19-1.15.58-1.62.78-.34.15-.93,1.06-1.19,1.42-.83,1.13-2.57,3.63-3.12,4.82-.06.13-.08.29-.13.43.01.11.98.4.43.77-2.21-1.34-4.72-1.73-6.63.36-4.91,5.37,2,13.65,7.58,9.52.29-.21,1.21-1.39,1.35-1.37,2,2.6,4.08,4.43,7.27,5.37,2.61.77,10.08,2.46,12.53,2.18,1.73-.2,4.24-.89,6-1.32,4-.97,7.45-1.64,10.26-4.9.27-.32,1.27-1.86,1.52-1.91.66.16,1.02.87,1.57,1.24,5.23,3.44,10.96-3.22,8.24-8.32-1.38-2.59-4.17-3.77-6.82-2.14l-.15-.03c-.48-.22-2.61-3.75-3.14-4.48s-1.1-1.44-1.66-2.14c-2.9-.86-5.39-2.22-7.88-3.9-.46-.31-1.45-1.2-1.83-1.37-.06-.03-.2-.02-.17.06,1.01,2.54,2.43,4.59,5.41,4.71v.45ZM18.36,48.82l.1,5.04.24.12c.19-.39,1.25-1.17,1.28-1.45l-1.61-3.7ZM75.93,53.07l-.1-5.22-1.57,3.55.09.22,1.58,1.45ZM83.32,48.66l-6.84.97c-.31.86.16,1.79.04,2.71l7.19-1.33-.39-2.35ZM17.98,53.93l-.05-2.55s-.13-.27-.21-.3c-3.39-.05-6.78-.36-10.13-.87l-.42,2.85c3.53.79,7.18,1.02,10.81.86ZM76.64,74.99l-5.16.1c1.53,3.12-.16,6.25-3.74,6.12-3.12-.11-5.46-3.15-7.44-5.21l-.48-.11-24.65.48c-.36.08-2.15,2.38-2.61,2.84-.83.82-2.13,1.96-3.21,2.38-4.06,1.56-7.37-1.51-5.62-5.59l-5.16.1-.19-.41-.27-14.47c-.5-1.32-.77-2.57-.65-4,.08-.95.59-1.76.53-2.69-4.71.02-9.51-.25-13.96-1.87l-.27,1.55c2.25.38,2.13,3.52-.16,3.69-.15.65.34.44.8.67,2.12,1.05,1.82,4.2-.45,4.79v.46c3.49-.46,5.1,3.9,2.09,5.92-.33.22-.9.17-.78.7,6.59-.34,9.95,4.8,7.02,10.78-.16.32-.7.93-.61,1.23.16.55,3.5,3.52,4.15,4.04,10.67,8.43,27.81,9.39,40.77,7.16,9.04-1.56,17.87-5.42,23.61-12.76.07-.08.03-.15,0-.24-.08-.29-.85-1.31-1.08-1.8-2.51-5.51,1.1-10.38,6.98-10.17.49-.48-.31-.44-.73-.68-3.16-1.79-1.55-6.5,1.99-5.99.27-.58-.42-.44-.88-.71-2.09-1.23-1.39-4.7,1.13-4.75v-.47c-2.67.18-2.86-3.6-.2-3.67-.11-.31-.06-1.46-.34-1.52l-10.68,1.97c-.17,1.1.51,1.98.64,3.03.17,1.38-.18,2.71-.5,4.03l.29,14.71-.18.41ZM87.43,52.85c-1.91.07-1.91,2.67,0,2.73.25,0,.15,0,.18-.18.04-.31-.05-2.44-.17-2.55ZM3.7,57.4c1.19-.16,1.65-1.78.66-2.44-.66-.44-.65,0-.69.6s.06,1.24.03,1.84ZM87.62,57c-1.92.09-2.58,2.69-.99,3.75.68.45.86.47.93-.37.09-1.11.07-2.27.05-3.38ZM3.61,58.83l.18,3.62.08.4c1.94-.84,1.86-3.59-.26-4.02ZM18.6,61.86l.26,13.75,5.21-.1,1.39-1.92-4.38.08-.18-9.66c-.86-.62-1.58-1.37-2.29-2.15ZM76.34,74.53l-.26-13.75c-.56.66-1.06,1.32-1.75,1.87-.16.13-.46.42-.46.45l.18,9.58-4.38.08,1.46,1.87,5.21-.1ZM87.37,62.46c-3.55-.35-4.41,4.37-1.02,5.35l1.02-5.35ZM5,69.47c3.33-.65,2.45-5.58-.93-5.2l.93,5.2ZM37.78,72.77l19.55-.37c-.26-.43-.75-1.02.1-.77,2.58,2.88,6.8,9.84,11.32,9.04,1.29-.23,2.42-1.2,2.74-2.48.89-3.6-4.96-7.53-7.55-9.21-1.16-.75-2.35-1.47-3.6-2.07-1.54.44-3.07.93-4.63,1.31-2.52.62-6.9,1.85-9.36,1.62-2.12-.2-4.98-.87-7.11-1.31-1.57-.33-3.12-.75-4.68-1.14-3.3,2.05-9.41,5.7-10.63,9.55-.77,2.43.87,4.61,3.4,4.56,4.2-.07,7.89-6.54,10.24-9.46,1.13-.51.14.67.2.72ZM85.96,69.13c-6.52-.14-9.1,6-5.48,11.13.18.12.88-.97,1.02-1.17,2.04-2.91,3.65-6.51,4.46-9.96ZM5.5,70.89c1.12,4.01,3.11,7.8,5.72,11.04,3.75-5.11.82-11.47-5.72-11.04ZM59.64,75.43c.04-.19-.04-.27-.12-.42-.14-.25-1.64-2.09-1.79-2.13l-20.24.36c-.52.11-1.63,2.1-2.03,2.58l24.18-.4Z"/>
      <path class="cls-6" d="M40.5,80.3c2.11-.35,3.88.76,5.58,1.84,1.74-1.19,3.75-2.57,5.98-1.94.98.28,1.98,1.35,2.14,2.37.73,4.66-4.73,5.79-7.79,7.62l-.27.03c-3.14-1.7-8.71-2.65-8.16-7.35.14-1.21,1.33-2.38,2.52-2.58ZM40.51,80.78c-1.71.29-2.39,2.17-2,3.71.76,3.06,5.29,3.84,7.63,5.26,1.11-.55,2.27-1.03,3.36-1.61,2.21-1.15,5.18-2.77,4.14-5.84-1.14-3.35-5.81-1.24-7.55.47-1.6-1.19-3.48-2.35-5.58-2Z"/>
      <path class="cls-6" d="M57.97,50.95c9.15-1.21,10.52,12.53,1.76,13.45-8.88.93-10.25-12.32-1.76-13.45ZM59.79,53.28c-1.34.22-1.51,2.29-.07,2.56,2.05.38,2.02-2.88.07-2.56ZM52.98,55.64c-1.45,4.68,2.54,9.21,7.39,8.11,3.99-.91,5.89-5.25,4.21-8.92-.21-.02-.11.27-.1.4.98,8.73-10.88,9.17-11.45,1.38-.02-.28.24-.84-.05-.97Z"/>
      <path class="cls-6" d="M34.74,51.39c9.15-1.21,10.52,12.53,1.76,13.45-8.88.93-10.25-12.32-1.76-13.45ZM41.99,57.39c-.23.05-.19.25-.23.41-2.25,8.15-12.62,4.89-11.36-2.1.1-.57.35-1.01.51-1.54-3.07,3.66-.97,9.27,3.72,10.09,4.2.74,7.67-2.69,7.36-6.86ZM36.69,54.19c-1.35.22-1.48,2.3-.07,2.56,2.05.38,2.02-2.88.07-2.56Z"/>
      <path class="cls-6" d="M24.62,55.61c.07.13.02.3.03.45-.51-.16-.92-.55-1.5-.57-2.97-.11-3.05,5.63.56,5.08.4-.06.97-.44,1.21-.47.16-.02.31.12.28.27-1.61,1.16-3.87.76-4.49-1.25-.63-2.04.53-4.33,2.89-3.96.18.03.96.35,1.02.45Z"/>
      <path class="cls-6" d="M69.41,59.24c1,.33,2.09.79,3.08.11,2.07-1.4.9-5.61-1.89-4.61-.17.06-.85.64-.91.28s.96-.74,1.24-.78c3.78-.59,4.02,5.85.34,5.92-.29,0-2.27-.46-1.85-.92Z"/>
    </g>
    <path class="cls-2" d="M58.67,48.76c-2.58.02-4.83,1.2-6.34,3.26"/>
    <path class="cls-2" d="M36.03,49.17c2.58-.08,4.87,1.02,6.46,3.02"/>
  </g>
</svg>