<?xml version="1.0" encoding="UTF-8"?>
<svg id="Capa_2" data-name="Capa 2" xmlns="http://www.w3.org/2000/svg" xmlns:xlink="http://www.w3.org/1999/xlink" viewBox="0 0 93.45 100.1">
  <defs>
    <style>
      .cls-1 {
        fill: #f07f1e;
      }

      .cls-2 {
        fill: #f6ddbd;
      }

      .cls-3 {
        fill: url(#Degradado_sin_nombre_180);
      }

      .cls-4 {
        fill: #972d30;
      }

      .cls-5 {
        fill: none;
        stroke-linecap: round;
        stroke-width: .5px;
      }

      .cls-5, .cls-6 {
        stroke: #1d1d1b;
        stroke-miterlimit: 10;
      }

      .cls-7 {
        fill: url(#Degradado_sin_nombre_201);
      }

      .cls-6 {
        stroke-width: .4px;
      }

      .cls-6, .cls-8 {
        fill: #fff;
      }

      .cls-9 {
        fill: #1d1d1b;
      }

      .cls-10 {
        fill: #cf3d42;
      }

      .cls-11 {
        fill: url(#Degradado_sin_nombre_142);
      }

      .cls-12 {
        fill: #f59d5c;
      }

      .cls-13 {
        fill: url(#Degradado_sin_nombre_165);
      }

      .cls-14 {
        fill: url(#Degradado_sin_nombre_140);
      }

      .cls-15 {
        fill: #535252;
      }

      .cls-16 {
        fill: url(#Degradado_sin_nombre_155);
      }

      .cls-17 {
        fill: url(#Degradado_sin_nombre_191);
      }
    </style>
    <radialGradient id="Degradado_sin_nombre_180" data-name="Degradado sin nombre 180" cx="-590.33" cy="188.66" fx="-590.33" fy="188.66" r="8.02" gradientTransform="translate(666.65 -127.62) rotate(.65)" gradientUnits="userSpaceOnUse">
      <stop offset="0" stop-color="#f39b94"/>
      <stop offset=".35" stop-color="#f3afa0"/>
      <stop offset=".97" stop-color="#f6ddbd"/>
    </radialGradient>
    <radialGradient id="Degradado_sin_nombre_201" data-name="Degradado sin nombre 201" cx="-643.28" cy="188.12" fx="-643.28" fy="188.12" r="8.02" gradientTransform="translate(666.65 -127.62) rotate(.65)" gradientUnits="userSpaceOnUse">
      <stop offset="0" stop-color="#f39b94"/>
      <stop offset=".36" stop-color="#f3afa0"/>
      <stop offset=".97" stop-color="#f6ddbd"/>
    </radialGradient>
    <radialGradient id="Degradado_sin_nombre_191" data-name="Degradado sin nombre 191" cx="-603.53" cy="198.03" fx="-603.53" fy="198.03" r="8.02" gradientTransform="translate(666.65 -127.62) rotate(.65)" gradientUnits="userSpaceOnUse">
      <stop offset=".02" stop-color="#f39b94"/>
      <stop offset=".29" stop-color="#f4b1a2"/>
      <stop offset=".73" stop-color="#f5d1b5"/>
      <stop offset=".97" stop-color="#f6ddbd"/>
    </radialGradient>
    <radialGradient id="Degradado_sin_nombre_155" data-name="Degradado sin nombre 155" cx="-630.36" cy="198.03" fx="-630.36" fy="198.03" r="8.02" gradientTransform="translate(666.65 -127.62) rotate(.65)" gradientUnits="userSpaceOnUse">
      <stop offset="0" stop-color="#f39b94"/>
      <stop offset=".42" stop-color="#f4b4a3"/>
      <stop offset=".97" stop-color="#f6ddbd"/>
    </radialGradient>
    <radialGradient id="Degradado_sin_nombre_165" data-name="Degradado sin nombre 165" cx="-616.99" cy="194.2" fx="-616.99" fy="194.2" r="8.02" gradientTransform="translate(666.65 -127.62) rotate(.65)" gradientUnits="userSpaceOnUse">
      <stop offset="0" stop-color="#f39b94"/>
      <stop offset=".05" stop-color="#f39f96"/>
      <stop offset=".43" stop-color="#f4c1ab"/>
      <stop offset=".76" stop-color="#f5d5b8"/>
      <stop offset=".97" stop-color="#f6ddbd"/>
    </radialGradient>
    <radialGradient id="Degradado_sin_nombre_142" data-name="Degradado sin nombre 142" cx="-595.06" cy="214.3" fx="-595.06" fy="214.3" r="10" gradientTransform="translate(-483.81 -218.24) rotate(-132.97) scale(1 .94)" gradientUnits="userSpaceOnUse">
      <stop offset="0" stop-color="#f39b94"/>
      <stop offset="1" stop-color="#f6ddbd"/>
    </radialGradient>
    <radialGradient id="Degradado_sin_nombre_140" data-name="Degradado sin nombre 140" cx="-493.36" cy="214.55" fx="-493.36" fy="214.55" r="9.89" gradientTransform="translate(514.12 -132.84) rotate(-45.73) scale(1 -.94)" gradientUnits="userSpaceOnUse">
      <stop offset="0" stop-color="#f39b94"/>
      <stop offset=".43" stop-color="#f4b4a4"/>
      <stop offset="1" stop-color="#f6ddbd"/>
    </radialGradient>
  </defs>
  <g id="Capa_5" data-name="Capa 5">
    <path class="cls-8" d="M.32,49.37c2.76-11.14,6.91-25.8,20.76-37.84C33.82.44,60.02-13.21,83.85,26.81c22.75,38.2,3.26,74.19-39.24,73.28C14.5,99.44-2.58,86.04.32,49.37Z"/>
  </g>
  <g id="Capa_8" data-name="Capa 8">
    <rect class="cls-4" x="73.53" y="31.41" width="2.88" height="44.46" transform="translate(.62 -.85) rotate(.65)"/>
    <rect class="cls-4" x="18.39" y="30.78" width="2.88" height="44.46" transform="translate(.61 -.22) rotate(.65)"/>
    <path class="cls-2" d="M25.83,51.86s8.37-14.61,22.06-15.34c12.26-.66,21.48,16.16,21.48,16.16l1.45-.79,2.01-.04,1.87.89,1.91,1.85.63,3.41-.79,2.44-1.22,1.85-1.32,1.4-2.29.81-3.63-.9-2.03-1.41-1.93,2.23-3.34,2.66,3.78,2.53,4.65,4.12,1.57,2.11.55,1.59-.06,1.99-1.16,1.38-3.26.85-3.97-2.37-4.92-6.52v.54s-.46-.08-.46-.08l-19.75-.81-1.09.65-1.9,2.5-2.84,3.38-2.94,1.99-2.69.48-1.15-.52-1.21-.72-.72-1.94.36-2.8,1.93-2.35,5.5-3.82,2.62-2.09,1.52.02-2.43-1.21-2.95-2.63-.81-1.54-1.07.76-1.69.86-1.73.57-2.32-.18-1.32-.93-1.26-1.2-.74-1.31-.52-2.43-.45-1.72.69-1.48,1.11-1.59,1.77-1.26,2.81-.56,2.07,1.21"/>
    <path class="cls-3" d="M82.23,54.39c.05-4.43-3.5-8.06-7.93-8.11-4.43-.05-8.06,3.5-8.11,7.93-.05,4.43,3.5,8.06,7.93,8.11.67,0,1.34-.69,1.97-.84,3.5-.83,6.1-3.33,6.15-7.09Z"/>
    <path class="cls-7" d="M29.29,53.25c.05-4.43-3.5-8.06-7.93-8.11-4.43-.05-8.06,3.5-8.11,7.93-.05,4.43,3.5,8.06,7.93,8.11.67,0,1.34-.69,1.97-.84,3.5-.83,6.1-3.33,6.15-7.09Z"/>
    <circle class="cls-17" cx="60.91" cy="63.52" r="8.02"/>
    <circle class="cls-16" cx="34.07" cy="63.21" r="8.02"/>
    <circle class="cls-13" cx="47.49" cy="59.54" r="8.02"/>
    <path class="cls-10" d="M3.61,47.14s6.03,2.5,15.03,2.88l.23-19.42,57.77.84-.08,18.71s11.18-.93,11.17-2.2S76.97,4.68,47.07,4.5C16.83,4.33,3.61,47.14,3.61,47.14Z"/>
    <rect class="cls-4" x="46.02" y="10.03" width="2.88" height="44.46" transform="translate(80.26 -14.83) rotate(90.65)"/>
    <rect class="cls-4" x="45.6" y="45.31" width="3.12" height="58.02" transform="translate(122.02 28.01) rotate(90.65)"/>
    <path class="cls-15" d="M20.93,51.39s-4.2-6.54-1.72-16.58c2.49-10.04,6.55-15.03,6.55-15.03,0,0-.98,9.42,3,12.28,0,0,13.97-12.28,32.42-2.96.82.41,1.93.92,2.72,1.51s1.45,1.23,2.13,1.88c0,0,2.95-1.85,3.17-3s1-5.74,1-5.74l-.34-3.17,1.7,2.18,1.51,3.82,1.51,2.9,1.48,5.3.75,3.29.56,3.84-.71,3.93-.77,2.58-.63,2.09-.72,1.51-.49.48-1.85-.62-1.47.36-1.16.45-1.25-1.56s-7.23-13.49-20.18-14.6c-1.37-.12-2.63.11-3.91.35-10.86,1.99-18.51,14.98-18.51,14.98l-2.63-.33-1.4-.02-.75-.13Z"/>
    <path class="cls-15" d="M18.89,53.15c-.71,0-7.64.56-14.63-2.01,0,0-5.55,28.11,17.39,39.09,21.97,10.51,53.38,4.43,61.59-12.9,7.62-16.09,4.44-25.7,4.44-25.7l-11.05,2.16.44,4.01-.59,3.07-.32,15.02-5.58-.06-48.12-.55-4.34-.45.64-13.81-.59-1.68v-2.43s.72-3.75.72-3.75Z"/>
    <path class="cls-4" d="M7.78,49.11l-.57,2.71s9.48,2.38,11.89,1.27l-.19-2.72-.27-.34-10.61-1.15-.25.23Z"/>
    <polygon class="cls-4" points="84.37 49.66 84.58 52.01 76.78 53.56 76.6 50.5 84.37 49.66"/>
    <path class="cls-1" d="M30.61,45.31c.12.05,1.83-.35,1.83-.35l2.13-.91,1.42.67s2.89.11,2.95.03,2-.95,2-.95l1.47-.99.59-.35s.55,1.84.55,1.91,1.16,1.96,1.16,1.96l1.85,1.33,2.67.41,1.66-.54.37-.66-1.9-.81-1.14-.96-.19-1.25s.57-1,.61-1.11,1.04-1.22,1.04-1.22l.42-1.17.22-.64.99,1.54,1.67,2.24,1.39,1.01s1.5.56,1.65.71,1.83.45,1.94.42.62-.14.62-.14l-1.23-.95-.95-.76-.62-.91-.54-1.28-.35-.96-.32-.62,1.46,1.01.75.94,1.36.49,1,.88s1.18.59,1.36.68,1.47.57,1.47.57l1.28.52h.87s-1.78-1.92-1.78-1.92c0,0-8.04-7.03-14.89-6.36-1.56.15-3.18.09-4.52.45-4.54,1.2-7.44,3.5-7.44,3.5l-3.37,2.93-1.53,1.6Z"/>
    <ellipse class="cls-8" cx="59.2" cy="58.23" rx="6.24" ry="6.51" transform="translate(.3 116.76) rotate(-89.35)"/>
    <ellipse class="cls-8" cx="35.95" cy="57.96" rx="6.24" ry="6.51" transform="translate(-22.42 93.25) rotate(-89.35)"/>
    <circle class="cls-6" cx="30.56" cy="85.19" r="3.26"/>
    <circle class="cls-6" cx="59.98" cy="85.52" r="3.26"/>
    <circle class="cls-6" cx="8.86" cy="62.22" r="1.44"/>
    <circle class="cls-6" cx="8.52" cy="57.92" r="1.72"/>
    <circle class="cls-6" cx="12.67" cy="59.51" r="1.01"/>
    <path class="cls-12" d="M5.05,69.41c.11-.05,1.46.02,1.46.02l1.27.18,1.24.55,1.74,1.02,1.12,1.17.72,1.87.33,1.81-.24,1.34-.53,1.89-.82,1.55-.52.56-.98-1.37-2.44-4.2s-1.13-2.74-1.21-2.79-.97-2.79-.97-2.79l-.18-.65"/>
    <path class="cls-8" d="M4.66,68.74l-.98-5.81.72-.1,1.3.43.99.75.54,1.06s.14.97.1,1.11-.39,1.14-.48,1.26-1.38,1.05-1.38,1.05l-.8.25Z"/>
    <path class="cls-8" d="M3.73,57.3l1.36.67.52,1.41s.04,1.21-.05,1.26-.83.92-.83.92l-1.05.52.05-4.78Z"/>
    <path class="cls-8" d="M3.74,56.45l.89-.18.65-.83v-.86s-.12-.8-.14-.91-1.02-.49-1.02-.49l-.55.12.3,3.45"/>
    <circle class="cls-6" cx="82.58" cy="62.68" r="1.44"/>
    <circle class="cls-6" cx="83.03" cy="57.74" r="1.72"/>
    <circle class="cls-6" cx="78.83" cy="59.88" r="1.01"/>
    <path class="cls-12" d="M86.22,69.96c-.11-.06-1.46-.02-1.46-.02l-1.27.15-1.25.52-1.76.98-1.15,1.15-.77,1.85-.37,1.8.21,1.34.49,1.9.78,1.57.51.57,1.01-1.35,2.53-4.14s1.19-2.71,1.27-2.76,1.03-2.77,1.03-2.77l.2-.64"/>
    <path class="cls-8" d="M86.62,69.29l1.11-5.79-.71-.12-1.31.4-1.01.73-.56,1.05s-.17.97-.12,1.1.36,1.15.45,1.27,1.36,1.08,1.36,1.08l.79.27Z"/>
    <path class="cls-8" d="M88.02,58.12l-1.58.4-.55,1.4s-.07,1.21.03,1.26.81.94.81.94l1.03.55.26-4.54Z"/>
    <path class="cls-8" d="M87.83,57.03l-.89-.2-.63-.85v-.86s.15-.8.18-.91,1.03-.46,1.03-.46l.54.13-.04,3.31"/>
    <path class="cls-10" d="M37.9,81.91l-.23.92.1,1.4.65,1.49.93,1.04,1.13.66s1.9.98,2.01,1.06,2.68,1.32,2.68,1.32l.47.14,3.08-1.5,1.41-.66,1.22-.85.98-.88.98-1.04.2-1.13v-1.16s-.46-1.03-.46-1.03l-1.25-1.23h-1.19s-1.81.07-1.81.07l-1.39.87-1.14.72-.68.29-2.38-1.56-1.67-.4-1.37-.12s-1.27.44-1.3.52-.98,1.06-.98,1.06Z"/>
    <path class="cls-4" d="M74.42,52.36c0,.08.98,1.25.98,1.25l1.07.96s.11-1,.13-1.09,0-5.03,0-5.03l-.8,1.19-.92,1.78-.46.95Z"/>
    <path class="cls-11" d="M57.27,71.95c.38.47,2.62,4.05,2.62,4.05l2.34,2.91,3.65,2.46,1.98.5,2.25-.68,1.45-2,.02-1.75-1.23-2.06-1.22-1.63-2.49-2.42-4.18.7-5.18-.06"/>
    <path class="cls-14" d="M37.49,71.72c-.4.47-2.71,3.98-2.71,3.98l-2.4,2.85-3.71,2.38-1.99.45-2.23-.73-1.4-2.03.02-1.75,1.27-2.04,1.26-1.6,2.19-2.06,4.51.5,5.18.06"/>
    <polygon class="cls-4" points="18.84 46.91 20.93 51.43 20.32 52.13 19.02 53.55 18.74 53.54 18.8 47.72 18.84 46.91"/>
    <circle class="cls-8" cx="47.44" cy="58.67" r=".33"/>
  </g>
  <g id="Capa_7" data-name="Capa 7">
    <path class="cls-9" d="M46.82,61.64c1.05-.18,2.08.27,2.67,1.15.7,1.03-.21,2.07-1.3,2.2-1.01.13-2.88.05-3.14-1.2-.2-.92.94-2.01,1.77-2.16ZM47.08,62.1c-.64-.06-.64.53,0,.48v-.48ZM47.68,62.58c.64.06.64-.53,0-.48v.48Z"/>
    <path class="cls-9" d="M46.64,60.03c-.11-.15-.07-.61.29-.46.46.18-.01.84-.29.46Z"/>
    <path class="cls-9" d="M48.2,59.58c.27.29-.38.84-.48.41-.09-.36.37-.54.48-.41Z"/>
    <path class="cls-8" d="M47.08,62.1v.91c-.65.1-.64-1.02,0-.91Z"/>
    <path class="cls-8" d="M47.68,63.02v-.91c.65-.1.64,1.02,0,.91Z"/>
    <g>
      <path class="cls-9" d="M84.65,52.04l3.44-.55c.3,1.64.28,3.28.3,4.93.2,20.31-10.73,34.28-30.87,37.73-9.17,1.57-20.58,1.23-29.52-1.43-14.45-4.29-23-14.9-24.43-29.92-.38-3.97-.3-8.27.56-12.15l3.12,1.11.4-2.77c-.75-.27-4.06-.88-3.99-1.93C9.56,27.25,23.64,5.04,46.6,4.29c15.56-.51,26.59,11.5,33.67,23.95,2.77,4.87,5.6,10.91,7.03,16.33.21.78.7,2.56.58,3.28-.17,1.07-2.65,1.5-3.52,1.8l.28,2.38ZM76.84,50.06c2.5-.19,5.14-.38,7.58-.94.72-.17,2.93-.65,3-1.49.05-.71-.53-2.69-.75-3.47-1.63-5.79-4.74-12.27-7.84-17.42-7.37-12.22-18.23-22.97-33.64-21.85C23.29,6.47,9.89,27.98,4.21,47.04c.04.37,1,.7,1.33.82,1.02.38,2.19.59,3.26.8,3.16.61,6.4.88,9.61,1.1-.06-1.3.13-2.69.05-3.98-.06-1.06-.39-2.13-.44-3.2-.13-2.58.45-4.66.67-7.11.14-1.53-.06-3.18.07-4.72l.18-.18c.39-.12.91.19,1.22-.19.35-.44,1.01-2.39,1.33-3.08,1.02-2.16,2.4-5.28,3.8-7.15.26-.35.55-.84,1.05-.78.22.16-.35,2.77-.39,3.26-.22,2.83.2,5.84,2.12,8,.27.09,2.12.08,2.41,0s1.53-1.06,1.99-1.32c8.62-4.85,22.26-4.69,30.77.35.46.27,1.68,1.28,1.96,1.37.34.11,2.32.15,2.56-.03.12-.08.8-1.13.92-1.34,1.09-1.97,1.36-4.18,1.24-6.41-.06-1.11-.42-2.19-.32-3.31,0-.11.22-.08.3-.07.39.1,1.38,1.82,1.63,2.27,1.54,2.78,2.77,5.93,4,8.87.26.38.85.09,1.22.22l.18.18c.1,1.54-.14,3.19-.04,4.72.17,2.45.7,4.54.51,7.12-.08,1.07-.43,2.13-.51,3.19-.1,1.17.04,2.44-.04,3.62ZM68.6,35.26c-1.68-1.97-3.47-3.93-5.74-5.23-10.77-6.11-27.15-5-35.79,4.28-.25.27-1.35,1.81-1.56,1.76-.54-.12.41-1.18.55-1.35.76-.97,1.7-1.8,2.63-2.59.04-.19-1.08-1.18-1.28-1.43-1.83-2.3-2.11-5.24-1.93-8.09.04-.67.33-1.4.21-2.07-4.35,7.33-8.39,15.93-6.81,24.71.39,2.17,1.09,4.25,2.14,6.18,1.46-.7,3.27-.62,4.67.16.97-1.26,1.73-2.68,2.66-3.97,8.72-12.18,22.9-15.37,34.42-4.6,2.77,2.59,4.72,5.84,6.71,9.04,1.49-.61,3.21-.8,4.69-.04,1.19-1.84,1.91-4.06,2.34-6.21,1.38-6.88-.71-13.39-3.55-19.55-.81-1.75-1.66-3.63-2.77-5.21.61,4.28.23,8.66-3.32,11.54-.04.21,1.44,1.78,1.63,2.13.11.19.14.32.11.54ZM19.22,31.02l-.02,2.02.74-1.95-.71-.07ZM29.88,31.14l-1.3.04c.53.69.82.7,1.3-.04ZM67.1,31.57l-1.3.04.75.53.56-.58ZM76.46,31.67l-.71.05.69,1.96.02-2.02ZM50.92,46.92c-1.32-.16-2.96-1.3-3.04-2.72-.1-1.76,2.36-3.22,2.18-5.4-.04-.46-.37-1.64-.86-1.74-.43-.09-3.1-.09-3.49.03-.62.18-1.76,2.37-1.97,3.02-.95,2.96.7,6.09,3.63,7.07,1.11.37,2.63.59,3.55-.25ZM34.96,43.53c1.88,1.07,3.96.85,5.85-.07.51-.25,1.94-1.15,2.17-1.62s-.01-1.89.47-2.51l1.3-2.21c-.73.26-1.86.22-2.54.58-1.65.88-3.25,4.9-5.53,5.5l-1.73.33ZM57.93,45.1c-1.16-.47-2.12-1.73-2.68-2.83-.63-1.26-.87-3.01-1.92-3.98-.9-.83-2.06-1.08-3.25-1.1.4.7.36,1.45.71,2.18,1.11,2.29,4.17,5.38,6.76,5.82.13.02.41.13.38-.08ZM63.86,44.93c-2.71-3.03-6.19-5.43-10-6.87.86,1.37,2.14,2.32,3.43,3.27,2.02,1.47,4.18,2.82,6.56,3.6ZM40.83,38.26c-1.86.64-3.66,1.68-5.28,2.81-1.31.91-3,2.23-4.03,3.43-.11.13-.29.19-.24.41l3.21-1.03c-1.41-1.56.08-.91,1-.95,2.33-.1,4.09-2.99,5.35-4.67ZM60.28,45.7c-2.53.49-5.15-.46-6.96-2.25l-2.92-3.54c-.14,1.81-2.85,3.28-1.7,5.12.56.9,1.68,1.26,2.66,1.5.14.04,1.37.08.78.52-.18.14-1.35.64-1.62.72-3.41,1.01-7.21-1.73-7.5-5.22-1.83,1.74-4.52,2.59-7.02,2-.32-.07-.9-.42-1.12-.42-.15,0-1.84.71-2.23.83-.55.17-1.35.22-1.82.41-.34.14-.96,1.03-1.23,1.38-.86,1.1-2.68,3.55-3.26,4.72-.07.13-.09.29-.14.43,0,.11.96.43.41.79-2.17-1.41-4.67-1.87-6.64.16-5.07,5.22,1.58,13.71,7.29,9.74.29-.2,1.25-1.35,1.39-1.33,1.92,2.66,3.94,4.55,7.11,5.59,2.58.85,10,2.77,12.46,2.56,1.73-.15,4.27-.77,6.04-1.14,4.02-.85,7.5-1.41,10.4-4.59.28-.31,1.32-1.82,1.58-1.86.65.18.99.9,1.53,1.28,5.12,3.6,11.05-2.89,8.49-8.06-1.3-2.63-4.05-3.9-6.75-2.35l-.15-.04c-.47-.24-2.5-3.82-3.01-4.57-.51-.75-1.05-1.47-1.6-2.19-2.87-.95-5.32-2.38-7.76-4.14-.45-.32-1.41-1.24-1.79-1.42-.06-.03-.2-.02-.18.06.93,2.57,2.28,4.67,5.27,4.87v.45ZM18.9,47.97l-.06,5.04.24.12c.2-.38,1.29-1.13,1.32-1.41l-1.5-3.75ZM76.33,53.96l.06-5.22-1.68,3.5.09.22,1.53,1.5ZM83.84,49.78l-6.86.77c-.33.85.11,1.8-.05,2.71l7.23-1.12-.32-2.36ZM18.37,53.07l.03-2.55s-.12-.28-.2-.3c-3.38-.15-6.77-.57-10.1-1.18l-.51,2.84c3.51.9,7.15,1.24,10.77,1.19ZM76.37,75.9l-5.16-.06c1.43,3.17-.35,6.24-3.93,6.01-3.12-.2-5.36-3.31-7.28-5.43l-.47-.13-24.66-.27c-.36.06-2.22,2.31-2.7,2.75-.85.8-2.19,1.89-3.28,2.28-4.11,1.44-7.33-1.73-5.45-5.76l-5.16-.06-.18-.41.17-14.47c-.46-1.33-.69-2.6-.53-4.02.11-.95.64-1.75.61-2.68-4.71-.12-9.5-.54-13.9-2.29l-.32,1.54c2.24.45,2.02,3.58-.27,3.68-.17.64.33.45.78.69,2.09,1.11,1.69,4.25-.59,4.77l-.02.46c3.5-.35,4.99,4.05,1.91,5.98-.34.21-.9.14-.8.68,6.6-.14,9.8,5.09,6.69,10.99-.17.31-.73.91-.65,1.21.14.55,3.39,3.62,4.03,4.16,10.41,8.75,27.51,10.23,40.54,8.39,9.08-1.28,18.02-4.88,23.99-12.04.07-.08.03-.15.01-.24-.08-.29-.81-1.33-1.02-1.83-2.34-5.59,1.42-10.35,7.28-9.95.51-.46-.29-.45-.71-.7-3.1-1.88-1.35-6.54,2.17-5.93.29-.57-.4-.45-.86-.74-2.05-1.29-1.25-4.74,1.28-4.71v-.47c-2.66.1-2.74-3.69-.07-3.68-.1-.31-.02-1.46-.29-1.53l-10.74,1.64c-.2,1.09.45,2,.54,3.04.13,1.38-.26,2.7-.62,4.01l-.16,14.71-.19.41ZM87.82,54.09c-1.91.02-1.99,2.61-.09,2.73.25.02.15,0,.18-.17.05-.31.02-2.44-.09-2.55ZM4,56.1c1.19-.13,1.71-1.72.73-2.42-.65-.46-.65-.02-.71.58s.02,1.24-.02,1.84ZM87.89,58.24c-1.92.04-2.66,2.61-1.1,3.71.66.47.85.5.94-.34.12-1.1.14-2.27.16-3.38ZM3.86,57.52l.07,3.62.06.41c1.97-.78,1.97-3.53-.14-4.03ZM18.76,61.01l-.16,13.75,5.21.06,1.44-1.88-4.39-.05.11-9.66c-.84-.65-1.54-1.41-2.23-2.22ZM76.08,75.42l.16-13.75c-.58.64-1.1,1.29-1.81,1.81-.17.12-.47.41-.47.43l-.11,9.59-4.39-.05,1.4,1.91,5.21.06ZM87.48,63.69c-3.54-.46-4.54,4.24-1.18,5.32l1.18-5.32ZM4.92,68.21c3.34-.55,2.62-5.51-.77-5.23l.77,5.23ZM37.59,72.49l19.56.22c-.25-.44-.71-1.05.13-.77,2.49,2.96,6.5,10.04,11.04,9.38,1.29-.19,2.46-1.13,2.81-2.4,1-3.57-4.73-7.68-7.27-9.43-1.14-.79-2.3-1.54-3.54-2.17-1.55.39-3.1.83-4.67,1.17-2.54.55-6.95,1.64-9.41,1.34-2.11-.26-4.95-1.02-7.07-1.53-1.56-.37-3.1-.85-4.64-1.28-3.36,1.95-9.58,5.41-10.92,9.22-.84,2.41.73,4.63,3.26,4.67,4.2.06,8.08-6.3,10.53-9.14,1.15-.48.12.68.18.72ZM85.86,70.32c-6.51-.33-9.28,5.73-5.81,10.96.18.13.91-.94,1.06-1.14,2.13-2.85,3.85-6.4,4.76-9.82ZM5.38,69.64c1,4.05,2.87,7.89,5.38,11.2,3.9-4.99,1.17-11.44-5.38-11.2ZM59.36,75.82c.05-.19-.04-.28-.11-.42-.13-.26-1.57-2.14-1.72-2.19l-20.24-.25c-.52.09-1.69,2.05-2.11,2.52l24.18.34Z"/>
      <path class="cls-9" d="M40.08,80.11c2.12-.29,3.86.88,5.52,2.01,1.78-1.14,3.82-2.45,6.03-1.76.97.3,1.94,1.41,2.07,2.43.59,4.68-4.9,5.65-8.02,7.38l-.27.03c-3.09-1.79-8.63-2.91-7.93-7.59.18-1.2,1.4-2.34,2.6-2.5ZM40.08,80.58c-1.72.24-2.45,2.1-2.12,3.65.67,3.08,5.17,4,7.46,5.49,1.12-.52,2.3-.96,3.41-1.5,2.24-1.08,5.26-2.61,4.32-5.71-1.04-3.39-5.77-1.41-7.56.24-1.56-1.24-3.41-2.46-5.52-2.17Z"/>
      <path class="cls-9" d="M58.43,51.3c9.18-.94,10.13,12.85,1.35,13.5-8.91.66-9.88-12.63-1.35-13.5ZM60.18,53.68c-1.35.18-1.57,2.25-.15,2.56,2.04.44,2.11-2.82.15-2.56ZM53.31,55.84c-1.59,4.63,2.26,9.28,7.14,8.33,4.02-.79,6.05-5.07,4.48-8.79-.21-.03-.12.27-.11.4.72,8.76-11.15,8.84-11.49,1.04-.01-.28.27-.83-.02-.97Z"/>
      <path class="cls-9" d="M35.2,51.04c9.18-.94,10.13,12.85,1.35,13.5s-9.88-12.63-1.35-13.5ZM42.27,57.25c-.23.04-.2.25-.25.41-2.5,8.08-12.76,4.51-11.29-2.44.12-.56.38-1,.56-1.53-3.18,3.57-1.25,9.23,3.42,10.2,4.18.87,7.75-2.46,7.57-6.64ZM37.06,53.89c-1.35.18-1.55,2.25-.15,2.56,2.04.44,2.11-2.82.15-2.56Z"/>
      <path class="cls-9" d="M24.96,54.94c.07.13.01.31.02.45-.5-.18-.9-.58-1.48-.61-2.97-.2-3.21,5.53.41,5.1.4-.05.99-.41,1.22-.43.16-.01.31.13.27.28-1.65,1.11-3.89.65-4.45-1.39s.66-4.31,3-3.88c.18.03.95.38,1,.48Z"/>
      <path class="cls-9" d="M69.62,59.93c.99.36,2.06.85,3.07.21,2.11-1.34,1.07-5.58-1.75-4.67-.17.06-.86.61-.92.25s.98-.71,1.26-.74c3.8-.48,3.84,5.97.16,5.93-.29,0-2.26-.53-1.83-.98Z"/>
    </g>
    <path class="cls-5" d="M59.2,49.14c-2.58-.06-4.86,1.05-6.44,3.07"/>
    <path class="cls-5" d="M36.55,48.86c2.58,0,4.84,1.16,6.37,3.22"/>
  </g>
</svg>