<?xml version="1.0" encoding="UTF-8"?>
<svg id="Capa_2" data-name="Capa 2" xmlns="http://www.w3.org/2000/svg" viewBox="0 0 336.8 88.87">
  <defs>
    <style>
      .cls-1 {
        fill: #ec641d;
      }

      .cls-2 {
        fill: #ec6526;
      }

      .cls-3 {
        fill: #34648a;
      }
    </style>
  </defs>
  <g id="Capa_2-2" data-name="Capa 2">
    <g>
      <path class="cls-3" d="M208.27.1c-6.21,0-7.71,2.41-7.99,10.35l-.1,2.96c-.03.7-.55,1.28-1.2,1.28s-1.17-.58-1.2-1.28l-.1-2.96c-.27-7.93-1.78-10.35-7.99-10.35-.65,0-1.34.04-2.09.07v17.37h3.26V3.65c2.37,0,3.33,1.06,3.46,4.72l.1,3c.14,3.55,1.03,6.55,4.56,6.55s4.42-3,4.56-6.55l.1-3c.14-3.66,1.1-4.72,3.46-4.72v13.89h3.26V.17c-.75-.04-1.44-.07-2.09-.07"/>
      <path class="cls-3" d="M6.58,3.27c1.61,0,2.9,1.26,2.9,2.84s-1.29,2.84-2.9,2.84-2.9-1.27-2.9-2.84,1.29-2.84,2.9-2.84M3.68,11.2c.9.61,1.84.88,3.21.88,3.14,0,6.15-2.34,6.15-5.94C13.04,2.73,10.22.01,6.73.01S0,2.35,0,6.52v11.77h12.54v-3.45H3.68v-3.64Z"/>
      <path class="cls-3" d="M298.08,42.55c-2.08,0-3.77-1.68-3.77-3.85s1.69-3.78,3.77-3.78,3.73,1.65,3.73,3.78-1.69,3.85-3.73,3.85M298.01,31.83c-4.01,0-7.07,2.99-7.07,7.28v14.36h3.34v-9.1c1.23.89,2.75,1.27,4.08,1.27,3.84,0,6.79-2.95,6.79-6.9s-3.13-6.9-7.14-6.9"/>
      <path class="cls-3" d="M196.94,68.39c-1.9.03-4.43.55-6.05,2.08v-4.36h-3.29v17.81h9.17v-2.93h-5.88v-4.75c0-2.54,1.56-4.75,6.05-4.75v-3.09h0Z"/>
      <path class="cls-3" d="M106.21,73.29c0-2.47,1.47-3.79,3.55-3.79,1.6,0,2.97.83,3.76,3.09l3-1.42c-1.23-3.2-3.82-4.79-6.73-4.79-4.37,0-6.83,2.74-6.83,6.67v15.21h13.08v-6.6h-2.9v3.47h-6.93s0-11.84,0-11.84Z"/>
      <path class="cls-3" d="M297.6,11.25c-2.08,0-3.74-1.51-3.74-3.78s1.66-3.92,3.74-3.92,3.78,1.65,3.78,3.92-1.7,3.78-3.78,3.78M297.6.47c-3.85,0-7.04,3.09-7.04,6.9v14.74h3.29v-8.9c1.07.82,2.36,1.17,3.74,1.17s2.67-.38,3.78-1.2v8.93h3.29V7.37c0-3.81-3.22-6.9-7.07-6.9"/>
      <path class="cls-3" d="M11.17,76.07H3.43v-2.85c0-2.44,1.53-3.74,3.69-3.74,1.67,0,3.09.82,3.91,3.06l3.13-1.41c-1.28-3.16-3.98-4.74-7-4.74-4.55,0-7.11,2.71-7.11,6.59v15.04h13.25v-3.09H3.43v-5.77h7.03l.71-3.09Z"/>
      <path class="cls-3" d="M3.32,38.35c0-2.44,1.48-3.74,3.57-3.74,1.61,0,2.99.82,3.78,3.06l3.02-1.41c-1.24-3.16-3.85-4.74-6.77-4.74C2.52,31.52.05,34.23.05,38.11v15.04h3.26v-7.83h6.77l.69-3.09H3.32v-3.88Z"/>
      <path class="cls-3" d="M125.85,31.52c-6.46,0-9.08,1.98-9.22,10.43l-.1,6.94c0,.92-.66,1.44-1.47,1.44s-1.47-.51-1.47-1.44l-.11-6.94c-.14-8.44-2.76-10.43-9.22-10.43h-1.29v21.54h3.32v-18.36c2.73,0,3.91,1.54,3.91,9.3v2.7c0,3.32.73,6.66,4.86,6.7,4.12-.03,4.85-3.38,4.85-6.7v-2.7c0-7.76,1.19-9.3,3.91-9.3v18.36h3.32v-21.54h-1.29Z"/>
      <path class="cls-3" d="M113.44,18.82c-3.92,0-7.14-2.99-7.14-7.88,0-1.14.17-2.2.52-3.16,1.93,1.41,4.24,2.23,6.62,2.23s4.73-.83,6.65-2.23c.35.93.52,1.99.52,3.16,0,4.89-3.11,7.88-7.18,7.88M113.44,3.1c1.96,0,3.71.72,5.04,2.03-1.33,1.1-3.29,1.72-5.04,1.72s-3.64-.62-4.97-1.69c1.26-1.31,2.98-2.07,4.97-2.07M113.44.01c-5.85,0-10.47,4.54-10.47,10.93s4.69,10.97,10.47,10.97,10.5-4.26,10.5-10.97C123.94,4.68,119.36.01,113.44.01"/>
      <path class="cls-3" d="M293.9,73.31c0-2.15,1.67-3.82,3.73-3.82s3.69,1.67,3.69,3.82-1.67,3.89-3.69,3.89-3.73-1.7-3.73-3.89M302.68,78.18c1.22-1.25,1.95-2.92,1.95-4.83,0-3.93-3.1-6.98-7.07-6.98s-7,3.02-7,7.36v14.52h3.31v-9.2c1.15.9,2.4,1.28,3.69,1.28.84,0,1.67-.14,2.4-.42,1.15,2.4,1.39,4.9,1.39,7.95v.38h3.31v-.38c0-3.68-.38-6.84-1.98-9.69"/>
      <path class="cls-3" d="M191.42,38.55c0-2.2,1.13-3.36,3.05-3.36,1.41,0,2.74.67,3.29,3.03l3.52-1.46c-1.1-3.51-3.87-4.92-7.08-4.92-3.6,0-6.57,2.13-6.57,6.27v11.5l-.04.04h13.07v-3.36h-9.23v-7.73h-.01Z"/>
      <path class="cls-2" d="M220.73,3.61c1.56,0,2.83.52,3.81,1.55s1.47,2.32,1.47,3.85v8.42h3.45v-8.42c0-1.54.49-2.82,1.48-3.85.98-1.03,2.27-1.55,3.85-1.55v13.82h3.45V.15h-1.73c-2.04,0-3.7.27-5,.81-1.29.54-2.55,1.6-3.78,3.19-1.22-1.58-2.48-2.65-3.76-3.19-1.28-.54-2.96-.81-5.02-.81h-1.69v17.28h3.45V3.61s.02,0,.02,0Z"/>
      <path class="cls-1" d="M33.35,3.48h5.9v1.22c0,.94-.25,1.7-.74,2.27s-1.24.86-2.23.86c-.81,0-1.5-.25-2.08-.76-.57-.51-.86-1.29-.86-2.36v-1.22h0ZM43.02,18.29v-3.47h-9.64v-4.53c.96.58,2.02.88,3.16.88h.38c1.65,0,3.07-.59,4.25-1.77s1.77-2.6,1.77-4.25V.01h-13.25l.04,18.28s13.29,0,13.29,0Z"/>
      <path class="cls-1" d="M323.92,34.75h8.3c-.14,2.36-.88,4.16-2.22,5.4s-3.37,1.95-6.08,2.14v-7.54ZM320.55,31.59v21.88h3.37v-8.3h1.74c6.67-.56,10-4.49,10-11.81v-1.77h-15.11Z"/>
    </g>
    <polygon class="cls-1" points="223.91 69.48 223.91 66.35 220.45 66.35 220.45 69.48 217.28 69.48 217.28 72.68 220.45 72.68 220.45 84.15 223.91 84.15 223.91 72.68 227.07 72.68 227.07 69.48 223.91 69.48"/>
    <polygon class="cls-1" points="31.99 43.39 39.49 43.39 40.25 39.98 31.99 39.98 31.99 39.95 31.99 36.85 31.99 34.92 42.52 34.92 42.52 31.52 31.99 31.52 28.42 31.52 28.42 34.92 28.42 36.57 28.42 39.95 28.42 53.16 31.99 53.16 31.99 43.39"/>
    <g>
      <path class="cls-1" d="M331.01,4.45c.53-.21,1.07-.36,1.63-.45v4.92h-6.45c1.02-2.13,2.62-3.62,4.82-4.47M334.44.47h-.07c-.97,0-1.95.09-2.95.28-2.43.46-4.38,1.36-5.86,2.69-1.48,1.33-2.62,3.28-3.42,5.86-.8,2.58-1.3,5.96-1.51,10.14-.02.88-.03,1.77-.03,2.67h3.68v-2.67c.09-2.17.28-4.17.56-6,.05-.28.12-.66.21-1.14h7.52v9.81h3.64V.47h-1.77,0Z"/>
      <path class="cls-1" d="M324.35,69.92h8.49c-.16,2.5-.92,4.44-2.28,5.81-1.36,1.37-3.43,2.21-6.2,2.53v-8.33h0ZM336.8,69.09c0-.37-.01-.62-.04-.75v-1.98h-16.21v22.51h3.8v-7.27h1c2.21-.1,4.28-.71,6.2-1.82.93,2.4,1.4,4.9,1.4,7.5v1.58h3.8v-.55c.03-.37.04-.74.04-1.11,0-3.55-.77-6.94-2.32-10.15,1.55-2.42,2.32-5.08,2.32-7.98"/>
      <path class="cls-1" d="M147.33,4.88c.65.72,1.15,1.54,1.47,2.45.31.92.46,1.85.46,2.81v.13c0,2.27-.63,4.07-1.88,5.41-1.26,1.34-2.83,2.01-4.73,2.01s-3.45-.68-4.71-2.03c-1.27-1.35-1.9-3.15-1.9-5.4v-.07c0-1,.16-1.96.49-2.88.35-.92.85-1.74,1.51-2.49,1.22-1.29,2.73-1.93,4.52-1.93h.13c1.79,0,3.32.63,4.58,1.9.02.02.04.06.07.1v-.03.02h-.01ZM149.69,2.9c-1.77-1.93-4.11-2.9-7.04-2.9s-5.27.96-7.04,2.88-2.65,4.38-2.65,7.39.94,5.43,2.82,7.39c1.88,1.96,4.17,2.94,6.87,2.94s5.03-.95,6.89-2.85c1.87-1.9,2.8-4.39,2.8-7.49s-.88-5.45-2.65-7.38"/>
      <path class="cls-1" d="M141.35,40.15c1,3.07,1.49,7.35,1.49,12.83v.42h3.09v-.42c0-5.48.5-9.76,1.49-12.83s2.66-4.85,5.01-5.35v18.6h3.34v-21.88h-1.65c-2.51,0-4.61.76-6.31,2.28s-2.84,3.52-3.43,6.02c-.59-2.49-1.73-4.5-3.42-6.02-1.7-1.52-3.8-2.28-6.31-2.28h-1.65v21.88h3.34v-18.6c2.34.49,4.01,2.28,5.01,5.35"/>
    </g>
    <polygon class="cls-1" points="32.14 69.78 43.02 69.78 43.02 66.38 32.14 66.38 28.4 66.38 28.4 69.78 28.4 71.43 28.4 74.8 28.4 88.02 43.02 88.02 43.02 84.59 32.14 84.59 32.14 78.23 39.89 78.23 40.67 74.83 32.14 74.83 32.14 74.8 32.14 71.71 32.14 69.78"/>
    <path class="cls-1" d="M226.24,46.19c-11.53-1.33-1.84-17.59,4.81-8.03l2.48-2.52c-4.55-7.07-16.46-3.44-16.26,5-.38,8.54,11.59,12.28,16.26,5.21l-2.52-2.52c-.94,1.72-2.78,2.87-4.77,2.85"/>
    <path class="cls-1" d="M139.78,85.13c-5.36.19-2.94-9.15-3.45-12.13-.04-4.46,6.82-4.47,7.49-.35l2.91-1.4c-2.01-6.98-13.84-6.25-13.71,1.5,0,0,0,9.17,0,9.17-.12,7.76,11.84,8.46,13.85,1.5-1.03-.51-2.03-.97-2.91-1.44-.35,1.96-2.26,3.19-4.18,3.13"/>
  </g>
</svg>