<?xml version="1.0" encoding="UTF-8"?>
<svg id="Capa_2" data-name="Capa 2" xmlns="http://www.w3.org/2000/svg" viewBox="0 0 249.41 23.23">
  <defs>
    <style>
      .cls-1 {
        fill: #916237;
      }
    </style>
  </defs>
  <g id="Capa_1-2" data-name="Capa 1">
    <g>
      <path class="cls-1" d="M13.43,23.23L0,0h6.17l9.4,16.79L24.54,0h5.38l-12.77,23.23h-3.73Z"/>
      <path class="cls-1" d="M36.23,23.23V0h23.77v3.96h-18.37v5.19h10.72v3.96h-10.72v5.76h18.59v4.37h-23.99Z"/>
      <path class="cls-1" d="M70.2,23.23V0h5.45v9.69L88.53,0h7.82l-15.38,10.94,17.27,12.28h-8.68l-13.91-10.22v10.22h-5.45Z"/>
      <path class="cls-1" d="M115.14,4.15v19.07h-5.41V4.15h-10.66V0h26.76v4.15h-10.7Z"/>
      <path class="cls-1" d="M131.97,5.49c0-2.11.4-3.55,1.19-4.33s2.31-1.16,4.57-1.16h17.09c2.26,0,3.78.39,4.57,1.16s1.19,2.22,1.19,4.33v12.24c0,2.12-.4,3.57-1.19,4.34-.79.77-2.31,1.15-4.57,1.15h-17.09c-2.26,0-3.78-.38-4.57-1.15-.79-.77-1.19-2.22-1.19-4.34V5.49ZM137.37,18.85h17.82V4.15h-17.82v14.7Z"/>
      <path class="cls-1" d="M171.96,23.23V0h19.86c1.85,0,3.18.36,4.01,1.07.83.71,1.24,1.86,1.24,3.44v5.45c0,1.57-.41,2.71-1.24,3.43-.83.72-2.16,1.08-4.01,1.08h-3.03l10.72,8.77h-7.76l-9.36-8.77h-5.12v8.77h-5.32ZM189.42,4.02h-12.15v6.46h12.15c.94,0,1.58-.14,1.92-.41.34-.27.52-.75.52-1.44v-2.79c0-.67-.17-1.15-.52-1.42-.34-.27-.99-.41-1.92-.41Z"/>
      <path class="cls-1" d="M204.26,13.56v-4.64h10.48v4.64h-10.48Z"/>
      <path class="cls-1" d="M219.35,23.23l11.01-11.93-11.21-11.29h7.16l7.43,7.89,7.05-7.89h6.22l-10.13,10.68,12.52,12.55h-7.34l-8.5-9.01-7.84,9.01h-6.37Z"/>
    </g>
  </g>
</svg>